<svg width="31" height="31" viewBox="0 0 31 31" fill="none" xmlns="http://www.w3.org/2000/svg">
<path d="M30.6555 0.945312H7.90863V7.90863H0.945312V30.6555H23.6921V23.6921H30.6555V0.945312ZM21.9513 28.9146H2.68614V9.64946H21.9513V28.9146ZM9.64946 7.90863V6.1678H25.433V21.9513H23.6921V7.90863H9.64946ZM28.9146 21.9513H27.1738V4.42697H9.64946V2.68614H28.9146V21.9513Z" fill="black"/>
<path fill-rule="evenodd" clip-rule="evenodd" d="M30.8008 0.800781V23.8375H23.8375V30.8008H0.800781V7.7641H7.7641V0.800781H30.8008ZM7.90902 0.945709H30.6559V23.6925H23.6925V30.6559H0.945709V7.90902H7.90902V0.945709ZM9.64985 7.90902V6.16819H25.4334V21.9517H23.6925V7.90902H9.64985ZM23.8375 21.8068V7.7641H9.79478V6.31312H25.2884V21.8068H23.8375ZM9.64985 4.42737V2.68654H28.915V21.9517H27.1742V4.42737H9.64985ZM27.3191 21.8068V4.28244H9.79478V2.83147H28.7701V21.8068H27.3191ZM2.83147 28.7701H21.8068V9.79478H2.83147V28.7701ZM21.9517 28.915V9.64985H2.68654V28.915H21.9517Z" fill="black"/>
<path d="M16.2056 26.0132L20.0918 19.282L16.2056 12.5508H8.4331L4.54688 19.282L8.4331 26.0132H16.2056ZM9.43814 14.2916H15.2005L18.0817 19.282L15.2005 24.2724H9.43814L6.55695 19.282L9.43814 14.2916Z" fill="black"/>
<path fill-rule="evenodd" clip-rule="evenodd" d="M16.2887 26.1585H8.3488L4.37891 19.2824L8.3488 12.4062H16.2887L20.2586 19.2824L16.2887 26.1585ZM20.0912 19.2824L16.205 12.5512H8.43248L4.54625 19.2824L8.43248 26.0136H16.205L20.0912 19.2824ZM9.52119 14.4369L6.72368 19.2824L9.52119 24.1278H15.1162L17.9137 19.2824L15.1162 14.4369H9.52119ZM15.1999 14.292H9.43752L6.55633 19.2824L9.43752 24.2728H15.1999L18.0811 19.2824L15.1999 14.292Z" fill="black"/>
</svg>
