<svg width="30" height="31" viewBox="0 0 30 31" fill="none" xmlns="http://www.w3.org/2000/svg">
<path d="M14.9999 30.594H0.148438V15.3712C0.148438 11.3051 1.69328 7.48231 4.4983 4.60704C7.30343 1.7319 11.033 0.148438 14.9999 0.148438C18.9669 0.148438 22.6964 1.7319 25.5015 4.60704C28.3066 7.48231 29.8514 11.3051 29.8514 15.3712C29.8514 19.4374 28.3066 23.2601 25.5015 26.1354C22.6964 29.0105 18.9669 30.594 14.9999 30.594ZM1.88885 28.8101H14.9999C18.502 28.8101 21.7945 27.4122 24.2708 24.8739C26.7472 22.3356 28.111 18.9609 28.111 15.3712C28.111 11.7815 26.7472 8.40679 24.2708 5.86851C21.7945 3.33023 18.502 1.93236 14.9999 1.93236C11.4978 1.93236 8.20537 3.33023 5.729 5.86851C3.25263 8.40679 1.88885 11.7815 1.88885 15.3712V28.8101Z" fill="black"/>
<path fill-rule="evenodd" clip-rule="evenodd" d="M0 30.7426V15.3713C0 11.2669 1.55962 7.40679 4.39207 4.50341C7.22475 1.60003 10.9924 0 15 0C19.0076 0 22.7752 1.60003 25.6079 4.50341C28.4404 7.40678 30 11.2669 30 15.3713C30 19.4757 28.4404 23.3358 25.6079 26.2392L25.5016 26.1355C28.3066 23.2602 29.8515 19.4374 29.8515 15.3713C29.8515 11.3051 28.3066 7.48238 25.5016 4.60712C22.6965 1.73198 18.967 0.148515 15 0.148515C11.033 0.148515 7.30351 1.73198 4.49838 4.60712C1.69336 7.48238 0.148515 11.3051 0.148515 15.3713V30.5941H15C18.967 30.5941 22.6965 29.0106 25.5016 26.1355L25.6079 26.2392C22.7752 29.1425 19.0076 30.7426 15 30.7426H0ZM2.03744 28.6616H15C18.4615 28.6616 21.7158 27.2803 24.1646 24.7703C26.6136 22.2601 27.9626 18.9227 27.9626 15.3713C27.9626 11.8198 26.6136 8.48246 24.1646 5.9723C21.7158 3.46227 18.4615 2.08095 15 2.08095C11.5385 2.08095 8.2842 3.46227 5.83538 5.9723C3.38644 8.48246 2.03744 11.8198 2.03744 15.3713V28.6616ZM15 28.8101C18.5021 28.8101 21.7946 27.4123 24.2709 24.874C26.7473 22.3357 28.1111 18.9609 28.1111 15.3713C28.1111 11.7816 26.7473 8.40687 24.2709 5.86859C21.7946 3.33031 18.5021 1.93243 15 1.93243C11.4979 1.93243 8.20545 3.33031 5.72908 5.86859C3.25271 8.40687 1.88892 11.7816 1.88892 15.3713V28.8101H15Z" fill="black"/>
<path d="M14.9974 25.242H5.36719V15.371C5.36719 9.9281 9.68729 5.5 14.9974 5.5C20.3076 5.5 24.6277 9.9281 24.6277 15.371C24.6277 20.8139 20.3076 25.242 14.9974 25.242ZM7.1076 23.4581H14.9974C19.3479 23.4581 22.8873 19.8303 22.8873 15.371C22.8873 10.9118 19.3479 7.28392 14.9974 7.28392C10.6469 7.28392 7.1076 10.9118 7.1076 15.371V23.4581Z" fill="black"/>
<path fill-rule="evenodd" clip-rule="evenodd" d="M5.21875 25.3906V15.3711C5.21875 9.84964 9.60191 5.35156 14.9975 5.35156C20.3931 5.35156 24.7763 9.84964 24.7763 15.3711C24.7763 20.8926 20.3931 25.3906 14.9975 25.3906H5.21875ZM7.25619 23.3097H14.9975C19.2626 23.3097 22.7389 19.7518 22.7389 15.3711C22.7389 10.9904 19.2626 7.43251 14.9975 7.43251C10.7325 7.43251 7.25619 10.9904 7.25619 15.3711V23.3097ZM14.9975 23.4582C19.348 23.4582 22.8874 19.8304 22.8874 15.3711C22.8874 10.9118 19.348 7.284 14.9975 7.284C10.647 7.284 7.10767 10.9118 7.10767 15.3711V23.4582H14.9975ZM14.9975 25.2421C20.3077 25.2421 24.6278 20.814 24.6278 15.3711C24.6278 9.92818 20.3077 5.50008 14.9975 5.50008C9.68737 5.50008 5.36726 9.92818 5.36726 15.3711V25.2421H14.9975Z" fill="black"/>
<path d="M15.0027 20.9394C12.1365 20.9394 9.80469 18.441 9.80469 15.3701C9.80469 12.2991 12.1365 9.80078 15.0027 9.80078C17.8689 9.80078 20.2007 12.2991 20.2007 15.3701C20.2007 18.441 17.8689 20.9394 15.0027 20.9394ZM15.0027 11.377C12.9477 11.377 11.2758 13.1683 11.2758 15.3701C11.2758 17.5719 12.9477 19.3632 15.0027 19.3632C17.0577 19.3632 18.7296 17.5719 18.7296 15.3701C18.7296 13.1683 17.0577 11.377 15.0027 11.377Z" fill="black"/>
<path fill-rule="evenodd" clip-rule="evenodd" d="M15.0028 21.088C12.0451 21.088 9.65625 18.5133 9.65625 15.3702C9.65625 12.227 12.0451 9.65234 15.0028 9.65234C17.9605 9.65234 20.3493 12.227 20.3493 15.3702C20.3493 18.5133 17.9605 21.088 15.0028 21.088ZM15.0028 11.5256C13.0393 11.5256 11.4244 13.2406 11.4244 15.3702C11.4244 17.4998 13.0393 19.2147 15.0028 19.2147C16.9663 19.2147 18.5812 17.4998 18.5812 15.3702C18.5812 13.2406 16.9663 11.5256 15.0028 11.5256ZM9.80476 15.3702C9.80476 18.4411 12.1366 20.9395 15.0028 20.9395C17.869 20.9395 20.2008 18.4411 20.2008 15.3702C20.2008 12.2992 17.869 9.80086 15.0028 9.80086C12.1366 9.80086 9.80476 12.2992 9.80476 15.3702ZM11.2759 15.3702C11.2759 13.1683 12.9478 11.3771 15.0028 11.3771C17.0578 11.3771 18.7297 13.1683 18.7297 15.3702C18.7297 17.572 17.0578 19.3633 15.0028 19.3633C12.9478 19.3633 11.2759 17.572 11.2759 15.3702Z" fill="black"/>
</svg>
