<svg width="30" height="30" viewBox="0 0 30 30" fill="none" xmlns="http://www.w3.org/2000/svg">
<g clip-path="url(#clip0_957_1298)">
<path d="M29.6568 14.1714L15.8287 0.343256C15.371 -0.114419 14.629 -0.114419 14.1714 0.343256L0.343256 14.1714C-0.114419 14.629 -0.114419 15.371 0.343256 15.8286L6.97184 22.4572C7.42957 22.9149 8.17142 22.9149 8.6291 22.4573L15 16.0871L21.3709 22.4573C21.8233 22.9096 22.5658 22.9196 23.0282 22.4572L29.6568 15.8286C30.1144 15.371 30.1144 14.629 29.6568 14.1714ZM25.5139 16.657L19.9719 11.1156L21.6293 9.45843L27.1708 15L25.5139 16.657ZM22.1995 19.9714C21.611 19.3829 17.2578 15.0302 16.6574 14.4299L18.3146 12.7729L23.8565 18.3143L22.1995 19.9714ZM16.6577 4.48682L4.48612 16.657L2.82915 15L15 2.82921L16.6577 4.48682ZM7.80053 19.9714L6.14344 18.3143L18.3149 6.14408L19.972 7.80117C19.353 8.42015 8.45056 19.3214 7.80053 19.9714Z" fill="black"/>
<path d="M15.827 19.7612C15.3694 19.3036 14.6274 19.3036 14.1699 19.7612L10.0502 23.8801C9.59277 24.3374 9.59253 25.0799 10.0501 25.5375L14.1698 29.6571C14.6273 30.1147 15.3695 30.1148 15.827 29.6571L19.9467 25.5375C20.4041 25.0801 20.4044 24.3377 19.9466 23.8801L15.827 19.7612ZM14.9984 27.1712L12.5361 24.7089L14.9984 22.247L17.4607 24.7089L14.9984 27.1712Z" fill="black"/>
</g>
<defs>
<clipPath id="clip0_957_1298">
<rect width="30" height="30" fill="white"/>
</clipPath>
</defs>
</svg>
