<svg width="30" height="30" viewBox="0 0 30 30" fill="none" xmlns="http://www.w3.org/2000/svg">
<path d="M18.931 21.9919H11.0682C5.04485 21.9919 0.144531 17.0916 0.144531 11.0682C0.144531 5.04485 5.04485 0.144531 11.0682 0.144531H29.8547V6.26645H11.0682C8.42049 6.26645 6.26645 8.42049 6.26645 11.0682C6.26645 13.716 8.42049 15.87 11.0682 15.87H18.931C20.6188 15.87 21.9919 17.2432 21.9919 18.931C21.9919 20.6188 20.6188 21.9919 18.931 21.9919ZM11.0682 1.88536C6.00474 1.88536 1.88536 6.00474 1.88536 11.0682C1.88536 16.1317 6.00474 20.2511 11.0682 20.2511H18.931C19.6589 20.2511 20.2511 19.6589 20.2511 18.931C20.2511 18.2031 19.6589 17.6108 18.931 17.6108H11.0682C7.4606 17.6108 4.52562 14.6759 4.52562 11.0682C4.52562 7.4606 7.4606 4.52562 11.0682 4.52562H28.1138V1.88536H11.0682Z" fill="black"/>
<path fill-rule="evenodd" clip-rule="evenodd" d="M30 0V6.41177H11.0686C8.50093 6.41177 6.41177 8.50093 6.41177 11.0686C6.41177 13.6363 8.50093 15.7255 11.0686 15.7255H18.9314C20.6992 15.7255 22.1373 17.1635 22.1373 18.9314C22.1373 20.6992 20.6992 22.1373 18.9314 22.1373H11.0686C4.9652 22.1373 0 17.1721 0 11.0686C0 4.9652 4.9652 0 11.0686 0H30ZM11.0686 2.03068C6.08518 2.03068 2.03068 6.08518 2.03068 11.0686C2.03068 16.0521 6.08518 20.1066 11.0686 20.1066H18.9314C19.5792 20.1066 20.1066 19.5792 20.1066 18.9314C20.1066 18.2835 19.5792 17.7562 18.9314 17.7562H11.0686C7.38095 17.7562 4.38109 14.7563 4.38109 11.0686C4.38109 7.38095 7.38095 4.38109 11.0686 4.38109H27.9693V2.03068H11.0686ZM11.0686 1.88576C6.00514 1.88576 1.88576 6.00514 1.88576 11.0686C1.88576 16.1321 6.00514 20.2515 11.0686 20.2515H18.9314C19.6593 20.2515 20.2515 19.6593 20.2515 18.9314C20.2515 18.2035 19.6593 17.6112 18.9314 17.6112H11.0686C7.46099 17.6112 4.52601 14.6763 4.52601 11.0686C4.52601 7.46099 7.46099 4.52601 11.0686 4.52601H28.1142V1.88576H11.0686ZM11.0686 21.9923H18.9314C20.6192 21.9923 21.9923 20.6192 21.9923 18.9314C21.9923 17.2436 20.6192 15.8704 18.9314 15.8704H11.0686C8.42089 15.8704 6.26684 13.7164 6.26684 11.0686C6.26684 8.42089 8.42089 6.26684 11.0686 6.26684H29.8551V0.144928H11.0686C5.04524 0.144928 0.144928 5.04524 0.144928 11.0686C0.144928 17.092 5.04524 21.9923 11.0686 21.9923Z" fill="black"/>
<path d="M18.931 29.8552H0.144531V23.7333H18.931C21.5787 23.7333 23.7328 21.5793 23.7328 18.9315C23.7328 16.2838 21.5787 14.1297 18.931 14.1297H11.0682C9.38044 14.1297 8.00727 12.7566 8.00727 11.0688C8.00727 9.38098 9.38044 8.00781 11.0682 8.00781H18.931C24.9544 8.00781 29.8547 12.9081 29.8547 18.9315C29.8547 24.9549 24.9544 29.8552 18.931 29.8552ZM1.88536 28.1144H18.931C23.9945 28.1144 28.1138 23.995 28.1138 18.9315C28.1138 13.868 23.9945 9.74864 18.931 9.74864H11.0682C10.3403 9.74864 9.7481 10.3409 9.7481 11.0688C9.7481 11.7967 10.3403 12.3889 11.0682 12.3889H18.931C22.5386 12.3889 25.4736 15.3239 25.4736 18.9315C25.4736 22.5391 22.5386 25.4741 18.931 25.4741H1.88536V28.1144Z" fill="black"/>
<path fill-rule="evenodd" clip-rule="evenodd" d="M0 30.0005V23.5888H18.9314C21.4991 23.5888 23.5882 21.4996 23.5882 18.9319C23.5882 16.3642 21.4991 14.2751 18.9314 14.2751H11.0686C9.30079 14.2751 7.86274 12.837 7.86274 11.0692C7.86274 9.30133 9.30079 7.86328 11.0686 7.86328H18.9314C25.0348 7.86328 30 12.8285 30 18.9319C30 25.0353 25.0348 30.0005 18.9314 30.0005H0ZM2.03068 27.9699H18.9314C23.9148 27.9699 27.9693 23.9154 27.9693 18.9319C27.9693 13.9485 23.9148 9.89397 18.9314 9.89397H11.0686C10.4208 9.89397 9.89343 10.4213 9.89343 11.0692C9.89343 11.717 10.4208 12.2444 11.0686 12.2444H18.9314C22.619 12.2444 25.6189 15.2442 25.6189 18.9319C25.6189 22.6196 22.619 25.6195 18.9314 25.6195H2.03068V27.9699ZM18.9314 28.1148C23.9949 28.1148 28.1142 23.9954 28.1142 18.9319C28.1142 13.8684 23.9949 9.74904 18.9314 9.74904H11.0686C10.3407 9.74904 9.7485 10.3413 9.7485 11.0692C9.7485 11.7971 10.3407 12.3893 11.0686 12.3893H18.9314C22.539 12.3893 25.474 15.3243 25.474 18.9319C25.474 22.5395 22.539 25.4745 18.9314 25.4745H1.88576V28.1148H18.9314ZM18.9314 29.8556C24.9548 29.8556 29.8551 24.9553 29.8551 18.9319C29.8551 12.9085 24.9548 8.00821 18.9314 8.00821H11.0686C9.38084 8.00821 8.00767 9.38137 8.00767 11.0692C8.00767 12.757 9.38084 14.1301 11.0686 14.1301H18.9314C21.5791 14.1301 23.7332 16.2842 23.7332 18.9319C23.7332 21.5797 21.5791 23.7337 18.9314 23.7337H0.144928V29.8556H18.9314Z" fill="black"/>
</svg>
