<svg width="30" height="30" viewBox="0 0 30 30" fill="none" xmlns="http://www.w3.org/2000/svg">
<path d="M25.974 14.9997C27.1262 13.3058 28.0609 11.6156 28.729 9.99709C30.2969 6.19852 30.2249 3.17121 28.5265 1.47281C26.8281 -0.225592 23.8008 -0.297553 20.0022 1.27033C18.3837 1.93841 16.6935 2.87315 14.9997 4.02529C13.3058 2.87315 11.6156 1.93841 9.99707 1.27033C6.19856 -0.297553 3.17113 -0.22565 1.47279 1.47281C-0.225613 3.17127 -0.297574 6.19858 1.27031 9.99709C1.93839 11.6156 2.87313 13.3057 4.02527 14.9997C2.87313 16.6936 1.93839 18.3837 1.27031 20.0023C-0.297574 23.8008 -0.225613 26.8281 1.47279 28.5265C2.35774 29.4116 3.60302 29.8548 5.13069 29.8548C6.53486 29.8548 8.17778 29.48 9.99701 28.729C11.6156 28.061 13.3057 27.1262 14.9996 25.9741C16.6935 27.1262 18.3836 28.061 20.0022 28.729C21.8217 29.48 23.4642 29.8548 24.8685 29.8548C26.3959 29.8548 27.6416 29.4114 28.5264 28.5265C30.2249 26.8281 30.2968 23.8008 28.7289 20.0023C28.0609 18.3837 27.1262 16.6936 25.974 14.9997ZM20.6664 2.87965C22.273 2.21651 23.7018 1.8838 24.8635 1.8838C25.9153 1.8838 26.7482 2.15662 27.2954 2.70387C28.4472 3.85566 28.3831 6.27182 27.1197 9.3329C26.5651 10.6766 25.8113 12.0768 24.8902 13.4895C23.7409 11.9691 22.4268 10.4618 20.9821 9.0172C19.5375 7.57258 18.0302 6.25847 16.5097 5.10906C17.9225 4.18807 19.3228 3.43422 20.6664 2.87965ZM23.845 14.9997C22.6671 16.6091 21.2877 18.2144 19.7511 19.7511C18.2144 21.2877 16.6091 22.6672 14.9997 23.845C13.3902 22.6672 11.7849 21.2877 10.2482 19.7511C8.71163 18.2144 7.33218 16.6091 6.15434 14.9997C7.33218 13.3902 8.71163 11.7849 10.2482 10.2483C11.7849 8.71165 13.3902 7.3322 14.9997 6.15436C16.6091 7.3322 18.2144 8.71165 19.7511 10.2483C21.2877 11.7849 22.6671 13.3902 23.845 14.9997ZM2.87958 9.3329C1.61613 6.27182 1.55206 3.85566 2.70385 2.70387C3.25122 2.15656 4.08382 1.8838 5.13574 1.8838C6.29745 1.8838 7.72646 2.21657 9.33282 2.87965C10.6765 3.43428 12.0768 4.18807 13.4895 5.10912C11.969 6.25847 10.4617 7.57258 9.01712 9.01726C7.5725 10.4619 6.25839 11.9691 5.10898 13.4896C4.18805 12.0768 3.4342 10.6765 2.87958 9.3329ZM9.33288 27.1197C6.27185 28.3831 3.8557 28.4472 2.70385 27.2955C1.55206 26.1437 1.61619 23.7275 2.87958 20.6665C3.4342 19.3228 4.18799 17.9225 5.10904 16.5098C6.25839 18.0303 7.5725 19.5375 9.01718 20.9822C10.4618 22.4268 11.969 23.7409 13.4895 24.8903C12.0768 25.8113 10.6765 26.5651 9.33288 27.1197ZM27.2955 27.2955C26.1436 28.4472 23.7275 28.3831 20.6664 27.1197C19.3227 26.5651 17.9225 25.8113 16.5098 24.8902C18.0303 23.7409 19.5375 22.4268 20.9821 20.9821C22.4268 19.5375 23.7409 18.0302 24.8903 16.5098C25.8113 17.9225 26.5651 19.3228 27.1197 20.6664C28.3831 23.7275 28.4473 26.1437 27.2955 27.2955Z" fill="black"/>
<path fill-rule="evenodd" clip-rule="evenodd" d="M1.27065 20.0026L1.13669 19.9473C1.79849 18.344 2.71916 16.6733 3.8505 15C2.71916 13.3267 1.79849 11.6561 1.13669 10.0527C-0.436273 6.24192 -0.39378 3.13517 1.37065 1.37068C3.13503 -0.393821 6.2419 -0.43625 10.0527 1.13671C11.656 1.79851 13.3267 2.71918 15 3.85052C16.6733 2.71918 18.344 1.79851 19.9473 1.13671C23.7581 -0.436252 26.8649 -0.39376 28.6293 1.37067C30.3938 3.13511 30.4363 6.24186 28.8633 10.0527C28.2015 11.6561 27.2808 13.3267 26.1495 15C27.2808 16.6733 28.2015 18.344 28.8632 19.9473C30.4362 23.7581 30.3937 26.8649 28.6292 28.6294C27.7108 29.5479 26.4246 30.0001 24.8689 30.0001C23.44 30.0001 21.7782 29.6191 19.9472 28.8633C18.3439 28.2015 16.6732 27.2809 14.9999 26.1495C13.3267 27.2809 11.656 28.2015 10.0527 28.8633C8.22194 29.619 6.55978 30.0001 5.13103 30.0001C3.57508 30.0001 2.2892 29.548 1.37065 28.6294C-0.393781 26.8649 -0.436272 23.7582 1.13669 19.9473L1.27065 20.0026ZM4.02561 15C2.87348 16.6939 1.93873 18.3841 1.27065 20.0026C-0.297232 23.8012 -0.22527 26.8285 1.47313 28.5269C2.35808 29.4119 3.60336 29.8552 5.13103 29.8552C6.5352 29.8552 8.17813 29.4803 9.99736 28.7294C11.6159 28.0613 13.3061 27.1265 14.9999 25.9744C16.6938 27.1265 18.384 28.0613 20.0025 28.7294C21.822 29.4804 23.4646 29.8552 24.8689 29.8552C26.3963 29.8552 27.6419 29.4118 28.5268 28.5269C30.2252 26.8284 30.2971 23.8011 28.7292 20.0026C28.0613 18.3841 27.1265 16.6939 25.9744 15C27.1265 13.3061 28.0613 11.616 28.7293 9.99743C30.2972 6.19886 30.2253 3.17156 28.5269 1.47315C26.8285 -0.22525 23.8011 -0.297211 20.0026 1.27068C18.384 1.93875 16.6939 2.8735 15 4.02563C13.3061 2.8735 11.616 1.93875 9.99741 1.27068C6.1989 -0.297211 3.17148 -0.225308 1.47313 1.47315C-0.22527 3.17161 -0.297232 6.19892 1.27065 9.99743C1.93873 11.616 2.87348 13.3061 4.02561 15ZM9.33316 2.88L9.27787 3.01396C7.68186 2.35515 6.27234 2.02907 5.13608 2.02907C4.10683 2.02907 3.31744 2.29599 2.80667 2.80669C2.2693 3.34407 2.00184 4.19043 2.03122 5.2989C2.06058 6.40618 2.38632 7.75749 3.01388 9.27795C3.54193 10.5572 4.25274 11.8902 5.11884 13.2379C6.24235 11.7678 7.51798 10.3121 8.91498 8.91512C10.312 7.51806 11.7677 6.24243 13.2378 5.11897C11.8901 4.25276 10.5572 3.54201 9.27787 3.01396L9.33316 2.88ZM2.70419 2.70421C3.25156 2.1569 4.08417 1.88415 5.13608 1.88415C6.29779 1.88415 7.7268 2.21691 9.33316 2.88C10.6359 3.41769 11.9917 4.14258 13.3605 5.02559C13.4036 5.05339 13.4467 5.08135 13.4898 5.10946C13.4489 5.14038 13.408 5.17141 13.3671 5.20256C11.8883 6.32959 10.4232 7.61177 9.01746 9.0176C7.61169 10.4234 6.32951 11.8884 5.20242 13.3673C5.17127 13.4082 5.14024 13.449 5.10932 13.4899C5.08121 13.4468 5.05326 13.4037 5.02546 13.3606C4.14256 11.9917 3.41761 10.6359 2.87992 9.33324C1.61647 6.27216 1.55241 3.856 2.70419 2.70421ZM27.2958 27.2958C28.4476 26.144 28.3835 23.7279 27.1201 20.6667C26.5824 19.3641 25.8575 18.0082 24.9745 16.6394C24.9467 16.5963 24.9187 16.5532 24.8906 16.5101C24.8597 16.551 24.8287 16.5919 24.7975 16.6328C23.6704 18.1116 22.3882 19.5767 20.9825 20.9824C19.5767 22.3883 18.1116 23.6705 16.6328 24.7975C16.5919 24.8286 16.551 24.8597 16.5101 24.8906C16.5533 24.9187 16.5964 24.9467 16.6395 24.9745C18.0083 25.8575 19.3641 26.5824 20.6668 27.12C23.7279 28.3835 26.144 28.4476 27.2958 27.2958ZM16.7622 24.8811C18.1098 25.7473 19.4428 26.458 20.7221 26.9861C22.2425 27.6136 23.5938 27.9394 24.7011 27.9688C25.8096 27.9981 26.6559 27.7307 27.1933 27.1933C27.7307 26.656 27.9982 25.8096 27.9688 24.7011C27.9394 23.5939 27.6136 22.2425 26.9861 20.722C26.4581 19.4428 25.7473 18.1098 24.8811 16.7621C23.7576 18.2322 22.482 19.6879 21.085 21.0849C19.688 22.482 18.2323 23.7576 16.7622 24.8811ZM24.8639 2.02907C23.7276 2.02907 22.3183 2.35509 20.7221 3.01396L20.6738 2.89689L20.7221 3.01396C19.4428 3.54196 18.1099 4.25276 16.7621 5.11892C18.2322 6.24243 19.6879 7.51806 21.0849 8.91506C22.482 10.3121 23.7576 11.7677 24.8811 13.2379C25.7473 11.8902 26.458 10.5573 26.9861 9.27795C27.6136 7.75749 27.9393 6.40618 27.9687 5.2989C27.9981 4.19043 27.7306 3.34407 27.1933 2.80669C26.6826 2.29605 25.893 2.02907 24.8639 2.02907ZM24.9744 13.3606C25.8574 11.9917 26.5823 10.6359 27.12 9.33324C28.3834 6.27216 28.4475 3.856 27.2957 2.70421C26.7485 2.15696 25.9156 1.88415 24.8639 1.88415C23.7022 1.88415 22.2734 2.21685 20.6668 2.88C19.3641 3.41764 18.0083 4.14258 16.6394 5.02554C16.5963 5.05334 16.5532 5.08129 16.5101 5.1094C16.551 5.14032 16.5919 5.17135 16.6327 5.2025C18.1116 6.32959 19.5767 7.61177 20.9824 9.01754C22.3882 10.4233 23.6704 11.8884 24.7975 13.3672C24.8286 13.4081 24.8596 13.449 24.8906 13.4899C24.9187 13.4468 24.9466 13.4036 24.9744 13.3606ZM23.8453 15C22.6675 13.3906 21.288 11.7852 19.7514 10.2486C18.2148 8.712 16.6094 7.33254 15 6.1547C13.3906 7.33254 11.7852 8.712 10.2486 10.2486C8.71198 11.7852 7.33252 13.3906 6.15468 15C7.33252 16.6095 8.71198 18.2148 10.2486 19.7514C11.7852 21.288 13.3906 22.6675 15 23.8453C16.6094 22.6675 18.2148 21.288 19.7514 19.7514C21.288 18.2148 22.6675 16.6095 23.8453 15ZM15 23.6656C13.4256 22.5062 11.8555 21.1534 10.3511 19.649C8.84665 18.1445 7.49381 16.5744 6.33447 15C7.49381 13.4256 8.84665 11.8555 10.3511 10.3511C11.8555 8.84667 13.4256 7.49383 15 6.33449C16.5744 7.49383 18.1445 8.84667 19.6489 10.3511C21.1534 11.8555 22.5062 13.4256 23.6655 15C22.5062 16.5744 21.1534 18.1445 19.6489 19.649C18.1445 21.1534 16.5744 22.5062 15 23.6656ZM5.29892 27.9688C6.4062 27.9394 7.7575 27.6136 9.27793 26.9861C10.5572 26.458 11.8901 25.7473 13.2378 24.8811C11.7677 23.7576 10.312 22.482 8.91504 21.085C7.51798 19.688 6.24235 18.2323 5.11889 16.7622C4.25268 18.1099 3.54193 19.4428 3.01388 20.7221C2.38635 22.2425 2.06061 23.5939 2.03124 24.7011C2.00185 25.8096 2.2693 26.656 2.80667 27.1933C3.34407 27.7307 4.19045 27.9981 5.29892 27.9688ZM5.02551 16.6395C5.05331 16.5964 5.08127 16.5533 5.10938 16.5102C5.1403 16.5511 5.17133 16.5919 5.20248 16.6328C6.32951 18.1117 7.6117 19.5767 9.01752 20.9825C10.4233 22.3883 11.8884 23.6705 13.3672 24.7975C13.4081 24.8287 13.449 24.8597 13.4899 24.8906C13.4467 24.9188 13.4036 24.9467 13.3605 24.9745C11.9917 25.8575 10.6359 26.5824 9.33322 27.12C6.2722 28.3835 3.85604 28.4476 2.70419 27.2958C1.55241 26.144 1.61653 23.7279 2.87992 20.6668C3.41761 19.3641 4.14251 18.0083 5.02551 16.6395Z" fill="black"/>
<path d="M15.5634 9.93037L14.9988 9.44922L14.4342 9.93037C13.6417 10.6056 12.8543 11.3336 12.094 12.094C11.3336 12.8544 10.6056 13.6418 9.93037 14.4342L9.44922 14.9988L9.93037 15.5634C10.6059 16.3562 11.3339 17.1435 12.094 17.9036C12.8542 18.6638 13.6415 19.3917 14.4342 20.0672L14.9988 20.5484L15.5634 20.0672C16.3559 19.3919 17.1433 18.664 17.9036 17.9036C18.664 17.1432 19.3919 16.3558 20.0672 15.5634L20.5484 14.9988L20.0672 14.4342C19.3917 13.6414 18.6637 12.8541 17.9036 12.094C17.1434 11.3338 16.3561 10.6059 15.5634 9.93037ZM16.6726 16.6725C16.1259 17.2191 15.5651 17.748 14.9988 18.2508C14.4324 17.7479 13.8715 17.2191 13.325 16.6725C12.7785 16.126 12.2497 15.5652 11.7467 14.9988C12.2496 14.4325 12.7784 13.8717 13.325 13.325C13.8716 12.7784 14.4325 12.2496 14.9988 11.7467C15.5652 12.2497 16.126 12.7785 16.6725 13.325C17.219 13.8715 17.7478 14.4324 18.2508 14.9988C17.748 15.565 17.2192 16.1258 16.6726 16.6725Z" fill="black"/>
<path fill-rule="evenodd" clip-rule="evenodd" d="M14.9978 9.25977L15.6564 9.82103L15.5624 9.93134L14.9978 9.45018L14.4332 9.93134C13.6407 10.6066 12.8533 11.3346 12.093 12.095C11.3326 12.8554 10.6047 13.6427 9.92938 14.4352L9.44823 14.9998L9.92938 15.5644C10.6049 16.3571 11.3329 17.1445 12.093 17.9046C12.8532 18.6648 13.6406 19.3927 14.4332 20.0682L14.9978 20.5493L15.5624 20.0682C16.3549 19.3929 17.1423 18.6649 17.9026 17.9045C18.663 17.1441 19.391 16.3568 20.0662 15.5643L20.5474 14.9997L20.0662 14.4351C19.3907 13.6424 18.6627 12.8551 17.9026 12.0949C17.1424 11.3348 16.3551 10.6068 15.5624 9.93134L15.6564 9.82103C16.4521 10.4991 17.2422 11.2296 18.0051 11.9925C18.7678 12.7552 19.4984 13.5454 20.1765 14.3411L20.7378 14.9997L20.1765 15.6583C19.4987 16.4538 18.7682 17.244 18.0051 18.007C17.2421 18.7701 16.4519 19.5006 15.6564 20.1785L14.9978 20.7398L14.3392 20.1785C13.5435 19.5004 12.7534 18.7699 11.9906 18.0071C11.2278 17.2443 10.4972 16.4542 9.81908 15.6584L9.25781 14.9998L9.81907 14.3412C10.4969 13.5457 11.2275 12.7556 11.9905 11.9925C11.9905 11.9925 11.9905 11.9925 11.9905 11.9925M11.9905 11.9925C12.7535 11.2295 13.5437 10.4989 14.3392 9.82103C14.3392 9.82103 14.3392 9.82103 14.3392 9.82103L14.9978 9.25977M13.324 16.6735C13.8705 17.22 14.4314 17.7488 14.9978 18.2518C15.5641 17.7489 16.1249 17.2201 16.6716 16.6735C17.2182 16.1268 17.747 15.566 18.2498 14.9997C17.7468 14.4333 17.218 13.8725 16.6715 13.326C16.125 12.7794 15.5642 12.2506 14.9978 11.7477C14.4315 12.2505 13.8707 12.7794 13.324 13.326C12.7774 13.8727 12.2486 14.4335 11.7457 14.9997C12.2487 15.5661 12.7775 16.127 13.324 16.6735ZM11.9398 14.9997C12.4152 15.5312 12.913 16.0575 13.4265 16.571C13.9401 17.0846 14.4663 17.5824 14.9978 18.0577C15.5292 17.5825 16.0554 17.0846 16.5691 16.571C16.5691 16.571 16.5691 16.571 16.5691 16.571M16.5691 16.571C17.0827 16.0573 17.5805 15.5311 18.0557 14.9997C17.5804 14.4682 17.0826 13.942 16.569 13.4285C16.0555 12.9149 15.5293 12.4171 14.9978 11.9418C14.4664 12.417 13.9402 12.9148 13.4265 13.4285C12.9128 13.9422 12.415 14.4684 11.9398 14.9997" fill="black"/>
</svg>
