<svg width="30" height="31" viewBox="0 0 30 31" fill="none" xmlns="http://www.w3.org/2000/svg">
<g clip-path="url(#clip0_957_1380)">
<path d="M28.8281 16.5975H18.5156V14.192H24.375C25.0222 14.192 25.5469 13.6536 25.5469 12.9893C25.5469 12.3251 25.0222 11.7866 24.375 11.7866H18.5156V2.40543H25.5469V7.21628H23.2031V6.01357C23.2031 5.34931 22.6785 4.81086 22.0312 4.81086C21.384 4.81086 20.8594 5.34931 20.8594 6.01357V8.419C20.8594 9.08326 21.384 9.62171 22.0312 9.62171H26.7188C27.366 9.62171 27.8906 9.08326 27.8906 8.419V1.20271C27.8906 0.538455 27.366 0 26.7188 0H17.3438C16.6965 0 16.1719 0.538455 16.1719 1.20271V11.7866H13.8281V5.77303C13.8281 5.10877 13.3035 4.57031 12.6562 4.57031C12.009 4.57031 11.4844 5.10877 11.4844 5.77303V11.7866H2.34375V4.57031H7.03125V6.97574H5.85938C5.21215 6.97574 4.6875 7.5142 4.6875 8.17845C4.6875 8.84271 5.21215 9.38117 5.85938 9.38117H8.20312C8.85035 9.38117 9.375 8.84271 9.375 8.17845V3.3676C9.375 2.70334 8.85035 2.16489 8.20312 2.16489H1.17188C0.524648 2.16489 0 2.70334 0 3.3676V12.9893C0 13.6536 0.524648 14.192 1.17188 14.192H11.4844V16.5975H5.625C4.97777 16.5975 4.45312 17.1359 4.45312 17.8002C4.45312 18.4644 4.97777 19.0029 5.625 19.0029H11.4844V28.384H4.45312V23.5732H6.79688V24.7759C6.79688 25.4402 7.32152 25.9786 7.96875 25.9786C8.61598 25.9786 9.14062 25.4402 9.14062 24.7759V22.3705C9.14062 21.7062 8.61598 21.1678 7.96875 21.1678H3.28125C2.63402 21.1678 2.10938 21.7062 2.10938 22.3705V29.5868C2.10938 30.251 2.63402 30.7895 3.28125 30.7895H12.6562C13.3035 30.7895 13.8281 30.251 13.8281 29.5868V19.0029H16.1719V25.0164C16.1719 25.6807 16.6965 26.2192 17.3438 26.2192C17.991 26.2192 18.5156 25.6807 18.5156 25.0164V19.0029H27.6562V26.2192H22.9688V23.8137H24.1406C24.7879 23.8137 25.3125 23.2753 25.3125 22.611C25.3125 21.9468 24.7879 21.4083 24.1406 21.4083H21.7969C21.1496 21.4083 20.625 21.9468 20.625 22.611V27.4219C20.625 28.0861 21.1496 28.6246 21.7969 28.6246H28.8281C29.4754 28.6246 30 28.0861 30 27.4219V17.8002C30 17.1359 29.4754 16.5975 28.8281 16.5975ZM13.8281 14.192H16.1719V16.5975H13.8281V14.192Z" fill="black"/>
</g>
<defs>
<clipPath id="clip0_957_1380">
<rect width="30" height="30.7895" fill="white"/>
</clipPath>
</defs>
</svg>
