<svg width="30" height="31" viewBox="0 0 30 31" fill="none" xmlns="http://www.w3.org/2000/svg">
<path d="M13.2609 9.06836C8.91045 9.06836 5.37109 12.6963 5.37109 17.1555C5.37109 21.6147 8.91045 25.2426 13.2609 25.2426C17.6114 25.2426 21.1508 21.6147 21.1508 17.1555C21.1508 12.6963 17.6114 9.06836 13.2609 9.06836ZM19.3223 16.0916C16.8738 15.437 14.9375 13.4523 14.2988 10.9425C16.8596 11.3905 18.8852 13.4668 19.3223 16.0916ZM13.2609 23.4586C9.87011 23.4586 7.1115 20.631 7.1115 17.1555C7.1115 13.9424 9.46917 11.2835 12.5043 10.9C13.1965 14.4281 15.9217 17.2215 19.3639 17.931C18.9897 21.042 16.3956 23.4586 13.2609 23.4586Z" fill="black"/>
<path fill-rule="evenodd" clip-rule="evenodd" d="M5.22266 17.1555C5.22266 12.6178 8.82506 8.91992 13.261 8.91992C17.6969 8.91992 21.2994 12.6178 21.2994 17.1555C21.2994 21.6933 17.6969 25.3911 13.261 25.3911C8.82506 25.3911 5.22266 21.6933 5.22266 17.1555ZM19.3224 16.0917C19.3134 16.0375 19.3037 15.9836 19.2933 15.9298C18.812 13.4368 16.892 11.4678 14.4603 10.9731C14.4067 10.9622 14.3529 10.952 14.2989 10.9426C14.3124 10.9957 14.3265 11.0485 14.3412 11.1011C15.0047 13.4819 16.8419 15.3659 19.1641 16.0473C19.2166 16.0627 19.2694 16.0775 19.3224 16.0917ZM14.505 11.1343C16.8166 11.6361 18.6438 13.5081 19.1325 15.8828C16.9191 15.2056 15.1647 13.4072 14.505 11.1343ZM7.26009 17.1555C7.26009 20.5525 9.95564 23.3102 13.261 23.3102C16.2715 23.3102 18.7759 21.0227 19.1989 18.0475C15.8051 17.2912 13.1234 14.5403 12.3868 11.0663C9.49348 11.5013 7.26009 14.0639 7.26009 17.1555ZM12.5044 10.9001C9.46925 11.2835 7.11158 13.9425 7.11158 17.1555C7.11158 20.6311 9.87018 23.4587 13.261 23.4587C16.3957 23.4587 18.9898 21.0421 19.3639 17.9311C15.9218 17.2216 13.1966 14.4282 12.5044 10.9001ZM5.37117 17.1555C5.37117 12.6963 8.91052 9.06844 13.261 9.06844C17.6115 9.06844 21.1509 12.6963 21.1509 17.1555C21.1509 21.6147 17.6115 25.2426 13.261 25.2426C8.91052 25.2426 5.37117 21.6147 5.37117 17.1555Z" fill="black"/>
<path d="M29.8514 9.12749C29.8514 4.17641 25.9217 0.148438 21.0914 0.148438C18.3166 0.148438 15.7333 1.48281 14.0808 3.74303C13.8084 3.72591 13.5347 3.71627 13.2595 3.71627C9.75741 3.71627 6.4649 5.11415 3.98859 7.65237C1.51222 10.1907 0.148438 13.5655 0.148438 17.1551C0.148438 20.7448 1.51222 24.1195 3.98859 26.6579C6.4649 29.1961 9.75741 30.594 13.2595 30.594C16.7616 30.594 20.0541 29.1961 22.5305 26.6579C25.0068 24.1195 26.3706 20.7448 26.3706 17.1551C26.3706 16.873 26.3612 16.5925 26.3445 16.3134C28.5496 14.6195 29.8514 11.9717 29.8514 9.12749ZM13.2595 28.8101C6.98969 28.8101 1.88885 23.5817 1.88885 17.1551C1.88885 10.7286 6.98969 5.50019 13.2595 5.50019C19.5293 5.50019 24.6302 10.7286 24.6302 17.1551C24.6302 23.5817 19.5293 28.8101 13.2595 28.8101ZM22.5305 7.65237C20.7453 5.82261 18.536 4.58564 16.1297 4.03762C17.4334 2.70087 19.2072 1.93236 21.0914 1.93236C24.962 1.93236 28.111 5.16006 28.111 9.12749C28.111 11.0588 27.3612 12.8769 26.0571 14.2131C25.5224 11.7468 24.3156 9.48226 22.5305 7.65237Z" fill="black"/>
<path fill-rule="evenodd" clip-rule="evenodd" d="M3.98867 7.65245L3.88236 7.54874C6.38623 4.98228 9.7169 3.56784 13.2596 3.56784C13.511 3.56784 13.7608 3.57577 14.0093 3.59002C15.6909 1.3321 18.2951 0 21.0914 0C26.0072 0 30 4.09794 30 9.12757C30 11.9903 28.7017 14.6588 26.4973 16.3829C26.5114 16.6389 26.5192 16.8963 26.5192 17.1552C26.5192 20.7831 25.1406 24.1952 22.6369 26.7617L22.5306 26.658C25.0069 24.1196 26.3707 20.7449 26.3707 17.1552C26.3707 16.8731 26.3613 16.5926 26.3446 16.3134C28.5497 14.6195 29.8515 11.9717 29.8515 9.12757C29.8515 4.17648 25.9218 0.148515 21.0914 0.148515C18.3166 0.148515 15.7334 1.48289 14.0809 3.74311C13.8085 3.72599 13.5348 3.71635 13.2596 3.71635C9.75748 3.71635 6.46498 5.11423 3.98867 7.65245ZM3.98867 7.65245C1.5123 10.1908 0.148515 13.5655 0.148515 17.1552C0.148515 20.7449 1.5123 24.1196 3.98867 26.658C6.46498 29.1962 9.75748 30.5941 13.2596 30.5941C16.7617 30.5941 20.0541 29.1962 22.5306 26.658L22.6369 26.7617C20.1329 29.3281 16.8023 30.7426 13.2596 30.7426C9.7169 30.7426 6.38623 29.3281 3.88236 26.7617C1.37856 24.1952 0 20.7831 0 17.1552C0 13.5273 1.37856 10.1152 3.88236 7.54874L3.98867 7.65245ZM2.03744 17.1552C2.03744 23.5032 7.07523 28.6616 13.2596 28.6616C19.444 28.6616 24.4817 23.5032 24.4817 17.1552C24.4817 10.8072 19.444 5.64879 13.2596 5.64879C7.07523 5.64879 2.03744 10.8072 2.03744 17.1552ZM22.5306 7.65245L22.6369 7.54874C24.3753 9.33078 25.5713 11.5208 26.14 13.9079C27.3001 12.6211 27.9626 10.9248 27.9626 9.12757C27.9626 5.23868 24.8766 2.08095 21.0914 2.08095C19.3374 2.08095 17.6807 2.76166 16.4246 3.95538C18.7575 4.53811 20.8969 5.76534 22.6369 7.54874L22.5306 7.65245ZM26.0183 14.0394C25.4653 11.6406 24.2737 9.43927 22.5306 7.65245C20.7874 5.86572 18.6397 4.64422 16.2992 4.0775C16.2429 4.06385 16.1864 4.05058 16.1298 4.03769C16.1706 3.99587 16.2119 3.95461 16.2535 3.9139C17.5446 2.65361 19.2662 1.93243 21.0914 1.93243C24.9621 1.93243 28.1111 5.16014 28.1111 9.12757C28.1111 10.9971 27.4085 12.7605 26.1806 14.0835C26.14 14.1272 26.0989 14.1705 26.0572 14.2132C26.0446 14.1552 26.0316 14.0973 26.0183 14.0394ZM1.88892 17.1552C1.88892 23.5818 6.98977 28.8101 13.2596 28.8101C19.5294 28.8101 24.6303 23.5818 24.6303 17.1552C24.6303 10.7286 19.5294 5.50027 13.2596 5.50027C6.98977 5.50027 1.88892 10.7286 1.88892 17.1552Z" fill="black"/>
</svg>
