<svg width="30" height="30" viewBox="0 0 30 30" fill="none" xmlns="http://www.w3.org/2000/svg">
<path d="M28.9322 17.6182C28.8203 17.3995 27.7813 15.425 25.7673 13.4574C23.6358 11.375 21.1863 9.99864 18.4774 9.35812V7.1005H25.0529V0.148438H4.94983V7.1005H11.5253V9.35812C8.81645 9.99864 6.36695 11.375 4.23539 13.4574C2.22184 15.4246 1.18239 17.3994 1.07052 17.6182L0.167969 19.3825L1.07052 21.1469C1.18245 21.3656 2.2219 23.3404 4.23539 25.3076C7.25067 28.2535 10.9735 29.8106 15.0014 29.8106C19.0292 29.8106 22.752 28.2535 25.7673 25.3076C27.7813 23.34 28.8203 21.3655 28.9322 21.1469L29.8347 19.3825L28.9322 17.6182ZM11.5253 17.6445C11.5253 19.5611 13.0847 21.1205 15.0014 21.1205C16.918 21.1205 18.4774 19.5611 18.4774 17.6445V16.6932C19.3373 17.1094 20.1518 17.6903 20.9091 18.4302C21.2125 18.7265 21.5026 19.0454 21.7759 19.3825C21.5026 19.7195 21.2125 20.0383 20.9091 20.3348C19.195 22.0094 17.2074 22.8586 15.0014 22.8586C12.7953 22.8586 10.8078 22.0095 9.09366 20.3349C8.79021 20.0384 8.50007 19.7196 8.2268 19.3825C8.50007 19.0455 8.79021 18.7267 9.09361 18.4302C9.85092 17.6903 10.6654 17.1095 11.5253 16.6932L11.5253 17.6445ZM13.2633 17.6445C13.2633 16.6861 14.043 15.9064 15.0014 15.9064C15.9597 15.9064 16.7394 16.6861 16.7394 17.6445C16.7394 18.6028 15.9597 19.3825 15.0014 19.3825C14.043 19.3825 13.2633 18.6028 13.2633 17.6445ZM6.68785 5.36248V1.88645H23.3149V5.36248H16.7394V14.6361C16.2276 14.3393 15.6343 14.1684 15.0014 14.1684C14.3684 14.1684 13.7751 14.3393 13.2633 14.6361V5.36248H6.68785ZM27.3848 20.3554C27.2862 20.5481 26.3691 22.2898 24.5527 24.0643C21.8688 26.6865 18.566 28.0726 15.0014 28.0726C11.4367 28.0726 8.13393 26.6865 5.44997 24.0643C3.63398 22.2902 2.71642 20.548 2.61782 20.3553L2.12017 19.3825L2.61776 18.4097C2.71642 18.2168 3.63398 16.4747 5.44997 14.7006C7.24482 12.947 9.2845 11.7562 11.5253 11.1506V14.8009C10.2124 15.3031 8.98822 16.1034 7.87908 17.187C7.35594 17.6981 6.86785 18.2655 6.42842 18.8734L6.06042 19.3825L6.42842 19.8916C6.86785 20.4995 7.35594 21.0669 7.87914 21.578C9.92924 23.5809 12.3255 24.5965 15.0014 24.5965C17.6772 24.5965 20.0735 23.5809 22.1236 21.5779C22.6468 21.0668 23.1348 20.4994 23.5742 19.8915L23.9423 19.3825L23.5742 18.8734C23.1347 18.2654 22.6467 17.6979 22.1236 17.187C21.0144 16.1034 19.7903 15.3032 18.4773 14.8009V11.1507C20.7182 11.7562 22.7579 12.9471 24.5527 14.7006C26.3691 16.4751 27.2862 18.2168 27.3848 18.4097L27.8825 19.3825L27.3848 20.3554Z" fill="black"/>
<path fill-rule="evenodd" clip-rule="evenodd" d="M0.166615 19.3824L1.06917 17.6181C1.18104 17.3993 2.22049 15.4245 4.23404 13.4573C6.3656 11.3749 8.8151 9.99854 11.524 9.35802V7.1004H4.94848V0.148334H25.0515V7.1004H18.476V9.35802C21.185 9.99854 23.6345 11.3749 25.766 13.4573C27.78 15.4249 28.819 17.3994 28.9308 17.6181L29.8334 19.3824L28.9308 21.1468C28.819 21.3654 27.78 23.3399 25.766 25.3075C22.7506 28.2534 19.0279 29.8105 15 29.8105C10.9721 29.8105 7.24932 28.2534 4.23404 25.3075C2.22054 23.3403 1.18109 21.3655 1.06917 21.1468L0.166615 19.3824ZM0.9371 17.5505L0 19.3824L0.937107 21.2144C1.05289 21.4406 2.101 23.4309 4.13037 25.4136C7.17194 28.3852 10.9314 29.9589 15 29.9589C19.0686 29.9589 22.828 28.3852 25.8696 25.4136C27.8995 23.4305 28.9472 21.4405 29.0629 21.2144L30 19.3824L29.0629 17.5505C28.9472 17.3243 27.8995 15.3343 25.8696 13.3512C23.7502 11.2805 21.3159 9.89968 18.6244 9.24114V7.24873H25.1999V0H4.80014V7.24873H11.3756V9.24114C8.68411 9.89968 6.2499 11.2805 4.13038 13.3512C2.10101 15.3339 1.0529 17.3241 0.9371 17.5505C0.937103 17.5505 0.937097 17.5505 0.9371 17.5505ZM9.19597 20.2286C10.885 21.8788 12.8363 22.7101 15 22.7101C17.1637 22.7101 19.115 21.8787 20.8041 20.2286C21.0751 19.9637 21.3356 19.6807 21.5828 19.3824C21.3356 19.084 21.0751 18.801 20.8041 18.5362C20.1202 17.868 19.3905 17.3328 18.6244 16.9336V17.6444C18.6244 19.643 16.9986 21.2687 15 21.2687C13.0014 21.2687 11.3756 19.643 11.3756 17.6444L11.3756 16.9337C10.6095 17.3329 9.87984 17.868 9.19593 18.5362C8.92487 18.8011 8.66441 19.0842 8.41724 19.3824C8.66441 19.6807 8.92487 19.9638 9.19597 20.2286ZM8.22545 19.3824C8.49872 19.7195 8.78885 20.0383 9.09231 20.3347C10.8064 22.0094 12.794 22.8585 15 22.8585C17.206 22.8585 19.1936 22.0093 20.9077 20.3347C21.2111 20.0382 21.5013 19.7194 21.7746 19.3824C21.5013 19.0453 21.2111 18.7264 20.9077 18.4301C20.1941 17.7329 19.4297 17.1769 18.6244 16.7668C18.5751 16.7416 18.5256 16.7171 18.476 16.6931V17.6444C18.476 19.561 16.9167 21.1204 15 21.1204C13.0833 21.1204 11.524 19.561 11.524 17.6444L11.5239 16.6931C11.4743 16.7172 11.4249 16.7417 11.3756 16.7668C10.5703 17.1769 9.80588 17.7329 9.09225 18.4301C8.78885 18.7266 8.49872 19.0454 8.22545 19.3824ZM13.262 5.36238V14.636C13.3107 14.6077 13.3602 14.5806 13.4103 14.5547C13.887 14.3082 14.4273 14.1683 15 14.1683C15.5727 14.1683 16.113 14.3082 16.5897 14.5547C16.6398 14.5806 16.6893 14.6077 16.738 14.636V5.36238H23.3135V1.88635H6.68649V5.36238H13.262ZM6.83483 5.21405H13.4103V14.3886C13.8905 14.153 14.43 14.02 15 14.02C15.5701 14.02 16.1095 14.153 16.5897 14.3886V5.21405H23.1652V2.03468H6.83483V5.21405ZM27.3834 18.4095C27.2848 18.2167 26.3677 16.475 24.5513 14.7005C22.7962 12.9857 20.8069 11.8091 18.6243 11.1916C18.575 11.1776 18.5255 11.1639 18.476 11.1506V14.8008C19.7889 15.3031 21.0131 16.1033 22.1222 17.1869C22.6453 17.6978 23.1334 18.2653 23.5729 18.8733L23.9409 19.3824L23.5729 19.8914C23.1334 20.4993 22.6454 21.0667 22.1223 21.5778C20.0721 23.5808 17.6758 24.5964 15 24.5964C12.3242 24.5964 9.92789 23.5808 7.87778 21.5779C7.35458 21.0668 6.86649 20.4994 6.42706 19.8915L6.05907 19.3824L6.42706 18.8733C6.86649 18.2654 7.35458 17.698 7.87773 17.1869C8.98687 16.1033 10.211 15.303 11.524 14.8008V11.1505C11.4744 11.1639 11.425 11.1776 11.3756 11.1915C9.19307 11.809 7.20378 12.9857 5.44862 14.7005C3.63262 16.4746 2.71507 18.2167 2.61641 18.4095L2.11881 19.3824L2.61646 20.3552C2.71507 20.5479 3.63262 22.2901 5.44862 24.0642C8.13258 26.6864 11.4354 28.0725 15 28.0725C18.5646 28.0725 21.8674 26.6864 24.5514 24.0642C26.3678 22.2897 27.2849 20.548 27.3835 20.3553L27.8811 19.3824L27.3834 18.4095ZM27.7145 19.3824L27.2514 18.4771C27.1568 18.2923 26.2484 16.5658 24.4477 14.8066C22.7197 13.1184 20.7654 11.9591 18.6243 11.3458V14.6993C19.9218 15.2114 21.1305 16.0106 22.2259 17.0807C22.7552 17.5978 23.2488 18.1717 23.6931 18.7864C23.6931 18.7864 23.6931 18.7864 23.6931 18.7864L24.124 19.3824L23.6931 19.9783C23.6931 19.9783 23.6931 19.9783 23.6931 19.9783C23.2488 20.5929 22.7553 21.1668 22.2259 21.6839C20.1502 23.7119 17.7175 24.7448 15 24.7448C12.2825 24.7448 9.84977 23.7119 7.77413 21.684C7.24472 21.1668 6.75111 20.593 6.30685 19.9784L5.87604 19.3824L6.30685 18.7864C6.75111 18.1718 7.24472 17.598 7.77406 17.0808C8.86947 16.0106 10.0781 15.2113 11.3756 14.6993V11.3457C9.23451 11.959 7.28028 13.1183 5.55228 14.8066C3.75196 16.5654 2.84306 18.2922 2.74846 18.4771L2.28543 19.3824L2.74852 20.2876C2.84306 20.4724 3.75196 22.1993 5.55228 23.9581C8.21014 26.5548 11.4763 27.9241 15 27.9241C18.5237 27.9241 21.7899 26.5548 24.4477 23.9581C26.2484 22.1989 27.1569 20.4725 27.2514 20.2877L27.7145 19.3824ZM15 16.0547C14.1236 16.0547 13.4103 16.7679 13.4103 17.6444C13.4103 18.5208 14.1236 19.234 15 19.234C15.8764 19.234 16.5897 18.5208 16.5897 17.6444C16.5897 16.7679 15.8764 16.0547 15 16.0547ZM15 15.9063C14.0417 15.9063 13.262 16.686 13.262 17.6444C13.262 18.6027 14.0417 19.3824 15 19.3824C15.9583 19.3824 16.738 18.6027 16.738 17.6444C16.738 16.686 15.9583 15.9063 15 15.9063Z" fill="black"/>
</svg>
