<svg width="30" height="31" viewBox="0 0 30 31" fill="none" xmlns="http://www.w3.org/2000/svg">
<path d="M22.4547 7.78956H22.3967V7.73009C22.3967 3.54954 19.0785 0.148438 14.9999 0.148438C10.9213 0.148438 7.60319 3.54954 7.60319 7.73009V7.78956H7.54517C3.46658 7.78956 0.148438 11.1907 0.148438 15.3712C0.148438 19.5518 3.46658 22.9529 7.54517 22.9529H7.60319V23.0123C7.60319 27.1929 10.9213 30.594 14.9999 30.594C19.0785 30.594 22.3967 27.1929 22.3967 23.0123V22.9529H22.4547C26.5333 22.9529 29.8514 19.5518 29.8514 15.3712C29.8514 11.1907 26.5333 7.78956 22.4547 7.78956ZM14.9999 1.93236C18.1188 1.93236 20.6562 4.53319 20.6562 7.73009V7.78956H18.4807V7.73009C18.4807 5.76279 16.9192 4.16225 14.9999 4.16225C13.0806 4.16225 11.5191 5.76279 11.5191 7.73009V17.1551H9.34359V7.73009C9.34359 4.53319 11.881 1.93236 14.9999 1.93236ZM13.2595 22.9529H16.7403V23.0123C16.7403 23.996 15.9596 24.7962 14.9999 24.7962C14.0403 24.7962 13.2595 23.996 13.2595 23.0123V22.9529ZM16.7403 17.1551H13.2595V13.5873H16.7403V17.1551ZM16.7403 7.78956H13.2595V7.73009C13.2595 6.74644 14.0403 5.94617 14.9999 5.94617C15.9596 5.94617 16.7403 6.74644 16.7403 7.73009V7.78956ZM7.60319 17.1551H7.54517C6.58551 17.1551 5.80476 16.3549 5.80476 15.3712C5.80476 14.3876 6.58551 13.5873 7.54517 13.5873H7.60319V17.1551ZM1.88885 15.3712C1.88885 12.1743 4.42625 9.57347 7.54517 9.57347H7.60319V11.8034H7.54517C5.62585 11.8034 4.06436 13.4039 4.06436 15.3712C4.06436 17.3385 5.62585 18.939 7.54517 18.939H16.7403V21.1689H7.54517C4.42625 21.1689 1.88885 18.5681 1.88885 15.3712ZM14.9999 28.8101C11.881 28.8101 9.34359 26.2092 9.34359 23.0123V22.9529H11.5191V23.0123C11.5191 24.9796 13.0806 26.5802 14.9999 26.5802C16.9192 26.5802 18.4807 24.9796 18.4807 23.0123V13.5873H20.6562V23.0123C20.6562 26.2092 18.1188 28.8101 14.9999 28.8101ZM22.3967 13.5873H22.4547C23.4143 13.5873 24.1951 14.3876 24.1951 15.3712C24.1951 16.3549 23.4143 17.1551 22.4547 17.1551H22.3967V13.5873ZM22.4547 21.1689H22.3967V18.939H22.4547C24.374 18.939 25.9355 17.3385 25.9355 15.3712C25.9355 13.4039 24.374 11.8034 22.4547 11.8034H13.2595V9.57347H22.4547C25.5736 9.57347 28.111 12.1743 28.111 15.3712C28.111 18.5681 25.5736 21.1689 22.4547 21.1689Z" fill="black"/>
<path fill-rule="evenodd" clip-rule="evenodd" d="M22.5448 7.64166C22.4983 3.42309 19.1352 0 15 0C10.8648 0 7.50169 3.42309 7.45524 7.64166C3.33258 7.69125 0 11.1429 0 15.3713C0 19.5997 3.33258 23.0513 7.45524 23.1009C7.50169 27.3195 10.8648 30.7426 15 30.7426C19.1352 30.7426 22.4983 27.3195 22.5448 23.1009C26.6674 23.0513 30 19.5997 30 15.3713C30 11.1429 26.6674 7.69125 22.5448 7.64166ZM22.4547 7.78963H22.3967V7.73017C22.3967 3.54961 19.0786 0.148515 15 0.148515C10.9214 0.148515 7.60326 3.54961 7.60326 7.73017V7.78963H7.54525C3.46666 7.78963 0.148515 11.1907 0.148515 15.3713C0.148515 19.5518 3.46666 22.9529 7.54525 22.9529H7.60326V23.0124C7.60326 27.193 10.9214 30.5941 15 30.5941C19.0786 30.5941 22.3967 27.193 22.3967 23.0124V22.9529H22.4547C26.5333 22.9529 29.8515 19.5518 29.8515 15.3713C29.8515 11.1907 26.5333 7.78963 22.4547 7.78963ZM20.5071 7.64112C20.4606 4.56377 18.0045 2.08095 15 2.08095C11.9665 2.08095 9.49219 4.61181 9.49219 7.73017V17.0067H11.3707V7.73017C11.3707 5.68432 12.9952 4.01382 15 4.01382C16.9756 4.01382 18.582 5.63607 18.6283 7.64112H20.5071ZM20.6557 7.64112C20.6091 4.48511 18.0899 1.93243 15 1.93243C11.8811 1.93243 9.34367 4.53327 9.34367 7.73017V17.1552H11.5192V7.73017C11.5192 5.76286 13.0807 4.16233 15 4.16233C16.9193 4.16233 18.4808 5.76286 18.4808 7.73017V7.78963H20.6563V7.73017C20.6563 7.70043 20.6561 7.67075 20.6557 7.64112ZM13.2617 23.1015C13.2603 23.072 13.2596 23.0423 13.2596 23.0124V22.9529H16.7404V23.0124C16.7404 23.0423 16.7397 23.072 16.7383 23.1015C16.6928 24.0439 15.9305 24.7963 15 24.7963C14.0695 24.7963 13.3072 24.0439 13.2617 23.1015ZM16.5896 23.1015H13.4104C13.4557 23.9649 14.1547 24.6478 15 24.6478C15.8453 24.6478 16.5443 23.9649 16.5896 23.1015ZM13.4081 17.0067V13.7359H16.5919V17.0067H13.4081ZM16.7383 7.64112C16.6928 6.69867 15.9305 5.94625 15 5.94625C14.0695 5.94625 13.3072 6.69867 13.2617 7.64112C13.2603 7.67062 13.2596 7.70031 13.2596 7.73017V7.78963H16.7404V7.73017C16.7404 7.70031 16.7397 7.67062 16.7383 7.64112ZM16.5896 7.64112C16.5443 6.77764 15.8453 6.09476 15 6.09476C14.1547 6.09476 13.4557 6.77764 13.4104 7.64112H16.5896ZM5.95336 15.3713C5.95336 16.245 6.62206 16.9557 7.45475 17.0041V13.7385C6.62206 13.7868 5.95336 14.4976 5.95336 15.3713ZM7.45475 13.5898C6.53698 13.6382 5.80484 14.4187 5.80484 15.3713C5.80484 16.3238 6.53698 17.1044 7.45475 17.1528C7.48472 17.1544 7.5149 17.1552 7.54525 17.1552H7.60326V13.5874H7.54525C7.5149 13.5874 7.48472 13.5882 7.45475 13.5898ZM7.45475 9.72282C4.46272 9.77256 2.03744 12.284 2.03744 15.3713C2.03744 18.4896 4.51178 21.0205 7.54525 21.0205H16.5919V19.0876H7.54525C5.54047 19.0876 3.91592 17.4171 3.91592 15.3713C3.91592 13.3563 5.49181 11.7054 7.45475 11.6561V9.72282ZM7.45475 9.57428C4.37739 9.62401 1.88892 12.2054 1.88892 15.3713C1.88892 18.5682 4.42632 21.169 7.54525 21.169H16.7404V18.9391H7.54525C5.62593 18.9391 4.06443 17.3386 4.06443 15.3713C4.06443 13.404 5.62593 11.8034 7.54525 11.8034H7.60326V9.57355H7.54525C7.51503 9.57355 7.48486 9.5738 7.45475 9.57428ZM9.49286 23.1015C9.53943 26.1788 11.9955 28.6616 15 28.6616C18.0335 28.6616 20.5078 26.1308 20.5078 23.0124V13.7359H18.6293V23.0124C18.6293 25.0583 17.0048 26.7288 15 26.7288C13.0244 26.7288 11.418 25.1065 11.3717 23.1015H9.49286ZM9.34433 23.1015C9.39093 26.2575 11.9101 28.8101 15 28.8101C18.1189 28.8101 20.6563 26.2093 20.6563 23.0124V13.5874H18.4808V23.0124C18.4808 24.9797 16.9193 26.5802 15 26.5802C13.0807 26.5802 11.5192 24.9797 11.5192 23.0124V22.9529H9.34367V23.0124C9.34367 23.0421 9.34389 23.0718 9.34433 23.1015ZM24.0466 15.3713C24.0466 14.4976 23.3779 13.7868 22.5452 13.7385V17.0041C23.3779 16.9557 24.0466 16.245 24.0466 15.3713ZM22.5452 17.1528C22.5153 17.1544 22.4851 17.1552 22.4547 17.1552H22.3967V13.5874H22.4547C22.4851 13.5874 22.5153 13.5882 22.5452 13.5898C23.463 13.6382 24.1952 14.4187 24.1952 15.3713C24.1952 16.3238 23.463 17.1044 22.5452 17.1528ZM22.5452 21.0198C25.5373 20.97 27.9626 18.4586 27.9626 15.3713C27.9626 12.2529 25.4882 9.72207 22.4547 9.72207H13.4081V11.6549H22.4547C24.4595 11.6549 26.0841 13.3254 26.0841 15.3713C26.0841 17.3863 24.5082 19.0371 22.5452 19.0865V21.0198ZM22.5452 21.1683C25.6226 21.1186 28.1111 18.5372 28.1111 15.3713C28.1111 12.1744 25.5737 9.57355 22.4547 9.57355H13.2596V11.8034H22.4547C24.3741 11.8034 25.9356 13.404 25.9356 15.3713C25.9356 17.3386 24.3741 18.9391 22.4547 18.9391H22.3967V21.169H22.4547C22.485 21.169 22.5151 21.1688 22.5452 21.1683ZM16.7404 17.1552V13.5874H13.2596V17.1552H16.7404Z" fill="black"/>
</svg>
