<svg width="30" height="28" viewBox="0 0 30 28" fill="none" xmlns="http://www.w3.org/2000/svg">
<path d="M26.3706 0.148438H3.62925C1.70993 0.148438 0.148438 1.74897 0.148438 3.71627V16.3226C0.148438 18.2899 1.70993 19.8905 3.62925 19.8905H7.2167C7.65099 23.8987 10.9756 27.0261 14.9999 27.0261C19.0243 27.0261 22.3489 23.8987 22.7831 19.8905H26.3706C28.2899 19.8905 29.8514 18.2899 29.8514 16.3226V3.71627C29.8514 1.74897 28.2899 0.148438 26.3706 0.148438ZM14.9999 10.9709C12.6856 10.9709 10.6028 12.0055 9.16781 13.6468H6.23987V6.39215H23.76V13.6468H20.832C19.397 12.0055 17.3143 10.9709 14.9999 10.9709ZM14.9999 25.2422C11.6411 25.2422 8.90849 22.4413 8.90849 18.9985C8.90849 15.5557 11.6411 12.7548 14.9999 12.7548C18.3587 12.7548 21.0914 15.5557 21.0914 18.9985C21.0914 22.4413 18.3587 25.2422 14.9999 25.2422ZM28.111 16.3226C28.111 17.3063 27.3302 18.1066 26.3706 18.1066H22.7831C22.6801 17.1549 22.414 16.2529 22.0143 15.4307H25.5004V4.60823H4.49946V15.4307H7.98555C7.58584 16.2529 7.31979 17.1549 7.2167 18.1066H3.62925C2.66959 18.1066 1.88885 17.3063 1.88885 16.3226V3.71627C1.88885 2.73262 2.66959 1.93236 3.62925 1.93236H26.3706C27.3302 1.93236 28.111 2.73262 28.111 3.71627V16.3226Z" fill="black"/>
<path fill-rule="evenodd" clip-rule="evenodd" d="M4.49954 15.4308V4.60831H25.5005V15.4308H22.0144C22.0383 15.48 22.0617 15.5295 22.0847 15.5793C22.4453 16.3612 22.6863 17.2119 22.7832 18.1066H26.3707C27.3303 18.1066 28.1111 17.3064 28.1111 16.3227V3.71635C28.1111 2.7327 27.3303 1.93243 26.3707 1.93243H3.62933C2.66967 1.93243 1.88892 2.7327 1.88892 3.71635V16.3227C1.88892 17.3064 2.66967 18.1066 3.62933 18.1066H7.21678C7.3137 17.2119 7.55465 16.3612 7.91529 15.5793C7.93826 15.5295 7.9617 15.48 7.98563 15.4308H4.49954ZM7.75205 15.5793H4.35102V4.4598H25.649V15.5793H22.2479C22.5819 16.3195 22.811 17.1192 22.9154 17.9581H26.3707C27.2449 17.9581 27.9626 17.2278 27.9626 16.3227V3.71635C27.9626 2.81124 27.2449 2.08095 26.3707 2.08095H3.62933C2.75513 2.08095 2.03744 2.81124 2.03744 3.71635V16.3227C2.03744 17.2278 2.75513 17.9581 3.62933 17.9581H7.08455C7.18901 17.1192 7.41805 16.3195 7.75205 15.5793ZM3.62933 0H26.3707C28.3754 0 30 1.6705 30 3.71635V16.3227C30 18.3686 28.3754 20.0391 26.3707 20.0391H22.9154C22.4153 24.0551 19.0595 27.1747 15 27.1747C10.9405 27.1747 7.58472 24.0551 7.08456 20.0391H3.62933C1.62455 20.0391 0 18.3686 0 16.3227V3.71635C0 1.6705 1.62455 0 3.62933 0ZM7.21678 19.8905H3.62933C1.71001 19.8905 0.148515 18.29 0.148515 16.3227V3.71635C0.148515 1.74905 1.71001 0.148515 3.62933 0.148515H26.3707C28.29 0.148515 29.8515 1.74905 29.8515 3.71635V16.3227C29.8515 18.29 28.29 19.8905 26.3707 19.8905H22.7832C22.3489 23.8988 19.0243 27.0262 15 27.0262C10.9757 27.0262 7.65107 23.8988 7.21678 19.8905ZM9.10084 13.4983C10.5607 11.8562 12.6642 10.8224 15 10.8224C17.3358 10.8224 19.4393 11.8562 20.8992 13.4983H23.6115V6.54074H6.38846V13.4983H9.10084ZM9.16789 13.6468C10.6029 12.0056 12.6857 10.971 15 10.971C17.3143 10.971 19.3971 12.0056 20.8321 13.6468H23.7601V6.39223H6.23994V13.6468H9.16789ZM9.05709 18.9986C9.05709 22.3628 11.7266 25.0938 15 25.0938C18.2734 25.0938 20.9429 22.3628 20.9429 18.9986C20.9429 15.6343 18.2734 12.9034 15 12.9034C11.7266 12.9034 9.05709 15.6343 9.05709 18.9986ZM8.90857 18.9986C8.90857 22.4414 11.6412 25.2423 15 25.2423C18.3588 25.2423 21.0914 22.4414 21.0914 18.9986C21.0914 15.5558 18.3588 12.7549 15 12.7549C11.6412 12.7549 8.90857 15.5558 8.90857 18.9986Z" fill="black"/>
<path d="M15.0003 15.4297C13.081 15.4297 11.5195 17.0302 11.5195 18.9975C11.5195 20.9648 13.081 22.5654 15.0003 22.5654C16.9197 22.5654 18.4812 20.9648 18.4812 18.9975C18.4812 17.0302 16.9197 15.4297 15.0003 15.4297ZM15.0003 20.7814C14.0407 20.7814 13.2599 19.9812 13.2599 18.9975C13.2599 18.0139 14.0407 17.2136 15.0003 17.2136C15.96 17.2136 16.7408 18.0139 16.7408 18.9975C16.7408 19.9812 15.96 20.7814 15.0003 20.7814Z" fill="black"/>
<path fill-rule="evenodd" clip-rule="evenodd" d="M11.3711 18.9996C11.3711 16.9537 12.9956 15.2832 15.0004 15.2832C17.0052 15.2832 18.6298 16.9537 18.6298 18.9996C18.6298 21.0454 17.0052 22.7159 15.0004 22.7159C12.9956 22.7159 11.3711 21.0454 11.3711 18.9996ZM13.4085 18.9996C13.4085 19.9047 14.1262 20.635 15.0004 20.635C15.8746 20.635 16.5923 19.9047 16.5923 18.9996C16.5923 18.0944 15.8746 17.3642 15.0004 17.3642C14.1262 17.3642 13.4085 18.0944 13.4085 18.9996ZM11.5196 18.9996C11.5196 17.0322 13.0811 15.4317 15.0004 15.4317C16.9197 15.4317 18.4812 17.0322 18.4812 18.9996C18.4812 20.9669 16.9197 22.5674 15.0004 22.5674C13.0811 22.5674 11.5196 20.9669 11.5196 18.9996ZM13.26 18.9996C13.26 19.9832 14.0408 20.7835 15.0004 20.7835C15.9601 20.7835 16.7408 19.9832 16.7408 18.9996C16.7408 18.0159 15.9601 17.2156 15.0004 17.2156C14.0408 17.2156 13.26 18.0159 13.26 18.9996Z" fill="black"/>
</svg>
