<svg width="30" height="30" viewBox="0 0 30 30" fill="none" xmlns="http://www.w3.org/2000/svg">
<path d="M4.51592 8.88736C2.10551 8.88736 0.144531 6.92632 0.144531 4.51592C0.144531 2.10551 2.10551 0.144531 4.51592 0.144531C6.92632 0.144531 8.8873 2.10551 8.8873 4.51592C8.88736 6.92632 6.92632 8.88736 4.51592 8.88736ZM4.51592 1.88536C3.0654 1.88536 1.88536 3.0654 1.88536 4.51592C1.88536 5.96643 3.0654 7.14648 4.51592 7.14648C5.96643 7.14648 7.14648 5.96643 7.14648 4.51592C7.14654 3.0654 5.96643 1.88536 4.51592 1.88536Z" fill="black"/>
<path fill-rule="evenodd" clip-rule="evenodd" d="M4.51631 9.03269C2.02586 9.03269 0 7.00676 0 4.51631C0 2.02587 2.02587 0 4.51631 0C7.00676 0 9.03263 2.02587 9.03263 4.51631C9.03269 7.00676 7.00676 9.03269 4.51631 9.03269ZM4.51631 2.03068C3.14584 2.03068 2.03068 3.14584 2.03068 4.51631C2.03068 5.88679 3.14584 7.00195 4.51631 7.00195C5.88679 7.00195 7.00195 5.88679 7.00195 4.51631C7.002 3.14585 5.88679 2.03068 4.51631 2.03068ZM0.144927 4.51631C0.144927 6.92672 2.10591 8.88776 4.51631 8.88776C6.92672 8.88776 8.88776 6.92672 8.8877 4.51631C8.8877 2.10591 6.92672 0.144927 4.51631 0.144927C2.10591 0.144927 0.144927 2.10591 0.144927 4.51631ZM1.88575 4.51631C1.88575 3.0658 3.0658 1.88575 4.51631 1.88575C5.96683 1.88575 7.14693 3.0658 7.14687 4.51631C7.14687 5.96683 5.96683 7.14688 4.51631 7.14688C3.0658 7.14688 1.88575 5.96683 1.88575 4.51631Z" fill="black"/>
<path d="M29.8517 8.88736H9.03906L9.80033 7.57919C10.34 6.65174 10.6253 5.5925 10.6253 4.51598C10.6253 3.43945 10.34 2.38022 9.80033 1.45276L9.03906 0.144531H29.8517V8.88736ZM11.9118 7.14654H28.1109V1.88536H11.9118C12.211 2.72606 12.3661 3.61638 12.3661 4.51592C12.3661 5.41546 12.2111 6.30578 11.9118 7.14654Z" fill="black"/>
<path fill-rule="evenodd" clip-rule="evenodd" d="M29.9987 9.03269H8.78906L9.67708 7.50669L9.80234 7.57959L9.04108 8.88776H29.8538V0.144927H9.04108L9.80234 1.45316C10.3421 2.38061 10.6273 3.43985 10.6273 4.51637C10.6273 5.5929 10.3421 6.65213 9.80234 7.57959L9.67708 7.50669C10.2039 6.60145 10.4824 5.56738 10.4824 4.51637C10.4824 3.46537 10.2039 2.4313 9.67708 1.52605L8.78907 0H29.9987V9.03269ZM28.1129 7.14693H11.9138C11.9309 7.09878 11.9476 7.05047 11.9638 7.00201C12.2303 6.20417 12.3681 5.36434 12.3681 4.51631C12.3681 3.66829 12.2303 2.82847 11.9638 2.03068C11.9476 1.98221 11.9309 1.9339 11.9138 1.88575H28.1129V7.14693ZM27.968 2.03068H12.1164C12.3779 2.82948 12.513 3.66886 12.513 4.5163M27.968 2.03068V7.00201H12.1164C12.378 6.20316 12.5131 5.36376 12.513 4.5163" fill="black"/>
<path d="M25.4847 29.8561C23.0743 29.8561 21.1133 27.8951 21.1133 25.4847C21.1133 23.0743 23.0743 21.1133 25.4847 21.1133C27.8951 21.1133 29.8561 23.0743 29.8561 25.4847C29.8561 27.8951 27.8951 29.8561 25.4847 29.8561ZM25.4847 22.854C24.0342 22.854 22.8541 24.0341 22.8541 25.4846C22.8541 26.9351 24.0342 28.1152 25.4847 28.1152C26.9352 28.1152 28.1152 26.9352 28.1152 25.4847C28.1152 24.0342 26.9352 22.854 25.4847 22.854Z" fill="black"/>
<path fill-rule="evenodd" clip-rule="evenodd" d="M25.4851 30.0014C22.9946 30.0014 20.9688 27.9755 20.9688 25.4851C20.9688 22.9946 22.9946 20.9688 25.4851 20.9688C27.9755 20.9688 30.0014 22.9946 30.0014 25.4851C30.0014 27.9755 27.9755 30.0014 25.4851 30.0014ZM25.4851 22.9994C24.1146 22.9994 22.9994 24.1145 22.9994 25.485C22.9994 26.8555 24.1146 27.9706 25.4851 27.9706C26.8555 27.9707 27.9707 26.8555 27.9707 25.4851C27.9707 24.1146 26.8555 22.9994 25.4851 22.9994ZM21.1137 25.4851C21.1137 27.8955 23.0747 29.8564 25.4851 29.8564C27.8955 29.8564 29.8564 27.8955 29.8564 25.4851C29.8564 23.0747 27.8955 21.1137 25.4851 21.1137C23.0747 21.1137 21.1137 23.0747 21.1137 25.4851ZM22.8545 25.485C22.8545 24.0345 24.0345 22.8544 25.4851 22.8544C26.9356 22.8544 28.1156 24.0345 28.1156 25.4851C28.1156 26.9356 26.9356 28.1156 25.4851 28.1156C24.0345 28.1156 22.8545 26.9355 22.8545 25.485Z" fill="black"/>
<path d="M15.0003 19.3717C12.5899 19.3717 10.6289 17.4107 10.6289 15.0003C10.6289 12.5899 12.5899 10.6289 15.0003 10.6289C17.4107 10.6289 19.3717 12.5899 19.3717 15.0003C19.3717 17.4107 17.4107 19.3717 15.0003 19.3717ZM15.0003 12.3697C13.5498 12.3697 12.3697 13.5498 12.3697 15.0003C12.3697 16.4508 13.5498 17.6309 15.0003 17.6309C16.4508 17.6309 17.6309 16.4508 17.6309 15.0003C17.6309 13.5498 16.4508 12.3697 15.0003 12.3697Z" fill="black"/>
<path fill-rule="evenodd" clip-rule="evenodd" d="M15.0007 19.517C12.5102 19.517 10.4844 17.4911 10.4844 15.0007C10.4844 12.5102 12.5102 10.4844 15.0007 10.4844C17.4911 10.4844 19.517 12.5102 19.517 15.0007C19.517 17.4911 17.4911 19.517 15.0007 19.517ZM15.0007 12.5151C13.6302 12.5151 12.5151 13.6302 12.5151 15.0007C12.5151 16.3712 13.6302 17.4863 15.0007 17.4863C16.3712 17.4863 17.4863 16.3712 17.4863 15.0007C17.4863 13.6302 16.3712 12.5151 15.0007 12.5151ZM10.6293 15.0007C10.6293 17.4111 12.5903 19.3721 15.0007 19.3721C17.4111 19.3721 19.3721 17.4111 19.3721 15.0007C19.3721 12.5903 17.4111 10.6293 15.0007 10.6293C12.5903 10.6293 10.6293 12.5903 10.6293 15.0007ZM12.3701 15.0007C12.3701 13.5502 13.5502 12.3701 15.0007 12.3701C16.4512 12.3701 17.6312 13.5502 17.6312 15.0007C17.6312 16.4512 16.4512 17.6312 15.0007 17.6312C13.5502 17.6312 12.3701 16.4512 12.3701 15.0007Z" fill="black"/>
<path d="M10.4735 19.3717H0.144531V10.6289H10.4735L9.71228 11.9371C9.17257 12.8646 8.8873 13.9238 8.8873 15.0004C8.8873 16.0769 9.17257 17.1361 9.71228 18.0636L10.4735 19.3717ZM1.88536 17.6309H7.60083C7.30159 16.7902 7.14654 15.8998 7.14654 15.0003C7.14654 14.1008 7.30159 13.2104 7.60083 12.3697H1.88536V17.6309Z" fill="black"/>
<path fill-rule="evenodd" clip-rule="evenodd" d="M10.7259 19.517H0V10.4844H10.7259L9.83794 12.0104L9.71268 11.9375L10.4739 10.6293H0.144927V19.3721H10.4739L9.71268 18.064C9.17296 17.1365 8.8877 16.0773 8.8877 15.0007C8.8877 13.9242 9.17296 12.865 9.71268 11.9375L9.83794 12.0104C9.31115 12.9157 9.03263 13.9497 9.03263 15.0007C9.03263 16.0518 9.31115 17.0858 9.83794 17.9911L10.7259 19.517ZM7.60123 17.6312C7.58409 17.5831 7.56743 17.5348 7.55124 17.4863C7.28473 16.6885 7.14693 15.8487 7.14693 15.0007C7.14693 14.1527 7.28473 13.3128 7.55124 12.5151C7.56743 12.4666 7.58409 12.4183 7.60123 12.3701H1.88575V17.6312H7.60123ZM2.03068 17.4863H7.39859C7.13712 16.6875 7.002 15.8481 7.002 15.0007C7.002 14.1533 7.13712 13.3139 7.39859 12.5151H2.03068V17.4863Z" fill="black"/>
<path d="M29.8524 19.3718H19.5234L20.2846 18.0636C20.8244 17.1361 21.1096 16.0769 21.1096 15.0004C21.1096 13.9238 20.8244 12.8646 20.2846 11.9371L19.5234 10.6289H29.8524V19.3718ZM22.3961 17.631H28.1116V12.3698H22.3961C22.6953 13.2105 22.8504 14.1009 22.8504 15.0004C22.8504 15.8998 22.6953 16.7903 22.3961 17.631Z" fill="black"/>
<path fill-rule="evenodd" clip-rule="evenodd" d="M29.9993 19.5171H19.2734L20.1614 17.9911C20.6882 17.0858 20.9667 16.0518 20.9667 15.0007C20.9667 13.9497 20.6882 12.9157 20.1614 12.0104L19.2734 10.4844H29.9993V19.5171ZM29.8544 10.6293V19.3722H19.5254L20.2867 18.064C20.8264 17.1365 21.1116 16.0773 21.1116 15.0007C21.1116 13.9242 20.8264 12.865 20.2867 11.9375L19.5254 10.6293H29.8544ZM28.1136 17.6314H22.3981C22.4152 17.5832 22.4319 17.5349 22.4481 17.4864C22.7146 16.6886 22.8524 15.8487 22.8524 15.0007C22.8524 14.1528 22.7146 13.3129 22.4481 12.5151C22.4319 12.4666 22.4152 12.4183 22.3981 12.3702H28.1136V17.6314ZM27.9686 12.5151H22.6007C22.8622 13.3139 22.9973 14.1533 22.9973 15.0007C22.9973 15.8481 22.8622 16.6876 22.6007 17.4864H27.9686V12.5151Z" fill="black"/>
<path d="M20.9572 29.8561H0.144531V21.1133H20.9572L20.1959 22.4215C19.6562 23.3489 19.371 24.4082 19.371 25.4847C19.371 26.5613 19.6562 27.6205 20.1959 28.5479L20.9572 29.8561ZM1.88536 28.1153H18.0845C17.7852 27.2746 17.6302 26.3843 17.6302 25.4847C17.6302 24.5852 17.7852 23.6949 18.0845 22.8542H1.88536V28.1153Z" fill="black"/>
<path fill-rule="evenodd" clip-rule="evenodd" d="M21.2096 30.0014H0V20.9688H21.2096L20.3216 22.4947C19.7948 23.4 19.5163 24.4341 19.5163 25.4851C19.5163 26.5361 19.7948 27.5702 20.3216 28.4754L21.2096 30.0014ZM20.9576 29.8565L20.1963 28.5483C19.6566 27.6209 19.3714 26.5616 19.3714 25.4851C19.3714 24.4086 19.6566 23.3493 20.1963 22.4218L20.9576 21.1137H0.144927V29.8565H20.9576ZM18.0849 28.1157C18.0677 28.0675 18.0511 28.0192 18.0349 27.9708C17.7684 27.173 17.6306 26.3331 17.6306 25.4851C17.6306 24.6371 17.7684 23.7973 18.0349 22.9995C18.0511 22.951 18.0677 22.9027 18.0849 22.8546H1.88575V28.1157H18.0849ZM2.03068 27.9708H17.8822C17.6208 27.172 17.4857 26.3326 17.4857 25.4851C17.4857 24.6377 17.6208 23.7983 17.8822 22.9995H2.03068V27.9708Z" fill="black"/>
</svg>
