<svg width="30" height="30" viewBox="0 0 30 30" fill="none" xmlns="http://www.w3.org/2000/svg">
<path d="M25.7678 2.57177C25.3102 2.1141 24.5682 2.1141 24.1106 2.57177L18.2293 8.453C17.6145 8.04537 16.9189 7.75029 16.1719 7.59806V3.9646C16.1719 3.31738 15.6472 2.79273 15 2.79273C14.3528 2.79273 13.8281 3.31738 13.8281 3.9646V7.59806C13.0811 7.75029 12.3855 8.04537 11.7707 8.453L5.88943 2.57177C5.43176 2.1141 4.68979 2.1141 4.23217 2.57177C1.50299 5.30089 0 9.12501 0 13.3396C0 19.9567 3.99961 25.6042 9.92092 27.7035C10.5321 27.9203 11.2012 27.5993 11.417 26.9906C11.6333 26.3806 11.3141 25.7107 10.7041 25.4945C5.62535 23.6939 2.34375 18.9228 2.34375 13.3396C2.34375 10.1858 3.31629 7.30474 5.10398 5.10085L6.76236 6.75923C5.26623 8.62339 4.45312 10.92 4.45312 13.3396C4.45312 16.1527 5.55129 18.8002 7.54535 20.7943C7.77416 21.0231 8.07404 21.1375 8.37398 21.1375C8.67393 21.1375 8.97381 21.0231 9.20262 20.7943L11.7707 18.2262C12.3855 18.6338 13.0811 18.9289 13.8281 19.0811V22.7146C13.8281 23.3618 14.3528 23.8865 15 23.8865C15.6472 23.8865 16.1719 23.3618 16.1719 22.7146V19.0811C16.9189 18.9289 17.6145 18.6338 18.2293 18.2262L20.7974 20.7943C21.0262 21.0231 21.3261 21.1375 21.626 21.1375C21.926 21.1375 22.2258 21.0231 22.4546 20.7943C24.4487 18.8001 25.5469 16.1527 25.5469 13.3396C25.5469 10.92 24.7338 8.62339 23.2376 6.75923L24.896 5.10085C26.6837 7.30474 27.6562 10.1858 27.6562 13.3396C27.6562 18.9228 24.3746 23.6939 19.2959 25.4945C18.6859 25.7107 18.3667 26.3806 18.583 26.9905C18.7993 27.6007 19.4693 27.9197 20.0791 27.7035C26.0012 25.6039 30 19.956 30 13.3396C30 9.12501 28.497 5.30089 25.7678 2.57177ZM17.4846 15.8242C17.4837 15.825 17.483 15.826 17.4821 15.8268C16.8458 16.4619 15.968 16.8552 15 16.8552C14.032 16.8552 13.1542 16.4619 12.5179 15.8268C12.517 15.8259 12.5163 15.825 12.5154 15.8242C12.5146 15.8233 12.5136 15.8226 12.5128 15.8218C11.8777 15.1854 11.4844 14.3076 11.4844 13.3396C11.4844 12.3716 11.8777 11.4938 12.5128 10.8575C12.5136 10.8566 12.5146 10.8559 12.5154 10.8551C12.5163 10.8542 12.517 10.8532 12.5179 10.8524C13.1542 10.2173 14.032 9.82398 15 9.82398C15.968 9.82398 16.8458 10.2173 17.4821 10.8524C17.483 10.8532 17.4837 10.8542 17.4846 10.8551C17.4854 10.8559 17.4864 10.8566 17.4872 10.8575C18.1223 11.4938 18.5156 12.3716 18.5156 13.3396C18.5156 14.3076 18.1223 15.1854 17.4872 15.8218C17.4864 15.8226 17.4854 15.8233 17.4846 15.8242ZM8.43217 18.2502C7.3708 16.8386 6.79688 15.1322 6.79688 13.3396C6.79688 11.547 7.37121 9.8408 8.43246 8.42933L10.1134 10.1103C9.49904 11.0368 9.14062 12.147 9.14062 13.3396C9.14062 14.5322 9.49904 15.6424 10.1134 16.5689L8.43217 18.2502ZM23.2031 13.3396C23.2031 15.1322 22.6292 16.8387 21.5678 18.2502L19.8866 16.5689C20.501 15.6424 20.8594 14.5322 20.8594 13.3396C20.8594 12.147 20.501 11.0368 19.8866 10.1103L21.5675 8.42933C22.6288 9.8408 23.2031 11.547 23.2031 13.3396Z" fill="black"/>
<path d="M15 14.5117C15.6472 14.5117 16.1719 13.9871 16.1719 13.3398C16.1719 12.6926 15.6472 12.168 15 12.168C14.3528 12.168 13.8281 12.6926 13.8281 13.3398C13.8281 13.9871 14.3528 14.5117 15 14.5117Z" fill="black"/>
</svg>
