<svg width="32" height="32" viewBox="0 0 32 32" fill="none" xmlns="http://www.w3.org/2000/svg">
<g clip-path="url(#clip0_957_1369)">
<path d="M28.3744 16L31.634 12.7405C32.1221 12.2523 32.1221 11.4608 31.6339 10.9727C31.1458 10.4845 30.3543 10.4845 29.8662 10.9727L26.6067 14.2322L23.0711 10.6967L26.3307 7.43714C26.8188 6.94895 26.8188 6.15752 26.3307 5.66939C25.8425 5.1812 25.051 5.1812 24.5629 5.66939L21.3034 8.92889L17.7679 5.39339L21.0274 2.13389C21.5156 1.6457 21.5156 0.854266 21.0275 0.366141C20.5392 -0.122047 19.7478 -0.121984 19.2596 0.366141L16 3.62564L12.7405 0.366141C12.2523 -0.122047 11.4608 -0.122047 10.9727 0.366141C10.4846 0.854328 10.4846 1.64577 10.9728 2.13389L14.2323 5.39339L10.6968 8.92889L7.43721 5.66939C6.94902 5.1812 6.15752 5.1812 5.6694 5.66939C5.18127 6.15758 5.18127 6.94902 5.6694 7.43714L8.92896 10.6967L5.39346 14.2322L2.13396 10.9727C1.64577 10.4845 0.854211 10.4845 0.366211 10.9727C-0.121977 11.4609 -0.121977 12.2523 0.366148 12.7405L3.62565 16L0.366148 19.2595C-0.122039 19.7476 -0.122039 20.5391 0.366086 21.0272C0.854211 21.5153 1.64559 21.5154 2.1339 21.0272L5.3934 17.7678L8.92896 21.3033L5.6694 24.5628C5.18127 25.051 5.18127 25.8424 5.6694 26.3306C6.15752 26.8187 6.94902 26.8188 7.43721 26.3306L10.6967 23.0711L14.2322 26.6066L10.9726 29.8661C10.4845 30.3543 10.4845 31.1458 10.9727 31.6339C11.4607 32.122 12.2523 32.1221 12.7405 31.6339L16 28.3744L19.2595 31.6339C19.7477 32.122 20.5392 32.1221 21.0273 31.6339C21.5155 31.1457 21.5155 30.3543 21.0273 29.8661L17.7678 26.6066L21.3033 23.0711L24.5628 26.3306C25.0509 26.8187 25.8424 26.8188 26.3306 26.3306C26.8187 25.8424 26.8187 25.051 26.3306 24.5628L23.071 21.3033L26.6066 17.7678L29.8661 21.0272C30.3542 21.5153 31.1457 21.5154 31.6339 21.0272C32.122 20.539 32.122 19.7476 31.6338 19.2595L28.3744 16ZM16 7.16114L19.5355 10.6966L16 14.2322L12.4645 10.6967L16 7.16114ZM7.16121 16L10.6967 12.4645L14.2322 16L10.6967 19.5355L7.16121 16ZM16 24.8388L12.4645 21.3033L16 17.7678L19.5355 21.3033L16 24.8388ZM21.3033 19.5354L17.7678 16L21.3033 12.4645L24.8388 16L21.3033 19.5354Z" fill="black"/>
</g>
<defs>
<clipPath id="clip0_957_1369">
<rect width="32" height="32" fill="white"/>
</clipPath>
</defs>
</svg>
