<svg width="30" height="30" viewBox="0 0 30 30" fill="none" xmlns="http://www.w3.org/2000/svg">
<path d="M25.5015 25.5015C28.3066 22.6964 29.8514 18.9669 29.8514 14.9999C29.8514 11.033 28.3066 7.30343 25.5015 4.4983C22.6964 1.69328 18.9669 0.148438 14.9999 0.148438C11.033 0.148438 7.30343 1.69328 4.4983 4.4983C1.69328 7.30343 0.148438 11.033 0.148438 14.9999C0.148438 18.9669 1.69328 22.6964 4.4983 25.5015C7.30343 28.3066 11.033 29.8514 14.9999 29.8514C18.9669 29.8514 22.6964 28.3066 25.5015 25.5015ZM21.1494 14.9999C21.1494 18.3908 18.3908 21.1494 14.9999 21.1494C11.6091 21.1494 8.85048 18.3908 8.85048 14.9999C8.85048 11.6091 11.6091 8.85048 14.9999 8.85048C18.3908 8.85048 21.1494 11.6091 21.1494 14.9999ZM7.15828 15.8701C7.59286 19.8126 10.9436 22.8898 14.9999 22.8898C19.0563 22.8898 22.407 19.8126 22.8416 15.8701H24.5904C24.1491 20.774 20.0167 24.6302 14.9999 24.6302C9.98314 24.6302 5.85077 20.774 5.4094 15.8701H7.15828ZM14.9999 1.88885C18.502 1.88885 21.7945 3.25263 24.2708 5.729C26.5409 7.99913 27.8752 10.9552 28.0819 14.1297H22.8416C22.407 10.1872 19.0563 7.11007 14.9999 7.11007C10.9436 7.11007 7.59286 10.1872 7.15828 14.1297H1.91797C2.12461 10.9552 3.45893 7.99907 5.729 5.729C8.20537 3.25263 11.4978 1.88885 14.9999 1.88885ZM5.729 24.2708C3.45893 22.0008 2.12461 19.0446 1.91797 15.8701H3.66226C4.10821 21.735 9.0229 26.3706 14.9999 26.3706C20.9769 26.3706 25.8916 21.735 26.3376 15.8701H28.0819C27.8752 19.0446 26.5409 22.0008 24.2708 24.2708C21.7945 26.7472 18.502 28.111 14.9999 28.111C11.4978 28.111 8.20537 26.7472 5.729 24.2708Z" fill="black"/>
<path fill-rule="evenodd" clip-rule="evenodd" d="M4.39336 4.39336C7.22634 1.56049 10.9936 0 15 0C19.0064 0 22.7737 1.56049 25.6066 4.39336L25.5016 4.49838C22.6965 1.69336 18.967 0.148515 15 0.148515C11.033 0.148515 7.30351 1.69336 4.49838 4.49838C1.69336 7.30351 0.148515 11.033 0.148515 15C0.148515 18.967 1.69336 22.6965 4.49838 25.5016L4.39336 25.6066C1.56049 22.7737 0 19.0064 0 15C0 10.9936 1.5605 7.22634 4.39336 4.39336ZM25.5016 25.5016C22.6965 28.3066 18.967 29.8515 15 29.8515C11.033 29.8515 7.30351 28.3066 4.49838 25.5016L4.39336 25.6066C7.22634 28.4395 10.9936 30 15 30C19.0064 30 22.7737 28.4395 25.6066 25.6066L25.5016 25.5016ZM25.5016 25.5016L25.6066 25.6066C28.4395 22.7737 30 19.0064 30 15C30 10.9936 28.4395 7.22634 25.6066 4.39336L25.5016 4.49838C28.3066 7.30351 29.8515 11.033 29.8515 15C29.8515 18.967 28.3066 22.6965 25.5016 25.5016ZM15 21.0009C18.3088 21.0009 21.0009 18.3088 21.0009 15C21.0009 11.6912 18.3088 8.99907 15 8.99907C11.6912 8.99907 8.99907 11.6912 8.99907 15C8.99907 18.3088 11.6912 21.0009 15 21.0009ZM7.02642 16.0187H5.57336C6.08319 20.7695 10.1162 24.4817 15 24.4817C19.8838 24.4817 23.9168 20.7695 24.4266 16.0187H22.9736C22.4713 19.9719 19.0876 23.0384 15 23.0384C10.9124 23.0384 7.5287 19.9719 7.02642 16.0187ZM22.8416 15.8702C22.4071 19.8127 19.0564 22.8899 15 22.8899C10.9436 22.8899 7.59294 19.8127 7.15836 15.8702H5.40948C5.41394 15.9198 5.41879 15.9693 5.42401 16.0187C5.93455 20.8517 10.034 24.6303 15 24.6303C19.966 24.6303 24.0654 20.8517 24.576 16.0187C24.5812 15.9693 24.5861 15.9198 24.5905 15.8702H22.8416ZM24.1659 5.83409C21.7174 3.38557 18.4627 2.03744 15 2.03744C11.5373 2.03744 8.28261 3.38557 5.83409 5.83409C3.62723 8.04095 2.31517 10.9029 2.0775 13.9813H7.02642C7.5287 10.0281 10.9124 6.96163 15 6.96163C19.0876 6.96163 22.4713 10.0281 22.9736 13.9813H27.9225C27.6848 10.9029 26.3728 8.04101 24.1659 5.83409ZM28.0715 13.9813C27.8334 10.8632 26.5056 7.96377 24.2709 5.72908C21.7946 3.25271 18.5021 1.88892 15 1.88892C11.4979 1.88892 8.20545 3.25271 5.72908 5.72908C3.49444 7.96371 2.16658 10.8632 1.92855 13.9813C1.92477 14.0307 1.92127 14.0802 1.91805 14.1298H7.15836C7.59294 10.1873 10.9436 7.11015 15 7.11015C19.0564 7.11015 22.4071 10.1873 22.8416 14.1298H28.082C28.0787 14.0802 28.0752 14.0307 28.0715 13.9813ZM2.0775 16.0187C2.31517 19.0971 3.62723 21.959 5.83409 24.1659C8.28261 26.6144 11.5373 27.9626 15 27.9626C18.4627 27.9626 21.7174 26.6144 24.1659 24.1659C26.3728 21.959 27.6848 19.0971 27.9225 16.0187H26.4745C25.9571 21.8952 21.0086 26.5192 15 26.5192C8.99137 26.5192 4.04291 21.8952 3.52551 16.0187H2.0775ZM1.92855 16.0187C1.92477 15.9693 1.92127 15.9198 1.91805 15.8702H3.66234C4.10829 21.735 9.02297 26.3707 15 26.3707C20.977 26.3707 25.8917 21.735 26.3377 15.8702H28.082C28.0787 15.9198 28.0752 15.9693 28.0715 16.0187C27.8334 19.1368 26.5056 22.0363 24.2709 24.2709C21.7946 26.7473 18.5021 28.1111 15 28.1111C11.4979 28.1111 8.20545 26.7473 5.72908 24.2709C3.49444 22.0363 2.16658 19.1368 1.92855 16.0187ZM15 21.1494C18.3908 21.1494 21.1494 18.3908 21.1494 15C21.1494 11.6092 18.3908 8.85056 15 8.85056C11.6092 8.85056 8.85056 11.6092 8.85056 15C8.85056 18.3908 11.6092 21.1494 15 21.1494Z" fill="black"/>
<path d="M10.5898 14.9989C10.5898 17.4301 12.5677 19.4079 14.9989 19.4079C17.4301 19.4079 19.4079 17.4301 19.4079 14.9989C19.4079 12.5677 17.4301 10.5898 14.9989 10.5898C12.5677 10.5898 10.5898 12.5677 10.5898 14.9989ZM17.6675 14.9989C17.6675 16.4703 16.4703 17.6675 14.9989 17.6675C13.5274 17.6675 12.3303 16.4703 12.3303 14.9989C12.3303 13.5274 13.5274 12.3303 14.9989 12.3303C16.4703 12.3303 17.6675 13.5274 17.6675 14.9989Z" fill="black"/>
<path fill-rule="evenodd" clip-rule="evenodd" d="M14.999 19.5585C12.4858 19.5585 10.4414 17.5141 10.4414 15.0009C10.4414 12.4877 12.4858 10.4434 14.999 10.4434C17.5122 10.4434 19.5565 12.4877 19.5565 15.0009C19.5565 17.5141 17.5122 19.5585 14.999 19.5585ZM14.999 17.521C16.3884 17.521 17.5191 16.3903 17.5191 15.0009C17.5191 13.6115 16.3884 12.4808 14.999 12.4808C13.6095 12.4808 12.4788 13.6115 12.4788 15.0009C12.4788 16.3903 13.6095 17.521 14.999 17.521ZM14.999 19.4099C12.5678 19.4099 10.5899 17.4321 10.5899 15.0009C10.5899 12.5697 12.5678 10.5919 14.999 10.5919C17.4301 10.5919 19.408 12.5697 19.408 15.0009C19.408 17.4321 17.4301 19.4099 14.999 19.4099ZM14.999 17.6695C16.4704 17.6695 17.6676 16.4724 17.6676 15.0009C17.6676 13.5295 16.4704 12.3323 14.999 12.3323C13.5275 12.3323 12.3303 13.5295 12.3303 15.0009C12.3303 16.4724 13.5275 17.6695 14.999 17.6695Z" fill="black"/>
</svg>
