<svg width="32" height="32" viewBox="0 0 32 32" fill="none" xmlns="http://www.w3.org/2000/svg">
<path d="M0.9 8.03125V8.13125H1H8.03125H8.13125V8.03125V1V0.9H8.03125H1H0.9V1V8.03125ZM2.85781 2.85781H6.17344V6.17344H2.85781V2.85781Z" fill="black" stroke="black" stroke-width="0.2"/>
<path d="M16.9203 1V0.9H16.8203H9.78906H9.68906V1V8.03125V8.13125H9.78906H16.8203H16.9203V8.03125V1ZM14.9625 6.17344H11.6469V2.85781H14.9625V6.17344Z" fill="black" stroke="black" stroke-width="0.2"/>
<path d="M25.7094 1V0.9H25.6094H18.5781H18.4781V1V8.03125V8.13125H18.5781H25.6094H25.7094V8.03125V1ZM23.7516 6.17344H20.4359V2.85781H23.7516V6.17344Z" fill="black" stroke="black" stroke-width="0.2"/>
<path d="M0.9 16.8203V16.9203H1H8.03125H8.13125V16.8203V9.78906V9.68906H8.03125H1H0.9V9.78906V16.8203ZM2.85781 11.6469H6.17344V14.9625H2.85781V11.6469Z" fill="black" stroke="black" stroke-width="0.2"/>
<path d="M0.9 25.6094V25.7094H1H8.03125H8.13125V25.6094V18.5781V18.4781H8.03125H1H0.9V18.5781V25.6094ZM2.85781 20.4359H6.17344V23.7516H2.85781V20.4359Z" fill="black" stroke="black" stroke-width="0.2"/>
<path d="M25.7094 18.5781V18.4781H25.6094H18.5781H18.4781V18.5781V25.6094V25.7094H18.5781H25.6094H25.7094V25.6094V18.5781ZM23.7516 23.7516H20.4359V20.4359H23.7516V23.7516Z" fill="black" stroke="black" stroke-width="0.2"/>
<path d="M13.2047 13.3047V18.4781H9.78906H9.68906V18.5781V25.6094V25.7094H9.78906H13.2047V31V31.1H13.3047H31H31.1V31V13.3047V13.2047H31H25.7094V9.78906V9.68906H25.6094H18.5781H18.4781V9.78906V13.2047H13.3047H13.2047V13.3047ZM20.4359 11.6469H23.7516V13.2047H20.4359V11.6469ZM11.6469 23.7516V20.4359H13.2047V23.7516H11.6469ZM29.1422 29.1422H15.1625V15.1625H29.1422V29.1422Z" fill="black" stroke="black" stroke-width="0.2"/>
</svg>
