<svg width="30" height="30" viewBox="0 0 30 30" fill="none" xmlns="http://www.w3.org/2000/svg">
<path d="M25.5038 18.4801C23.6966 16.6729 21.5054 15.3897 19.1146 14.7045C21.3614 13.3189 22.8623 10.8352 22.8623 8.00722C22.8623 3.67174 19.3351 0.144531 14.9996 0.144531C10.6641 0.144531 7.13686 3.67174 7.13686 8.00727C7.13686 10.8353 8.6378 13.3189 10.8846 14.7045C8.49384 15.3897 6.30266 16.6729 4.49544 18.4802C1.68975 21.2859 0.144531 25.0163 0.144531 28.9843V29.8547H7.10785V28.9843C7.10785 24.6327 10.6481 21.0925 14.9996 21.0925C19.3512 21.0925 22.8914 24.6327 22.8914 28.9843V29.8547H29.8547V28.9843C29.8547 25.0163 28.3095 21.2859 25.5038 18.4801ZM8.87769 8.00727C8.87769 4.63163 11.624 1.88536 14.9996 1.88536C18.3752 1.88536 21.1215 4.63163 21.1215 8.00727C21.1215 11.3829 18.3752 14.1292 14.9996 14.1292C11.624 14.1292 8.87769 11.3829 8.87769 8.00727ZM24.5932 28.1138C24.1518 23.2088 20.0177 19.3517 14.9996 19.3517C9.98155 19.3517 5.84737 23.2088 5.40601 28.1138H1.91362C2.12026 24.9384 3.4557 21.9818 5.72644 19.7111C8.20341 17.2341 11.4966 15.87 14.9996 15.87C18.5026 15.87 21.7958 17.2341 24.2728 19.7111C26.5435 21.9818 27.879 24.9384 28.0856 28.1138H24.5932Z" fill="black"/>
<path fill-rule="evenodd" clip-rule="evenodd" d="M29.8551 29.8551H22.8918V28.9847C22.8918 24.6331 19.3515 21.0929 15 21.0929C10.6484 21.0929 7.10824 24.6331 7.10824 28.9847V29.8551H0.144928V28.9847C0.144928 25.0167 1.69015 21.2863 4.49584 18.4806C6.25616 16.7202 8.38079 15.4571 10.6994 14.7595C10.7611 14.7409 10.823 14.7227 10.885 14.7049C10.8302 14.6711 10.7758 14.6366 10.7218 14.6015C8.56582 13.1978 7.13726 10.7666 7.13726 8.00767C7.13726 3.67214 10.6645 0.144928 15 0.144928C19.3355 0.144928 22.8627 3.67214 22.8627 8.00761C22.8627 10.7666 21.4342 13.1978 19.2782 14.6015C19.2242 14.6366 19.1698 14.671 19.115 14.7049C19.177 14.7226 19.2389 14.7408 19.3006 14.7594C21.6192 15.457 23.7438 16.7202 25.5042 18.4805C28.3099 21.2863 29.8551 25.0167 29.8551 28.9847V29.8551ZM19.4583 14.656C21.7548 15.3674 23.8588 16.6302 25.6066 18.378C28.4395 21.211 30 24.9783 30 28.9847V30H22.7468V28.9847C22.7468 24.7132 19.2715 21.2378 15 21.2378C10.7285 21.2378 7.25317 24.7132 7.25317 28.9847V30H0V28.9847C0 24.9783 1.56049 21.211 4.39336 18.3781C6.1412 16.6302 8.24524 15.3675 10.5417 14.6561C8.40298 13.2173 6.99233 10.7745 6.99233 8.00767C6.99233 3.5921 10.5844 0 15 0C19.4156 0 23.0077 3.59209 23.0077 8.00761C23.0077 10.7744 21.597 13.2173 19.4583 14.656ZM15 2.03068C11.7044 2.03068 9.02301 4.71207 9.02301 8.00767C9.02301 11.3033 11.7044 13.9847 15 13.9847C18.2956 13.9847 20.977 11.3033 20.977 8.00767C20.977 4.71207 18.2956 2.03068 15 2.03068ZM24.7252 27.9693H27.9304C27.6935 24.8877 26.3798 22.023 24.1707 19.814C21.7209 17.3642 18.4645 16.0153 15 16.0153C11.5355 16.0153 8.2791 17.3642 5.82932 19.814C3.62024 22.023 2.30655 24.8877 2.06959 27.9693H5.27484C5.78442 23.0532 9.95128 19.2071 15 19.2071C20.0487 19.2071 24.2156 23.0532 24.7252 27.9693ZM1.92424 27.9693C1.92057 28.0176 1.91716 28.0659 1.91402 28.1142H5.40641C5.84777 23.2092 9.98194 19.3521 15 19.3521C20.0181 19.3521 24.1522 23.2092 24.5936 28.1142H28.086C28.0828 28.0659 28.0794 28.0176 28.0758 27.9693C27.8385 24.8489 26.5093 21.9476 24.2732 19.7115C21.7962 17.2345 18.503 15.8704 15 15.8704C11.497 15.8704 8.2038 17.2345 5.72684 19.7115C3.49068 21.9476 2.16155 24.8489 1.92424 27.9693ZM15 1.88576C11.6244 1.88576 8.87808 4.63203 8.87808 8.00767C8.87808 11.3833 11.6244 14.1296 15 14.1296C18.3756 14.1296 21.1219 11.3833 21.1219 8.00767C21.1219 4.63203 18.3756 1.88576 15 1.88576Z" fill="black"/>
<path d="M14.9993 22.8516C11.618 22.8516 8.86719 25.6024 8.86719 28.9836V29.854H21.1313V28.9836C21.1313 25.6024 18.3805 22.8516 14.9993 22.8516ZM10.6947 28.1132C11.0996 26.1074 12.8759 24.5924 14.9993 24.5924C17.1227 24.5924 18.8989 26.1074 19.3039 28.1132H10.6947Z" fill="black"/>
<path fill-rule="evenodd" clip-rule="evenodd" d="M8.72266 29.9994V28.984C8.72266 25.5228 11.5383 22.707 14.9997 22.707C18.461 22.707 21.2766 25.5228 21.2766 28.984V29.9994H8.72266ZM21.1317 28.984C21.1317 25.6028 18.3809 22.852 14.9997 22.852C11.6184 22.852 8.86758 25.6028 8.86758 28.984V29.8544H21.1317V28.984ZM10.695 28.1136H19.3043C19.2944 28.065 19.2838 28.0167 19.2724 27.9687C18.813 26.0352 17.0716 24.5928 14.9997 24.5928C12.9277 24.5928 11.1863 26.0353 10.7269 27.9687C10.7155 28.0167 10.7049 28.065 10.695 28.1136ZM10.876 27.9687H19.1233C18.667 26.1159 16.9909 24.7377 14.9997 24.7377C13.0084 24.7377 11.3323 26.1159 10.876 27.9687Z" fill="black"/>
</svg>
