<svg width="30" height="31" viewBox="0 0 30 31" fill="none" xmlns="http://www.w3.org/2000/svg">
<path d="M15.8672 30.629V25.2584L16.5942 25.1341C18.8148 24.7543 20.8484 23.5735 22.3203 21.809C23.8082 20.0254 24.6276 17.7489 24.6276 15.3985C24.6276 13.0482 23.8082 10.7716 22.3203 8.98807C20.8484 7.22358 18.8148 6.04276 16.5942 5.66301L15.8672 5.53867V0.167969L16.8447 0.292372C24.2583 1.23604 29.849 7.7303 29.849 15.3985C29.849 23.0668 24.2584 29.561 16.8447 30.5046L15.8672 30.629ZM17.6077 26.7439V28.5713C23.6594 27.3206 28.1085 21.827 28.1085 15.3985C28.1085 8.97005 23.6594 3.47643 17.6077 2.22562V4.05302C19.9459 4.61753 22.0676 5.93988 23.6432 7.82859C25.4003 9.93501 26.3681 12.6234 26.3681 15.3984C26.3681 18.1735 25.4003 20.8618 23.6432 22.9682C22.0676 24.8571 19.9458 26.1794 17.6077 26.7439Z" fill="black"/>
<path fill-rule="evenodd" clip-rule="evenodd" d="M15.7188 30.7985V25.1338L16.5693 24.9883C18.7543 24.6147 20.7566 23.4525 22.2063 21.7145C23.6716 19.958 24.4791 17.7153 24.4791 15.3993C24.4791 13.0833 23.6716 10.8405 22.2063 9.08398L22.3204 8.9888C23.8083 10.7724 24.6277 13.0489 24.6277 15.3993C24.6277 17.7496 23.8083 20.0262 22.3204 21.8097C20.8485 23.5742 18.815 24.755 16.5943 25.1348L15.8673 25.2591V30.6298L16.8448 30.5054C24.2585 29.5617 29.8492 23.0676 29.8492 15.3993C29.8492 7.73103 24.2585 1.23677 16.8448 0.293103L15.8673 0.1687V5.5394L16.5943 5.66374C18.815 6.04349 20.8485 7.22431 22.3204 8.9888L22.2063 9.08398C20.7566 7.34605 18.7543 6.18387 16.5693 5.8102L15.7188 5.66473V0L16.8636 0.145701C24.3544 1.09919 29.9978 7.65923 29.9978 15.3993C29.9978 23.1394 24.3544 29.6993 16.8636 30.6528L15.7188 30.7985ZM17.6078 28.572C17.6575 28.5617 17.707 28.5512 17.7564 28.5404C23.7323 27.2311 28.1087 21.775 28.1087 15.3992C28.1087 9.02351 23.7323 3.56735 17.7564 2.25798C17.707 2.24716 17.6575 2.23661 17.6078 2.22635V4.05375C19.946 4.61826 22.0678 5.94062 23.6433 7.82932C25.4005 9.93574 26.3682 12.6241 26.3682 15.3991C26.3682 18.1742 25.4005 20.8625 23.6433 22.969C22.0678 24.8578 19.946 26.1801 17.6078 26.7447V28.572ZM17.7564 2.41014V3.9374C20.0811 4.5245 22.1873 5.85195 23.7574 7.73414C25.5371 9.86761 26.5168 12.5897 26.5168 15.3991C26.5168 18.2085 25.5371 20.9307 23.7574 23.0641C22.1873 24.9465 20.0811 26.2739 17.7564 26.861V28.3882C23.6459 27.0819 27.9601 21.6958 27.9601 15.3992C27.9601 9.10265 23.6459 3.71654 17.7564 2.41014Z" fill="black"/>
<path d="M14.1303 30.629L13.1528 30.5046C5.73908 29.561 0.148438 23.0668 0.148438 15.3985C0.148438 7.7303 5.73908 1.23604 13.1528 0.292372L14.1303 0.167969V5.53867L13.4033 5.66301C11.1826 6.04276 9.14908 7.22358 7.67716 8.98807C6.18928 10.7716 5.36987 13.0482 5.36987 15.3985C5.36987 17.7489 6.18928 20.0254 7.67716 21.809C9.14908 23.5735 11.1826 24.7543 13.4033 25.1341L14.1303 25.2584V30.629ZM12.3898 2.22574C6.33803 3.47649 1.88891 8.97017 1.88891 15.3986C1.88891 21.8271 6.33803 27.3206 12.3898 28.5714V26.744C10.0516 26.1795 7.92982 24.8572 6.35428 22.9685C4.59715 20.8621 3.62939 18.1737 3.62939 15.3986C3.62939 12.6236 4.59715 9.93524 6.35428 7.82883C7.92982 5.94012 10.0516 4.61777 12.3898 4.05326V2.22574Z" fill="black"/>
<path fill-rule="evenodd" clip-rule="evenodd" d="M14.279 30.7985L13.1341 30.6528C5.64331 29.6993 0 23.1394 0 15.3993C0 7.65923 5.64331 1.09919 13.1341 0.145702L14.279 0V5.66473L13.4285 5.8102C11.2434 6.18387 9.24119 7.34605 7.79141 9.08398C6.32611 10.8405 5.51861 13.0833 5.51861 15.3993C5.51861 17.7153 6.32611 19.958 7.79141 21.7145C9.24119 23.4525 11.2434 24.6147 13.4285 24.9883L14.279 25.1338V30.7985ZM14.1304 30.6298V25.2591L13.4034 25.1348C11.1828 24.755 9.14923 23.5742 7.67731 21.8097C6.18944 20.0262 5.37002 17.7496 5.37002 15.3993C5.37002 13.0489 6.18944 10.7724 7.67731 8.9888C9.14923 7.22431 11.1828 6.04349 13.4034 5.66374L14.1304 5.5394V0.1687L13.1529 0.293103C5.73923 1.23677 0.148591 7.73103 0.148591 15.3993C0.148591 23.0676 5.73923 29.5617 13.1529 30.5054L14.1304 30.6298ZM12.2413 2.41026C6.35186 3.7166 2.03766 9.10277 2.03766 15.3993C2.03766 21.6959 6.35186 27.082 12.2413 28.3883V26.8611C9.91664 26.274 7.81043 24.9466 6.24033 23.0644C4.46064 20.9309 3.48095 18.2088 3.48095 15.3994C3.48095 12.59 4.46064 9.86784 6.24033 7.73438C7.81043 5.85219 9.91664 4.52474 12.2413 3.93763V2.41026ZM12.2413 2.2581C6.2655 3.56741 1.88907 9.02363 1.88907 15.3993C1.88907 21.7751 6.2655 27.2312 12.2413 28.5405C12.2908 28.5513 12.3403 28.5619 12.3899 28.5721V26.7448C10.0517 26.1803 7.92997 24.8579 6.35443 22.9692C4.5973 20.8628 3.62954 18.1744 3.62954 15.3994C3.62954 12.6243 4.5973 9.93598 6.35443 7.82956C7.92997 5.94085 10.0517 4.6185 12.3899 4.05399V2.22647C12.3403 2.23673 12.2908 2.24727 12.2413 2.2581Z" fill="black"/>
<path d="M22.9269 14.5079H17.5781L17.3282 14.0554C16.8543 13.1975 15.9639 12.6645 15.0044 12.6645C14.045 12.6645 13.1546 13.1975 12.6807 14.0554L12.4307 14.5079H7.08203L7.35888 13.3954C8.25024 9.81389 11.3942 7.3125 15.0044 7.3125C18.6145 7.3125 21.7585 9.81389 22.6499 13.3954L22.9269 14.5079ZM18.5568 12.7239H20.5757C19.5804 10.5411 17.4272 9.09649 15.0045 9.09649C12.5818 9.09649 10.4286 10.5411 9.43336 12.7239H11.4523C12.2773 11.5753 13.5956 10.8805 15.0045 10.8805C16.4134 10.8805 17.7317 11.5753 18.5568 12.7239Z" fill="black"/>
<path fill-rule="evenodd" clip-rule="evenodd" d="M23.1157 14.6567H17.4892L17.1968 14.1274C16.7484 13.3155 15.9071 12.8132 15.0031 12.8132C14.0992 12.8132 13.2579 13.3155 12.8095 14.1274L12.5171 14.6567H6.89062L7.21338 13.3597C8.12069 9.71405 11.3225 7.16406 15.0031 7.16406C18.6836 7.16406 21.8855 9.71404 22.7928 13.3597C22.7928 13.3597 22.7928 13.3597 22.7928 13.3597L23.1157 14.6567ZM22.6486 13.3956C21.7572 9.81404 18.6132 7.31265 15.0031 7.31265C11.3929 7.31265 8.24893 9.81404 7.35758 13.3956L7.08073 14.5081H12.4294L12.6794 14.0555C13.1532 13.1976 14.0437 12.6646 15.0031 12.6646C15.9626 12.6646 16.853 13.1976 17.3269 14.0555L17.5768 14.5081H22.9256L22.6486 13.3956ZM20.5743 12.7241C20.5516 12.6742 20.5282 12.6246 20.5043 12.5755C19.4805 10.4759 17.3705 9.09664 15.0032 9.09664C12.6359 9.09664 10.5259 10.4759 9.50213 12.5755C9.47817 12.6246 9.45481 12.6742 9.43205 12.7241H11.4509C12.276 11.5755 13.5943 10.8806 15.0032 10.8806C16.4121 10.8806 17.7304 11.5755 18.5555 12.7241H20.5743ZM9.66792 12.5755H11.3755C12.2301 11.4262 13.5706 10.732 15.0032 10.732C16.4358 10.732 17.7763 11.4262 18.6309 12.5755H20.3385C19.3271 10.5617 17.287 9.24523 15.0032 9.24523C12.7194 9.24523 10.6793 10.5617 9.66792 12.5755Z" fill="black"/>
<path d="M15.0044 23.4884C11.3942 23.4884 8.25024 20.987 7.35888 17.4055L7.08203 16.293H12.4307L12.6807 16.7455C13.1546 17.6034 14.045 18.1364 15.0044 18.1364C15.9639 18.1364 16.8543 17.6034 17.3282 16.7455L17.5781 16.293H22.9269L22.65 17.4055C21.7585 20.987 18.6145 23.4884 15.0044 23.4884ZM9.43318 18.077C10.4284 20.2598 12.5816 21.7044 15.0043 21.7044C17.4271 21.7044 19.5803 20.2598 20.5755 18.077H18.5566C17.7316 19.2255 16.4132 19.9204 15.0044 19.9204C13.5955 19.9204 12.2771 19.2255 11.4521 18.077H9.43318Z" fill="black"/>
<path fill-rule="evenodd" clip-rule="evenodd" d="M7.21338 17.4415L6.89062 16.1445H12.5171L12.8095 16.6738C13.2579 17.4856 14.0992 17.988 15.0031 17.988C15.9071 17.988 16.7484 17.4857 17.1968 16.6738L17.4892 16.1445H23.1157L22.7929 17.4415C21.8855 21.0871 18.6836 23.6371 15.0031 23.6371C11.3225 23.6371 8.12069 21.0871 7.21338 17.4415ZM22.6487 17.4056C21.7572 20.9872 18.6132 23.4885 15.0031 23.4885C11.3929 23.4885 8.24893 20.9872 7.35758 17.4056L7.08073 16.2931H12.4294L12.6794 16.7457C13.1532 17.6036 14.0437 18.1366 15.0031 18.1366C15.9626 18.1366 16.853 17.6036 17.3268 16.7457L17.5768 16.2931H22.9256L22.6487 17.4056ZM9.66775 18.2257C10.6791 20.2395 12.7193 21.556 15.003 21.556C17.2868 21.556 19.3269 20.2395 20.3383 18.2257H18.6308C17.7761 19.375 16.4357 20.0692 15.0031 20.0692C13.5705 20.0692 12.23 19.375 11.3754 18.2257H9.66775ZM9.50196 18.2257C10.5257 20.3253 12.6357 21.7046 15.003 21.7046C17.3704 21.7046 19.4803 20.3253 20.5041 18.2257C20.5281 18.1766 20.5514 18.127 20.5742 18.0771H18.5553C17.7303 19.2257 16.4119 19.9206 15.0031 19.9206C13.5942 19.9206 12.2758 19.2257 11.4508 18.0771H9.43188C9.45464 18.127 9.478 18.1766 9.50196 18.2257Z" fill="black"/>
</svg>
