<svg width="30" height="31" viewBox="0 0 30 31" fill="none" xmlns="http://www.w3.org/2000/svg">
<path d="M29.8514 0.148438H17.0497V8.01718C16.3982 7.82613 15.7105 7.72367 14.9999 7.72367C14.2893 7.72367 13.6017 7.82613 12.9501 8.01718V0.148438H8.24743C3.78166 0.148438 0.148438 3.87249 0.148438 8.4499V13.2702H7.82526C7.63886 13.938 7.53891 14.6428 7.53891 15.3712C7.53891 16.0996 7.63886 16.8044 7.82526 17.4722H0.148438V30.594H12.9501V22.7252C13.6017 22.9163 14.2893 23.0187 14.9999 23.0187C15.7105 23.0187 16.3982 22.9163 17.0497 22.7252V30.594H21.7524C26.2182 30.594 29.8514 26.8699 29.8514 22.2925V17.4722H22.1746C22.361 16.8044 22.4609 16.0996 22.4609 15.3712C22.4609 14.6428 22.361 13.938 22.1746 13.2702H29.8514V0.148438ZM1.88885 11.4863V8.4499C1.88885 4.85614 4.74132 1.93236 8.24743 1.93236H11.2097V8.78647C10.1259 9.44444 9.21771 10.3753 8.57578 11.4863H1.88885ZM11.2097 28.8101H1.88885V19.2562H8.57578C9.21771 20.3671 10.1259 21.298 11.2097 21.9559V28.8101ZM9.27932 15.3712C9.27932 12.138 11.8455 9.50759 14.9999 9.50759C18.1543 9.50759 20.7205 12.138 20.7205 15.3712C20.7205 18.6044 18.1543 21.2348 14.9999 21.2348C11.8455 21.2348 9.27932 18.6044 9.27932 15.3712ZM28.111 19.2562V22.2925C28.111 25.8863 25.2585 28.8101 21.7524 28.8101H18.7901V21.9559C19.874 21.298 20.7821 20.3671 21.4241 19.2562H28.111ZM28.111 11.4863H21.4241C20.7821 10.3753 19.874 9.44444 18.7901 8.78647V1.93236H28.111V11.4863Z" fill="black"/>
<path fill-rule="evenodd" clip-rule="evenodd" d="M30 0V13.4188H22.3678C22.5255 14.0431 22.6095 14.6974 22.6095 15.3713C22.6095 16.0452 22.5255 16.6995 22.3678 17.3238H30V22.2926C30 26.9486 26.3037 30.7426 21.7525 30.7426H16.9013V22.9209C16.2933 23.0817 15.6562 23.1673 15 23.1673C14.3438 23.1673 13.7067 23.0817 13.0987 22.9209V30.7426H0V17.3238H7.6322C7.47446 16.6995 7.39047 16.0452 7.39047 15.3713C7.39047 14.6974 7.47446 14.0431 7.6322 13.4188H0V8.44998C0 3.79402 3.69627 0 8.2475 0H13.0987V7.82169C13.7067 7.66087 14.3438 7.57523 15 7.57523C15.6562 7.57523 16.2933 7.66087 16.9013 7.82169V0H30ZM17.0498 8.01726C17.0005 8.0028 16.951 7.98886 16.9013 7.97542C16.2941 7.81128 15.6568 7.72375 15 7.72375C14.3432 7.72375 13.7059 7.81128 13.0987 7.97542C13.049 7.98886 12.9995 8.0028 12.9502 8.01726V0.148515H8.2475C3.78173 0.148515 0.148515 3.87256 0.148515 8.44998V13.2702H7.82534C7.81158 13.3196 7.79829 13.3691 7.78547 13.4188C7.62473 14.0423 7.53898 14.6967 7.53898 15.3713C7.53898 16.0459 7.62473 16.7003 7.78547 17.3238C7.79829 17.3735 7.81158 17.423 7.82534 17.4723H0.148515V30.5941H12.9502V22.7253C12.9995 22.7398 13.049 22.7537 13.0987 22.7672C13.7059 22.9313 14.3432 23.0188 15 23.0188C15.6568 23.0188 16.2941 22.9313 16.9013 22.7672C16.951 22.7537 17.0005 22.7398 17.0498 22.7253V30.5941H21.7525C26.2183 30.5941 29.8515 26.87 29.8515 22.2926V17.4723H22.1747C22.1884 17.423 22.2017 17.3735 22.2145 17.3238C22.3753 16.7003 22.461 16.0459 22.461 15.3713C22.461 14.6967 22.3753 14.0423 22.2145 13.4188C22.2017 13.3691 22.1884 13.3196 22.1747 13.2702H29.8515V0.148515H17.0498V8.01726ZM2.03744 8.44998V11.3378H8.49069C9.1278 10.2626 10.0114 9.35681 11.0613 8.70351V2.08095H8.2475C4.82685 2.08095 2.03744 4.93476 2.03744 8.44998ZM11.2098 8.78655C10.1259 9.44451 9.21778 10.3754 8.57586 11.4863H1.88892V8.44998C1.88892 4.85622 4.74139 1.93243 8.2475 1.93243H11.2098V8.78655ZM2.03744 28.6616H11.0613V22.0391C10.0114 21.3858 9.1278 20.48 8.49069 19.4048H2.03744V28.6616ZM8.57586 19.2562H1.88892V28.8101H11.2098V21.956C10.1259 21.2981 9.21778 20.3672 8.57586 19.2562ZM15 9.65618C11.9311 9.65618 9.42791 12.2166 9.42791 15.3713C9.42791 18.526 11.9311 21.0864 15 21.0864C18.0689 21.0864 20.5721 18.526 20.5721 15.3713C20.5721 12.2166 18.0689 9.65618 15 9.65618ZM27.9626 22.2926V19.4048H21.5093C20.8722 20.48 19.9886 21.3858 18.9387 22.0391V28.6616H21.7525C25.1731 28.6616 27.9626 25.8078 27.9626 22.2926ZM18.7902 21.956C19.8741 21.2981 20.7822 20.3672 21.4241 19.2562H28.1111V22.2926C28.1111 25.8864 25.2586 28.8101 21.7525 28.8101H18.7902V21.956ZM21.5093 11.3378H27.9626V2.08095H18.9387V8.70351C19.9886 9.35681 20.8722 10.2626 21.5093 11.3378ZM21.4241 11.4863C20.7822 10.3754 19.8741 9.44451 18.7902 8.78655V1.93243H28.1111V11.4863H21.4241ZM15 9.50766C11.8456 9.50766 9.27939 12.1381 9.27939 15.3713C9.27939 18.6045 11.8456 21.2349 15 21.2349C18.1544 21.2349 20.7206 18.6045 20.7206 15.3713C20.7206 12.1381 18.1544 9.50766 15 9.50766Z" fill="black"/>
</svg>
