<svg width="30" height="30" viewBox="0 0 30 30" fill="none" xmlns="http://www.w3.org/2000/svg">
<g clip-path="url(#clip0_957_1347)">
<path d="M26.7187 4.68762H20.1733L15.829 0.343265C15.3713 -0.114422 14.6293 -0.114422 14.1716 0.343265L9.82735 4.68757H3.28128C2.63128 4.68757 2.10938 5.21967 2.10938 5.85947V17.1097C2.10938 17.4205 2.23284 17.7186 2.45263 17.9383L14.1715 29.6572C14.6256 30.1115 15.3695 30.117 15.8291 29.6572L27.548 17.9383C27.7678 17.7185 27.8912 17.4204 27.8912 17.1096V5.85947C27.8913 5.20537 27.3581 4.6871 26.7187 4.68762ZM15.0003 15.9212L6.11048 7.03137H9.82723L14.1716 11.3758C14.4005 11.6046 14.7004 11.719 15.0003 11.719C15.3003 11.719 15.6001 11.6046 15.829 11.3758L20.1734 7.03143H23.8901L15.0003 15.9212ZM15.0003 2.82922L18.0306 5.85953L15.0003 8.88983L11.97 5.85953L15.0003 2.82922ZM4.45318 8.68867L13.8284 18.0639V25.9995L4.45318 16.6243V8.68867ZM16.1722 25.9995V18.0639L25.5475 8.68862V16.6242L16.1722 25.9995Z" fill="black"/>
</g>
<defs>
<clipPath id="clip0_957_1347">
<rect width="30" height="30" fill="white"/>
</clipPath>
</defs>
</svg>
