<svg width="30" height="31" viewBox="0 0 30 31" fill="none" xmlns="http://www.w3.org/2000/svg">
<path d="M7.10794 10.8519C9.98693 10.8519 12.3292 8.45115 12.3292 5.50019C12.3292 2.54924 9.98693 0.148438 7.10794 0.148438C4.22896 0.148438 1.88672 2.54924 1.88672 5.50019C1.88672 8.45115 4.22896 10.8519 7.10794 10.8519ZM7.10794 1.93236C9.02727 1.93236 10.5888 3.53289 10.5888 5.50019C10.5888 7.4675 9.02727 9.06803 7.10794 9.06803C5.18862 9.06803 3.62713 7.4675 3.62713 5.50019C3.62713 3.53289 5.18862 1.93236 7.10794 1.93236Z" fill="black"/>
<path fill-rule="evenodd" clip-rule="evenodd" d="M12.4817 5.50027C12.4817 8.52977 10.0764 11.0005 7.11193 11.0005C4.14749 11.0005 1.74219 8.52977 1.74219 5.50027C1.74219 2.47077 4.14749 0 7.11193 0C10.0764 0 12.4817 2.47077 12.4817 5.50027ZM10.4442 5.50027C10.4442 3.61151 8.94579 2.08095 7.11193 2.08095C5.27806 2.08095 3.77963 3.61151 3.77963 5.50027C3.77963 7.38903 5.27806 8.91959 7.11193 8.91959C8.94579 8.91959 10.4442 7.38903 10.4442 5.50027ZM12.3332 5.50027C12.3332 8.45123 9.99091 10.852 7.11193 10.852C4.23294 10.852 1.8907 8.45123 1.8907 5.50027C1.8907 2.54931 4.23294 0.148515 7.11193 0.148515C9.99091 0.148515 12.3332 2.54931 12.3332 5.50027ZM10.5927 5.50027C10.5927 3.53296 9.03125 1.93243 7.11193 1.93243C5.19261 1.93243 3.63111 3.53296 3.63111 5.50027C3.63111 7.46758 5.19261 9.06811 7.11193 9.06811C9.03125 9.06811 10.5927 7.46758 10.5927 5.50027Z" fill="black"/>
<path d="M26.3706 7.28411V5.50019C26.3706 2.54924 24.0283 0.148438 21.1494 0.148438C18.2704 0.148438 15.9281 2.54924 15.9281 5.50019V10.2476C14.0085 11.4885 12.299 13.099 10.9256 14.9549C8.65845 13.4833 6.02777 12.6953 3.27885 12.6953H0.148438V30.594H29.8514V7.28411H26.3706ZM17.6685 5.50019C17.6685 3.53289 19.23 1.93236 21.1494 1.93236C23.0687 1.93236 24.6302 3.53289 24.6302 5.50019V14.4198C24.6302 16.3871 23.0687 17.9876 21.1494 17.9876C19.23 17.9876 17.6685 16.3871 17.6685 14.4198V5.50019ZM15.8701 28.8101H1.88885V14.4792H3.27885C6.64213 14.4792 9.80411 15.8217 12.1823 18.2593C14.5604 20.697 15.8701 23.9379 15.8701 27.3853V28.8101ZM28.111 28.8101H17.6105V27.3853C17.6105 23.4615 16.1198 19.7725 13.4129 16.998C13.0682 16.6446 12.7088 16.3118 12.3366 15.9994C13.353 14.6325 14.571 13.4142 15.9281 12.4031V14.4198C15.9281 17.3707 18.2704 19.7715 21.1494 19.7715C24.0283 19.7715 26.3706 17.3707 26.3706 14.4198V9.06803H28.111V28.8101Z" fill="black"/>
<path fill-rule="evenodd" clip-rule="evenodd" d="M29.8515 7.28419V30.5941H0.148515V12.6954H3.27893C6.02785 12.6954 8.65853 13.4834 10.9256 14.955C12.2991 13.0991 14.0086 11.4885 15.9282 10.2476V5.50027C15.9282 2.54931 18.2705 0.148515 21.1494 0.148515C24.0284 0.148515 26.3707 2.54931 26.3707 5.50027V7.28419H29.8515ZM26.5192 7.13567V5.50027C26.5192 2.47077 24.1139 0 21.1494 0C18.185 0 15.7797 2.47077 15.7797 5.50027V10.167C13.9109 11.3866 12.2425 12.9539 10.8894 14.7552C8.62497 13.3164 6.00942 12.5469 3.27893 12.5469H0V30.7426H30V7.13567H26.5192ZM21.1494 2.08095C19.3156 2.08095 17.8171 3.61151 17.8171 5.50027V14.4199C17.8171 16.3086 19.3156 17.8392 21.1494 17.8392C22.9833 17.8392 24.4817 16.3086 24.4817 14.4199V5.50027C24.4817 3.61151 22.9833 2.08095 21.1494 2.08095ZM2.03744 28.6616H15.7217V27.3854C15.7217 23.9762 14.4268 20.7726 12.076 18.3631C9.72543 15.9537 6.60162 14.6278 3.27893 14.6278H2.03744V28.6616ZM17.7591 28.6616H27.9626V9.21662H26.5192V14.4199C26.5192 17.4494 24.1139 19.9201 21.1494 19.9201C18.185 19.9201 15.7797 17.4494 15.7797 14.4199V12.7023C14.5658 13.6399 13.47 14.7462 12.5394 15.9767C12.8773 16.2656 13.2043 16.5715 13.5193 16.8943C16.2536 19.697 17.7591 23.4233 17.7591 27.3854V28.6616ZM12.3367 15.9995C12.7089 16.3118 13.0683 16.6447 13.413 16.998C16.1199 19.7726 17.6106 23.4615 17.6106 27.3854V28.8101H28.1111V9.06811H26.3707V14.4199C26.3707 17.3708 24.0284 19.7716 21.1494 19.7716C18.2705 19.7716 15.9282 17.3708 15.9282 14.4199V12.4032C15.8785 12.4402 15.829 12.4775 15.7797 12.5151C14.4822 13.5037 13.3159 14.6827 12.3367 15.9995ZM21.1494 1.93243C19.2301 1.93243 17.6686 3.53296 17.6686 5.50027V14.4199C17.6686 16.3872 19.2301 17.9877 21.1494 17.9877C23.0688 17.9877 24.6303 16.3872 24.6303 14.4199V5.50027C24.6303 3.53296 23.0688 1.93243 21.1494 1.93243ZM15.8702 28.8101V27.3854C15.8702 23.938 14.5605 20.6971 12.1823 18.2594C9.80418 15.8218 6.64221 14.4793 3.27893 14.4793H1.88892V28.8101H15.8702Z" fill="black"/>
</svg>
