<svg width="30" height="30" viewBox="0 0 30 30" fill="none" xmlns="http://www.w3.org/2000/svg">
<path d="M28.8281 11.7188C29.4754 11.7188 30 11.1941 30 10.5469V1.17188C30 0.524648 29.4754 0 28.8281 0H19.4531C18.8059 0 18.2812 0.524648 18.2812 1.17188V4.6875H11.7188V1.17188C11.7188 0.524648 11.1941 0 10.5469 0H1.17188C0.524648 0 0 0.524648 0 1.17188V10.5469C0 11.1941 0.524648 11.7188 1.17188 11.7188H4.6875V18.2812H1.17188C0.524648 18.2812 0 18.8059 0 19.4531V28.8281C0 29.4754 0.524648 30 1.17188 30H10.5469C11.1941 30 11.7188 29.4754 11.7188 28.8281V25.3125H18.2812V28.8281C18.2812 29.4754 18.8059 30 19.4531 30H28.8281C29.4754 30 30 29.4754 30 28.8281V19.4531C30 18.8059 29.4754 18.2812 28.8281 18.2812H25.3125V11.7188H28.8281ZM20.625 2.34375H27.6562V9.375H25.3125V5.85938C25.3125 5.21215 24.7879 4.6875 24.1406 4.6875H20.625V2.34375ZM7.03125 20.625H9.375V22.9688H7.03125V20.625ZM9.375 9.375H7.03125V7.03125H9.375V9.375ZM11.7188 11.7188H18.2812V18.2812H11.7188V11.7188ZM20.625 20.625H22.9688V22.9688H20.625V20.625ZM20.625 7.03125H22.9688V9.375H20.625V7.03125ZM18.2812 7.03125V9.375H11.7188V7.03125H18.2812ZM2.34375 9.375V2.34375H9.375V4.6875H5.85938C5.21215 4.6875 4.6875 5.21215 4.6875 5.85938V9.375H2.34375ZM7.03125 11.7188H9.375V18.2812H7.03125V11.7188ZM9.375 27.6562H2.34375V20.625H4.6875V24.1406C4.6875 24.7879 5.21215 25.3125 5.85938 25.3125H9.375V27.6562ZM11.7188 22.9688V20.625H18.2812V22.9688H11.7188ZM27.6562 20.625V27.6562H20.625V25.3125H24.1406C24.7879 25.3125 25.3125 24.7879 25.3125 24.1406V20.625H27.6562ZM22.9688 18.2812H20.625V11.7188H22.9688V18.2812Z" fill="black"/>
</svg>
