<svg width="30" height="30" viewBox="0 0 30 30" fill="none" xmlns="http://www.w3.org/2000/svg">
<g clip-path="url(#clip0_957_1196)">
<path d="M29.3629 13.9573L24.1099 11.2635L26.0555 5.42695C26.1959 5.00584 26.0862 4.5416 25.7724 4.22772C25.4586 3.91389 24.9943 3.8042 24.5732 3.94459L18.7366 5.89014L16.0428 0.637148C15.8422 0.245977 15.4396 0 15 0C14.5604 0 14.1578 0.245977 13.9573 0.637148L11.2634 5.89008L5.42689 3.94459C5.00578 3.8042 4.54154 3.91377 4.22766 4.22772C3.91377 4.5416 3.8042 5.00584 3.94453 5.42695L5.89002 11.2635L0.63709 13.9573C0.245977 14.1578 0 14.5604 0 15C0 15.4396 0.245977 15.8422 0.637148 16.0427L5.89008 18.7366L3.94459 24.5731C3.8042 24.9942 3.91383 25.4585 4.22772 25.7723C4.54271 26.0873 5.00725 26.1953 5.42695 26.0555L11.2635 24.11L13.9573 29.363C14.1578 29.754 14.5604 30 15 30C15.4396 30 15.8422 29.754 16.0427 29.3629L18.7365 24.1099L24.5731 26.0554C24.9942 26.1958 25.4584 26.0861 25.7723 25.7723C26.0862 25.4584 26.1958 24.9942 26.0554 24.573L24.1099 18.7365L29.3628 16.0427C29.754 15.8422 30 15.4396 30 15C30 14.5604 29.754 14.1578 29.3629 13.9573ZM23.0908 6.9092L22 10.1814L20.558 9.44191L19.8186 7.99992L23.0908 6.9092ZM20.5174 15.3706L21.2502 17.5692L19.9124 18.2552L16.6573 15L19.9124 11.7448L21.2503 12.4308L20.5174 14.6294C20.4372 14.87 20.4372 15.13 20.5174 15.3706ZM9.48258 14.6295L8.74975 12.4309L10.0876 11.7448L13.3427 15L10.0876 18.2552L8.74975 17.5691L9.48258 15.3705C9.56279 15.13 9.56279 14.87 9.48258 14.6295ZM18.2552 10.0875L15 13.3427L11.7448 10.0876L12.4308 8.74975L14.6293 9.48258C14.8699 9.56273 15.13 9.56273 15.3705 9.48258L17.569 8.74975L18.2552 10.0875ZM11.7448 19.9124L15 16.6573L18.2552 19.9124L17.5692 21.2502L15.3706 20.5174C15.1301 20.4371 14.87 20.4371 14.6295 20.5174L12.431 21.2502L11.7448 19.9124ZM15 3.73998L16.4872 6.6399L15 7.13561L13.5129 6.6399L15 3.73998ZM6.9092 6.9092L10.1814 7.99992L9.44191 9.44191L7.99992 10.1814L6.9092 6.9092ZM3.73998 15L6.6399 13.5129L7.13561 15L6.6399 16.4871L3.73998 15ZM6.9092 23.0908L7.99992 19.8186L9.44191 20.5581L10.1814 22.0001L6.9092 23.0908ZM15 26.26L13.5129 23.3601L15 22.8644L16.4872 23.3601L15 26.26ZM23.0908 23.0908L19.8186 22.0001L20.558 20.5581L22 19.8186L23.0908 23.0908ZM23.3601 16.4871L22.8644 15L23.3601 13.5129L26.26 15L23.3601 16.4871Z" fill="black"/>
</g>
<defs>
<clipPath id="clip0_957_1196">
<rect width="30" height="30" fill="white"/>
</clipPath>
</defs>
</svg>
