<svg width="30" height="30" viewBox="0 0 30 30" fill="none" xmlns="http://www.w3.org/2000/svg">
<g clip-path="url(#clip0_957_1291)">
<path d="M25.7779 15C28.2881 13.657 30 11.0092 30 7.96875C30 3.57475 26.4252 0 22.0312 0C18.9908 0 16.343 1.71187 15 4.22215C13.657 1.71187 11.0092 0 7.96875 0C3.5748 0 0 3.57475 0 7.96875C0 11.0092 1.71187 13.657 4.22215 15C1.71187 16.343 0 18.9908 0 22.0312C0 26.4253 3.5748 30 7.96875 30C11.0092 30 13.657 28.2881 15 25.7779C16.343 28.2881 18.9908 30 22.0312 30C26.4252 30 30 26.4253 30 22.0312C30 18.9908 28.2881 16.343 25.7779 15ZM22.0312 9.14062C21.3851 9.14062 20.8594 8.61492 20.8594 7.96875C20.8594 7.32258 21.3851 6.79688 22.0312 6.79688C22.6774 6.79688 23.2031 7.32258 23.2031 7.96875C23.2031 8.61492 22.6774 9.14062 22.0312 9.14062ZM22.0312 2.34375C25.1329 2.34375 27.6562 4.86709 27.6562 7.96875C27.6562 10.6686 25.7442 12.9299 23.2031 13.4706V11.2828C24.5671 10.7991 25.5469 9.49646 25.5469 7.96875C25.5469 6.03023 23.9698 4.45312 22.0312 4.45312C20.0927 4.45312 18.5156 6.03023 18.5156 7.96875C18.5156 9.49646 19.4954 10.799 20.8594 11.2828V13.4706C18.3183 12.93 16.4062 10.6686 16.4062 7.96881C16.4062 4.86709 18.9296 2.34375 22.0312 2.34375ZM2.34375 7.96875C2.34375 4.86709 4.86709 2.34375 7.96875 2.34375C10.6686 2.34375 12.9299 4.25584 13.4706 6.79688H11.2828C10.7991 5.43293 9.49646 4.45312 7.96875 4.45312C6.03023 4.45312 4.45312 6.03023 4.45312 7.96875C4.45312 9.90727 6.03023 11.4844 7.96875 11.4844C9.49646 11.4844 10.799 10.5046 11.2828 9.14062H13.4706C12.93 11.6817 10.6686 13.5938 7.96881 13.5938C4.86709 13.5938 2.34375 11.0704 2.34375 7.96875ZM9.14062 7.96875C9.14062 8.61492 8.61492 9.14062 7.96875 9.14062C7.32258 9.14062 6.79688 8.61492 6.79688 7.96875C6.79688 7.32258 7.32258 6.79688 7.96875 6.79688C8.61492 6.79688 9.14062 7.32258 9.14062 7.96875ZM7.96875 20.8594C8.61492 20.8594 9.14062 21.3851 9.14062 22.0312C9.14062 22.6774 8.61492 23.2031 7.96875 23.2031C7.32258 23.2031 6.79688 22.6774 6.79688 22.0312C6.79688 21.3851 7.32258 20.8594 7.96875 20.8594ZM7.96875 27.6562C4.86709 27.6562 2.34375 25.1329 2.34375 22.0312C2.34375 19.3314 4.25584 17.0701 6.79688 16.5294V18.7172C5.43293 19.201 4.45312 20.5036 4.45312 22.0313C4.45312 23.9698 6.03023 25.5469 7.96875 25.5469C9.90727 25.5469 11.4844 23.9698 11.4844 22.0313C11.4844 20.5036 10.5046 19.2011 9.14062 18.7172V16.5294C11.6817 17.0701 13.5938 19.3314 13.5938 22.0312C13.5938 25.1329 11.0704 27.6562 7.96875 27.6562ZM11.7154 15C13.1081 14.2549 14.2549 13.1081 15 11.7154C15.7451 13.1081 16.8919 14.2549 18.2846 15C16.8919 15.7451 15.7451 16.8919 15 18.2846C14.2549 16.8919 13.1081 15.7451 11.7154 15ZM22.0312 27.6562C19.3314 27.6562 17.0701 25.7442 16.5294 23.2031H18.7172C19.201 24.5671 20.5036 25.5469 22.0313 25.5469C23.9698 25.5469 25.5469 23.9698 25.5469 22.0312C25.5469 20.0927 23.9698 18.5156 22.0313 18.5156C20.5036 18.5156 19.2011 19.4954 18.7172 20.8594H16.5294C17.0701 18.3183 19.3314 16.4062 22.0312 16.4062C25.1329 16.4062 27.6562 18.9296 27.6562 22.0312C27.6562 25.1329 25.1329 27.6562 22.0312 27.6562ZM20.8594 22.0312C20.8594 21.3851 21.3851 20.8594 22.0312 20.8594C22.6774 20.8594 23.2031 21.3851 23.2031 22.0312C23.2031 22.6774 22.6774 23.2031 22.0312 23.2031C21.3851 23.2031 20.8594 22.6774 20.8594 22.0312Z" fill="black"/>
</g>
<defs>
<clipPath id="clip0_957_1291">
<rect width="30" height="30" fill="white"/>
</clipPath>
</defs>
</svg>
