<svg width="30" height="34" viewBox="0 0 30 34" fill="none" xmlns="http://www.w3.org/2000/svg">
<path d="M29.35 10.375V10.275H29.25H21.85V1V0.9H21.75H1H0.9V1V33V33.1H1H21.75H21.85V33V29.35H29.25H29.35V29.25V10.375ZM16.225 10.275V6.625V6.525H16.125H6.625H6.525V6.625V27.375V27.475H6.625H10.3375V29.25V29.35H10.4375H19.775V31.025H2.975V2.975H19.775V10.275H16.225ZM10.4375 10.275H10.3375V10.375V25.4H8.6V8.6H14.15V10.275H10.4375ZM27.275 27.275H12.4125V12.35H27.275V27.275Z" fill="black" stroke="black" stroke-width="0.2"/>
<path d="M23.7289 16V15.9H23.6289H16.0664H15.9664V16V23.5835V23.6835H16.0664H23.6289H23.7289V23.5835V16ZM21.6539 21.6085H18.0414V17.975H21.6539V21.6085Z" fill="black" stroke="black" stroke-width="0.2"/>
</svg>
