<svg xmlns="http://www.w3.org/2000/svg" width="1249.999" height="606.716" viewBox="0 0 1249.9995 606.7163"><defs><style>.cls-1{fill:#005297;}.cls-2{fill:#fff;}</style></defs><title>Ford-Motor-Company-1966-not-used</title><g id="Ford_Motor_Company_1966_not_used"><path class="cls-1" d="M947.449.029l-643.256-.029h-.874c-167.507 0-303.319 135.824-303.319 303.364 0 167.535 135.812 303.353 303.319 303.353l.874-.013 643.256.013c167.183-.426 302.551-136.061 302.551-303.353 0-167.28-135.369-302.92-302.551-303.334z"/><path class="cls-2" d="M873.64 542.162h-519.067l20.77-31.657h502.138c75.682 0 250.304-28.324 250.304-210.195 0-181.854-165.362-201.792-254.144-201.792h-529.857c-80.657 0-132.656 13.769-177.133 50.846-43.708 36.396-74.731 103.788-64.685 175.601 6.677 47.82 37.314 86.243 79.167 98.901 99.318 30.056 143.564-48.889 176.513-109.68h-32.333l18.093-34.742h28.109l24.646-34.594s19.996-36.894 52.377-49.292c-51.254 0-93.634-1.814-120.153 20.021-31.058 25.624-67.782 97.046-67.782 97.046h-33.888s25.302-46.064 38.526-67.776c21.626-35.552 65.076-77.007 102.816-77.007h263.764l-15.339 28.17-77.076-.455s-42.468-1.33-59.834 7.931c-30.502 16.262-57.222 75.955-57.222 75.955h112.436s-14.004 32.425-13.732 31.658c-66.5-2.051-81.106 102.448-7.835 98.571 29.344-1.531 51.727-22.439 51.727-59.261 0-24.95-21.267-39.31-21.267-39.31l11.127-31.657h135.032s45.7-2.76 28.623 32.425c-.591.118-69.797 122.061-69.797 122.061l-38.402.407 75.463-123.237h-103.182c38.29 63.09-9.549 139.819-87.796 130.937-61.441-6.985-92.954-86.787-43.129-127.852h-51.911s-25.911 45.657-34.354 58.534c-19.701 30.015-44.188 61.671-77.023 77.024-37.097 17.356-98.633 19.046-134.004 0-53.175-28.667-88.711-81.492-88.711-160.65 0-43.323 18.011-86.923 36.37-115.543 36.358-56.708 91.601-96.845 178.646-104.303 43.833-3.746 86.672-5.023 129.395-4.621 63.202.615 279.027 0 463.617 0 180.595 0 294.774 74.3 294.774 236.475-.004 145.363-107.086 241.063-294.778 241.063zM753.995 309.303a26.203 26.203 0 0 1-18.2-44.83 22.607 22.607 0 0 1 14.631-7.209 26.883 26.883 0 0 1 3.812-.373 26.122 26.122 0 0 1 25.911 23.284s81.331-.042 82.844 0c16.663.23 51.449 6.819 64.573 44.788l64.147-103.014 37.51-.201s-37.066 67.41-60.082 104.751c-22.732 36.887-41.635 77.415-67.776 97.046-53.057 39.913-145.597 6.501-138.612-70.849 1.767-19.797 8.976-31.031 21.768-43.394h-30.527v.001z"/><path class="cls-1" d="M849.301 408.311c28.156 0 50.989-22.055 50.989-49.273s-22.833-49.273-50.989-49.273-50.977 22.054-50.977 49.273 22.821 49.273 50.977 49.273z"/></g></svg>