<svg xmlns="http://www.w3.org/2000/svg" xmlns:xlink="http://www.w3.org/1999/xlink" width="287" height="177" viewBox="0 0 287 177"><defs><clipPath id="a"><rect width="152.076" height="80.957" fill="#fff"/></clipPath></defs><g transform="translate(-1111 -244)"><rect width="287" height="177" transform="translate(1111 244)" fill="none"/><g transform="translate(1172.002 294.088)"><g clip-path="url(#a)"><path d="M19.608,17.23a12.974,12.974,0,1,0,0,22.3v1.9h6.368V15.374H19.608Zm-.515,13.713a6.594,6.594,0,1,1-.608-6.242,6.594,6.594,0,0,1,.608,6.242" transform="translate(0 -2.342)" fill="#fff"/><path d="M140.3,15.374h-6.369v1.833a12.98,12.98,0,1,0,0,22.344v1.882H140.3Zm-6.847,15.568a6.592,6.592,0,1,1-.607-6.242,6.515,6.515,0,0,1,1.085,3.019v1.355a6.545,6.545,0,0,1-.481,1.868" transform="translate(-17.418 -2.342)" fill="#fff"/><path d="M66.133,17.686a12.886,12.886,0,0,0-13.83-.411v-1.9H45.936V54.121H52.3V39.576A12.952,12.952,0,0,0,66.13,17.687m-1.175,13.3A6.587,6.587,0,0,1,52.3,28.428h0a6.586,6.586,0,1,1,12.655,2.563" transform="translate(-6.997 -2.342)" fill="#fff"/><path d="M174.736,60.116V34.3h-6.368V48.966a12.974,12.974,0,1,0,0,22.3v1.9h6.368Zm-6.884,2.563a6.6,6.6,0,1,1,.516-2.563h0a6.545,6.545,0,0,1-.516,2.561" transform="translate(-22.66 -5.225)" fill="#fff"/><path d="M99.682,75.5h0a6.585,6.585,0,1,1-13.171,0H80.143a12.954,12.954,0,1,0,25.907.121V49.6H99.682v1.9a12.974,12.974,0,1,0,0,22.3v1.7m-.516-10.284a6.593,6.593,0,1,1-.607-6.241,6.593,6.593,0,0,1,.607,6.241" transform="translate(-12.198 -7.555)" fill="#fff"/><path d="M100.388,15.345a12.859,12.859,0,0,0-13.756-.453V0H80.264V39.09h6.368V25.15a6.491,6.491,0,0,1,.442-1.628,6.585,6.585,0,0,1,12.654,2.559V39.09H106.1V26.085a12.936,12.936,0,0,0-5.709-10.739" transform="translate(-12.226)" fill="#fff"/><rect width="6.368" height="39.09" transform="translate(29.279)" fill="#fff"/><rect width="6.368" height="25.898" transform="translate(116.518 42.045)" fill="#fff"/><path d="M127.5,49.524a12.785,12.785,0,0,0-6.586,1.8V49.589h-6.367v25.9h6.368V62.478a6.556,6.556,0,0,1,.516-2.563,6.623,6.623,0,0,1,2.39-2.9,6.538,6.538,0,0,1,3.68-1.123h3.292V49.524Z" transform="translate(-17.449 -7.544)" fill="#fff"/></g></g></g></svg>