<svg width="18" height="18" viewBox="0 0 18 18" fill="none" xmlns="http://www.w3.org/2000/svg">
<path d="M17.8358 18.0004V11.6362C17.8358 8.50912 17.1628 6.12025 13.5143 6.12025C12.8303 6.09264 12.1517 6.2519 11.5514 6.58093C10.9511 6.90996 10.4518 7.39632 10.1071 7.98777H10.0634V6.40435H6.60938V18.0004H10.2141V12.2452C10.2141 10.7269 10.4961 9.26977 12.3647 9.26977C14.2128 9.26977 14.2322 10.9856 14.2322 12.3317V17.978H17.8369L17.8358 18.0004Z" fill="white"/>
<path d="M0.746094 6.40234H4.35078V17.9984H0.746094V6.40234Z" fill="white"/>
<path d="M2.54818 0.62503C2.13277 0.622815 1.72606 0.744119 1.37973 0.973533C1.0334 1.20295 0.763069 1.53012 0.603071 1.91349C0.443073 2.29687 0.400629 2.71915 0.48113 3.1267C0.561632 3.53425 0.761447 3.90867 1.0552 4.20242C1.34894 4.49617 1.72337 4.69599 2.13092 4.77649C2.53847 4.85699 2.96075 4.81455 3.34412 4.65455C3.7275 4.49455 4.05467 4.22422 4.28409 3.87789C4.5135 3.53155 4.6348 3.12485 4.63259 2.70943C4.62965 2.15752 4.4091 1.62905 4.01883 1.23879C3.62856 0.848523 3.1001 0.627972 2.54818 0.62503Z" fill="white"/>
</svg>
