<svg width="17" height="17" viewBox="0 0 17 17" fill="none" xmlns="http://www.w3.org/2000/svg">
<path d="M16.4598 5.30561C16.4469 4.6367 16.3201 3.97488 16.0851 3.34849C15.8774 2.81257 15.5602 2.32585 15.1538 1.91943C14.7474 1.51302 14.2606 1.19583 13.7247 0.988138C13.0983 0.752935 12.4366 0.625879 11.7676 0.612395C10.9041 0.571664 10.6302 0.5625 8.43887 0.5625C6.24755 0.5625 5.97465 0.571664 5.11421 0.610359C4.4453 0.623338 3.78348 0.750055 3.15709 0.985083C2.61694 1.18726 2.12784 1.50569 1.72438 1.91782C1.31584 2.32045 0.999366 2.80679 0.796732 3.3434C0.561997 3.97055 0.435627 4.63304 0.423026 5.30256C0.381276 6.163 0.371094 6.43997 0.371094 8.63028C0.371094 10.8206 0.380258 11.0945 0.418953 11.9549C0.431873 12.6238 0.558592 13.2857 0.793677 13.9121C1.00167 14.4474 1.319 14.9336 1.7254 15.3395C2.13181 15.7454 2.61837 16.0621 3.15403 16.2694C3.78047 16.5042 4.44227 16.6309 5.11115 16.6441C5.96956 16.6818 6.24551 16.6919 8.43582 16.6919C10.6261 16.6919 10.9 16.6828 11.7605 16.6441C12.4294 16.6312 13.0912 16.5044 13.7176 16.2694C14.2537 16.0621 14.7407 15.745 15.1471 15.3385C15.5536 14.9321 15.8706 14.4452 16.078 13.909C16.3127 13.2825 16.4394 12.6208 16.4527 11.9519C16.4904 11.0935 16.5005 10.8175 16.5005 8.62722C16.5005 6.43692 16.4975 6.163 16.4598 5.30561ZM15.0077 11.8918C15.0027 12.403 14.9089 12.9095 14.7308 13.3887C14.5963 13.7354 14.391 14.0503 14.128 14.3133C13.865 14.5763 13.5501 14.7816 13.2034 14.9161C12.7241 15.0939 12.2177 15.1876 11.7065 15.193C10.8562 15.2307 10.6007 15.2409 8.44803 15.2409C6.2954 15.2409 6.03676 15.2317 5.18956 15.193C4.67835 15.1879 4.17189 15.0942 3.6927 14.9161C3.34363 14.7872 3.02799 14.5816 2.76913 14.3143C2.50252 14.0549 2.29695 13.7394 2.16733 13.3907C1.98949 12.9114 1.89579 12.405 1.89036 11.8938C1.85268 11.0436 1.8425 10.788 1.8425 8.63537C1.8425 6.48274 1.85166 6.2241 1.89036 5.37689C1.89544 4.86568 1.98916 4.35922 2.16733 3.88003C2.29445 3.53197 2.49882 3.21725 2.76505 2.95951C3.02447 2.6929 3.33995 2.48734 3.68863 2.35772C4.16792 2.17992 4.67431 2.08622 5.18549 2.08074C6.03575 2.04307 6.29133 2.03289 8.44396 2.03289C10.5966 2.03289 10.8552 2.04205 11.7024 2.08074C12.2136 2.08585 12.7201 2.17956 13.1993 2.35772C13.5484 2.4865 13.864 2.69218 14.1229 2.95951C14.3895 3.21893 14.595 3.53441 14.7247 3.88309C14.9025 4.36237 14.9962 4.86877 15.0016 5.37995C15.0393 6.23021 15.0495 6.48579 15.0495 8.63842C15.0495 10.7911 15.0414 11.0405 15.0037 11.8918H15.0077Z" fill="white"/>
<path d="M8.4393 4.48633C7.61962 4.48633 6.81834 4.72939 6.1368 5.18478C5.45526 5.64017 4.92407 6.28744 4.61039 7.04472C4.29672 7.802 4.21465 8.63529 4.37456 9.43922C4.53447 10.2432 4.92918 10.9816 5.50878 11.5612C6.08838 12.1408 6.82684 12.5355 7.63077 12.6954C8.4347 12.8553 9.26798 12.7733 10.0253 12.4596C10.7826 12.1459 11.4298 11.6147 11.8852 10.9332C12.3406 10.2517 12.5837 9.45039 12.5837 8.63071C12.5837 7.53155 12.147 6.47741 11.3698 5.70019C10.5926 4.92297 9.53845 4.48633 8.4393 4.48633ZM8.4393 11.3189C7.90761 11.3189 7.38786 11.1613 6.94578 10.8659C6.5037 10.5705 6.15915 10.1507 5.95568 9.65945C5.75221 9.16824 5.69898 8.62772 5.8027 8.10625C5.90643 7.58478 6.16246 7.10578 6.53842 6.72983C6.91438 6.35387 7.39337 6.09784 7.91484 5.99411C8.43631 5.89039 8.97683 5.94362 9.46804 6.14709C9.95925 6.35056 10.3791 6.69511 10.6745 7.13719C10.9699 7.57927 11.1275 8.09902 11.1275 8.63071C11.1275 9.34367 10.8443 10.0274 10.3402 10.5316C9.83603 11.0357 9.15226 11.3189 8.4393 11.3189Z" fill="white"/>
<path d="M13.7121 4.32283C13.7121 4.51416 13.6553 4.70118 13.549 4.86026C13.4427 5.01934 13.2917 5.14334 13.1149 5.21656C12.9381 5.28977 12.7436 5.30893 12.556 5.27161C12.3683 5.23428 12.196 5.14215 12.0607 5.00686C11.9254 4.87157 11.8333 4.6992 11.7959 4.51155C11.7586 4.3239 11.7778 4.1294 11.851 3.95264C11.9242 3.77588 12.0482 3.62479 12.2073 3.5185C12.3664 3.4122 12.5534 3.35547 12.7447 3.35547C13.0013 3.35547 13.2473 3.45739 13.4287 3.6388C13.6101 3.82022 13.7121 4.06627 13.7121 4.32283Z" fill="white"/>
</svg>
