<svg xmlns="http://www.w3.org/2000/svg" xmlns:xlink="http://www.w3.org/1999/xlink" width="287" height="177" viewBox="0 0 287 177"><defs><clipPath id="a"><rect width="164.267" height="56.615" fill="#fff"/></clipPath><clipPath id="b"><path d="M41.315-176.768c-11.459,4.3-17.819,9.466-22.623,14.153C10.858-154.973,9.9-151.982-.181-142.074c-4.109,4.039-11.258,7.842-19.211,9.889-5.882,1.512-13.8,1.527-18.835-.3-3.056-1.107-5.515-2.891-5.143-5.7-1.427,1.951-.554,4.827,4.088,6.681,5.633,2.259,14.332,2.2,21.056.473A46.306,46.306,0,0,0,1.522-141.452c7.818-7.294,12.824-15.218,20.9-22.444a62.255,62.255,0,0,1,23.615-13.38c3.724-1.061,5.615-1.3,11.621-2.277a57.075,57.075,0,0,0-16.346,2.785" transform="translate(43.996 179.553)" fill="#fff"/></clipPath><clipPath id="c"><path d="M53.706-179.055a67.685,67.685,0,0,0-29.985,11.862c-8.678,6.384-12.834,13.464-19,20.427-4.974,5.624-11.085,12.552-29.347,17.847C-6-131.886.462-139.581,6.274-145.868c6.766-7.33,10.591-14.2,19.46-20.629a80.512,80.512,0,0,1,29.823-12.751Z" transform="translate(24.623 179.247)" fill="#fff"/></clipPath></defs><g transform="translate(-1111 -460)"><rect width="287" height="177" transform="translate(1111 460)" fill="none"/><g transform="translate(1255.058 703.705)"><path d="M6.589-148.468h.522v2.774H9.746v-2.774h.522v4.923H9.746v-1.672H7.111v1.672H6.589Z" transform="translate(16.813 6.792)" fill="#fff"/><g transform="translate(-82.691 -184.536)"><g clip-path="url(#a)"><path d="M12.974-148.512h.087l2.084,4.974H14.6l-.333-.825h-2.49l-.326.825h-.515Zm1.1,3.7L13.2-147a6.132,6.132,0,0,1-.188-.586,5.889,5.889,0,0,1-.2.586l-.869,2.187Z" transform="translate(100.322 191.32)" fill="#fff"/><path d="M18.921-143.546H18.3l-.948-1.345a3.031,3.031,0,0,1-.522.042h-.586v1.3h-.522v-4.922H16.83c1.346,0,2.042.752,2.042,1.817a1.606,1.606,0,0,1-1.029,1.591ZM16.806-145.3c1.115,0,1.528-.572,1.528-1.346S17.913-148,16.806-148h-.557v2.7Z" transform="translate(101.225 191.329)" fill="#fff"/><path d="M20.87-148.005H19.356v-.463h3.549v.463H21.39v4.46h-.52Z" transform="translate(101.908 191.329)" fill="#fff"/><path d="M23.566-148.468h3V-148H24.088v2.31H26.3v.455H24.088V-144h2.577v.463h-3.1Z" transform="translate(102.701 191.329)" fill="#fff"/><path d="M30.75-143.546h-.616l-.951-1.345a3,3,0,0,1-.519.042h-.586v1.3h-.523v-4.922h1.109c1.346,0,2.039.752,2.039,1.817a1.6,1.6,0,0,1-1.027,1.591ZM28.636-145.3c1.113,0,1.527-.572,1.527-1.346S29.744-148,28.636-148h-.557v2.7Z" transform="translate(103.452 191.329)" fill="#fff"/><path d="M31.254-144.478l.435-.229a1.337,1.337,0,0,0,1.268.765c.57,0,1.02-.317,1.02-.839,0-.5-.311-.752-.926-1.028l-.393-.182c-.7-.317-1.085-.657-1.085-1.346a1.193,1.193,0,0,1,.391-.875,1.193,1.193,0,0,1,.909-.3,1.448,1.448,0,0,1,1.331.739l-.419.26a1,1,0,0,0-.911-.536.7.7,0,0,0-.55.173.7.7,0,0,0-.233.527c0,.434.233.63.783.884l.39.179c.82.364,1.239.768,1.239,1.507a1.351,1.351,0,0,1-.475.989,1.351,1.351,0,0,1-1.052.311,1.785,1.785,0,0,1-1.717-1" transform="translate(104.149 191.319)" fill="#fff"/><path d="M1.473-146a2.465,2.465,0,0,1,.725-1.8,2.465,2.465,0,0,1,1.8-.718,2.206,2.206,0,0,1,1.954.958l-.4.289A1.8,1.8,0,0,0,4-148.046a1.957,1.957,0,0,0-1.433.595A1.957,1.957,0,0,0,2.017-146a1.957,1.957,0,0,0,.547,1.455,1.957,1.957,0,0,0,1.436.6,1.888,1.888,0,0,0,1.621-.826l.4.282A2.363,2.363,0,0,1,4-143.477a2.466,2.466,0,0,1-1.8-.72,2.466,2.466,0,0,1-.723-1.8" transform="translate(98.541 191.319)" fill="#fff"/><rect width="1.831" height="17.065" transform="translate(121.466 21.7)" fill="#fff"/><path d="M36.329-149.223H34.192L30.9-153.892a10.665,10.665,0,0,1-1.8.152H27.066v4.517H25.261v-17.065H29.1c4.668,0,7.076,2.61,7.076,6.3a5.583,5.583,0,0,1-3.561,5.521ZM29-155.322c3.864,0,5.3-1.981,5.3-4.667s-1.457-4.693-5.3-4.693H27.066v9.359Z" transform="translate(103.02 187.973)" fill="#fff"/><path d="M56.372-181.479l-.011.018-.25-.119c-.169-.072-.322-.4-.574-.437-1.56-.254-8.319.668-8.319.668-1.368-.116-3.79-3.187-3.79-3.187l-1.315.784s1.392,3.075,1.494,3.4-.381.932-.381.932,3.566-.086,13.144-.775c.134,0,.295-.011.46-.025h.148c.547-.049,1.113-.15,1.094-.357-.026-.278-1.7-.891-1.7-.891" transform="translate(106.194 184.536)" fill="#fff"/></g></g><g transform="translate(-36.709 -178.615)"><g clip-path="url(#b)"><rect width="102.459" height="50.311" transform="translate(-0.802)" fill="#fff"/></g></g><g transform="translate(-13.688 -178.251)"><g clip-path="url(#c)"><rect width="94.094" height="89.253" transform="translate(-24.503 19.43) rotate(-38.415)" fill="#fff"/></g></g><g transform="translate(-82.691 -184.536)"><g clip-path="url(#a)"><path d="M17.6-149.392H15.647c-.057-.458-.752-3.613-.752-3.613L3.8-153l10.582-12.3c.094.494,3.22,15.907,3.22,15.907m-5.861-13.322-6.987,7.938H14.63l-1.93-9.056Z" transform="translate(98.979 188.159)" fill="#fff"/><path d="M-82.692-157.724a8.493,8.493,0,0,1,2.5-6.268,8.493,8.493,0,0,1,6.282-2.465,7.853,7.853,0,0,1,5.948,2.208l-1.228,1.233a6.156,6.156,0,0,0-4.72-1.811,6.793,6.793,0,0,0-4.985,2.058,6.793,6.793,0,0,0-1.915,5.042,6.842,6.842,0,0,0,1.982,5.083,6.842,6.842,0,0,0,5.069,2.017,7.85,7.85,0,0,0,5.043-1.558V-155.7h-5.068v-1.6h6.776v5.95a9.574,9.574,0,0,1-6.751,2.358,8.543,8.543,0,0,1-6.366-2.425,8.543,8.543,0,0,1-2.569-6.309" transform="translate(82.691 187.941)" fill="#fff"/><path d="M-65.38-166.289h1.809v15.46h8.054v1.608H-65.38Z" transform="translate(85.951 187.973)" fill="#fff"/><path d="M-56.475-157.724a8.543,8.543,0,0,1,2.509-6.243,8.543,8.543,0,0,1,6.251-2.49,8.55,8.55,0,0,1,6.264,2.483,8.55,8.55,0,0,1,2.52,6.25,8.549,8.549,0,0,1-2.519,6.251,8.549,8.549,0,0,1-6.265,2.483,8.543,8.543,0,0,1-6.251-2.49,8.543,8.543,0,0,1-2.509-6.244m15.662,0a6.808,6.808,0,0,0-1.919-5.037,6.808,6.808,0,0,0-4.981-2.063,6.8,6.8,0,0,0-4.968,2.068,6.8,6.8,0,0,0-1.909,5.032,6.8,6.8,0,0,0,1.909,5.032,6.8,6.8,0,0,0,4.968,2.068,6.808,6.808,0,0,0,4.981-2.063,6.808,6.808,0,0,0,1.919-5.037" transform="translate(87.628 187.941)" fill="#fff"/><path d="M-38.128-166.288h5.8c3.187,0,4.694,1.883,4.694,4.189a3.254,3.254,0,0,1-2.208,3.39,4.363,4.363,0,0,1,3.514,4.467c0,2.835-1.759,5.021-5.4,5.021h-6.4Zm5.924,6.975a2.442,2.442,0,0,0,2.037-.669A2.442,2.442,0,0,0-29.443-162c0-1.555-.827-2.683-3.012-2.683h-3.864v5.369Zm.352,8.485c2.611,0,3.69-1.481,3.69-3.465,0-2.007-1.18-3.464-3.791-3.464h-4.366v6.929Z" transform="translate(91.083 187.973)" fill="#fff"/><path d="M-18.544-166.362h.3l7.229,17.242h-1.907l-1.154-2.861h-8.633l-1.131,2.861h-1.781Zm3.814,12.824-3.011-7.579a20.892,20.892,0,0,1-.652-2.033s-.353,1.23-.68,2.033l-3.009,7.579Z" transform="translate(93.438 187.959)" fill="#fff"/><path d="M-9.6-166.288h1.81v15.46H.267v1.608H-9.6Z" transform="translate(96.456 187.973)" fill="#fff"/></g></g></g></g></svg>