<svg xmlns="http://www.w3.org/2000/svg" width="287" height="177" viewBox="0 0 287 177"><g transform="translate(-505 -460)"><rect width="287" height="177" transform="translate(505 460)" fill="none"/><g transform="translate(-1783.371 -427.945)"><path d="M722.146,260.413c0,3.981-3.1,6.047-6.593,6.047a6.475,6.475,0,0,1-6.333-3.878l3.568-2.067a2.6,2.6,0,0,0,2.765,1.912c1.708,0,2.458-.9,2.458-2.017s-.75-2.015-2.458-2.015h-2.43v-2.352l3.285-4.161H709.22V248h12.2v3.36l-3.128,3.981a5.319,5.319,0,0,1,3.852,5.068" transform="translate(1773.27 717.905)" fill="#fff"/><path d="M788.87,260.075c0,3.749-2.739,6.385-6.722,6.385s-6.72-2.636-6.72-6.385a6.6,6.6,0,0,1,1.059-3.671l5.527-8.4h4.756l-3.929,5.712a6.192,6.192,0,0,1,6.015,6.359m-4.135,0a2.579,2.579,0,1,0-2.578,2.508A2.579,2.579,0,0,0,784.721,260.075Z" transform="translate(1721.286 717.905)" fill="#fff"/><path d="M844.526,257c0-5.5,2.645-9.259,7.248-9.259s7.242,3.764,7.242,9.259-2.645,9.259-7.248,9.259-7.248-3.766-7.248-9.259m10.428,0c0-3.437-1.042-5.291-3.179-5.291s-3.179,1.858-3.179,5.291,1.042,5.291,3.179,5.291,3.179-1.858,3.179-5.291" transform="translate(1667.036 718.11)" fill="#fff"/><path d="M197.591,260.71v15.73h-4.468v-1.817a5.091,5.091,0,0,1-4.26,1.817c-3.008,0-5.573-2.148-5.573-6.165V260.71h4.468v8.909a2.457,2.457,0,0,0,2.593,2.711c1.639,0,2.771-.954,2.771-3.07v-8.55Z" transform="translate(2186.216 707.927)" fill="#fff"/><path d="M278.806,260.71v15.73h-4.468v-1.817a5.592,5.592,0,0,1-4.438,1.817c-3.9,0-7.119-3.424-7.119-7.865S266,260.71,269.9,260.71a5.592,5.592,0,0,1,4.438,1.817V260.71Zm-4.468,7.865a3.546,3.546,0,1,0-3.545,3.635,3.4,3.4,0,0,0,3.545-3.635Z" transform="translate(2123.802 707.927)" fill="#fff"/><path d="M364.659,266.878v9.562h-4.468v-8.907a2.456,2.456,0,0,0-2.591-2.711c-1.639,0-2.771.954-2.771,3.068v8.55H350.36V260.71h4.468v1.817a5.1,5.1,0,0,1,4.26-1.817c3.008,0,5.57,2.148,5.57,6.168" transform="translate(2055.037 707.927)" fill="#fff"/><path d="M433.953,249.679v5.274c0,1.289,1.1,1.4,3.068,1.289v4.468c-5.839.6-7.536-1.579-7.536-5.751v-5.28H427.1v-4.707h2.385V240.79h4.468v4.183h3.068v4.707Z" transform="translate(1994.783 723.567)" fill="#fff"/><path d="M501.731,260.71v15.73h-4.468v-1.817A5.091,5.091,0,0,1,493,276.44c-3.008,0-5.573-2.148-5.573-6.165V260.71H491.9v8.909a2.457,2.457,0,0,0,2.593,2.711c1.639,0,2.771-.954,2.771-3.07v-8.55Z" transform="translate(1947.413 707.927)" fill="#fff"/><path d="M588.169,266.854v9.562H583.7v-9.175c0-1.491-.715-2.443-2.148-2.443-1.489,0-2.322,1.042-2.322,2.793v8.819h-4.468v-9.169c0-1.491-.715-2.443-2.148-2.443-1.491,0-2.324,1.042-2.324,2.793v8.819h-4.47V260.686h4.468v1.781a4.574,4.574,0,0,1,3.991-1.787,4.43,4.43,0,0,1,3.9,1.968,4.9,4.9,0,0,1,4.318-1.968c3.437,0,5.663,2.443,5.663,6.168" transform="translate(1885.863 707.949)" fill="#fff"/><path d="M87.191,251.27l2.93,2.915-9.061.028-.024-9.044L83.99,248.1h0a6.413,6.413,0,1,0-5.622,1.48v4.559a10.913,10.913,0,0,1,0-21.657,11.959,11.959,0,0,1,1.356-.084,10.911,10.911,0,0,1,7.459,18.875h0" transform="translate(2276.1 730.154)" fill="#fff"/></g></g></svg>