<svg width="14" height="15" viewBox="0 0 14 15" fill="none" xmlns="http://www.w3.org/2000/svg">
<path d="M13.9926 3.75521C13.1169 3.75659 12.2647 3.48837 11.566 2.99145C11.0726 2.64232 10.6713 2.19081 10.3934 1.672C10.1154 1.15318 9.96828 0.581036 9.96336 0H7.36054V10.3598C7.36051 10.8292 7.20241 11.2866 6.90896 11.6661C6.61551 12.0456 6.2018 12.3277 5.7273 12.472C5.25279 12.6163 4.74191 12.6153 4.26807 12.4691C3.79422 12.3229 3.38181 12.0391 3.09008 11.6584C2.79836 11.2777 2.64234 10.8197 2.64446 10.3503C2.64657 9.88093 2.80671 9.42424 3.10185 9.0459C3.397 8.66755 3.81195 8.38701 4.2871 8.24461C4.76224 8.1022 5.27311 8.10524 5.7463 8.25331V5.77037C5.49724 5.73576 5.24581 5.7185 4.99405 5.71872C4.28559 5.71553 3.58452 5.85434 2.93746 6.12593C2.2904 6.39753 1.71217 6.79567 1.24121 7.2939C0.405073 8.17596 -0.0384376 9.32708 0.00261562 10.5086C0.0436688 11.6902 0.566137 12.8116 1.46172 13.6403C1.60966 13.778 1.76646 13.9071 1.93122 14.0267C2.80835 14.6613 3.88459 15.0037 4.99088 15C5.24302 14.9999 5.49481 14.9823 5.74419 14.9473C6.79442 14.8015 7.76752 14.3432 8.5211 13.6393C8.98227 13.2138 9.34896 12.7063 9.59982 12.1462C9.85068 11.5861 9.98071 10.9846 9.98235 10.3767L9.96547 4.90332C11.1214 5.74223 12.5404 6.19634 14 6.19445V3.75421H13.9968L13.9926 3.75521Z" fill="white"/>
</svg>
