<svg xmlns="http://www.w3.org/2000/svg" width="287" height="177" viewBox="0 0 287 177"><g transform="translate(-505 -460)"><rect width="287" height="177" transform="translate(505 460)" fill="none"/><g transform="translate(-136.677 113.258)"><path d="M781.25,1030.975l.04-.022h0a2.209,2.209,0,1,0-2.065-3.906h0a29.4,29.4,0,0,0-6.719,5.247,25.652,25.652,0,0,0-4.631,6.536c-.2.41-.385.835-.562,1.268a18.746,18.746,0,0,0-1.33-2.522,14.5,14.5,0,0,0-3.335-3.795,2.21,2.21,0,0,0-2.6,3.57h0a11.105,11.105,0,0,1,2.433,2.957,16.736,16.736,0,0,1,2.2,8.682,29.132,29.132,0,0,1-1.88,9.791,2.209,2.209,0,0,0,4.161,1.487c.317-.887.585-1.745.826-2.586.394.946.839,1.906,1.361,2.882a2.21,2.21,0,1,0,3.9-2.08,22.021,22.021,0,0,1-2.9-10.409,16.554,16.554,0,0,1,1.7-7.314,22.794,22.794,0,0,1,5.926-7.341,26.343,26.343,0,0,1,2.546-1.881c.32-.207.574-.36.743-.458C781.149,1031.031,781.212,1031,781.25,1030.975ZM760.044,1037.35Z" transform="translate(-0.173 -604.593)" fill="#fff"/><path d="M717.426,1061.044a2.3,2.3,0,0,0,2.3-2.3V1046.37a11.98,11.98,0,0,0-19.381-9.432v-11.9a2.3,2.3,0,1,0-4.6,0v33.7a2.3,2.3,0,1,0,4.6,0v-12.377a7.39,7.39,0,1,1,14.779,0v12.372a2.3,2.3,0,0,0,2.3,2.311Z" transform="translate(4.86 -604.271)" fill="#fff"/><path d="M865.42,1035.381a12.241,12.241,0,0,0-8.442,3.4,11.1,11.1,0,0,0-3.551,7.957v13.013a2.3,2.3,0,1,0,4.6,0v-13.013a6.511,6.511,0,0,1,2.126-4.627,7.635,7.635,0,0,1,5.264-2.122,7.389,7.389,0,0,1,7.389,7.39v12.372a2.3,2.3,0,1,0,4.6,0v-12.372a11.993,11.993,0,0,0-11.986-12Z" transform="translate(-7.659 -605.275)" fill="#fff"/><path d="M787.51,1059.746v-22.063a2.3,2.3,0,1,0-4.6,0v22.063a2.3,2.3,0,1,0,4.6,0Z" transform="translate(-2.061 -605.275)" fill="#fff"/><path d="M814.38,1036.67a2.294,2.294,0,0,0-2.066-1.289h-17.1a2.3,2.3,0,0,0,0,4.6h12.4L793.4,1058.335a2.3,2.3,0,0,0,1.819,3.711h17.1a2.3,2.3,0,1,0,0-4.6h-12.4l14.221-18.352A2.3,2.3,0,0,0,814.38,1036.67Z" transform="translate(-2.855 -605.275)" fill="#fff"/><path d="M833.227,1035.381a13.333,13.333,0,1,0,13.333,13.333,13.333,13.333,0,0,0-13.333-13.333Zm6.173,19.506a8.729,8.729,0,1,1,2.557-6.173A8.729,8.729,0,0,1,839.4,1054.887Z" transform="translate(-4.997 -605.275)" fill="#fff"/><path d="M741.215,1062.047a13.333,13.333,0,1,0-13.333-13.333,13.333,13.333,0,0,0,13.333,13.333Zm-6.173-19.507a8.729,8.729,0,1,1-2.557,6.173,8.729,8.729,0,0,1,2.557-6.173Z" transform="translate(2.308 -605.275)" fill="#fff"/><path d="M767.022,1024.257a3.191,3.191,0,1,0,3.192,3.191,3.191,3.191,0,0,0-3.192-3.191ZM767.022,1027.448Z" transform="translate(-0.546 -604.392)" fill="#fff"/><path d="M802.079,1018.379a7.439,7.439,0,0,0,2.181-5.074v-.183a7.328,7.328,0,0,0-2.332-5.315,7.856,7.856,0,0,0-3.915-2.009,7.412,7.412,0,0,0-7.141-6.281h-.2a7.332,7.332,0,0,0-5.314,2.325,7.8,7.8,0,0,0-2.151,5.357v10.937a2.436,2.436,0,0,0,2.435,2.436h11.169a7.444,7.444,0,0,0,5.268-2.193ZM787.166,1007.2a3.847,3.847,0,0,1,1.063-2.631,3.368,3.368,0,0,1,2.442-1.093h.079a3.48,3.48,0,0,1,3.4,3.491v2.653h2.416a3.861,3.861,0,0,1,2.636,1.064,3.366,3.366,0,0,1,1.1,2.441v.089a3.5,3.5,0,0,1-3.495,3.4h-9.644v-8.966Z" transform="translate(-2.084 -602.427)" fill="#fff"/></g></g></svg>