<svg xmlns="http://www.w3.org/2000/svg" width="287" height="177" viewBox="0 0 287 177"><g transform="translate(-808 -244)"><rect width="287" height="177" transform="translate(808 244)" fill="none"/><g transform="translate(739.282 -1043.349)"><path d="M148.091,1381.966a8.559,8.559,0,0,0-1.852-1.852,7.833,7.833,0,0,0-1.193-.715,7.452,7.452,0,0,0,2.171-2.3,8.275,8.275,0,0,0,1.215-4.372,8.647,8.647,0,0,0-.506-2.885,8.434,8.434,0,0,0-1.435-2.559,7.485,7.485,0,0,0-2.271-1.849,6.366,6.366,0,0,0-3.029-.727H127.718v30.306h14.088a7.256,7.256,0,0,0,3.059-.67,8.046,8.046,0,0,0,2.5-1.793,8.724,8.724,0,0,0,1.673-2.576,7.9,7.9,0,0,0,.622-3.1,8.572,8.572,0,0,0-.4-2.579,8.066,8.066,0,0,0-1.169-2.329Zm-4.964-3.745a4.676,4.676,0,0,1-2.183.506H129.738v-12H141.19a4.709,4.709,0,0,1,2.093.472,4.914,4.914,0,0,1,1.646,1.3,6.532,6.532,0,0,1,1.088,1.934,6.72,6.72,0,0,1,.394,2.3,6.019,6.019,0,0,1-.411,2.181,6.741,6.741,0,0,1-1.148,1.94,5.639,5.639,0,0,1-1.724,1.372Zm-13.389,2.528h12.354a4.877,4.877,0,0,1,2.174.493,5.576,5.576,0,0,1,1.759,1.351,6.739,6.739,0,0,1,1.185,1.976,6.319,6.319,0,0,1,.43,2.3,5.945,5.945,0,0,1-.448,2.255,6.421,6.421,0,0,1-3.131,3.355,5.065,5.065,0,0,1-2.257.513H129.738Z" transform="translate(0 -0.2)" fill="#fff"/><path d="M182.382,1380.747h15.7v-2.019h-15.7v-12H200.3v-2.02H180.362v30.306h20.3v-2.021h-18.28Z" transform="translate(-26.021 -0.2)" fill="#fff"/><path d="M304.474,1369.187a14.674,14.674,0,0,0-4.464-3.525,12.445,12.445,0,0,0-5.768-1.358,12.7,12.7,0,0,0-5.612,1.27,14.479,14.479,0,0,0-4.491,3.4,16.254,16.254,0,0,0-2.98,4.894,15.8,15.8,0,0,0-1.087,5.794,16.294,16.294,0,0,0,1.022,5.66,15.491,15.491,0,0,0,2.9,4.9,15.011,15.011,0,0,0,4.46,3.458,13.065,13.065,0,0,0,11.382.066,14.677,14.677,0,0,0,4.465-3.374,15.973,15.973,0,0,0,3.047-16.271,16.309,16.309,0,0,0-2.874-4.914Zm-5.321,22.667a10.65,10.65,0,0,1-4.912,1.143,10.92,10.92,0,0,1-4.86-1.086,12.026,12.026,0,0,1-3.827-2.948,14.39,14.39,0,0,1-2.538-4.29,14.2,14.2,0,0,1,2.458-14.173,12.61,12.61,0,0,1,3.856-3.033,11.043,11.043,0,0,1,9.666-.058,12.586,12.586,0,0,1,3.855,2.955,14.023,14.023,0,0,1,2.612,14.172,14.255,14.255,0,0,1-2.478,4.288,12.326,12.326,0,0,1-3.832,3.03Z" transform="translate(-75.305)" fill="#fff"/><path d="M368.338,1391.508l-21.189-26.575h0l-.029-.036-.152-.189h-1.5v30.306h2.021v-26.391l20.861,26.165h0l.029.036.152.189h1.831v-30.306h-2.02Z" transform="translate(-107.626 -0.2)" fill="#fff"/><path d="M428.633,1374a13.646,13.646,0,0,0-2.66-4.823,12.729,12.729,0,0,0-4.472-3.271,15.237,15.237,0,0,0-6.251-1.2H405.3v30.305h9.947a15.412,15.412,0,0,0,5.884-1.089,12.646,12.646,0,0,0,4.517-3.1,13.928,13.928,0,0,0,2.851-4.8,18.389,18.389,0,0,0,1-6.208A19.211,19.211,0,0,0,428.633,1374Zm-4.262,15.259a10.671,10.671,0,0,1-3.8,2.735,13.25,13.25,0,0,1-5.315,1h-7.927v-26.265h7.927a13.3,13.3,0,0,1,5.237.977,10.783,10.783,0,0,1,3.826,2.7,11.651,11.651,0,0,1,2.357,4.115,16.681,16.681,0,0,1,.809,5.3,17.115,17.115,0,0,1-.79,5.287,11.744,11.744,0,0,1-2.32,4.153Z" transform="translate(-137.204 -0.2)" fill="#fff"/><path d="M232.22,1364.89l-.152-.183h-2.607l12.194,15.04-12.181,15.284h2.6l.152-.191,11.729-14.739.046-.059.247-.317-12-14.8Z" transform="translate(-50.289 -0.2)" fill="#fff"/><path d="M272.875,1365.532l.667-.824h-2.575l-.152.194-6.821,8.74,1.3,1.6,7.463-9.559Z" transform="translate(-67.358 -0.2)" fill="#fff"/></g></g></svg>