<svg xmlns="http://www.w3.org/2000/svg" xmlns:xlink="http://www.w3.org/1999/xlink" width="287" height="177" viewBox="0 0 287 177"><defs><clipPath id="a"><rect width="287" height="177" fill="#fff"/></clipPath></defs><path d="M65.578,95.046H63.407l-3.86-9.489.08,11.66H57.295V81.7H60.27l4.182,10.615L68.634,81.7h2.975v15.52H69.357l.08-11.66-3.86,9.489" fill="#fff"/><path d="M75.791,86.843l2.332,7.4,2.332-7.4h2.573l-5.95,15.52H74.5l2.573-5.549-3.86-9.971Z" fill="#fff"/><g clip-path="url(#a)"><path d="M90.668,81.456a9.121,9.121,0,0,1,4.021.724v1.367a9.975,9.975,0,0,0-4.021-.8c-3.377,0-4.584,2.895-4.584,6.675S87.29,96.1,90.668,96.1a9.975,9.975,0,0,0,4.021-.8v1.359a9.667,9.667,0,0,1-4.021.724c-4.664,0-6.112-3.538-6.112-7.961S86,81.456,90.668,81.456" fill="#fff"/><path d="M100.961,87.889a10.267,10.267,0,0,0-3.136.482V87.165a8.048,8.048,0,0,1,3.136-.563c3.136,0,3.94,1.447,3.94,3.458v7.077h-.8l-.322-.8a5.244,5.244,0,0,1-3.136,1.045c-2.734,0-3.619-1.608-3.619-3.3,0-1.769.965-3.056,3.7-3.217l2.734-.161v-.643c-.08-1.447-.563-2.171-2.493-2.171m-.4,4.1c-1.447.161-2.091.885-2.091,2.091,0,.965.241,2.091,2.171,2.091a5.2,5.2,0,0,0,2.734-.8v-3.7l-2.815.322" fill="#fff"/><path d="M113.265,88.05a4.865,4.865,0,0,0-1.206-.161,5.633,5.633,0,0,0-2.975.643v8.6h-1.448V86.844h.8l.322.885a5.54,5.54,0,0,1,3.3-1.045c.482,0,.885.08,1.206.08v1.287" fill="#fff"/><path d="M123.961,97.217,117.206,86.2l.08,11.017h-2.332V81.7h2.091L123.8,92.714,123.719,81.7h2.335v15.52Z" fill="#fff"/><path d="M132.806,86.6c3.619,0,4.262,2.412,4.262,5.227a4.58,4.58,0,0,1-.08,1.045h-6.434c.08,1.528.563,2.573,2.734,2.573a8.024,8.024,0,0,0,3.3-.643v2.01a9.831,9.831,0,0,1-3.619.643c-3.458,0-4.745-2.091-4.745-5.468,0-3.3,1.206-5.388,4.584-5.388m-2.252,4.664h4.182c0-1.447-.08-2.654-1.85-2.654s-2.252,1.126-2.332,2.654" fill="#fff"/><path d="M143.421,86.6c3.619,0,4.262,2.412,4.262,5.227a4.579,4.579,0,0,1-.08,1.045H141.17c.08,1.528.563,2.573,2.734,2.573a8.024,8.024,0,0,0,3.3-.643v2.01a9.831,9.831,0,0,1-3.619.643c-3.458,0-4.745-2.091-4.745-5.468-.08-3.3,1.206-5.388,4.584-5.388m-2.252,4.664h4.182c0-1.447-.08-2.654-1.85-2.654-1.85,0-2.252,1.126-2.332,2.654" fill="#fff"/><path d="M156.291,87.407V81.7h2.332v15.52h-1.367l-.4-.8a5.453,5.453,0,0,1-3.377,1.045c-3.056,0-4.182-2.01-4.182-5.468,0-3.377,1.126-5.468,4.182-5.468a6.124,6.124,0,0,1,2.815.885M151.71,92c0,1.93.322,3.458,2.332,3.458a5.237,5.237,0,0,0,2.252-.563V89.18a4.279,4.279,0,0,0-2.252-.563c-2.01-.08-2.332,1.528-2.332,3.377" fill="#fff"/><path d="M164.57,91.022c3.136.241,3.94,1.206,3.94,3.136,0,1.769-1.126,3.3-4.423,3.3a9.322,9.322,0,0,1-3.457-.562v-2.01a9.4,9.4,0,0,0,3.056.563c1.689,0,2.493-.4,2.493-1.287,0-.8-.322-1.126-1.689-1.287-3.136-.241-3.86-1.206-3.86-3.056s1.126-3.3,4.182-3.3a8.465,8.465,0,0,1,3.217.482v2.01a8.746,8.746,0,0,0-3.136-.563c-1.206,0-2.01.322-2.01,1.287,0,.8.4,1.126,1.689,1.287" fill="#fff"/><path d="M164.57,91.022c3.136.241,3.94,1.206,3.94,3.136,0,1.769-1.126,3.3-4.423,3.3a9.322,9.322,0,0,1-3.457-.562v-2.01a9.4,9.4,0,0,0,3.056.563c1.689,0,2.493-.4,2.493-1.287,0-.8-.322-1.126-1.689-1.287-3.136-.241-3.86-1.206-3.86-3.056s1.126-3.3,4.182-3.3a8.465,8.465,0,0,1,3.217.482v2.01a8.746,8.746,0,0,0-3.136-.563c-1.206,0-2.01.322-2.01,1.287,0,.808.4,1.129,1.687,1.287" fill="#fff"/><path d="M169.878,97.218l5.468-15.762h1.045l5.468,15.762h-1.608L178.8,92.876h-5.951L171.4,97.218Zm3.458-5.549h5.142l-2.573-7.8Z" fill="#fff"/><path d="M169.878,97.218l5.468-15.762h1.045l5.468,15.762h-1.608L178.8,92.876h-5.951L171.4,97.218Zm3.458-5.549h5.142l-2.573-7.8Z" fill="#fff"/><path d="M209.823,88.647a2.946,2.946,0,0,0-1.346-.258,3.049,3.049,0,0,0-1.38.259,1.434,1.434,0,0,0-.649.648,6.254,6.254,0,0,0-.366,2.693,9.089,9.089,0,0,0,.178,2.194,1.626,1.626,0,0,0,.837,1.147,3.806,3.806,0,0,0,2.76,0,1.438,1.438,0,0,0,.649-.648,6.254,6.254,0,0,0,.366-2.693,8.56,8.56,0,0,0-.2-2.187,1.681,1.681,0,0,0-.852-1.155" fill="#fff"/><path d="M210.263,68.026a24.286,24.286,0,1,0,24.286,24.286,24.286,24.286,0,0,0-24.286-24.286M192.937,96.75a1.546,1.546,0,0,1-3.054-.336,1.563,1.563,0,0,1,.038-.338,1.543,1.543,0,0,1,1.507-1.208,1.562,1.562,0,0,1,.338.037,1.546,1.546,0,0,1,1.171,1.845m9.527-7.767-.658-.219a8.953,8.953,0,0,0-2.826-.457h-.152a2.521,2.521,0,0,0-1.287.291,1.753,1.753,0,0,0-.682.736,5.828,5.828,0,0,0-.426,2.573,7.634,7.634,0,0,0,.218,2.076,1.945,1.945,0,0,0,.885,1.242,2.584,2.584,0,0,0,1.292.282h.092a9.353,9.353,0,0,0,2.889-.457l.655-.213V97.08l-.326.121a8.368,8.368,0,0,1-2.9.52c-.116,0-.232,0-.348-.007h0a5.488,5.488,0,0,1-2.365-.471,3.705,3.705,0,0,1-1.529-1.331,7.438,7.438,0,0,1-.927-4.085,6.991,6.991,0,0,1,.962-3.949,4.381,4.381,0,0,1,3.879-1.775H199a9.849,9.849,0,0,1,3.125.508l.342.114ZM213.319,92a9.291,9.291,0,0,1-.475,3.293,3.7,3.7,0,0,1-1.994,2.156,5.813,5.813,0,0,1-2.373.433,5.712,5.712,0,0,1-2.378-.446,3.608,3.608,0,0,1-1.534-1.293,7.44,7.44,0,0,1-.93-4.149,9.259,9.259,0,0,1,.473-3.262,3.754,3.754,0,0,1,1.99-2.18,6.568,6.568,0,0,1,4.758,0,3.6,3.6,0,0,1,1.535,1.293,7.448,7.448,0,0,1,.928,4.149Zm13.875,5.8V90.08l-.021-.431a1.165,1.165,0,0,0-.487-1,1.734,1.734,0,0,0-1.078-.263h-.026l-.225,0a4.355,4.355,0,0,0-2,.495,5.384,5.384,0,0,1,.094.76v8.079h-2.447V89.658a1.176,1.176,0,0,0-.352-1.006,1.734,1.734,0,0,0-1.078-.263h-.1a5.215,5.215,0,0,0-2.137.468v8.861h-2.448V86.344h1.65l.12.329.11.3a5.678,5.678,0,0,1,2.747-.787h0c.013,0,.025,0,.038,0h.006c.115-.01.23-.017.344-.017a3.771,3.771,0,0,1,2.621,1.086,6.4,6.4,0,0,1,3.122-1.068h.032a4.238,4.238,0,0,1,2.907.912,3.5,3.5,0,0,1,1.051,2.724V97.8Z" fill="#fff"/></g></svg>