<svg xmlns="http://www.w3.org/2000/svg" width="287" height="177" viewBox="0 0 287 177"><g transform="translate(-808 -460)"><rect width="287" height="177" transform="translate(808 460)" fill="none"/><g transform="translate(199.02 256.236)"><path d="M709.824,463.919a5.155,5.155,0,0,0-1.286-3.573,5.573,5.573,0,0,0-4.288-1.525h-6.265V475.71h2.12v-6.55h4.169a5.652,5.652,0,0,0,4.145-1.4,5.222,5.222,0,0,0,1.405-3.835Zm-2.191,0c0,2.263-1.143,3.311-3.406,3.311h-4.121v-6.479h4.1c2.1,0,3.43,1.024,3.43,3.168Zm15.462,11.791-5.979-16.888h-2.477l-5.955,16.888h2.144l1.358-4h7.337l1.382,4Zm-4.264-6h-5.979l2.977-8.766,3,8.766Zm18.165,6-3.383-7.432a4.867,4.867,0,0,0,2.025-1.191,4.521,4.521,0,0,0,1.286-3.335,4.78,4.78,0,0,0-1.334-3.43,5.693,5.693,0,0,0-4.288-1.5H724.68V475.71h2.12v-7.027h4.669l3.192,7.027Zm-2.263-11.958c0,2.144-1.429,2.954-3.43,2.954h-4.5v-5.931h4.5C733.3,460.775,734.733,461.609,734.733,463.752Zm15.052-2.954v-1.977h-12.2V460.8h5.026v14.91h2.144V460.8Zm14.347,14.911V458.822h-2.049v13.625l-8.289-13.625h-2.382V475.71h2.049V462.133l8.289,13.578Zm14.5,0v-1.953h-9.171V467.92h8.051v-2h-8.051v-5.145h9.171v-1.953H767.337V475.71Zm14.361,0-3.382-7.432a4.867,4.867,0,0,0,2.025-1.191,4.52,4.52,0,0,0,1.286-3.335,4.78,4.78,0,0,0-1.334-3.43,5.694,5.694,0,0,0-4.288-1.5h-6.622V475.71h2.12v-7.027h4.669l3.192,7.027Zm-2.263-11.958c0,2.144-1.429,2.954-3.43,2.954h-4.5v-5.931h4.5C789.3,460.774,790.73,461.608,790.73,463.751Zm16.126,7.313c0-2.668-1.882-4.383-4.693-4.788-.929-.143-1.858-.31-2.811-.429-1.262-.167-2.525-.857-2.525-2.382a2.683,2.683,0,0,1,.691-1.834,4.412,4.412,0,0,1,5.979,0,3.524,3.524,0,0,1,.834,2.12h2.215a5.075,5.075,0,0,0-1.62-3.621,6.351,6.351,0,0,0-4.383-1.62,6.275,6.275,0,0,0-4.431,1.667,4.657,4.657,0,0,0-1.477,3.335c0,2.692,1.977,4.1,4.5,4.478l2.668.4c2,.31,2.835,1.4,2.835,2.716a2.49,2.49,0,0,1-.858,1.977,4.453,4.453,0,0,1-3.144.977,4.78,4.78,0,0,1-3.24-1.048,3.855,3.855,0,0,1-1.191-2.668H793.99a5.6,5.6,0,0,0,1.81,4.049,6.969,6.969,0,0,0,4.836,1.62,6.886,6.886,0,0,0,4.788-1.691,4.4,4.4,0,0,0,1.429-3.263Z" transform="translate(-4.675 -153.492)" fill="#fff"/><path d="M700.153,377.454V360.566h-2.168v16.889Zm15.878,0V360.566h-2.049v13.625l-8.29-13.625H703.31v16.889h2.049V363.877l8.29,13.578Zm15.145-16.889h-2.167l-4.574,14.268-4.669-14.268h-2.191l5.693,16.889h2.215l5.693-16.889Zm12.834,16.889V375.5h-9.171v-5.836h8.051v-2h-8.051v-5.145h9.171v-1.953H732.719v16.889Zm13.809-4.645c0-2.668-1.882-4.383-4.693-4.788-.929-.143-1.858-.31-2.811-.429-1.262-.167-2.525-.858-2.525-2.382a2.684,2.684,0,0,1,.691-1.834,4.412,4.412,0,0,1,5.979,0,3.526,3.526,0,0,1,.834,2.12h2.215a5.074,5.074,0,0,0-1.62-3.621,6.352,6.352,0,0,0-4.383-1.62,6.275,6.275,0,0,0-4.43,1.667,4.657,4.657,0,0,0-1.477,3.335c0,2.692,1.977,4.1,4.5,4.478l2.668.4c2,.31,2.835,1.4,2.835,2.716a2.49,2.49,0,0,1-.858,1.977,4.453,4.453,0,0,1-3.144.977,4.779,4.779,0,0,1-3.24-1.048,3.854,3.854,0,0,1-1.191-2.668h-2.215a5.6,5.6,0,0,0,1.81,4.049,6.968,6.968,0,0,0,4.835,1.62,6.886,6.886,0,0,0,4.788-1.691,4.4,4.4,0,0,0,1.429-3.263Zm12.658-10.267v-1.977h-12.2v1.977H763.3v14.912h2.144V362.543ZM788.3,377.454V360.566h-2.978L780.25,374.31l-5.1-13.744H772.1v16.889h2.025V363.091l5.24,14.126h1.668l5.24-14.006v14.245Zm14.509,0V375.5h-9.171v-5.836h8.051v-2h-8.051v-5.145h9.171v-1.953h-11.29v16.889Zm14.766,0V360.566h-2.048v13.625l-8.29-13.625h-2.382v16.889H806.9V363.877l8.29,13.578Zm13.835-14.912v-1.977h-12.2v1.977h5.026v14.912h2.144V362.543Z" transform="translate(-4.675 -76.746)" fill="#fff"/><path d="M704.863,274.553c0-2.668-1.882-4.383-4.693-4.788-.929-.143-1.858-.31-2.811-.429-1.263-.167-2.525-.857-2.525-2.382a2.684,2.684,0,0,1,.691-1.834,4.412,4.412,0,0,1,5.979,0,3.526,3.526,0,0,1,.834,2.12h2.215a5.073,5.073,0,0,0-1.62-3.621A6.351,6.351,0,0,0,698.55,262a6.275,6.275,0,0,0-4.431,1.668A4.658,4.658,0,0,0,692.643,267c0,2.692,1.977,4.1,4.5,4.478l2.668.4c2,.31,2.835,1.4,2.835,2.715a2.49,2.49,0,0,1-.858,1.977,4.452,4.452,0,0,1-3.144.977,4.781,4.781,0,0,1-3.24-1.048,3.855,3.855,0,0,1-1.191-2.668H692a5.6,5.6,0,0,0,1.81,4.049,6.968,6.968,0,0,0,4.835,1.62,6.886,6.886,0,0,0,4.788-1.691,4.4,4.4,0,0,0,1.429-3.263Zm14.849-3.787c0-2.692-.333-5.169-2.167-6.955a6.622,6.622,0,0,0-9.1,0c-1.834,1.786-2.168,4.264-2.168,6.955s.334,5.169,2.168,6.956a6.623,6.623,0,0,0,9.1,0C719.379,275.935,719.712,273.458,719.712,270.766Zm-2.191,0c0,1.763-.072,4.049-1.453,5.479a4.371,4.371,0,0,1-6.146,0c-1.382-1.429-1.453-3.716-1.453-5.479s.071-4.05,1.453-5.479a4.371,4.371,0,0,1,6.146,0C717.45,266.716,717.521,269,717.521,270.766Zm14.8,8.432v-1.977H724.2V262.31h-2.12V279.2Zm13.782-8.432c0-2.692-.334-5.169-2.168-6.955a6.622,6.622,0,0,0-9.1,0c-1.834,1.786-2.168,4.264-2.168,6.955s.333,5.169,2.168,6.956a6.622,6.622,0,0,0,9.1,0C745.769,275.935,746.1,273.458,746.1,270.766Zm-2.192,0c0,1.763-.071,4.049-1.453,5.479a4.371,4.371,0,0,1-6.146,0c-1.382-1.429-1.453-3.716-1.453-5.479s.072-4.05,1.453-5.479a4.371,4.371,0,0,1,6.146,0C743.84,266.716,743.911,269,743.911,270.766Zm20.755,8.432V262.31h-2.977l-5.074,13.744-5.1-13.744h-3.049V279.2h2.025V264.835l5.24,14.126H757.4l5.24-14.006V279.2Zm15.855-8.432c0-2.692-.333-5.169-2.168-6.955a6.622,6.622,0,0,0-9.1,0c-1.834,1.786-2.168,4.264-2.168,6.955s.334,5.169,2.168,6.956a6.622,6.622,0,0,0,9.1,0C780.187,275.935,780.521,273.458,780.521,270.766Zm-2.191,0c0,1.763-.072,4.049-1.453,5.479a4.371,4.371,0,0,1-6.146,0c-1.382-1.429-1.453-3.716-1.453-5.479s.071-4.05,1.453-5.479a4.371,4.371,0,0,1,6.146,0C778.259,266.716,778.33,269,778.33,270.766Zm17.277,8.432V262.31h-2.048v13.625L785.27,262.31h-2.382V279.2h2.049V265.621l8.289,13.578Z" fill="#fff"/></g></g></svg>