<svg width="61" height="61" viewBox="0 0 61 61" fill="none" xmlns="http://www.w3.org/2000/svg">
<path d="M24.4779 16.2141C20.7567 16.2972 17.1429 17.4772 14.0897 19.6062C11.0365 21.7352 8.67996 24.7183 7.31556 28.1814C5.95117 31.6444 5.6397 35.4333 6.42022 39.0727C7.20075 42.712 9.03852 46.0399 11.703 48.6389C14.3675 51.2379 17.7401 52.9923 21.3978 53.6821C25.0555 54.3718 28.8354 53.9661 32.2635 52.516C35.6915 51.0658 38.615 48.6357 40.6674 45.5305C42.7197 42.4253 43.8095 38.7832 43.8 35.0611C43.7304 30.0017 41.6572 25.1763 38.0351 21.6433C34.413 18.1102 29.5375 16.1577 24.4779 16.2141ZM24.4779 44.7361C22.5982 44.6939 20.7724 44.0993 19.2283 43.0263C17.6843 41.9533 16.4904 40.4494 15.7955 38.7023C15.1005 36.9552 14.9354 35.0421 15.3206 33.2017C15.7058 31.3614 16.6244 29.6751 17.9617 28.3534C19.299 27.0317 20.9959 26.1329 22.8406 25.7693C24.6854 25.4056 26.5964 25.5932 28.3353 26.3085C30.0741 27.0238 31.5639 28.2353 32.6188 29.7918C33.6736 31.3483 34.2468 33.1809 34.2669 35.0611C34.2709 36.3276 34.0206 37.5821 33.5309 38.7502C33.0412 39.9182 32.322 40.9761 31.416 41.8611C29.5615 43.6736 27.07 44.6861 24.477 44.6811L24.4779 44.7361Z" fill="black"/>
<path d="M48.2081 7.00028C46.3933 6.98451 44.6346 7.62893 43.2596 8.81352C41.8846 9.99811 40.9871 11.6421 40.7341 13.4393C40.5148 15.2346 40.9626 17.0479 41.9925 18.5347C43.0223 20.0216 44.5624 21.0783 46.3201 21.5043C48.0832 21.9611 49.9519 21.7679 51.5842 20.9599C53.2165 20.152 54.5033 18.7833 55.2091 17.1043C55.6656 15.9875 55.8354 14.7742 55.703 13.5749C55.5706 12.3757 55.1403 11.2286 54.4511 10.2383C53.7492 9.2347 52.8147 8.41599 51.7275 7.85212C50.6404 7.28825 49.4328 6.99598 48.2081 7.00028Z" fill="black"/>
</svg>
