<svg width="61" height="61" viewBox="0 0 61 61" fill="none" xmlns="http://www.w3.org/2000/svg">
<path d="M16.5285 12.0003C14.7136 11.9845 12.9549 12.6289 11.5799 13.8135C10.2049 14.9981 9.30738 16.6421 9.05445 18.4393C8.83516 20.2346 9.28296 22.0479 10.3128 23.5347C11.3426 25.0216 12.8827 26.0783 14.6405 26.5043C16.4035 26.9611 18.2722 26.7679 19.9045 25.9599C21.5368 25.152 22.8236 23.7833 23.5295 22.1043C23.9859 20.9875 24.1557 19.7742 24.0233 18.5749C23.8909 17.3757 23.4606 16.2286 22.7714 15.2383C22.0695 14.2347 21.135 13.416 20.0478 12.8521C18.9607 12.2882 17.7531 11.996 16.5285 12.0003Z" fill="black"/>
<path d="M16.5285 34.3089C14.7136 34.2931 12.9549 34.9375 11.5799 36.1221C10.2049 37.3067 9.30738 38.9507 9.05445 40.7479C8.83516 42.5432 9.28296 44.3565 10.3128 45.8433C11.3426 47.3302 12.8827 48.3869 14.6405 48.8129C16.4035 49.2697 18.2722 49.0765 19.9045 48.2685C21.5368 47.4606 22.8236 46.0919 23.5295 44.4129C23.9859 43.296 24.1557 42.0827 24.0233 40.8835C23.8909 39.6843 23.4606 38.5372 22.7714 37.5469C22.0695 36.5433 21.135 35.7246 20.0478 35.1607C18.9607 34.5968 17.7531 34.3046 16.5285 34.3089Z" fill="black"/>
<path d="M29.5664 14.6047V24.1367H52.0504V14.6047L29.5664 14.6047Z" fill="black"/>
<path d="M29.5664 36.9133V46.4453H52.0504V36.9133H29.5664Z" fill="black"/>
</svg>
