<svg width="61" height="61" viewBox="0 0 61 61" fill="none" xmlns="http://www.w3.org/2000/svg">
<path d="M46.3331 8.00028C44.5183 7.98451 42.7596 8.62893 41.3846 9.81352C40.0096 10.9981 39.1121 12.6421 38.8591 14.4393C38.6398 16.2346 39.0876 18.0479 40.1175 19.5347C41.1473 21.0216 42.6874 22.0783 44.4451 22.5043C46.2082 22.9611 48.0769 22.7679 49.7092 21.9599C51.3415 21.152 52.6283 19.7833 53.3341 18.1043C53.7906 16.9875 53.9604 15.7742 53.828 14.5749C53.6956 13.3757 53.2653 12.2286 52.5761 11.2383C51.8742 10.2347 50.9397 9.41599 49.8525 8.85212C48.7654 8.28825 47.5578 7.99598 46.3331 8.00028Z" fill="black"/>
<path fill-rule="evenodd" clip-rule="evenodd" d="M21.4023 14.5742H30.9343V28.9758H45.336V38.5078H30.9343V52.9102H21.4023V38.5078H7V28.9758H21.4023V14.5742Z" fill="black"/>
</svg>
