<svg width="18" height="18" viewBox="0 0 18 18" fill="none" xmlns="http://www.w3.org/2000/svg">
<path d="M17.4647 17.3754V11.0112C17.4647 7.88412 16.7917 5.49525 13.1432 5.49525C12.4592 5.46764 11.7806 5.6269 11.1803 5.95593C10.58 6.28496 10.0807 6.77132 9.73605 7.36277H9.69227V5.77935H6.23828V17.3754H9.84297V11.6202C9.84297 10.1019 10.125 8.64477 11.9936 8.64477C13.8417 8.64477 13.8611 10.3606 13.8611 11.7067V17.353H17.4658L17.4647 17.3754Z" fill="white"/>
<path d="M0.375 5.77734H3.97969V17.3734H0.375V5.77734Z" fill="white"/>
<path d="M2.17709 2.97891e-05C1.76167 -0.00218474 1.35497 0.119119 1.00864 0.348533C0.662307 0.577946 0.391975 0.905119 0.231977 1.28849C0.0719789 1.67187 0.0295348 2.09415 0.110037 2.5017C0.190539 2.90925 0.390353 3.28367 0.684102 3.57742C0.97785 3.87117 1.35228 4.07099 1.75983 4.15149C2.16737 4.23199 2.58965 4.18955 2.97303 4.02955C3.35641 3.86955 3.68358 3.59922 3.91299 3.25289C4.14241 2.90655 4.26371 2.49985 4.2615 2.08443C4.25855 1.53252 4.038 1.00405 3.64774 0.613789C3.25747 0.223523 2.729 0.00297195 2.17709 2.97891e-05Z" fill="white"/>
</svg>
