<svg width="17" height="18" viewBox="0 0 17 18" fill="none" xmlns="http://www.w3.org/2000/svg">
<path d="M16.0887 5.68061C16.0758 5.0117 15.9491 4.34988 15.714 3.72349C15.5063 3.18757 15.1891 2.70085 14.7827 2.29443C14.3763 1.88802 13.8896 1.57083 13.3536 1.36314C12.7273 1.12793 12.0655 1.00088 11.3965 0.987395C10.533 0.946664 10.2591 0.9375 8.06778 0.9375C5.87645 0.9375 5.60356 0.946664 4.74311 0.985359C4.07421 0.998338 3.41239 1.12506 2.78599 1.36008C2.24585 1.56226 1.75674 1.88069 1.35328 2.29282C0.944745 2.69545 0.628272 3.18179 0.425638 3.7184C0.190903 4.34555 0.0645329 5.00804 0.0519319 5.67756C0.0101827 6.538 0 6.81497 0 9.00528C0 11.1956 0.00916445 11.4695 0.0478588 12.3299C0.060779 12.9988 0.187498 13.6607 0.422583 14.2871C0.630576 14.8224 0.947903 15.3086 1.35431 15.7145C1.76072 16.1204 2.24728 16.4371 2.78294 16.6444C3.40938 16.8792 4.07117 17.0059 4.74006 17.0191C5.59846 17.0568 5.87442 17.0669 8.06472 17.0669C10.255 17.0669 10.5289 17.0578 11.3894 17.0191C12.0583 17.0062 12.7201 16.8794 13.3465 16.6444C13.8827 16.4371 14.3696 16.12 14.776 15.7135C15.1825 15.3071 15.4995 14.8202 15.7069 14.284C15.9416 13.6575 16.0683 12.9958 16.0816 12.3269C16.1193 11.4685 16.1294 11.1925 16.1294 9.00222C16.1294 6.81192 16.1264 6.538 16.0887 5.68061ZM14.6367 12.2668C14.6316 12.778 14.5379 13.2845 14.3597 13.7637C14.2252 14.1104 14.0199 14.4253 13.7569 14.6883C13.494 14.9513 13.179 15.1566 12.8323 15.2911C12.353 15.4689 11.8466 15.5626 11.3354 15.568C10.4852 15.6057 10.2296 15.6159 8.07694 15.6159C5.92431 15.6159 5.66567 15.6067 4.81847 15.568C4.30726 15.5629 3.8008 15.4692 3.32161 15.2911C2.97254 15.1622 2.6569 14.9566 2.39803 14.6893C2.13142 14.4299 1.92586 14.1144 1.79623 13.7657C1.6184 13.2864 1.5247 12.78 1.51926 12.2688C1.48159 11.4186 1.4714 11.163 1.4714 9.01037C1.4714 6.85774 1.48057 6.5991 1.51926 5.75189C1.52435 5.24068 1.61806 4.73422 1.79623 4.25503C1.92336 3.90697 2.12772 3.59225 2.39396 3.33451C2.65338 3.0679 2.96885 2.86234 3.31753 2.73272C3.79682 2.55492 4.30322 2.46122 4.81439 2.45574C5.66465 2.41807 5.92024 2.40789 8.07287 2.40789C10.2255 2.40789 10.4841 2.41705 11.3313 2.45574C11.8426 2.46085 12.349 2.55456 12.8282 2.73272C13.1773 2.8615 13.493 3.06718 13.7518 3.33451C14.0184 3.59393 14.224 3.90941 14.3536 4.25809C14.5314 4.73737 14.6251 5.24377 14.6305 5.75495C14.6682 6.60521 14.6784 6.86079 14.6784 9.01342C14.6784 11.1661 14.6703 11.4155 14.6326 12.2668H14.6367Z" fill="white"/>
<path d="M8.0682 4.86133C7.24852 4.86133 6.44725 5.10439 5.76571 5.55978C5.08417 6.01517 4.55298 6.66244 4.2393 7.41972C3.92562 8.177 3.84355 9.01029 4.00346 9.81422C4.16337 10.6182 4.55808 11.3566 5.13769 11.9362C5.71729 12.5158 6.45574 12.9105 7.25967 13.0704C8.0636 13.2303 8.89689 13.1483 9.65417 12.8346C10.4115 12.5209 11.0587 11.9897 11.5141 11.3082C11.9695 10.6267 12.2126 9.82539 12.2126 9.00571C12.2126 7.90655 11.7759 6.85241 10.9987 6.07519C10.2215 5.29797 9.16736 4.86133 8.0682 4.86133ZM8.0682 11.6939C7.53652 11.6939 7.01677 11.5363 6.57469 11.2409C6.13261 10.9455 5.78805 10.5257 5.58459 10.0345C5.38112 9.54324 5.32788 9.00272 5.43161 8.48125C5.53534 7.95978 5.79137 7.48078 6.16732 7.10483C6.54328 6.72887 7.02228 6.47284 7.54375 6.36911C8.06521 6.26539 8.60574 6.31862 9.09695 6.52209C9.58816 6.72556 10.008 7.07011 10.3034 7.51219C10.5988 7.95427 10.7564 8.47402 10.7564 9.00571C10.7564 9.71867 10.4732 10.4024 9.96907 10.9066C9.46493 11.4107 8.78117 11.6939 8.0682 11.6939Z" fill="white"/>
<path d="M13.341 4.69783C13.341 4.88916 13.2842 5.07618 13.178 5.23526C13.0717 5.39434 12.9206 5.51834 12.7438 5.59156C12.567 5.66477 12.3725 5.68393 12.1849 5.64661C11.9972 5.60928 11.8249 5.51715 11.6896 5.38186C11.5543 5.24657 11.4622 5.0742 11.4248 4.88655C11.3875 4.6989 11.4067 4.5044 11.4799 4.32764C11.5531 4.15088 11.6771 3.99979 11.8362 3.8935C11.9953 3.7872 12.1823 3.73047 12.3736 3.73047C12.6302 3.73047 12.8762 3.83239 13.0576 4.0138C13.239 4.19522 13.341 4.44127 13.341 4.69783Z" fill="white"/>
</svg>
