<svg width="27" height="27" viewBox="0 0 27 27" fill="none" xmlns="http://www.w3.org/2000/svg">
<path d="M10.2655 6.00066C8.19818 6.04684 6.19049 6.70249 4.49429 7.88536C2.79808 9.06823 1.48887 10.7257 0.730868 12.6498C-0.0271295 14.5739 -0.200168 16.679 0.233457 18.7011C0.667083 20.7231 1.68807 22.5721 3.16835 24.0162C4.64863 25.4602 6.52229 26.4349 8.55434 26.8181C10.5864 27.2014 12.6863 26.976 14.5908 26.1702C16.4953 25.3645 18.1195 24.0144 19.2596 22.2891C20.3998 20.5638 21.0052 18.5402 21 16.4722C20.9613 13.6611 19.8095 10.9802 17.7973 9.01716C15.785 7.05415 13.0764 5.96935 10.2655 6.00066ZM10.2655 21.8477C9.2212 21.8243 8.20687 21.4939 7.34908 20.8977C6.49128 20.3015 5.82798 19.466 5.44192 18.4953C5.05585 17.5246 4.9641 16.4616 5.17812 15.4391C5.39214 14.4166 5.90245 13.4797 6.6454 12.7454C7.38835 12.011 8.33105 11.5116 9.35591 11.3096C10.3808 11.1075 11.4424 11.2117 12.4085 11.6092C13.3745 12.0066 14.2022 12.6797 14.7882 13.5445C15.3742 14.4093 15.6927 15.4276 15.7039 16.4722C15.7061 17.1759 15.567 17.8729 15.295 18.5219C15.0229 19.1708 14.6233 19.7586 14.12 20.2503C13.0897 21.2573 11.7056 21.8199 10.265 21.8171L10.2655 21.8477Z" fill="white"/>
<path d="M22.9973 0.000153389C22.0337 -0.00840206 21.0999 0.341194 20.3698 0.983828C19.6398 1.62646 19.1632 2.51832 19.0289 3.49329C18.9125 4.46723 19.1502 5.45095 19.697 6.25755C20.2438 7.06415 21.0616 7.63744 21.9949 7.86852C22.931 8.11637 23.9232 8.01154 24.7899 7.57322C25.6566 7.13489 26.3398 6.39238 26.7146 5.48154C26.957 4.87566 27.0471 4.21745 26.9768 3.56687C26.9065 2.91629 26.678 2.29402 26.3121 1.75676C25.9394 1.21232 25.4432 0.768171 24.866 0.462272C24.2887 0.156373 23.6476 -0.00218284 22.9973 0.000153389Z" fill="white"/>
</svg>
