<svg width="15" height="16" viewBox="0 0 15 16" fill="none" xmlns="http://www.w3.org/2000/svg">
<path d="M14.6215 4.13021C13.7458 4.13159 12.8936 3.86337 12.1949 3.36645C11.7015 3.01732 11.3002 2.56581 11.0223 2.047C10.7443 1.52818 10.5972 0.956036 10.5923 0.375H7.98944V10.7348C7.98942 11.2042 7.83132 11.6616 7.53787 12.0411C7.24441 12.4206 6.83071 12.7027 6.3562 12.847C5.8817 12.9913 5.37082 12.9903 4.89697 12.8441C4.42313 12.6979 4.01071 12.4141 3.71899 12.0334C3.42727 11.6527 3.27125 11.1947 3.27337 10.7253C3.27548 10.2559 3.43562 9.79924 3.73076 9.4209C4.0259 9.04255 4.44086 8.76201 4.916 8.61961C5.39115 8.4772 5.90202 8.48024 6.37521 8.62831V6.14537C6.12614 6.11076 5.87471 6.0935 5.62295 6.09372C4.9145 6.09053 4.21343 6.22934 3.56637 6.50093C2.91931 6.77253 2.34108 7.17067 1.87012 7.6689C1.03398 8.55096 0.590469 9.70208 0.631522 10.8836C0.672575 12.0652 1.19504 13.1866 2.09063 14.0153C2.23857 14.153 2.39537 14.2821 2.56013 14.4017C3.43725 15.0363 4.5135 15.3787 5.61979 15.375C5.87192 15.3749 6.12371 15.3573 6.3731 15.3223C7.42333 15.1765 8.39642 14.7182 9.15 14.0143C9.61118 13.5888 9.97786 13.0813 10.2287 12.5212C10.4796 11.9611 10.6096 11.3596 10.6113 10.7517L10.5944 5.27832C11.7503 6.11723 13.1693 6.57134 14.6289 6.56945V4.12921H14.6257L14.6215 4.13021Z" fill="white"/>
</svg>
