<svg width="27" height="25" viewBox="0 0 27 25" fill="none" xmlns="http://www.w3.org/2000/svg">
<path d="M22.9973 0.000153389C22.0337 -0.00840206 21.0999 0.341194 20.3698 0.983828C19.6398 1.62646 19.1632 2.51832 19.0289 3.49329C18.9125 4.46723 19.1502 5.45095 19.697 6.25755C20.2438 7.06415 21.0616 7.63744 21.9949 7.86852C22.931 8.11637 23.9232 8.01154 24.7899 7.57322C25.6566 7.13489 26.3398 6.39238 26.7146 5.48154C26.957 4.87566 27.0471 4.21745 26.9768 3.56687C26.9065 2.91629 26.678 2.29402 26.3121 1.75676C25.9394 1.21232 25.4432 0.768171 24.866 0.462272C24.2887 0.156373 23.6476 -0.00218284 22.9973 0.000153389Z" fill="white"/>
<path d="M0 11L0 17H23V11L0 11Z" fill="white"/>
<path d="M14 3H9V25H14V3Z" fill="white"/>
</svg>
