<svg width="25" height="22" viewBox="0 0 25 22" fill="none" xmlns="http://www.w3.org/2000/svg">
<path d="M4.49698 0.000172563C3.41293 -0.00945232 2.3624 0.383843 1.54107 1.10681C0.719744 1.82977 0.183606 2.83311 0.0325223 3.92995C-0.0984629 5.02564 0.169022 6.13232 0.784164 7.03974C1.3993 7.94717 2.31925 8.59213 3.36922 8.85209C4.42237 9.13092 5.53858 9.01298 6.5136 8.51987C7.48862 8.02675 8.25727 7.19143 8.6789 6.16673C8.95158 5.48512 9.053 4.74463 8.97392 4.01273C8.89483 3.28082 8.63776 2.58077 8.22612 1.97635C7.80683 1.36386 7.24863 0.864193 6.59923 0.520056C5.94983 0.175919 5.22853 -0.00245569 4.49698 0.000172563Z" fill="white"/>
<path d="M4.49698 13.0002C3.41293 12.9905 2.3624 13.3838 1.54107 14.1068C0.719744 14.8298 0.183606 15.8331 0.0325223 16.9299C-0.0984629 18.0256 0.169022 19.1323 0.784164 20.0397C1.3993 20.9472 2.31925 21.5921 3.36922 21.8521C4.42237 22.1309 5.53858 22.013 6.5136 21.5199C7.48862 21.0268 8.25727 20.1914 8.6789 19.1667C8.95158 18.4851 9.053 17.7446 8.97392 17.0127C8.89483 16.2808 8.63776 15.5808 8.22612 14.9764C7.80683 14.3639 7.24863 13.8642 6.59923 13.5201C5.94983 13.1759 5.22853 12.9975 4.49698 13.0002Z" fill="white"/>
<path d="M12 2V7L25 7V2L12 2Z" fill="white"/>
<path d="M12 15V20H25V15H12Z" fill="white"/>
</svg>
