<svg width="58" height="58" viewBox="0 0 58 58" fill="none" xmlns="http://www.w3.org/2000/svg">
<path fill-rule="evenodd" clip-rule="evenodd" d="M19.4818 30.5L26.5287 37.2794L25.1421 38.7207L15.5576 29.5L25.1421 20.2794L26.5287 21.7207L19.4818 28.5L40 28.5001L40 30.5001L19.4818 30.5Z" fill="black"/>
<path fill-rule="evenodd" clip-rule="evenodd" d="M29 2C14.0883 2 2 14.0883 2 29C2 43.9117 14.0883 56 29 56C43.9117 56 56 43.9117 56 29C56 14.0883 43.9117 2 29 2ZM29 -2.53526e-06C12.9837 -3.93545e-06 3.93545e-06 12.9837 2.53526e-06 29C1.13507e-06 45.0163 12.9837 58 29 58C45.0163 58 58 45.0163 58 29C58 12.9837 45.0163 -1.13507e-06 29 -2.53526e-06Z" fill="black"/>
</svg>
