<svg width="287" height="177" viewBox="0 0 287 177" fill="none" xmlns="http://www.w3.org/2000/svg">
<path d="M182.075 103.319C177.503 103.292 175.589 101.112 175.164 98.0291L177.477 97.524C177.928 100.023 179.417 101.299 182.155 101.299C184.68 101.299 185.796 100.315 185.796 98.8265C185.796 97.2848 184.786 96.5405 181.597 95.9823C177.237 95.2115 175.829 93.5901 175.829 91.1712C175.829 88.4599 177.796 86.7322 181.703 86.7322C185.637 86.7322 187.232 88.6194 187.843 91.4636L185.424 91.942C184.946 89.8156 184.069 88.7257 181.597 88.7257C179.311 88.7257 178.247 89.6029 178.247 91.0383C178.247 92.3673 178.992 93.2711 182.474 93.909C187.099 94.7862 188.242 96.4342 188.242 98.667C188.242 101.485 186.434 103.319 182.075 103.319Z" fill="white"/>
<path d="M167.898 95.9559H163.512V101.086H168.031C170.237 101.086 171.22 100.049 171.22 98.5077C171.22 96.8862 170.37 95.9559 167.898 95.9559ZM167.632 88.9917H163.512V94.1484H167.472C169.28 94.1484 170.503 93.4307 170.503 91.4903C170.503 89.8157 169.679 88.9917 167.632 88.9917ZM161.066 103V87.0513H167.552C171.194 87.0513 172.868 88.4335 172.868 91.1182C172.868 93.1649 171.699 94.361 169.732 94.8395V95.0787C172.416 95.3711 173.639 96.4609 173.639 98.6937C173.639 101.219 172.044 103 168.11 103H161.066Z" fill="white"/>
<path d="M156.732 103L155.111 98.5342H147.908L146.286 103H143.734L149.928 87.0513H153.171L159.337 103H156.732ZM149.29 94.7066L148.572 96.6736H154.42L153.702 94.7066C153.038 92.9257 152.347 90.8789 151.842 89.2043H151.177C150.645 90.9055 149.954 92.9257 149.29 94.7066Z" fill="white"/>
<path d="M135.426 87.0513V100.794H142.869V103H132.98V87.0513H135.426Z" fill="white"/>
<path d="M231 82.1109H227.172V66.1624H231V82.1109Z" fill="white"/>
<path d="M208.877 75.4391V82.1109H205.342V66.1624H211.562L213.555 72.3291C213.874 73.3392 214.432 75.3594 214.884 77.2466H215.336C215.762 75.3594 216.293 73.3126 216.665 72.1962L218.659 66.1624H224.4V82.1109H220.573V75.4391C220.573 73.4987 220.679 71.1862 220.732 69.2723H220.333C219.802 71.3456 219.137 73.7645 218.34 76.1302L216.479 81.2603H212.944L211.163 76.0239C210.366 73.5253 209.754 71.2925 209.249 69.2723H208.85C208.877 71.2127 208.877 73.4721 208.877 75.4391Z" fill="white"/>
<path d="M200.141 82.1109L199.051 78.5757H192.884L191.795 82.1109H187.834L193.416 66.1624H198.679L204.234 82.1109H200.141ZM194.373 73.8177L193.762 75.7847H198.174L197.563 73.8177C197.111 72.3823 196.685 70.8938 196.313 69.4584H195.675C195.277 70.8938 194.825 72.3823 194.373 73.8177Z" fill="white"/>
<path d="M178.034 82.3768C174.393 82.3768 171.682 79.6921 171.682 74.3494C171.682 69.0066 174.313 65.8169 179.523 65.8169C183.882 65.8169 186.009 67.7041 186.647 71.266L183.058 72.0368C182.58 70.1496 181.676 69.1395 179.496 69.1395C176.599 69.1395 175.536 71.0533 175.536 74.3494C175.536 77.4328 176.652 79.2669 179.603 79.2669C182.58 79.2669 183.324 77.7783 183.324 76.2898H179.496V73.4456H186.913V82.111H183.404V78.6289H183.085C182.394 80.7554 180.879 82.3768 178.034 82.3768Z" fill="white"/>
<path d="M169.687 82.1109H165.859V66.1624H169.687V82.1109Z" fill="white"/>
<path d="M156.748 69.3786H153.878V73.6316H156.748C158.609 73.6316 159.407 72.9671 159.407 71.4785C159.407 69.99 158.662 69.3786 156.748 69.3786ZM159.672 82.1109L156.297 76.6087H153.878V82.1109H150.023V66.1624H157.014C161.108 66.1624 163.208 67.8901 163.208 71.3456C163.208 73.7911 162.065 75.3859 160.044 76.1302L164.138 81.8185V82.1109H159.672Z" fill="white"/>
<path d="M139.917 82.4831C134.761 82.4831 131.863 79.2402 131.863 74.0835C131.863 68.9534 134.947 65.7903 139.917 65.7903C144.968 65.7903 147.971 68.9534 147.971 74.0835C147.971 79.2402 145.101 82.4831 139.917 82.4831ZM139.917 79.1871C142.921 79.1871 144.17 77.2201 144.17 74.0835C144.17 71.1065 142.921 69.1395 139.917 69.1395C136.94 69.1395 135.691 71.1065 135.691 74.0835C135.691 77.2201 136.94 79.1871 139.917 79.1871Z" fill="white"/>
<path d="M120.571 69.4704C120.477 69.2646 120.347 69.08 120.186 68.9196C120.183 68.9105 120.174 68.9044 120.165 68.8984L107.981 56.7142C107.981 56.7142 107.972 56.7082 107.969 56.7021L107.727 56.46C107.727 56.46 107.718 56.4509 107.715 56.4479C107.584 56.342 107.439 56.2512 107.285 56.1816C107.034 56.0636 106.752 56 106.459 56H71.4435C70.3541 56 69.4734 56.8807 69.4734 57.9702V65.6269C69.4734 67.7484 67.7514 69.4704 65.6269 69.4704H57.7523C56.7657 69.5793 56 70.4176 56 71.4284V106.465C56 106.755 56.0636 107.034 56.1786 107.282C56.2754 107.491 56.4055 107.681 56.5659 107.845C56.575 107.854 56.5811 107.86 56.5901 107.869L68.8076 120.083C68.8076 120.083 68.8136 120.089 68.8167 120.092L68.9771 120.253C68.9771 120.253 68.9831 120.259 68.9861 120.262C69.1314 120.392 69.2948 120.498 69.4734 120.58C69.7185 120.692 69.9939 120.755 70.2844 120.755H105.315C106.401 120.755 107.285 119.871 107.285 118.785V111.128C107.285 109.004 109.007 107.282 111.128 107.282H118.921C119.947 107.212 120.755 106.362 120.755 105.318V70.2996C120.755 70.003 120.689 69.7215 120.571 69.4704V69.4704ZM107.285 103.444C107.285 105.499 105.669 107.179 103.635 107.282C103.571 107.285 103.505 107.288 103.438 107.288C103.372 107.288 103.305 107.285 103.242 107.282H73.5136C73.45 107.285 73.3834 107.288 73.3169 107.288C73.2503 107.288 73.1837 107.285 73.1202 107.282C71.0864 107.179 69.4734 105.499 69.4734 103.444V73.3048C69.4734 71.2741 71.0441 69.6096 73.0415 69.4704C73.1323 69.4613 73.2231 69.4583 73.3169 69.4583C73.4107 69.4583 73.5015 69.4613 73.5923 69.4704H103.163C103.254 69.4613 103.344 69.4583 103.438 69.4583C103.532 69.4583 103.623 69.4613 103.714 69.4704C105.711 69.6096 107.285 71.2741 107.285 73.3048V103.444V103.444Z" fill="white"/>
</svg>
