<svg width="287" height="177" viewBox="0 0 287 177" fill="none" xmlns="http://www.w3.org/2000/svg">
<mask id="mask0_871_1525" style="mask-type:luminance" maskUnits="userSpaceOnUse" x="56" y="74" width="175" height="29">
<path d="M231 74H56V102.758H231V74Z" fill="white"/>
</mask>
<g mask="url(#mask0_871_1525)">
<path d="M122.73 89.1943C123.678 87.7378 124.185 86.0389 124.191 84.3014C124.194 83.0165 123.943 81.7438 123.452 80.5563C122.962 79.3687 122.242 78.2898 121.333 77.3813C120.424 76.4728 119.345 75.7527 118.158 75.2623C116.97 74.7719 115.697 74.5209 114.413 74.5237H95.7031V102.242H103.388V93.7128H112.273L117.17 102.242H125.575L119.725 92.1524C120.93 91.397 121.955 90.3874 122.728 89.1943M103.388 81.8369H114.413C114.687 81.8394 114.959 81.9005 115.208 82.0161C115.457 82.1317 115.679 82.2991 115.859 82.5072C116.277 83.0116 116.506 83.6464 116.506 84.3019C116.506 84.9574 116.277 85.5922 115.859 86.0966C115.679 86.3046 115.457 86.472 115.208 86.5876C114.958 86.7031 114.687 86.7643 114.413 86.7669H103.388V81.8369Z" fill="white"/>
<path d="M139.376 92.9632H145.75C145.379 93.4929 144.903 93.9415 144.353 94.2818C143.198 94.9444 141.879 95.2698 140.548 95.221C138.577 95.3092 136.65 94.6194 135.182 93.3004C134.547 92.6665 134.049 91.9093 133.719 91.0756C133.388 90.2418 133.232 89.3491 133.26 88.4527C133.236 87.5348 133.394 86.6211 133.724 85.7645C134.055 84.9078 134.552 84.1251 135.187 83.4615C135.824 82.8333 136.581 82.3393 137.413 82.0087C138.244 81.6781 139.134 81.5177 140.028 81.5369C141.232 81.5243 142.422 81.7937 143.502 82.3236C144.365 82.7364 145.101 83.3742 145.633 84.1699L146.08 84.8794L152.643 81.1164L152.159 80.3458C150.841 78.3547 149.042 76.7292 146.927 75.6206C144.812 74.5119 142.452 73.9561 140.064 74.0049C138.162 73.9853 136.276 74.3443 134.514 75.0609C132.752 75.7775 131.15 76.8374 129.801 78.1789C128.453 79.5205 127.385 81.1169 126.659 82.8751C125.933 84.6334 125.565 86.5185 125.575 88.4206C125.561 90.3092 125.928 92.1812 126.652 93.9256C127.376 95.67 128.442 97.2513 129.789 98.5756C132.66 101.325 136.5 102.83 140.474 102.762C144.069 102.858 147.56 101.549 150.207 99.1144C151.514 97.8084 152.538 96.2477 153.216 94.5293C153.894 92.8108 154.212 90.9713 154.149 89.125V86.0243H139.376V92.9632Z" fill="white"/>
<path d="M172.509 74.5237L166.348 83.7445L160.214 74.5237H150.996L161.92 91.6266V102.243H170.771V91.6266L181.694 74.5237H172.509Z" fill="white"/>
<path d="M191.151 94.7805V74.5237H183.467V102.242H205.25V94.7805H191.151Z" fill="white"/>
<path d="M230.126 94.7805H214.276V91.9287H226.318V84.5402H214.276V81.9864H230.814V74.5237H206.592V102.242H231V94.7805H230.126Z" fill="white"/>
<path d="M66.8842 92.5283L62.5391 102.279H73.2765L77.6357 92.5283H66.8842Z" fill="white"/>
<path d="M63.7989 74.5938L56 92.5285H66.7711L72.3604 82.0926L82.692 102.279H93.4129L80.9229 74.5938H63.7989Z" fill="white"/>
</g>
</svg>
