<svg width="287" height="177" viewBox="0 0 287 177" fill="none" xmlns="http://www.w3.org/2000/svg">
<g clip-path="url(#clip0_871_1700)">
<path fill-rule="evenodd" clip-rule="evenodd" d="M64.0118 80.8722C64.5364 83.5832 62.2373 83.2258 60.3482 82.8158C58.4282 82.399 57.2111 81.2017 58.282 79.2086C59.4458 77.0408 62.5321 76.0715 63.5826 79.1467C63.7546 79.7136 63.8977 80.2889 64.0112 80.8704" fill="white"/>
<path fill-rule="evenodd" clip-rule="evenodd" d="M59.4344 94.8477C56.7445 94.224 58.0062 92.2693 59.1483 90.7103C60.3108 89.1241 61.8989 88.501 63.2838 90.2898C64.7895 92.234 64.4222 95.4479 61.1841 95.1561C60.5962 95.0828 60.0124 94.9795 59.4351 94.8465" fill="white"/>
<path fill-rule="evenodd" clip-rule="evenodd" d="M90.6889 81.3016C88.6066 79.4881 90.6382 78.3547 92.3786 77.5142C94.15 76.6595 95.847 76.8552 96.2279 79.0843C96.6448 81.5079 94.8115 84.1736 92.0893 82.3954C91.6046 82.0547 91.1376 81.6894 90.6902 81.301" fill="white"/>
<path fill-rule="evenodd" clip-rule="evenodd" d="M67.9338 102.579C64.8487 99.7882 71.2449 97.1175 70.8349 101.065C70.6739 102.619 69.393 103.426 67.9338 102.579Z" fill="white"/>
<path fill-rule="evenodd" clip-rule="evenodd" d="M78.6994 106.515C75.6144 103.724 82.0106 101.053 81.6005 105C81.4395 106.554 80.1587 107.361 78.6994 106.515Z" fill="white"/>
<path fill-rule="evenodd" clip-rule="evenodd" d="M66.9912 97.4751C67.6644 99.5611 66.5397 100.696 64.1941 100.678C61.3364 100.659 58.4006 97.5624 62.0394 95.6659C64.4282 94.4197 66.0696 95.7278 66.9943 97.4763" fill="white"/>
<path fill-rule="evenodd" clip-rule="evenodd" d="M93.0524 74.0778C93.7256 76.1639 92.6008 77.2985 90.2547 77.2812C87.3969 77.2614 84.4611 74.1652 88.0999 72.2687C90.4888 71.0225 92.1301 72.3306 93.0548 74.0791" fill="white"/>
<path fill-rule="evenodd" clip-rule="evenodd" d="M93.3115 96.8569C93.9847 98.9429 92.86 100.078 90.5144 100.06C87.6567 100.04 84.7209 96.9442 88.3597 95.0477C90.7486 93.8016 92.3899 95.1097 93.3146 96.8581" fill="white"/>
<path fill-rule="evenodd" clip-rule="evenodd" d="M71.5302 77.5935C72.2035 79.6795 71.0787 80.8142 68.7332 80.7968C65.8754 80.777 62.9396 77.6808 66.5784 75.7843C68.9673 74.5381 70.6086 75.8462 71.5333 77.5947" fill="white"/>
<path fill-rule="evenodd" clip-rule="evenodd" d="M59.812 84.0794C62.0194 85.6223 64.6263 87.7597 60.2077 88.6584C58.6767 88.9681 54.9964 89.4691 56.2593 86.6888L56.5392 86.1605C57.2453 84.9769 58.1768 83.0748 59.8107 84.0794" fill="white"/>
<path fill-rule="evenodd" clip-rule="evenodd" d="M94.1084 83.9734C96.462 85.2741 99.2795 87.1322 94.9798 88.4855C93.4896 88.955 89.8818 89.8357 90.8474 86.9371L91.071 86.3796C91.6495 85.1285 92.3779 83.1404 94.1059 83.9691" fill="white"/>
<path fill-rule="evenodd" clip-rule="evenodd" d="M92.8201 94.3633C90.2584 93.5334 87.1412 92.2513 91.1032 90.1009C92.4764 89.3576 95.8494 87.8024 95.4543 90.8298L95.3409 91.417C95.0121 92.7555 94.677 94.8458 92.8214 94.3627" fill="white"/>
<path fill-rule="evenodd" clip-rule="evenodd" d="M79.658 73.3259C77.0963 72.4959 73.9791 71.2138 77.9411 69.0634C79.3143 68.3201 82.6873 66.7655 82.2922 69.793L82.1788 70.3802C81.85 71.7186 81.5149 73.809 79.6593 73.3252" fill="white"/>
<path fill-rule="evenodd" clip-rule="evenodd" d="M73.5195 105.337C71.6812 103.369 69.5766 100.737 74.085 100.777C75.647 100.79 79.3496 101.069 77.5367 103.524L77.1527 103.983C76.2156 104.993 74.9094 106.66 73.5208 105.337" fill="white"/>
<path fill-rule="evenodd" clip-rule="evenodd" d="M83.1652 73.6751C82.4016 72.7244 83.0414 71.5495 83.5486 70.587C84.3829 69.0553 84.8741 68.029 86.8406 68.4743C88.8597 68.9308 88.7079 70.6012 87.4135 71.8957C86.6523 72.6581 84.8084 74.2586 83.6527 73.9396L83.3975 73.8424L83.1652 73.6751Z" fill="white"/>
<path fill-rule="evenodd" clip-rule="evenodd" d="M84.7501 108.777C83.5436 108.603 83.2116 107.306 82.9242 106.258C82.4906 104.569 82.1494 103.483 83.891 102.467C85.6791 101.425 86.7073 102.75 86.6435 104.579C86.6063 105.656 86.3499 108.083 85.2858 108.637L85.0325 108.739L84.7501 108.777Z" fill="white"/>
<path fill-rule="evenodd" clip-rule="evenodd" d="M79.4344 77.018C78.6633 77.9625 77.3806 77.5785 76.3376 77.2849C74.6653 76.7894 73.5604 76.5206 73.5864 74.5046C73.613 72.4347 75.2785 72.2359 76.8133 73.233C77.7169 73.8196 79.6661 75.2893 79.593 76.4866L79.5503 76.756L79.4344 77.018Z" fill="white"/>
<path fill-rule="evenodd" clip-rule="evenodd" d="M89.5824 102.358C88.9469 103.072 87.798 103.255 87.3738 102.284C87.2734 102.055 85.7578 98.8084 86.7854 99.2977C87.4667 99.6216 90.0463 101.27 89.679 102.188L89.5824 102.358Z" fill="white"/>
<path fill-rule="evenodd" clip-rule="evenodd" d="M78.0516 82.7186C77.9048 82.6599 77.7703 82.5742 77.6552 82.4659C77.713 82.5893 77.7999 82.6968 77.9085 82.7793C77.9592 82.7665 78.0075 82.7456 78.0516 82.7173M77.4991 83.1137C77.4402 83.1614 77.387 83.2035 77.3424 83.2339C76.9753 83.5615 76.6654 83.9481 76.4257 84.3778C76.3638 84.4608 76.6115 84.5773 76.5552 84.6473C76.4988 84.7173 76.4313 84.7947 76.3557 84.8826C76.1423 85.0785 75.902 85.2431 75.6422 85.3713C75.4148 85.5312 75.2078 85.7184 75.026 85.9287C74.6595 86.3156 74.2528 86.6621 73.8126 86.9625L73.8027 86.9544C73.7903 86.9687 73.7773 86.9817 73.7643 86.9947L73.76 86.9978L73.729 86.9903L73.7451 87.0132C73.7326 87.0249 73.7194 87.0356 73.7055 87.0455C73.4669 87.2013 73.2187 87.3418 72.9622 87.466C72.9443 87.4763 72.9303 87.4922 72.9223 87.5112C72.9142 87.5302 72.9126 87.5513 72.9176 87.5713C72.896 87.5812 72.8557 87.5986 72.8055 87.6258C72.7139 87.6531 72.6177 87.8069 72.5169 88.0872C72.5919 88.0445 72.6628 87.9949 72.7287 87.9392C72.8172 87.8903 72.9123 87.8549 73.0112 87.8339L72.743 87.9491C72.6612 88.0197 72.5726 88.0819 72.4785 88.1349C72.3286 88.1622 72.4581 88.3678 72.6141 88.3096C72.6995 88.2726 72.788 88.2434 72.8786 88.2223C72.9114 88.1795 73.0576 88.1436 73.3122 88.1157C73.2334 88.1432 73.1609 88.186 73.0987 88.2416C73.0365 88.2972 72.9859 88.3645 72.9498 88.4396C72.9226 88.5214 72.9498 88.5635 73.0378 88.5734C73.1058 88.5056 73.1917 88.4585 73.2855 88.4378C73.3769 88.4411 73.4671 88.4163 73.5438 88.3666C73.6764 88.3016 73.7923 88.2071 73.8826 88.0903C73.973 88.0501 74.1 87.7949 74.2313 87.5843C74.837 87.168 75.4695 86.792 76.1247 86.4589C76.3805 86.3511 76.5968 86.1671 76.7441 85.9318C76.8844 85.7529 77.0387 85.5854 77.2055 85.4308C77.2156 85.4499 77.2272 85.4681 77.2402 85.4853C77.2866 85.5515 77.3523 85.5175 77.426 85.458C77.6283 85.3008 77.8398 85.1561 78.0596 85.0245C78.0807 85.0313 77.5474 85.3676 77.5728 85.432C77.6085 85.5571 77.6373 85.684 77.6589 85.8123C77.6861 86.0693 77.535 86.2737 77.5883 86.5153C77.6036 86.559 77.6244 86.6006 77.6502 86.6392C77.7482 86.7449 77.8129 86.8772 77.836 87.0194C77.8441 87.0814 77.8156 87.0194 77.8075 87.0021C77.7733 86.9121 77.7243 86.8284 77.6626 86.7544C77.5511 86.6243 77.5542 86.641 77.5146 86.7544C77.4328 86.981 77.3083 87.2901 77.286 87.3304C77.0909 87.6791 76.5124 88.343 76.4747 88.7592C76.4474 88.8422 76.7137 88.8875 76.775 88.8986C76.8364 88.9097 76.9342 88.9259 77.0308 88.9457C77.1696 88.9729 76.9794 88.963 76.9466 88.9574C76.8589 88.9402 76.7697 88.9311 76.6803 88.9302C76.5926 89.2418 76.5851 89.5706 76.6586 89.8859C76.6588 89.8969 76.6603 89.908 76.6629 89.9187C76.6705 89.97 76.675 90.0217 76.6766 90.0735C76.6722 90.9753 76.9435 91.8078 76.7143 92.8254C76.7143 92.8316 76.7143 92.8799 76.7143 92.9313C76.7143 93.0038 76.7143 93.2187 76.6914 92.9697C76.6778 92.8266 76.3886 93.0527 76.2244 93.1598C75.717 93.4525 75.2707 93.8403 74.9101 94.3019C74.6968 94.4978 74.4706 94.6793 74.2332 94.8451C74.0666 94.9808 74.092 95.0706 73.9421 95.1647C73.8958 95.1944 73.8481 95.2217 73.799 95.2465C73.7048 95.2428 73.6088 95.2421 73.537 95.2335C73.4153 95.2307 73.2941 95.2496 73.179 95.2892C72.9232 95.3047 72.8192 95.2347 72.7987 95.4998C72.7863 95.6546 72.8061 95.8324 72.7925 95.8652C72.7629 96.0122 72.7769 96.1646 72.8328 96.3037C72.8668 96.3712 72.8805 96.3167 72.8681 96.422C72.8588 96.5657 72.9765 96.5645 72.9449 96.6667C72.9343 96.6889 72.9298 96.7135 72.9318 96.738C72.9339 96.7625 72.9425 96.786 72.9567 96.806C72.9839 96.8525 73.0434 96.8959 73.0025 96.9528C72.9752 96.9888 73.0155 97.0767 73.0397 97.1102C73.083 97.1721 73.0923 97.1678 73.0725 97.2421C73.0668 97.2745 73.0685 97.3078 73.0775 97.3394C73.0866 97.371 73.1026 97.4002 73.1245 97.4248C73.179 97.4935 73.1034 97.5016 73.1381 97.5815C73.1728 97.6614 73.2422 97.6434 73.2248 97.7716C73.2075 97.8998 73.3016 97.88 73.3066 97.9791C73.3066 98.0572 73.2923 98.0733 73.3574 98.1278C73.436 98.1934 73.376 98.2405 73.4453 98.3136C73.4831 98.3447 73.5079 98.3889 73.5147 98.4375C73.5351 98.4994 73.5921 98.5316 73.6355 98.5824C73.7061 98.6641 73.7624 98.7025 73.8739 98.6641C73.9408 98.6406 74.0474 98.5681 74.0597 98.4907C74.0549 98.3935 74.0396 98.2972 74.0139 98.2033C73.9892 98.0595 73.993 97.9122 74.0251 97.7698C74.0408 97.6459 74.0566 97.5241 74.0728 97.4044C74.1164 97.1684 74.2113 96.9449 74.3508 96.7497C74.4071 96.6301 74.4525 96.5058 74.4865 96.3781C74.5688 96.3276 74.6456 96.2686 74.7157 96.2022C74.7974 96.2356 74.8017 96.2604 74.8649 96.3211C74.9888 96.2796 75.0235 96.1941 75.091 96.1161C75.9581 95.1077 76.7069 94.9715 77.7543 94.2673C77.7958 94.2425 77.7084 94.2493 77.9518 94.1434C77.971 94.1347 77.9902 94.126 78.0094 94.1161C78.0286 94.1062 78.046 94.0976 78.0639 94.0876C78.0991 94.0669 78.1324 94.0433 78.1637 94.017L78.1835 94.0047C78.3526 93.9923 78.8165 92.6315 79.0326 91.7L79.0487 91.6319C79.0614 91.6687 79.0648 91.708 79.0586 91.7464C78.9348 92.4234 78.7694 93.1456 78.6331 93.6337C78.6484 93.6919 78.6625 93.7513 78.6753 93.812C78.6716 93.8169 78.6682 93.8221 78.6653 93.8275C78.6579 93.8404 78.6535 93.8548 78.6523 93.8696C78.6515 93.894 78.654 93.9184 78.6598 93.9421C78.6647 93.9656 78.8772 93.9421 78.9695 94.0926C78.902 94.0381 78.6307 93.9297 78.6344 94.0926C78.6361 94.228 78.6137 94.3627 78.5681 94.4902C78.5136 94.6531 78.4325 94.8228 78.3526 95.0532C78.0803 95.9005 77.8568 96.7626 77.683 97.6354C77.6378 97.8255 77.802 97.8639 77.7859 97.9946C77.7239 98.0219 77.709 97.9036 77.6589 97.9197C77.5473 97.9683 77.4452 98.0362 77.3572 98.1203C77.1318 98.2442 77.0073 98.2219 77.1002 98.4721C77.1547 98.6177 77.2476 98.7707 77.2489 98.806C77.2832 98.9517 77.3599 99.084 77.4694 99.1863C77.5313 99.2333 77.5177 99.1782 77.5511 99.2786C77.6031 99.4142 77.7078 99.3628 77.7233 99.4687C77.7223 99.4937 77.7282 99.5186 77.7405 99.5404C77.7527 99.5623 77.7708 99.5803 77.7927 99.5926C77.8373 99.6235 77.9091 99.6372 77.8955 99.7065C77.8868 99.7505 77.9574 99.8137 77.9964 99.8341C78.0584 99.8701 78.0683 99.8645 78.0813 99.9394C78.0899 99.9711 78.1055 100 78.1269 100.025C78.1484 100.05 78.1751 100.07 78.2052 100.083C78.2838 100.123 78.2182 100.162 78.2838 100.219C78.3495 100.276 78.4046 100.231 78.4418 100.354C78.4789 100.478 78.5582 100.421 78.6022 100.509C78.6381 100.579 78.6294 100.6 78.7106 100.622C78.8097 100.649 78.7725 100.717 78.8685 100.754C78.9148 100.766 78.9551 100.794 78.9818 100.834C79.0326 100.872 79.0908 100.9 79.1528 100.916C79.1904 100.942 79.2362 100.953 79.2818 100.948C79.3273 100.943 79.3694 100.922 79.4005 100.888C79.4328 100.859 79.4581 100.822 79.4745 100.781C79.4909 100.741 79.498 100.697 79.4953 100.653C79.4501 100.567 79.3954 100.486 79.3324 100.411C79.2497 100.292 79.1914 100.157 79.1608 100.014C79.1249 99.8967 79.0882 99.7794 79.0506 99.6626C78.9903 99.432 78.981 99.191 79.0233 98.9565C79.0268 98.8159 79.0126 98.6755 78.9812 98.5384C79.011 98.4672 78.9911 98.5161 79.0128 98.391C79.0751 98.3745 79.1407 98.3745 79.203 98.391C79.2523 98.2991 79.2714 98.194 79.2575 98.0906C79.3281 96.7602 79.7777 96.2375 80.1741 95.0402C80.2361 94.8544 80.3085 94.5955 80.3736 94.3534C80.4692 94.12 80.5243 93.872 80.5365 93.62C80.5984 92.4581 80.9341 90.9295 80.713 89.78C80.6944 89.6821 80.5055 89.7397 80.3674 89.7378C80.1611 89.7378 80.0577 89.6815 80.202 89.692C80.4826 89.7241 80.7666 89.678 81.0227 89.5588C81.1063 89.5211 81.1422 89.5273 81.1502 89.4405C81.1725 88.977 81.1426 88.5125 81.0611 88.0556C81.0257 87.9084 81.0091 87.7574 81.0115 87.606C81.0041 87.5137 80.9991 87.4202 80.9973 87.326C80.9973 87.1904 80.8827 87.4679 80.8536 87.5459C80.6343 88.1219 80.8009 87.5781 80.9223 87.1929C81.0823 86.3774 81.1416 85.5453 81.0988 84.7154C81.1118 84.4621 80.9855 84.0093 80.97 83.6365C80.9118 83.3697 80.8194 83.1115 80.695 82.8685C80.7371 82.8455 80.9359 83.3788 80.9805 83.3522C81.2625 83.1795 81.5221 82.9727 81.7535 82.7365C81.8111 82.6789 81.6383 82.29 81.7263 82.1735C81.9499 81.7099 82.2105 81.265 82.5054 80.8431C82.9809 80.2722 83.3912 79.65 83.7287 78.9881C83.7756 78.9045 83.8295 78.8249 83.8897 78.7503H83.8643C84.0848 78.5948 84.335 78.4449 84.3716 78.3458C84.4968 78.2348 84.5951 78.0967 84.659 77.942C84.7099 77.8513 84.7316 77.747 84.7209 77.6435C84.7379 77.5366 84.7849 77.4367 84.8565 77.3555C84.8429 77.2576 84.7905 77.2277 84.6992 77.2657C84.533 77.3595 84.4107 77.5154 84.3592 77.6992C84.3452 77.527 84.3757 77.354 84.4477 77.1969C84.4651 77.0932 84.4916 76.9912 84.527 76.8922C84.5799 76.7101 84.5568 76.5798 84.4577 76.5014C84.3875 76.4799 84.3412 76.5625 84.3189 76.7491C84.2654 76.8601 84.2006 76.9653 84.1257 77.0631L84.0154 77.3728C84.0316 77.2592 84.065 77.1487 84.1145 77.0452C84.1726 76.9674 84.2234 76.8845 84.2663 76.7974C83.9566 76.9331 83.79 77.052 83.7652 77.1579C83.738 77.2198 83.7212 77.2632 83.7126 77.2886C83.6895 77.2844 83.6656 77.2878 83.6447 77.2984C83.6238 77.3091 83.6069 77.3263 83.5967 77.3474C83.4748 77.6465 83.3341 77.9375 83.1756 78.2189C83.1632 78.2387 83.105 78.3818 83.061 78.4765C82.8621 78.7627 82.647 79.0373 82.4168 79.299C82.1729 79.5884 81.9092 79.8605 81.6278 80.1135C81.4526 80.2958 81.2927 80.4922 81.1496 80.7007C80.8708 80.4689 80.5402 80.3079 80.1859 80.2312C80.0799 80.2042 79.9781 80.1625 79.8836 80.1073L79.8997 80.0993C79.9875 80.1424 80.0789 80.1777 80.1729 80.2046C80.5367 80.2289 80.76 80.1548 80.843 79.9822C80.7532 80.0675 80.6392 80.1231 80.5167 80.1414C80.3941 80.1597 80.2689 80.1398 80.158 80.0844C80.1518 80.0535 80.1427 80.0232 80.1308 79.994H80.1128L80.1648 79.9667C80.2241 79.9614 80.2826 79.949 80.3389 79.9296C80.305 79.9315 80.2711 79.9315 80.2373 79.9296C80.3754 79.8534 80.4603 79.7877 80.3971 79.7518C80.2532 79.6774 80.0967 79.6302 79.9357 79.6124L79.9152 79.5895L80.067 79.5821C80.0738 79.5747 80.0837 79.5821 80.0918 79.5821C80.0166 79.5569 79.9386 79.5413 79.8595 79.5356C79.8078 79.4874 79.7534 79.4421 79.6966 79.4C79.968 79.4355 80.228 79.5316 80.4572 79.6812C80.446 79.5615 80.2352 79.4225 79.8248 79.2644C79.5112 79.1676 79.1869 79.1099 78.8592 79.0928C79.1417 79.0772 79.4247 79.1103 79.696 79.1907C79.2886 79.0181 78.8479 78.9379 78.4058 78.9559C78.5844 78.871 78.7791 78.8252 78.9768 78.8216C79.1745 78.818 79.3707 78.8566 79.5523 78.9349C79.2815 78.7833 78.9677 78.7267 78.6611 78.7742C78.3544 78.8217 78.0724 78.9705 77.8602 79.1969C77.8616 79.0831 77.8981 78.9725 77.9645 78.8802C78.031 78.7879 78.1244 78.7183 78.2318 78.6809C77.9779 78.7137 77.8243 78.7813 77.6905 79.2761C77.6527 79.4118 77.4972 79.3666 77.1659 79.6645C77.151 79.6775 77.1039 79.7295 77.0909 79.7419C76.9483 79.9097 76.8417 80.1051 76.7778 80.3158C76.7139 80.5266 76.694 80.7482 76.7193 80.967C76.7483 81.1843 76.7374 81.4051 76.6871 81.6186C76.7607 81.5033 76.7985 81.3688 76.7955 81.2321C76.8115 81.3654 76.7901 81.5005 76.7335 81.6223C76.6391 81.7946 76.5803 81.9842 76.5607 82.1797C76.5555 82.2526 76.5672 82.3256 76.5951 82.3931C76.6229 82.4606 76.6661 82.5207 76.7212 82.5687C76.6819 82.5282 76.6515 82.4801 76.6318 82.4274C76.6121 82.3746 76.6035 82.3183 76.6066 82.2621C76.6793 82.4685 76.7517 82.5881 76.824 82.6207C76.8007 82.5701 76.7887 82.5151 76.7887 82.4594C76.7887 82.4037 76.8007 82.3486 76.824 82.298C76.8937 82.411 76.9857 82.5086 77.0943 82.5849C77.2029 82.6613 77.3258 82.7147 77.4557 82.7421C77.3154 82.6078 77.208 82.4429 77.1418 82.2603C77.0756 82.0776 77.0525 81.8822 77.0742 81.6892C77.0589 82.0435 77.1804 82.3901 77.4136 82.6572C77.5407 82.7356 77.6796 82.7931 77.8249 82.8276C77.7472 82.8993 77.6644 82.9654 77.5771 83.0252C77.5455 83.0436 77.5153 83.0643 77.4867 83.0871L77.4991 83.1137ZM81.1323 80.7118C81.1023 80.6754 81.0663 80.6443 81.0258 80.6202C81.0562 80.6607 81.0824 80.7043 81.1038 80.7502L81.1323 80.7118ZM81.0505 80.8202C80.991 80.7489 80.9198 80.6882 80.8399 80.6406C80.9045 80.7163 80.9566 80.8018 80.9942 80.8939L81.0505 80.8202ZM80.9558 80.9441C80.9327 80.8873 80.8991 80.8354 80.8567 80.7911C80.8779 80.8614 80.8949 80.933 80.9075 81.0054L80.9558 80.9441ZM80.6888 81.247L80.6684 81.2302C80.617 81.203 80.5922 81.172 80.529 81.1683C80.5697 81.2031 80.6052 81.2435 80.6343 81.2884C80.6443 81.285 80.6535 81.2798 80.6616 81.273L80.6888 81.2494M80.4937 81.1076C80.3765 81.0328 80.2507 80.9725 80.119 80.928L80.1221 80.9354C80.2405 80.9822 80.3533 81.042 80.4584 81.1138H80.4652C80.4746 81.1118 80.4841 81.1104 80.4937 81.1095" fill="white"/>
<path d="M191.305 102.394C190.825 102.394 190.364 102.203 190.025 101.864C189.685 101.524 189.494 101.063 189.494 100.583V76.4673C189.494 75.987 189.685 75.5263 190.025 75.1867C190.364 74.8471 190.825 74.6562 191.305 74.6562C191.785 74.6562 192.246 74.8471 192.586 75.1867C192.925 75.5263 193.116 75.987 193.116 76.4673V100.581C193.116 101.061 192.925 101.522 192.586 101.862C192.246 102.201 191.785 102.392 191.305 102.392" fill="white"/>
<path d="M219.876 96.1284C220.165 96.116 220.453 96.1766 220.713 96.3047C220.972 96.4327 221.196 96.6241 221.362 96.8611C221.95 97.6663 222.773 98.7656 224.459 98.7656C224.736 98.7838 225.013 98.7468 225.276 98.657C225.538 98.5672 225.78 98.4263 225.988 98.2424C226.195 98.0585 226.365 97.8353 226.485 97.5857C226.606 97.336 226.676 97.0649 226.692 96.788C226.692 95.286 225.205 94.7001 223.362 94.1142C220.895 93.309 218.114 92.318 218.114 88.5467C218.114 85.4332 220.856 82.9792 224.459 82.9792C227.789 82.9792 230.844 84.8838 230.844 87.1909C230.833 87.4406 230.772 87.6855 230.665 87.9115C230.558 88.1374 230.407 88.3398 230.221 88.5069C230.035 88.674 229.818 88.8026 229.582 88.885C229.346 88.9674 229.096 89.0021 228.847 88.9871C228.597 89.0027 228.349 88.9495 228.128 88.8333C227.906 88.717 227.722 88.5423 227.593 88.3281C226.927 87.6319 225.987 86.5697 224.459 86.5697C224.184 86.5488 223.907 86.5841 223.646 86.6733C223.384 86.7626 223.144 86.904 222.939 87.0889C222.734 87.2739 222.568 87.4986 222.453 87.7494C222.337 88.0002 222.273 88.2719 222.266 88.548C222.266 90.0493 223.911 90.5256 225.909 91.1493C228.299 91.8449 231.001 93.0173 231.001 96.6796C231.001 99.756 228.141 102.393 224.459 102.393C220.973 102.393 217.918 100.269 217.918 97.9958C217.923 97.7444 217.978 97.4965 218.08 97.2664C218.181 97.0363 218.327 96.8285 218.509 96.6549C218.691 96.4813 218.905 96.3454 219.14 96.2549C219.375 96.1645 219.625 96.1213 219.876 96.1278" fill="white"/>
<path fill-rule="evenodd" clip-rule="evenodd" d="M215.367 90.1895C215.047 88.946 214.484 87.7781 213.711 86.7526C212.928 85.7418 211.95 84.8992 210.835 84.2751C210.826 84.2707 210.818 84.2657 210.81 84.2603C209.173 83.3212 207.297 82.8802 205.413 82.9911C203.528 83.1021 201.717 83.7602 200.201 84.8849C198.685 86.0097 197.53 87.5521 196.878 89.3233C196.225 91.0945 196.103 93.0176 196.527 94.857C196.951 96.6964 197.902 98.3723 199.264 99.6792C200.626 100.986 202.34 101.868 204.195 102.215C206.05 102.563 207.967 102.362 209.709 101.637C211.452 100.913 212.946 99.695 214.007 98.1341C214.127 97.925 214.203 97.6941 214.232 97.4549C214.261 97.2158 214.242 96.9732 214.175 96.7417C214.165 96.707 214.158 96.6699 214.145 96.6358C214.011 96.1915 213.706 95.8187 213.297 95.5993C212.888 95.3799 212.409 95.3319 211.965 95.4658C211.543 95.5861 211.176 95.8487 210.926 96.2091C210.542 96.7826 210.056 97.2806 209.492 97.6782C208.347 98.45 206.984 98.8306 205.605 98.7633C204.321 98.6866 203.093 98.2121 202.091 97.4057C201.586 96.9958 201.153 96.5052 200.808 95.9539L214.074 92.4006C214.306 92.3444 214.525 92.2418 214.717 92.099C214.908 91.9561 215.069 91.776 215.189 91.5694C215.315 91.3644 215.397 91.135 215.428 90.8963C215.459 90.6576 215.439 90.415 215.37 90.1845M199.873 92.4594C199.884 91.8085 200.007 91.1643 200.237 90.5555C200.465 89.9526 200.788 89.39 201.194 88.8888C201.602 88.3885 202.084 87.9535 202.623 87.5987C203.719 86.8718 205.023 86.5227 206.335 86.6046C206.974 86.645 207.604 86.7817 208.202 87.0103C208.802 87.2424 209.361 87.5688 209.859 87.9771C210.373 88.3846 210.814 88.8783 211.159 89.4363L199.873 92.4594Z" fill="white"/>
<path fill-rule="evenodd" clip-rule="evenodd" d="M186.192 88.9383C185.433 87.1768 184.177 85.6743 182.579 84.614C180.98 83.5537 179.108 82.9815 177.189 82.967C174.967 82.9265 172.804 83.6897 171.099 85.1162V76.4563C171.105 76.2163 171.062 75.9778 170.971 75.7556C170.88 75.5334 170.744 75.3325 170.572 75.1655C170.226 74.8317 169.762 74.6486 169.281 74.6564C169.238 74.6539 169.195 74.6539 169.152 74.6564C168.691 74.6738 168.255 74.8737 167.941 75.2122C167.626 75.5507 167.459 76.0002 167.476 76.4618V92.6849C167.477 94.6051 168.047 96.482 169.114 98.0783C170.182 99.6746 171.698 100.919 173.473 101.653C175.247 102.388 177.199 102.58 179.082 102.205C180.966 101.83 182.696 100.906 184.054 99.5481C184.977 98.6621 185.706 97.5947 186.197 96.413C186.687 95.2313 186.927 93.9609 186.903 92.6818C186.913 91.4001 186.671 90.1289 186.191 88.9408M182.798 95.0335C182.49 95.7544 182.049 96.4105 181.497 96.9672C180.945 97.5269 180.29 97.9752 179.568 98.2877C178.817 98.6143 178.006 98.7795 177.187 98.7726C176.363 98.7801 175.546 98.6142 174.789 98.2858C174.072 97.9745 173.419 97.5307 172.865 96.9777C172.317 96.4212 171.879 95.7648 171.577 95.044C171.26 94.2971 171.097 93.4939 171.097 92.6824C171.097 91.8709 171.26 91.0677 171.577 90.3208C171.879 89.5989 172.316 88.9416 172.865 88.3846C173.419 87.8316 174.072 87.3878 174.789 87.0765C175.545 86.7565 176.358 86.5916 177.179 86.5916C178 86.5916 178.813 86.7565 179.569 87.0765C181.022 87.7094 182.178 88.8747 182.798 90.3332C183.114 91.0761 183.276 91.8749 183.276 92.6821C183.276 93.4893 183.114 94.2881 182.798 95.031" fill="white"/>
<path fill-rule="evenodd" clip-rule="evenodd" d="M142.281 90.1895C141.961 88.946 141.398 87.7781 140.625 86.7526C139.842 85.7418 138.864 84.8992 137.749 84.2751C137.74 84.2707 137.732 84.2657 137.724 84.2603C136.087 83.3212 134.211 82.8802 132.327 82.9911C130.442 83.1021 128.631 83.7602 127.115 84.8849C125.599 86.0097 124.444 87.5521 123.792 89.3233C123.139 91.0945 123.017 93.0176 123.441 94.857C123.865 96.6964 124.816 98.3723 126.178 99.6792C127.54 100.986 129.254 101.868 131.109 102.215C132.964 102.563 134.881 102.362 136.624 101.637C138.366 100.913 139.86 99.695 140.921 98.1341C141.041 97.925 141.117 97.6941 141.146 97.4549C141.175 97.2158 141.156 96.9732 141.089 96.7417C141.079 96.707 141.072 96.6699 141.059 96.6358C140.925 96.1915 140.62 95.8187 140.211 95.5993C139.802 95.3799 139.323 95.3319 138.879 95.4658C138.457 95.5861 138.09 95.8488 137.84 96.2091C137.456 96.7826 136.97 97.2806 136.406 97.6782C135.262 98.45 133.898 98.8307 132.519 98.7633C131.235 98.6866 130.007 98.2121 129.005 97.4057C128.501 96.9958 128.067 96.5053 127.722 95.9539L140.988 92.4006C141.221 92.3444 141.439 92.2418 141.631 92.099C141.822 91.9561 141.983 91.776 142.103 91.5694C142.229 91.3644 142.31 91.135 142.342 90.8963C142.373 90.6576 142.353 90.415 142.283 90.1845M126.787 92.4545C126.798 91.8036 126.921 91.1594 127.151 90.5505C127.379 89.9477 127.702 89.3851 128.108 88.8838C128.517 88.3832 128.999 87.9479 129.539 87.5931C130.635 86.8662 131.939 86.5171 133.251 86.599C133.89 86.6394 134.52 86.7762 135.118 87.0047C135.718 87.2368 136.277 87.5632 136.775 87.9715C137.289 88.379 137.729 88.8728 138.075 89.4307L126.787 92.4545Z" fill="white"/>
<path fill-rule="evenodd" clip-rule="evenodd" d="M163.996 88.9383C163.237 87.1768 161.981 85.6743 160.383 84.614C158.784 83.5537 156.912 82.9815 154.993 82.967C152.771 82.9265 150.608 83.6897 148.903 85.1162V76.4563C148.909 76.2164 148.866 75.9778 148.775 75.7557C148.685 75.5335 148.549 75.3325 148.377 75.1655C148.031 74.8317 147.567 74.6486 147.086 74.6564C147.043 74.6539 147 74.6539 146.957 74.6564C146.495 74.6736 146.059 74.8735 145.745 75.2121C145.431 75.5506 145.264 76.0001 145.28 76.4618V92.6849C145.281 94.6055 145.851 96.4829 146.919 98.0795C147.986 99.6762 149.503 100.921 151.278 101.655C153.052 102.39 155.005 102.582 156.889 102.207C158.772 101.832 160.502 100.906 161.86 99.5481C162.783 98.6621 163.513 97.5947 164.003 96.413C164.494 95.2313 164.734 93.9609 164.709 92.6818C164.72 91.4001 164.478 90.1289 163.997 88.9408M160.604 95.0335C160.297 95.7544 159.855 96.4105 159.304 96.9672C158.751 97.5269 158.096 97.9752 157.375 98.2877C156.624 98.6142 155.813 98.7795 154.994 98.7726C154.169 98.7801 153.352 98.6143 152.595 98.2858C151.878 97.9744 151.225 97.5306 150.672 96.9777C150.123 96.4212 149.686 95.7648 149.384 95.044C149.067 94.2971 148.903 93.4939 148.903 92.6824C148.903 91.8709 149.067 91.0677 149.384 90.3208C149.685 89.5989 150.123 88.9416 150.672 88.3846C151.225 87.8316 151.878 87.3879 152.596 87.0765C153.352 86.7565 154.165 86.5916 154.986 86.5916C155.807 86.5916 156.619 86.7565 157.375 87.0765C158.829 87.7094 159.984 88.8747 160.605 90.3332C160.92 91.0761 161.083 91.8749 161.083 92.6821C161.083 93.4893 160.92 94.2881 160.605 95.031" fill="white"/>
<path fill-rule="evenodd" clip-rule="evenodd" d="M121.467 81.6334C121.245 80.8569 120.926 80.1119 120.516 79.416C120.114 78.7265 119.622 78.0936 119.053 77.5338C118.487 76.9676 117.852 76.4751 117.163 76.0677C116.468 75.6584 115.723 75.3414 114.946 75.1245C114.149 74.8998 113.325 74.7873 112.497 74.79H107.099C106.854 74.7846 106.61 74.8289 106.382 74.9202C106.154 75.0115 105.947 75.148 105.773 75.3214C105.604 75.4932 105.47 75.6959 105.379 75.9185C105.285 76.149 105.238 76.3957 105.241 76.6444V100.943C105.236 101.186 105.282 101.428 105.375 101.653C105.468 101.878 105.607 102.082 105.782 102.251C106.134 102.6 106.609 102.795 107.105 102.795C107.6 102.795 108.075 102.6 108.427 102.251C108.602 102.082 108.741 101.878 108.834 101.653C108.927 101.428 108.973 101.186 108.969 100.943V93.3673H112.506C114.968 93.3572 117.326 92.3754 119.068 90.6356C120.81 88.8957 121.794 86.5386 121.807 84.0768C121.809 83.25 121.695 82.427 121.467 81.6321M117.627 86.2458C117.34 86.9048 116.93 87.503 116.419 88.0085C115.908 88.5102 115.309 88.913 114.651 89.1964C113.974 89.4902 113.242 89.6389 112.504 89.6331H108.966V78.5198H112.504C113.239 78.5165 113.967 78.6625 114.644 78.949C115.306 79.2224 115.909 79.6221 116.419 80.1258C116.931 80.6308 117.341 81.2292 117.627 81.8885C117.922 82.5769 118.074 83.318 118.074 84.0669C118.074 84.8157 117.922 85.5574 117.627 86.2458Z" fill="white"/>
</g>
<defs>
<clipPath id="clip0_871_1700">
<rect width="175" height="40.7766" fill="white" transform="translate(56 68)"/>
</clipPath>
</defs>
</svg>
