<svg width="287" height="177" viewBox="0 0 287 177" fill="none" xmlns="http://www.w3.org/2000/svg">
<mask id="mask0_871_1635" style="mask-type:luminance" maskUnits="userSpaceOnUse" x="56" y="73" width="31" height="37">
<path d="M56 73.9072H86.7018V109.632H56V73.9072Z" fill="white"/>
</mask>
<g mask="url(#mask0_871_1635)">
<path fill-rule="evenodd" clip-rule="evenodd" d="M74.8292 73.9072C80.4723 73.9072 84.9452 75.3588 85.9101 75.6847C86.4948 75.892 86.5825 75.9809 86.641 76.4549C86.758 77.314 86.6995 78.7655 86.5241 79.6246C86.4071 80.2171 86.2609 80.306 85.6469 80.1282C84.3896 79.7431 80.2968 78.2916 74.9754 78.2916C65.4442 78.2916 61.38 82.5278 61.38 91.7697C61.38 101.012 65.4442 105.248 74.9754 105.248C80.2968 105.248 84.3896 103.767 85.6469 103.411C86.2609 103.234 86.4071 103.323 86.5241 103.915C86.6995 104.775 86.758 106.226 86.641 107.085C86.5825 107.559 86.4948 107.647 85.9101 107.855C84.9452 108.181 80.4723 109.632 74.8292 109.632C62.2279 109.632 56 104.004 56 91.7697C56 79.5358 62.2279 73.9072 74.8292 73.9072Z" fill="white"/>
</g>
<path fill-rule="evenodd" clip-rule="evenodd" d="M101.719 94.1205C101.281 94.1205 101.106 94.3511 101.106 94.7548V104.788C101.106 105.163 101.223 105.337 101.602 105.365C102.712 105.452 105.076 105.624 108.784 105.624C114.798 105.624 119.877 105.337 119.877 99.8583C119.877 94.4088 114.798 94.1205 109.368 94.1205H101.719ZM118.33 84.6638C118.33 79.1854 113.309 79.1566 108.667 79.1566C105.252 79.1566 102.624 79.2719 101.602 79.3584C101.223 79.3873 101.106 79.5603 101.106 79.9351V89.5366C101.106 89.9114 101.281 90.1709 101.719 90.1709H108.667C113.309 90.1709 118.33 90.1126 118.33 84.6638ZM95.8516 108.133V76.4751C95.8516 75.6678 96.2596 75.3794 97.0187 75.3794H101.106C101.106 75.3794 106.536 75.1494 108.638 75.1494C116.17 75.1494 123.614 75.8991 123.614 84.0294C123.614 89.1041 120.491 90.8046 118.68 91.3243C118.476 91.3819 118.359 91.439 118.359 91.6703V92.0739C118.359 92.304 118.476 92.304 118.68 92.3623C119.848 92.6788 125.307 93.7745 125.307 100.118C125.307 107.816 118.651 109.632 109.075 109.632C104.347 109.632 99.5294 109.431 97.0187 109.229C96.2596 109.171 95.8516 108.94 95.8516 108.133Z" fill="white"/>
<path fill-rule="evenodd" clip-rule="evenodd" d="M138.599 79.3579H127.781C127.354 79.3579 127.182 79.2403 127.125 78.7734C127.068 78.335 127.039 77.809 127.039 77.2538C127.039 76.6985 127.068 76.1725 127.125 75.7341C127.182 75.2666 127.354 75.1497 127.781 75.1497H155.752C156.181 75.1497 156.352 75.2666 156.409 75.7341C156.466 76.1725 156.495 76.6985 156.495 77.2538C156.495 77.809 156.466 78.335 156.409 78.7734C156.352 79.2403 156.181 79.3579 155.752 79.3579H144.935C144.507 79.3579 144.335 79.5618 144.335 79.9709V108.697C144.335 109.223 144.222 109.399 143.765 109.486C143.337 109.574 142.652 109.632 141.767 109.632C140.882 109.632 140.197 109.574 139.769 109.486C139.312 109.399 139.198 109.223 139.198 108.697V79.9709C139.198 79.5618 139.027 79.3579 138.599 79.3579Z" fill="white"/>
<path fill-rule="evenodd" clip-rule="evenodd" d="M160.038 97.5628C160.038 103.62 162.325 107.429 168.882 107.429C175.409 107.429 177.727 103.62 177.727 97.5628C177.727 91.506 175.409 87.6677 168.882 87.6677C162.325 87.6677 160.038 91.506 160.038 97.5628ZM181.782 110.906C181.265 110.996 180.746 111.027 180.106 111.027C179.465 111.027 178.886 110.996 178.306 110.906C177.788 110.817 177.666 110.757 177.544 110.247L177.239 108.958C177.147 108.598 177.056 108.538 176.781 108.538H176.568C176.263 108.538 176.202 108.568 176.019 108.718C175.287 109.318 173.213 111.356 167.967 111.356C160.739 111.356 154.762 107.698 154.762 97.5628C154.762 87.4278 160.739 83.77 167.967 83.77C173.213 83.77 175.287 85.8085 176.019 86.4082C176.202 86.5582 176.263 86.5881 176.568 86.5881H176.781C177.056 86.5881 177.208 86.5282 177.239 86.2883L177.513 84.8189C177.605 84.3391 177.757 84.2198 178.276 84.1599C178.794 84.0992 179.374 84.0692 180.014 84.0692C180.654 84.0692 181.295 84.0992 181.782 84.1599C182.423 84.2491 182.484 84.489 182.484 84.9988V110.067C182.484 110.667 182.423 110.787 181.782 110.906Z" fill="white"/>
<path fill-rule="evenodd" clip-rule="evenodd" d="M193.574 97.0565C193.574 96.9644 193.545 96.903 193.487 96.811L184.889 84.8747C184.772 84.7213 184.714 84.5679 184.714 84.4451C184.714 84.2296 184.889 84.0462 185.299 83.9541C185.855 83.8307 186.79 83.77 187.726 83.77C188.486 83.77 189.246 83.8007 189.715 83.8928C190.27 84.0155 190.417 84.0769 190.708 84.5372L197.552 94.4795C197.727 94.7243 197.786 94.7243 198.078 94.7243H198.195C198.488 94.7243 198.546 94.7243 198.722 94.4795L205.565 84.5065C205.886 84.0462 206.004 83.9541 206.559 83.8621C207.056 83.8007 207.787 83.77 208.518 83.77C209.425 83.77 210.302 83.8007 210.858 83.9234C211.267 84.0155 211.442 84.1689 211.442 84.4144C211.442 84.5372 211.384 84.6906 211.267 84.844L202.67 96.811C202.611 96.903 202.582 96.9644 202.582 97.0565C202.582 97.1178 202.611 97.2106 202.67 97.3019L211.764 110.282C211.881 110.435 211.94 110.589 211.94 110.742C211.94 110.957 211.764 111.141 211.384 111.202C210.799 111.294 209.863 111.356 208.928 111.356C208.167 111.356 207.407 111.325 206.91 111.263C206.354 111.171 206.208 111.049 205.915 110.62L198.605 99.5727C198.488 99.3886 198.371 99.3272 198.078 99.3272H197.961C197.669 99.3272 197.552 99.3886 197.406 99.5727L190.066 110.62C189.743 111.079 189.626 111.171 189.042 111.263C188.574 111.325 187.843 111.356 187.083 111.356C186.205 111.356 185.328 111.325 184.743 111.202C184.363 111.141 184.217 110.957 184.217 110.711C184.217 110.589 184.275 110.435 184.363 110.282L193.487 97.3019C193.545 97.2106 193.574 97.1178 193.574 97.0565Z" fill="white"/>
<mask id="mask1_871_1635" style="mask-type:luminance" maskUnits="userSpaceOnUse" x="212" y="65" width="19" height="22">
<path d="M212.098 65.3259H230.886V86.854H212.098V65.3259Z" fill="#47F4BE"/>
</mask>
<g mask="url(#mask1_871_1635)">
<path fill-rule="evenodd" clip-rule="evenodd" d="M225.349 71.8176C225.296 71.7567 225.24 71.7349 225.149 71.7112L212.543 69.2861C212.376 69.2592 212.249 69.1945 212.178 69.1138C212.053 68.9729 212.064 68.7405 212.282 68.4209C212.579 67.9893 213.165 67.3572 213.785 66.7655C214.289 66.2852 214.811 65.8254 215.175 65.5897C215.615 65.3195 215.748 65.267 216.207 65.3854L226.497 67.6063C226.533 67.614 226.606 67.6351 226.704 67.6665C227.996 68.0821 228.968 69.206 229.258 70.5822C229.309 70.823 229.343 71.001 229.345 71.0529L230.865 82.9655C230.918 83.4721 230.894 83.6066 230.559 84.0369C230.284 84.3725 229.817 84.8553 229.312 85.3356C228.73 85.8909 228.131 86.4249 227.672 86.7138C227.384 86.9136 227.181 86.8847 227.039 86.7234C226.967 86.642 226.918 86.5043 226.887 86.3475L225.432 72.0346C225.418 71.9373 225.384 71.8573 225.349 71.8176Z" fill="white"/>
</g>
</svg>
