<svg width="287" height="177" viewBox="0 0 287 177" fill="none" xmlns="http://www.w3.org/2000/svg">
<g clip-path="url(#clip0_871_1633)">
<mask id="mask0_871_1633" style="mask-type:luminance" maskUnits="userSpaceOnUse" x="63" y="64" width="162" height="50">
<path d="M224.275 64H63V114H224.275V64Z" fill="white"/>
</mask>
<g mask="url(#mask0_871_1633)">
<path d="M89.5347 91.4268C87.0338 94.4113 83.2367 95.9038 78.1436 95.9044C73.0504 95.905 69.2536 94.4124 66.7533 91.4268C64.2386 88.406 62.9054 84.5754 63.0009 80.6461C62.9248 76.7322 64.2563 72.921 66.7533 69.9061C69.2542 66.8769 73.0513 65.3623 78.1444 65.3623C83.2376 65.3623 87.0346 66.8769 89.5356 69.9061C92.032 72.9213 93.3632 76.7324 93.2871 80.6461C93.3829 84.5753 92.0499 88.4058 89.5356 91.4268M83.3376 87.2871C84.5522 85.7296 85.1595 83.5162 85.1595 80.647C85.1595 77.7778 84.5522 75.5689 83.3376 74.0202C82.7152 73.2455 81.9169 72.6306 81.0091 72.2265C80.1013 71.8225 79.1101 71.641 78.118 71.6971C77.1237 71.6414 76.1304 71.8229 75.2201 72.2266C74.3098 72.6304 73.5085 73.2448 72.8825 74.0193C71.6591 75.568 71.0476 77.7769 71.0482 80.6461C71.0488 83.5153 71.6602 85.729 72.8825 87.2871C73.5061 88.0647 74.3063 88.6823 75.2166 89.0884C76.1269 89.4946 77.1209 89.6777 78.1162 89.6225C79.1095 89.6784 80.1018 89.4956 81.0099 89.0892C81.918 88.6829 82.7156 88.065 83.3358 87.2871" fill="white"/>
<path d="M104.839 85.7845C104.885 86.8196 105.258 87.8135 105.905 88.6228C106.87 89.6227 108.655 90.1227 111.259 90.1227C112.508 90.1765 113.754 89.952 114.905 89.4654C115.282 89.3128 115.609 89.0573 115.847 88.728C116.086 88.3987 116.227 88.0089 116.255 87.6032C116.282 87.1975 116.195 86.7922 116.003 86.4336C115.812 86.0751 115.523 85.7777 115.17 85.5754C114.444 85.1378 111.742 84.3843 107.065 83.315C103.697 82.5092 101.325 81.5016 99.9489 80.2923C99.2422 79.642 98.6898 78.8418 98.3323 77.9505C97.9748 77.0591 97.8211 76.099 97.8826 75.1406C97.8815 73.8355 98.1706 72.5464 98.7289 71.3667C99.2872 70.187 100.101 69.1463 101.111 68.3197C103.263 66.4186 106.292 65.4678 110.198 65.4672C113.358 65.3325 116.493 66.0739 119.257 67.6094C121.591 69.0376 122.93 71.5038 123.276 75.0083H115.528C115.471 74.1809 115.178 73.3872 114.683 72.7214C113.829 71.7056 112.375 71.1974 110.322 71.1968C109.069 71.0939 107.814 71.3589 106.71 71.9591C106.395 72.1432 106.132 72.4033 105.943 72.7156C105.755 73.0278 105.648 73.3823 105.633 73.7466C105.615 74.1368 105.714 74.5234 105.919 74.8562C106.123 75.189 106.423 75.4525 106.78 75.6126C107.544 76.0161 110.241 76.7084 114.869 77.6895C117.417 78.1344 119.808 79.2283 121.81 80.8658C122.552 81.55 123.139 82.3845 123.533 83.3136C123.927 84.2427 124.118 85.245 124.094 86.2539C124.125 87.5881 123.845 88.911 123.275 90.1178C122.705 91.3245 121.861 92.3817 120.811 93.2054C118.623 95.0012 115.241 95.8993 110.665 95.8999C105.997 95.8999 102.551 94.9494 100.327 93.0484C99.2566 92.1692 98.3998 91.0581 97.8217 89.7991C97.2436 88.5401 96.9594 87.166 96.9906 85.781L104.839 85.7845Z" fill="white"/>
<path d="M149.106 66.8631C151.177 67.7629 152.952 69.2312 154.223 71.098C155.461 72.8611 156.27 74.8894 156.584 77.0208C156.822 78.906 156.907 80.8073 156.839 82.7063H135.261C135.379 85.5802 136.412 87.5953 138.36 88.7517C139.657 89.5 141.136 89.8733 142.633 89.8298C144.175 89.9001 145.695 89.4357 146.935 88.5152C147.593 87.972 148.135 87.3017 148.529 86.5442H156.439C156.074 88.5383 155.065 90.3575 153.566 91.7223C150.912 94.5086 147.196 95.9017 142.418 95.9017C138.637 95.9561 134.953 94.7102 131.981 92.3726C128.966 90.0228 127.459 86.1995 127.459 80.9029C127.459 75.9403 128.82 72.1347 131.542 69.4861C132.954 68.1505 134.619 67.1112 136.439 66.4293C138.259 65.7474 140.197 65.4368 142.138 65.5158C144.529 65.4788 146.902 65.936 149.108 66.8587M137.518 73.3293C136.365 74.5426 135.64 76.1 135.454 77.7637H148.802C148.792 76.9071 148.603 76.062 148.247 75.2826C147.892 74.5031 147.378 73.8063 146.738 73.2367C145.441 72.1861 143.808 71.6386 142.14 71.6945C141.299 71.642 140.456 71.76 139.661 72.0412C138.866 72.3224 138.136 72.7611 137.515 73.3311" fill="white"/>
<path d="M220.553 91.2804C218.083 94.2266 214.335 95.6997 209.309 95.6997C204.282 95.6997 200.534 94.2266 198.064 91.2804C195.581 88.2986 194.264 84.5173 194.358 80.6382C194.283 76.7743 195.598 73.0119 198.064 70.0358C200.534 67.046 204.282 65.5511 209.309 65.5511C214.335 65.5511 218.083 67.046 220.553 70.0358C223.018 73.012 224.333 76.7743 224.259 80.6382C224.353 84.5172 223.036 88.2985 220.553 91.2804ZM214.434 87.1936C215.632 85.6561 216.232 83.471 216.232 80.6382C216.232 77.8055 215.632 75.6248 214.434 74.0961C213.782 73.3736 212.986 72.7961 212.097 72.4007C211.208 72.0054 210.245 71.8012 209.272 71.8012C208.299 71.8012 207.337 72.0054 206.448 72.4007C205.559 72.7961 204.763 73.3736 204.111 74.0961C202.904 75.6254 202.301 77.8061 202.301 80.6382C202.301 83.4704 202.904 85.6555 204.111 87.1936C204.761 87.9196 205.556 88.5004 206.445 88.8981C207.335 89.2957 208.298 89.5012 209.272 89.5012C210.247 89.5012 211.21 89.2957 212.099 88.8981C212.989 88.5004 213.784 87.9196 214.434 87.1936Z" fill="white"/>
<path d="M193.209 68.2085L193.622 68.4476L166.841 110.831L163.547 108.68L193.209 68.2085Z" fill="white"/>
<path d="M194.012 68.6691L194.513 68.9796L171.147 113.184L167.734 111.331L194.012 68.6691Z" fill="white"/>
<path d="M163.797 69.0308V69.0388V69.0026C163.763 68.662 163.738 68.3418 163.719 68.0453V68.0974L163.641 67.0007V65.9825L158.193 66.1387L158.271 67.2363L158.35 68.4132L158.43 69.5884L158.587 70.686L158.747 71.7845L158.983 72.8811L159.219 73.9787L159.535 75.0754L159.851 76.0944L160.246 77.1135L160.642 78.0549L161.115 78.9954L161.588 79.9359L162.062 80.8764L162.614 81.7375L163.168 82.5227L163.799 83.3071L164.431 84.0906L165.062 84.7964L165.774 85.5022L166.48 86.1295L167.192 86.756L167.981 87.3047L168.849 87.7741L169.638 88.2444L170.507 88.637L171.377 89.0287L172.324 89.3428L173.192 89.4999L174.139 89.7346L175.168 89.8131H176.036L179.549 84.9102C167.013 85.3514 164.34 74.5531 163.793 69.0291" fill="white"/>
<path d="M173.352 84.013L173.299 83.9891L173.115 83.9344L173.352 84.013Z" fill="white"/>
<path d="M163.717 68.0198V68.0462C163.736 68.3427 163.761 68.6638 163.794 69.0035L163.717 68.0198Z" fill="white"/>
<path fill-rule="evenodd" clip-rule="evenodd" d="M183.263 78.3098C184.876 76.7414 185.815 74.6056 185.879 72.3562C185.815 70.1067 184.876 67.9709 183.263 66.4025C181.649 64.8342 179.487 63.9568 177.237 63.9568C174.986 63.9568 172.824 64.8342 171.211 66.4025C169.597 67.9709 168.658 70.1067 168.594 72.3562C168.658 74.6056 169.597 76.7414 171.211 78.3098C172.824 79.8782 174.986 80.7556 177.237 80.7556C179.487 80.7556 181.649 79.8782 183.263 78.3098ZM179.548 73.849C179.832 73.3943 179.975 72.865 179.957 72.3288C179.945 71.627 179.655 70.9586 179.15 70.4706C178.645 69.9827 177.968 69.7152 177.266 69.727C176.729 69.7269 176.205 69.8871 175.76 70.187C175.315 70.4869 174.97 70.9128 174.769 71.4101C174.568 71.9074 174.52 72.4535 174.631 72.9783C174.743 73.5031 175.008 73.9827 175.394 74.3556C175.779 74.7284 176.268 74.9776 176.796 75.0712C177.324 75.1647 177.868 75.0984 178.359 74.8806C178.849 74.6629 179.263 74.3036 179.548 73.849Z" fill="white"/>
<path d="M180.739 106.502C180.389 106.16 180.113 105.751 179.925 105.299C179.738 104.847 179.644 104.362 179.649 103.872C179.64 103.298 179.766 102.731 180.016 102.214C180.267 101.698 180.634 101.247 181.09 100.898C182.001 100.197 183.117 99.8168 184.267 99.8168C185.416 99.8168 186.532 100.197 187.443 100.898C187.903 101.244 188.274 101.694 188.528 102.211C188.781 102.727 188.909 103.297 188.901 103.872C188.905 104.364 188.808 104.852 188.615 105.304C188.422 105.757 188.138 106.165 187.78 106.502C187.078 107.19 186.183 107.649 185.215 107.817V111.258H191.05V112.886H177.484V111.258H183.316V107.817C182.343 107.651 181.443 107.192 180.737 106.502M182.436 102.151C182.18 102.358 181.974 102.619 181.833 102.916C181.691 103.212 181.618 103.537 181.618 103.865C181.618 104.194 181.691 104.518 181.833 104.815C181.974 105.111 182.18 105.373 182.436 105.58C182.943 106.016 183.593 106.25 184.262 106.237C184.931 106.246 185.581 106.013 186.09 105.58C186.35 105.376 186.56 105.115 186.704 104.818C186.849 104.521 186.924 104.195 186.924 103.865C186.924 103.535 186.849 103.209 186.704 102.912C186.56 102.615 186.35 102.355 186.09 102.151C185.577 101.726 184.928 101.499 184.262 101.509C183.596 101.495 182.947 101.723 182.436 102.151Z" fill="white"/>
<path d="M191.446 113.28H177.084V110.87H182.919V108.13C181.988 107.914 181.135 107.446 180.453 106.777C180.069 106.399 179.764 105.947 179.558 105.449C179.351 104.951 179.247 104.416 179.252 103.877C179.244 103.245 179.383 102.62 179.659 102.051C179.934 101.483 180.339 100.986 180.84 100.602C181.822 99.8437 183.028 99.4326 184.268 99.4326C185.509 99.4326 186.715 99.8437 187.697 100.602C188.203 100.984 188.611 101.48 188.89 102.049C189.169 102.619 189.311 103.245 189.303 103.879C189.306 104.422 189.199 104.96 188.986 105.46C188.774 105.959 188.461 106.41 188.068 106.784C187.386 107.45 186.535 107.915 185.607 108.129V110.87H191.442L191.446 113.28ZM177.884 112.497H190.646V111.651H184.813V107.495L185.136 107.432C186.025 107.277 186.847 106.857 187.493 106.227C187.815 105.926 188.071 105.561 188.245 105.155C188.418 104.75 188.505 104.312 188.5 103.871C188.509 103.354 188.394 102.841 188.166 102.377C187.938 101.912 187.602 101.508 187.187 101.199C186.349 100.556 185.323 100.208 184.268 100.208C183.212 100.208 182.186 100.556 181.348 101.199C180.937 101.511 180.605 101.915 180.38 102.38C180.155 102.844 180.042 103.355 180.052 103.871C180.046 104.31 180.13 104.745 180.298 105.151C180.465 105.556 180.714 105.923 181.029 106.229C181.679 106.86 182.505 107.28 183.398 107.432L183.722 107.494V111.651H177.888L177.884 112.497ZM184.264 106.627C183.498 106.64 182.754 106.371 182.173 105.872C181.875 105.629 181.634 105.323 181.469 104.976C181.304 104.628 181.218 104.248 181.218 103.863C181.218 103.479 181.304 103.099 181.469 102.751C181.634 102.404 181.875 102.097 182.173 101.854C182.758 101.366 183.499 101.105 184.26 101.119C185.02 101.109 185.759 101.368 186.345 101.852C186.649 102.092 186.895 102.398 187.064 102.746C187.233 103.095 187.321 103.478 187.321 103.865C187.321 104.253 187.233 104.635 187.064 104.984C186.895 105.333 186.649 105.639 186.345 105.879C185.763 106.372 185.022 106.638 184.259 106.629M182.695 102.447C182.483 102.618 182.312 102.834 182.195 103.079C182.077 103.325 182.017 103.593 182.017 103.865C182.017 104.137 182.077 104.406 182.195 104.651C182.312 104.897 182.483 105.112 182.695 105.283C183.129 105.658 183.687 105.858 184.26 105.845C184.834 105.855 185.391 105.655 185.827 105.282C186.043 105.114 186.218 104.9 186.338 104.654C186.458 104.409 186.521 104.139 186.521 103.866C186.521 103.592 186.458 103.323 186.338 103.077C186.218 102.832 186.043 102.617 185.827 102.449C185.387 102.084 184.831 101.888 184.259 101.899C183.687 101.886 183.131 102.08 182.693 102.447" fill="white"/>
<path d="M198.498 100.366C198.498 103.528 198.777 105.803 199.333 107.191C199.448 107.609 199.671 107.989 199.982 108.292C200.292 108.595 200.677 108.809 201.098 108.914V110.824C200.441 110.78 199.819 110.515 199.333 110.072C198.49 109.335 197.873 108.375 197.552 107.302C197.208 108.361 196.581 109.306 195.741 110.037C195.249 110.476 194.632 110.749 193.977 110.819V108.909C194.398 108.799 194.784 108.58 195.095 108.276C195.407 107.971 195.635 107.591 195.755 107.172C196.333 105.784 196.622 103.514 196.622 100.363L198.498 100.366ZM200.39 103.466H202.186V100.366H203.982V113.609H202.186V105.156H200.39V103.466ZM205.167 100.366H206.979V113.609H205.167V100.366Z" fill="white"/>
<path d="M207.381 114.001H204.766V99.9725H207.378L207.381 114.001ZM205.569 113.218H206.58V100.758H205.569V113.218ZM204.384 114.001H201.788V105.544H199.992V103.074H201.788V99.9743H204.384V114.001ZM202.588 113.218H203.583V100.758H202.588V103.857H200.795V104.765H202.592L202.588 113.218ZM193.58 111.244V108.591L193.904 108.529C194.537 108.409 195.022 107.918 195.387 107.029C195.943 105.693 196.224 103.451 196.224 100.365V99.9743H198.9V100.365C198.785 102.622 199.058 104.883 199.708 107.048C200.061 107.93 200.54 108.417 201.169 108.527L201.498 108.585V111.228L201.083 111.214C200.338 111.167 199.63 110.869 199.075 110.369C198.42 109.816 197.897 109.122 197.544 108.34C197.179 109.11 196.652 109.793 196 110.342C195.444 110.833 194.748 111.138 194.01 111.215L193.58 111.244ZM197.567 106.103L197.934 107.177C198.233 108.18 198.807 109.079 199.591 109.771C199.91 110.051 200.289 110.257 200.697 110.372V109.215C200.286 109.051 199.917 108.797 199.617 108.472C199.316 108.146 199.093 107.757 198.962 107.334C198.297 105.208 198.005 102.983 198.101 100.758H197.024C197.122 102.982 196.819 105.206 196.13 107.324C195.994 107.747 195.767 108.136 195.464 108.462C195.162 108.788 194.792 109.045 194.38 109.213V110.36C194.787 110.23 195.163 110.02 195.486 109.742C196.271 109.053 196.855 108.165 197.176 107.172L197.567 106.103Z" fill="white"/>
<path d="M221.293 111.261H223.874V112.889H210.312V111.261H212.893V108.678H214.736V111.261H219.449V108.678H221.293L221.293 111.261ZM220.267 100.898C220.721 101.248 221.088 101.697 221.341 102.212C221.594 102.726 221.725 103.291 221.725 103.864C221.725 104.437 221.594 105.003 221.341 105.517C221.088 106.031 220.721 106.481 220.267 106.831C219.361 107.542 218.243 107.928 217.091 107.928C215.939 107.928 214.821 107.542 213.915 106.831C213.466 106.478 213.102 106.027 212.852 105.513C212.603 105 212.473 104.436 212.473 103.864C212.473 103.293 212.603 102.729 212.852 102.215C213.102 101.701 213.466 101.251 213.915 100.898C214.825 100.197 215.942 99.8168 217.091 99.8168C218.24 99.8168 219.357 100.197 220.267 100.898ZM215.267 102.151C215.011 102.358 214.805 102.619 214.664 102.916C214.522 103.212 214.449 103.537 214.449 103.865C214.449 104.194 214.522 104.518 214.664 104.815C214.805 105.111 215.011 105.373 215.267 105.58C215.774 106.016 216.424 106.25 217.093 106.237C217.762 106.246 218.411 106.013 218.92 105.58C219.18 105.376 219.39 105.115 219.535 104.819C219.679 104.522 219.754 104.196 219.754 103.865C219.754 103.535 219.679 103.209 219.535 102.912C219.39 102.615 219.18 102.355 218.92 102.151C218.407 101.726 217.759 101.499 217.093 101.509C216.427 101.495 215.778 101.723 215.267 102.151Z" fill="white"/>
<path d="M224.275 113.28H209.912V110.87H212.493V108.286H215.14V110.87H219.052V108.286H221.699V110.87H224.279L224.275 113.28ZM210.713 112.497H223.475V111.651H220.894V109.073H219.851V111.657H214.338V109.073H213.295V111.657H210.714L210.713 112.497ZM217.093 108.317C215.846 108.338 214.631 107.918 213.663 107.131C213.169 106.741 212.77 106.246 212.496 105.68C212.222 105.115 212.08 104.494 212.08 103.866C212.08 103.238 212.222 102.617 212.496 102.052C212.77 101.487 213.169 100.991 213.663 100.602C214.645 99.8437 215.851 99.4326 217.091 99.4326C218.332 99.4326 219.538 99.8437 220.52 100.602C221.019 100.988 221.423 101.483 221.701 102.049C221.979 102.616 222.124 103.239 222.124 103.87C222.124 104.501 221.979 105.123 221.701 105.69C221.423 106.256 221.019 106.752 220.52 107.138C219.551 107.921 218.338 108.34 217.091 108.323M217.091 100.214C216.032 100.189 214.997 100.54 214.172 101.205C213.768 101.522 213.441 101.926 213.216 102.388C212.992 102.85 212.875 103.357 212.875 103.87C212.875 104.384 212.992 104.89 213.216 105.352C213.441 105.814 213.768 106.218 214.172 106.535C215.005 107.187 216.033 107.541 217.09 107.541C218.148 107.541 219.176 107.187 220.009 106.535C220.417 106.221 220.748 105.818 220.976 105.356C221.203 104.894 221.322 104.386 221.322 103.871C221.322 103.356 221.203 102.848 220.976 102.386C220.748 101.924 220.417 101.521 220.009 101.207C219.182 100.544 218.148 100.193 217.089 100.215M217.089 106.633C216.323 106.646 215.579 106.377 214.998 105.879C214.7 105.636 214.46 105.329 214.294 104.982C214.129 104.634 214.043 104.254 214.043 103.87C214.043 103.485 214.129 103.105 214.294 102.757C214.46 102.41 214.7 102.104 214.998 101.861C215.583 101.373 216.324 101.111 217.085 101.125C217.845 101.115 218.584 101.375 219.17 101.858C219.474 102.098 219.72 102.404 219.889 102.753C220.059 103.101 220.146 103.484 220.146 103.871C220.146 104.259 220.059 104.641 219.889 104.99C219.72 105.339 219.474 105.645 219.17 105.885C218.588 106.378 217.847 106.644 217.083 106.635M215.517 102.455C215.305 102.626 215.134 102.842 215.017 103.087C214.9 103.332 214.839 103.601 214.839 103.873C214.839 104.145 214.9 104.413 215.017 104.658C215.134 104.904 215.305 105.12 215.517 105.29C215.951 105.666 216.509 105.866 217.083 105.853C217.656 105.863 218.214 105.663 218.649 105.29C218.865 105.122 219.04 104.908 219.16 104.662C219.28 104.417 219.343 104.147 219.343 103.874C219.343 103.6 219.28 103.331 219.16 103.085C219.04 102.84 218.865 102.625 218.649 102.457C218.21 102.091 217.653 101.896 217.081 101.907C216.509 101.893 215.953 102.088 215.515 102.455" fill="white"/>
</g>
</g>
<defs>
<clipPath id="clip0_871_1633">
<rect width="161.275" height="50" fill="white" transform="translate(63 64)"/>
</clipPath>
</defs>
</svg>
