<svg width="287" height="177" viewBox="0 0 287 177" fill="none" xmlns="http://www.w3.org/2000/svg">
<mask id="mask0_871_1523" style="mask-type:luminance" maskUnits="userSpaceOnUse" x="56" y="76" width="130" height="25">
<path d="M185.901 76.8928H56V100.033H185.901V76.8928Z" fill="white"/>
</mask>
<g mask="url(#mask0_871_1523)">
<path d="M78.1673 89.4033C77.3675 88.8768 76.4815 88.4947 75.5497 88.2743C75.4551 88.2497 75.347 88.2291 75.2477 88.2068C75.3041 88.1923 75.3687 88.1811 75.4241 88.1659C76.3201 87.9595 77.1636 87.5696 77.9014 87.0208C78.4695 86.5786 78.9035 85.9872 79.155 85.3126C79.4058 84.5915 79.5279 83.832 79.5157 83.0686V82.9747C79.5646 81.8513 79.2933 80.7372 78.7334 79.762C78.2098 78.936 77.3156 78.3245 76.0507 77.9274C74.7858 77.5304 73.0352 77.3319 70.799 77.3319H56C56.0205 77.9586 56.0309 78.5805 56.0311 79.1975V98.1815C56.0311 98.6415 56.0207 99.1119 56 99.5924H71.0811C72.4882 99.6132 73.8944 99.5084 75.2829 99.2793C76.2502 99.1311 77.1778 98.7899 78.0105 98.276C78.6844 97.8365 79.2008 97.1937 79.4847 96.4408C79.7952 95.5714 79.9441 94.6524 79.9238 93.7294V93.6037C79.9402 92.7666 79.8075 91.9332 79.532 91.1425C79.2658 90.4363 78.7894 89.8287 78.1669 89.4019M73.2139 81.2199C73.7514 81.328 74.2277 81.6363 74.5465 82.0823C74.8287 82.572 74.9647 83.1323 74.9383 83.6969V83.7908C74.9584 84.3398 74.8225 84.8832 74.5465 85.3582C74.224 85.8199 73.7446 86.1487 73.1977 86.2831C72.3334 86.5096 71.441 86.6101 70.548 86.5813H60.546V80.9693H70.5784C71.4637 80.9439 72.3486 81.028 73.2132 81.2196M75.345 93.0717C75.3786 93.6821 75.243 94.2899 74.9532 94.8282C74.6216 95.293 74.1203 95.6085 73.5578 95.7065C72.6405 95.8983 71.704 95.9825 70.7673 95.9574H60.546V90.0947H70.7369C71.6639 90.0694 72.5905 90.159 73.4956 90.3612C74.068 90.4761 74.577 90.8005 74.9228 91.2709C75.2301 91.7974 75.3771 92.4021 75.3457 93.0109L75.345 93.0717Z" fill="white"/>
<path d="M99.3791 95.5494H88.3266V79.1824C88.3266 78.5552 88.3369 77.9386 88.3577 77.3326H83.7812C83.8017 77.9393 83.8121 78.5611 83.8123 79.1979V98.2156C83.8123 98.6757 83.802 99.1356 83.7812 99.5952H103.911V95.518C103.284 95.518 102.578 95.5232 101.795 95.5336C101.011 95.5439 100.206 95.5491 99.3802 95.5491" fill="white"/>
<path d="M129.134 92.9622C128.538 91.5512 127.921 90.0987 127.284 88.6047C126.646 87.1108 126.025 85.647 125.419 84.2134C124.812 82.7818 124.258 81.47 123.757 80.2778C123.255 79.0856 122.837 78.1037 122.502 77.3319H114.975C114.662 78.1052 114.249 79.0875 113.737 80.2788C113.225 81.4701 112.661 82.782 112.044 84.2144C111.427 85.6464 110.79 87.1102 110.131 88.6057C109.473 90.1012 108.836 91.5537 108.218 92.9632C107.602 94.3743 107.037 95.6545 106.525 96.8039C106.013 97.9533 105.6 98.8837 105.287 99.5951H110.053L111.865 95.2376H125.233L127.016 99.5951H132.001C131.687 98.8842 131.28 97.9538 130.779 96.8039C130.278 95.6541 129.729 94.3739 129.132 92.9632M113.415 91.5053L114.38 89.185C114.924 87.7636 115.467 86.3684 116.011 84.9995C116.512 83.7361 116.982 82.5498 117.42 81.4405H119.775C120.209 82.5813 120.679 83.7936 121.185 85.0775C121.728 86.4568 122.261 87.8469 122.783 89.2479L123.707 91.5053H113.415Z" fill="white"/>
<path d="M185.901 77.1022H179.821L171.642 85.2805H166.179V79.0188C166.179 78.4169 166.189 77.778 166.211 77.1022H161.633C161.653 77.7573 161.664 78.3909 161.664 79.0029V98.1841C161.664 98.6381 161.654 99.108 161.633 99.5937H166.211C166.211 99.087 166.205 98.6172 166.195 98.1841C166.185 97.7511 166.179 97.2653 166.179 96.7269V91.3682H171.617V91.3857L179.821 99.59H185.901L174.657 88.3459L185.901 77.1022Z" fill="white"/>
<path d="M152.839 93.3548C152.654 93.9831 152.262 94.5303 151.726 94.9066C151.009 95.3569 150.2 95.6409 149.358 95.7379C148.003 95.926 146.635 96.0097 145.267 95.9882C143.911 96.0141 142.555 95.9039 141.221 95.6592C140.324 95.5104 139.484 95.1203 138.791 94.5306C138.176 93.9235 137.765 93.14 137.615 92.2887C137.383 91.08 137.278 89.8504 137.301 88.6199V88.3061C137.278 87.0966 137.383 85.8881 137.615 84.7009C137.774 83.8559 138.177 83.0762 138.776 82.4589C139.454 81.8481 140.292 81.4411 141.191 81.2844C142.524 81.0284 143.879 80.9129 145.236 80.9399C146.614 80.9182 147.992 81.0019 149.357 81.1902C150.198 81.2874 151.007 81.5712 151.725 82.0208C152.256 82.3918 152.644 82.9346 152.822 83.5578C152.976 84.1198 153.065 84.698 153.086 85.2805H157.484C157.493 84.0241 157.322 82.7729 156.977 81.5648C156.642 80.4598 155.961 79.4922 155.033 78.8054C153.901 78.0352 152.61 77.5315 151.256 77.3323C149.245 77.0073 147.21 76.8604 145.173 76.8931C143.137 76.8564 141.103 77.0405 139.106 77.4424C137.691 77.7088 136.368 78.335 135.265 79.2607C134.282 80.1777 133.586 81.3591 133.258 82.6626C132.825 84.3945 132.624 86.1766 132.663 87.9616V88.9648C132.624 90.7498 132.825 92.5319 133.258 94.2638C133.585 95.5674 134.282 96.7487 135.265 97.6653C136.368 98.5915 137.691 99.218 139.106 99.4843C141.103 99.8856 143.137 100.069 145.173 100.032C146.876 100.048 148.578 99.9541 150.269 99.7499C151.483 99.6143 152.671 99.3027 153.796 98.825C154.662 98.453 155.426 97.8777 156.022 97.1478C156.593 96.3979 156.989 95.5301 157.183 94.6076C157.407 93.542 157.52 92.4559 157.52 91.3669H153.125C153.116 92.0386 153.02 92.7064 152.839 93.3534" fill="white"/>
</g>
<path d="M230.999 75.6251L229.374 74H226.687L219.201 81.4865V84.1726L220.826 85.7981H223.512L230.999 78.3112V75.6251Z" fill="white"/>
<path d="M209.561 91.1271L202.074 98.6139V101.3L203.7 102.925H206.386L213.872 95.439V92.7522L212.247 91.1271H209.561Z" fill="white"/>
<path d="M229.374 102.925L230.999 101.3V98.6139L223.512 91.1271H220.827L219.201 92.7522V95.4387L226.687 102.925H229.374Z" fill="white"/>
<path d="M203.7 74L202.074 75.6251V78.3112L209.561 85.7981H212.247L213.872 84.1729V81.4865L206.386 74H203.7Z" fill="white"/>
</svg>
