<svg width="287" height="177" viewBox="0 0 287 177" fill="none" xmlns="http://www.w3.org/2000/svg">
<g clip-path="url(#clip0_871_1634)">
<path d="M79.8383 76.9063C78.8128 75.8668 77.4436 75.1213 75.7365 74.6728C74.0265 74.2243 71.9038 74 69.3716 74C66.8394 74 64.7557 74.2243 63.0456 74.6728C61.3355 75.1213 59.9603 75.8668 58.9229 76.9063C57.8855 77.9458 57.1381 79.3398 56.6807 81.0854C56.2263 82.831 55.9961 85.0009 55.9961 87.595V88.8285C55.9961 91.4226 56.2233 93.5925 56.6807 95.3381C57.1381 97.0837 57.8825 98.4777 58.9229 99.5172C59.9603 100.557 61.3355 101.302 63.0456 101.751C64.7557 102.199 66.8633 102.423 69.3716 102.423C71.8799 102.423 74.0265 102.199 75.7365 101.751C77.4466 101.302 78.8128 100.557 79.8383 99.5172C80.8637 98.4777 81.6051 97.0837 82.0595 95.3381C82.514 93.5925 82.7442 91.4226 82.7442 88.8285V87.595C82.7442 85.0009 82.517 82.834 82.0595 81.0854C81.6021 79.3398 80.8637 77.9458 79.8383 76.9063ZM76.8546 88.3648C76.8546 90.1619 76.747 91.6378 76.5317 92.7924C76.3165 93.9471 75.9308 94.8471 75.3718 95.4896C74.8157 96.1321 74.0474 96.5806 73.0728 96.8382C72.0981 97.0958 70.8634 97.2231 69.3686 97.2231C67.8738 97.2231 66.6451 97.0958 65.6824 96.8382C64.7198 96.5806 63.9604 96.1321 63.4044 95.4896C62.8483 94.8471 62.4537 93.9501 62.2264 92.7924C61.9992 91.6348 61.8856 90.1619 61.8856 88.3648V88.0557C61.8856 86.2828 61.9992 84.8281 62.2264 83.6856C62.4537 82.5431 62.8453 81.6521 63.4044 81.0097C63.9604 80.3672 64.7198 79.9126 65.6824 79.6429C66.6451 79.3732 67.8738 79.2398 69.3686 79.2398C70.8634 79.2398 72.0981 79.361 73.0728 79.6065C74.0474 79.852 74.8127 80.2944 75.3718 80.9339C75.9278 81.5764 76.3165 82.4734 76.5317 83.6311C76.747 84.7857 76.8546 86.2646 76.8546 88.0587V88.3678V88.3648Z" fill="white"/>
<path d="M106.341 84.328V82.237C106.341 81.6309 106.35 81.046 106.371 80.4792H102.066C102.087 81.2672 102.096 82.1248 102.096 83.0552V88.3587C102.096 88.7829 102.102 89.3436 102.111 90.0406C102.12 90.7376 102.132 91.5013 102.141 92.3287C102.15 93.156 102.161 94.0046 102.17 94.8743C102.179 95.7441 102.191 96.5775 102.2 97.3745C102.2 97.5443 102.203 97.7109 102.206 97.8746H101.877C101.737 97.5564 101.587 97.2139 101.423 96.8442C101.094 96.0957 100.741 95.2774 100.362 94.3895C99.9821 93.5015 99.5845 92.5802 99.1659 91.6317C98.7474 90.6831 98.3198 89.7224 97.8804 88.7526L93.8444 80.4792H86.6992C86.7201 81.146 86.7291 81.7612 86.7291 82.3279V100.057C86.7291 100.381 86.7231 100.699 86.7142 101.011C86.7052 101.323 86.6992 101.654 86.6992 101.996H90.9744C90.9744 101.187 90.9684 100.32 90.9594 99.3899C90.9504 98.4595 90.9445 97.5564 90.9445 96.6775V94.2985C90.9445 93.6318 90.9385 92.8681 90.9295 92.0105C90.9206 91.1528 90.9086 90.2528 90.8996 89.3133C90.8907 88.3738 90.8787 87.4556 90.8697 86.5555C90.8608 85.8312 90.8548 85.1614 90.8458 84.5402H91.091C91.2105 84.8038 91.3271 85.0675 91.4527 85.3433C91.8115 86.1403 92.1941 86.9858 92.6037 87.8738C93.0133 88.7617 93.4408 89.683 93.8892 90.6316C94.3377 91.5801 94.7921 92.562 95.2495 93.5712L99.3752 101.996H106.371C106.35 101.308 106.341 100.654 106.341 100.026V84.328Z" fill="white"/>
<path d="M161.672 84.3583V82.2067C161.672 81.5612 161.68 80.9853 161.701 80.4792H157.127C157.148 80.9853 157.157 81.5642 157.157 82.2218V92.7833C157.157 93.8955 157.07 94.8077 156.903 95.5259C156.733 96.2442 156.449 96.8078 156.051 97.223C155.653 97.6382 155.109 97.9261 154.422 98.0867C153.734 98.2473 152.861 98.3292 151.806 98.3292C150.75 98.3292 149.901 98.2473 149.205 98.0867C148.508 97.9261 147.958 97.6382 147.561 97.223C147.163 96.8078 146.879 96.2442 146.708 95.5259C146.538 94.8077 146.454 93.8955 146.454 92.7833V80.4792H141.91C141.931 81.0035 141.94 81.5854 141.94 82.2218V87.9344C141.94 88.3981 141.934 88.8981 141.925 89.4345C141.916 89.9709 141.91 90.5407 141.91 91.1468V93.0257C141.91 94.8046 142.075 96.2926 142.403 97.4958C142.732 98.6989 143.276 99.6565 144.033 100.375C144.789 101.093 145.803 101.611 147.067 101.936C148.332 102.26 149.913 102.42 151.806 102.42C153.322 102.42 154.637 102.32 155.752 102.117C156.867 101.914 157.809 101.593 158.577 101.148C159.346 100.702 159.958 100.117 160.416 99.3899C160.873 98.6625 161.202 97.7746 161.402 96.723C161.603 95.6714 161.701 94.441 161.701 93.0257V91.1468C161.701 90.5407 161.695 89.9709 161.686 89.4345C161.677 88.8981 161.672 88.3981 161.672 87.9344V84.3583Z" fill="white"/>
<path d="M183.032 95.6017C182.562 94.247 182.078 92.8499 181.582 91.4044C181.083 89.9588 180.595 88.5466 180.117 87.1616C179.639 85.7766 179.205 84.5038 178.816 83.3431C178.428 82.1824 178.105 81.2278 177.845 80.4792H170.73C170.469 81.2278 170.141 82.1824 169.743 83.3431C169.345 84.5038 168.9 85.7766 168.413 87.1616C167.925 88.5466 167.42 89.9588 166.903 91.4044C166.386 92.8499 165.88 94.247 165.393 95.6017C164.906 96.9563 164.46 98.1867 164.063 99.2989C163.665 100.411 163.336 101.308 163.076 101.996H167.919L169.244 97.9352H179.008L180.299 101.996H185.292C185.053 101.308 184.733 100.411 184.335 99.2989C183.938 98.1867 183.501 96.9563 183.035 95.6017H183.032ZM170.487 94.1167L171.148 92.0862C171.585 90.7134 172.006 89.3648 172.404 88.0405C172.774 86.8101 173.124 85.6645 173.45 84.6008H174.855C175.184 85.6645 175.537 86.804 175.917 88.0253C176.326 89.3375 176.73 90.671 177.127 92.0256L177.791 94.1167H170.484H170.487Z" fill="white"/>
<path d="M204.96 97.2079C204.461 96.3199 203.977 95.4744 203.51 94.6774C203.397 94.4864 203.286 94.3016 203.175 94.1137C203.713 93.9591 204.192 93.7682 204.601 93.5409C205.579 92.9954 206.27 92.2317 206.679 91.2528C207.089 90.274 207.292 89.0466 207.292 87.5707V87.4495C207.292 85.6918 207.029 84.3068 206.5 83.2977C205.971 82.2885 205.145 81.5642 204.018 81.1308C202.891 80.6974 201.411 80.4792 199.579 80.4792H187.949C187.97 81.046 187.979 81.6399 187.979 82.2673V100.754C187.979 101.178 187.97 101.593 187.949 101.996H192.523C192.523 101.593 192.517 101.178 192.508 100.754C192.499 100.329 192.493 99.8747 192.493 99.3899V94.9047H198.694L200.745 98.511C201.083 99.1171 201.411 99.7141 201.731 100.299C202.051 100.884 202.359 101.451 202.658 101.996H207.77C207.271 101.208 206.79 100.411 206.32 99.602C205.851 98.7928 205.4 97.9958 204.96 97.2079ZM192.493 84.3887H198.921C199.839 84.3887 200.571 84.4856 201.118 84.6766C201.666 84.8675 202.06 85.1978 202.299 85.6615C202.539 86.1252 202.658 86.7616 202.658 87.5707V87.6313C202.658 88.4405 202.539 89.0921 202.299 89.586C202.06 90.08 201.663 90.4437 201.104 90.677C200.544 90.9104 199.797 91.0256 198.861 91.0256H192.493V84.3887Z" fill="white"/>
<path d="M230.463 85.9191C230.104 84.5765 229.521 83.5037 228.714 82.7067C227.907 81.9097 226.839 81.3369 225.515 80.9944C224.191 80.652 222.561 80.4792 220.627 80.4792H210.881C210.902 81.046 210.911 81.6369 210.911 82.2521V100.072C210.911 100.748 210.902 101.39 210.881 101.996H220.597C222.152 101.996 223.512 101.89 224.678 101.678C225.844 101.466 226.824 101.111 227.623 100.617C228.421 100.123 229.067 99.4717 229.566 98.6625C230.065 97.8534 230.427 96.8654 230.657 95.6926C230.887 94.5198 231.001 93.1378 231.001 91.5407V90.9346C231.001 88.9345 230.822 87.2616 230.463 85.9191ZM226.367 91.3589C226.367 92.6924 226.277 93.7924 226.098 94.6622C225.919 95.532 225.614 96.2017 225.186 96.6775C224.759 97.1533 224.17 97.4897 223.422 97.6928C222.675 97.8958 221.733 97.9958 220.597 97.9958H215.425V84.4796H220.627C221.763 84.4796 222.705 84.5796 223.452 84.7826C224.2 84.9857 224.783 85.3221 225.201 85.7979C225.62 86.2737 225.919 86.9434 226.098 87.8132C226.277 88.6829 226.367 89.783 226.367 91.1165V91.3589Z" fill="white"/>
<path d="M129.809 95.6406L133.677 99.8433C133.185 100.356 132.599 100.78 131.918 101.113C130.929 101.602 129.705 101.941 128.246 102.133C126.784 102.325 125.068 102.42 123.093 102.42C120.632 102.42 118.55 102.198 116.853 101.747C115.153 101.296 113.794 100.554 112.784 99.5126C111.767 98.4743 111.034 97.0775 110.576 95.3347C110.118 93.5918 109.893 91.4194 109.893 88.8267V87.5937C109.893 85.0011 110.122 82.8318 110.576 81.0858C111.034 79.3429 111.767 77.9462 112.784 76.9079C113.794 75.8696 115.146 75.1248 116.835 74.6737C118.52 74.2225 120.593 74 123.053 74C125.514 74 127.58 74.1545 129.253 74.4635C130.926 74.7725 132.251 75.2824 133.228 76.0024C134.202 76.7225 134.907 77.7082 135.341 78.969C135.771 80.2267 135.973 81.7904 135.948 83.6661L130.319 83.7804H130.282C130.282 82.9059 130.191 82.1735 130.017 81.5864C129.836 80.9962 129.504 80.5265 129.009 80.1804C128.515 79.8343 127.803 79.5902 126.878 79.448C125.95 79.3059 124.741 79.2348 123.245 79.2348C121.75 79.2348 120.519 79.3707 119.555 79.6396C118.587 79.9084 117.836 80.3627 117.293 81.0055C116.746 81.6482 116.361 82.5382 116.132 83.6816C115.904 84.8249 115.791 86.2804 115.791 88.0511V88.3601C115.791 90.1802 115.904 91.6821 116.132 92.8656C116.361 94.0491 116.746 94.9638 117.293 95.619C117.836 96.2741 118.59 96.7252 119.555 96.9663C120.516 97.2104 121.734 97.3309 123.206 97.3309C124.424 97.3309 125.453 97.2846 126.307 97.195C127.156 97.1053 127.852 96.957 128.399 96.7531C128.942 96.5491 129.369 96.2401 129.672 95.8291C129.717 95.7673 129.763 95.7024 129.806 95.6313L129.809 95.6406Z" fill="white"/>
<path d="M139.204 87.322C139.204 87.7355 139.198 88.1737 139.185 88.64C139.17 89.1063 139.167 89.5384 139.167 89.9363V91.0398C139.167 92.8707 139.03 94.4405 138.76 95.746C138.489 97.0516 138.048 98.1365 137.442 99.0006C137.252 99.2711 137.044 99.5228 136.811 99.756L132.874 95.5284C133.11 95.1492 133.269 94.6922 133.359 94.1576C133.458 93.5266 133.514 92.7557 133.514 91.8542V91.8169H124.105V87.3251H139.207L139.204 87.322Z" fill="white"/>
</g>
<defs>
<clipPath id="clip0_871_1634">
<rect width="175" height="28.4205" fill="white" transform="translate(56 74)"/>
</clipPath>
</defs>
</svg>
