<svg width="287" height="177" viewBox="0 0 287 177" fill="none" xmlns="http://www.w3.org/2000/svg">
<g clip-path="url(#clip0_871_1632)">
<path d="M174.757 69.255V57.1475C174.757 56.5149 174.241 56 173.603 56H161.473C160.839 56 160.323 56.5149 160.323 57.1475C160.323 59.3738 160.323 64.3463 160.323 67.524C160.323 69.1128 159.031 70.4025 157.439 70.4025C155.562 70.4025 153.73 69.8189 152.207 68.7303L136.697 57.6722C135.169 56.5836 133.336 56 131.46 56H126.842C126.203 56 125.687 56.5149 125.687 57.1524V67.519C125.687 69.1128 124.395 70.4025 122.798 70.4025H112.407C111.774 70.4025 111.258 70.9174 111.258 71.55C111.258 74.2471 111.258 80.9604 111.258 83.6575C111.258 84.2901 111.774 84.805 112.407 84.805C115.11 84.805 121.835 84.805 124.537 84.805C125.171 84.805 125.687 84.2901 125.687 83.6575V73.281C125.687 71.6922 126.979 70.4025 128.571 70.4025C130.448 70.4025 132.275 70.986 133.803 72.0747L149.313 83.1279C150.841 84.2165 152.669 84.8001 154.545 84.8001H159.164C159.802 84.8001 160.323 84.2803 160.323 83.6428V73.281C160.323 71.6873 161.615 70.3976 163.212 70.3976H173.608C174.241 70.3976 174.757 69.8827 174.757 69.2501V69.255Z" fill="white"/>
<path d="M68 96.5104H71.6405L83.908 114.223V96.5104H87.858V120.725H84.1831L71.95 103.086V120.725H68V96.5104Z" fill="white"/>
<path d="M95.1184 120.206C94.0424 119.676 93.2122 118.926 92.6226 117.96C92.0331 116.989 91.7383 115.871 91.7383 114.605V109.971C91.7383 108.633 92.0331 107.451 92.6226 106.426C93.2122 105.401 94.0424 104.607 95.1184 104.038C96.1943 103.474 97.4323 103.189 98.8424 103.189H101.613C103.716 103.189 105.401 103.802 106.674 105.023C107.946 106.244 108.58 107.872 108.58 109.903V113.36H95.7227V114.605C95.7227 115.527 96.0076 116.268 96.5726 116.817C97.1376 117.371 97.8942 117.646 98.8424 117.646H101.51C102.434 117.646 103.18 117.42 103.745 116.969C104.31 116.518 104.595 115.925 104.595 115.189H108.511C108.511 116.94 107.862 118.347 106.57 119.411C105.278 120.47 103.578 121 101.476 121H98.8424C97.4323 121 96.1894 120.735 95.1184 120.206ZM104.664 110.383V109.898C104.664 108.883 104.389 108.064 103.834 107.441C103.279 106.818 102.552 106.504 101.653 106.504H98.8473C97.8991 106.504 97.1327 106.833 96.5431 107.49C95.9536 108.147 95.6588 109.005 95.6588 110.064V110.378H104.669L104.664 110.383Z" fill="white"/>
<path d="M113.553 119.22C112.477 118.033 111.941 116.484 111.941 114.566V103.464H115.926V114.635C115.926 115.513 116.137 116.214 116.564 116.744C116.992 117.273 117.552 117.538 118.245 117.538H120.323C121.202 117.538 121.993 117.185 122.696 116.484C123.398 115.782 123.88 114.865 124.135 113.733V103.459H128.12V120.721H124.376V118.367C123.87 119.151 123.202 119.784 122.381 120.269C121.561 120.755 120.78 120.995 120.043 120.995H117.753C116.019 120.995 114.619 120.402 113.543 119.215L113.553 119.22Z" fill="white"/>
<path d="M132.561 103.459H136.27V105.813C136.732 105.097 137.395 104.513 138.264 104.067C139.129 103.616 140.028 103.39 140.952 103.39H143.03V106.848H140.952C139.635 106.848 138.574 107.25 137.763 108.059C136.953 108.868 136.55 109.917 136.55 111.207V120.72H132.565V103.459H132.561Z" fill="white"/>
<path d="M146.214 119.146C144.922 117.911 144.273 116.283 144.273 114.252V109.962C144.273 108.623 144.568 107.441 145.158 106.416C145.747 105.391 146.578 104.597 147.654 104.028C148.729 103.464 149.968 103.18 151.378 103.18H154.428C155.838 103.18 157.081 103.464 158.152 104.028C159.228 104.592 160.059 105.391 160.648 106.416C161.238 107.441 161.532 108.623 161.532 109.962V114.252C161.532 116.283 160.879 117.916 159.572 119.146C158.265 120.382 156.526 120.995 154.355 120.995H151.338C149.211 120.995 147.501 120.377 146.209 119.146H146.214ZM154.325 117.572C155.298 117.572 156.074 117.244 156.664 116.587C157.253 115.929 157.548 115.071 157.548 114.012V110.172C157.548 109.113 157.258 108.255 156.683 107.593C156.104 106.936 155.332 106.607 154.36 106.607H151.446C150.474 106.607 149.702 106.936 149.122 107.593C148.543 108.25 148.258 109.108 148.258 110.172V114.012C148.258 115.071 148.548 115.929 149.122 116.587C149.702 117.244 150.449 117.572 151.378 117.572H154.325Z" fill="white"/>
<path d="M169.087 118.715L160.77 96.5055H164.96L171.755 115.67H171.789L178.618 96.5055H182.774L173.558 120.721H171.617C170.463 120.721 169.618 120.054 169.087 118.715Z" fill="white"/>
<path d="M186.052 100.816C185.581 100.345 185.34 99.7371 185.34 99.0015C185.34 98.266 185.576 97.6579 186.052 97.1871C186.524 96.7164 187.158 96.4761 187.939 96.4761C188.72 96.4761 189.359 96.7115 189.845 97.1871C190.331 97.6579 190.572 98.266 190.572 99.0015C190.572 99.7371 190.331 100.345 189.845 100.816C189.359 101.287 188.725 101.527 187.939 101.527C187.153 101.527 186.524 101.292 186.052 100.816ZM185.964 103.464H189.948V120.725H185.964V103.464Z" fill="white"/>
<path d="M195.008 103.459H198.717V105.813C199.179 105.097 199.842 104.513 200.712 104.067C201.581 103.621 202.475 103.39 203.399 103.39H205.477V106.848H203.399C202.082 106.848 201.021 107.25 200.211 108.059C199.4 108.868 198.997 109.917 198.997 111.207V120.72H195.013V103.459H195.008Z" fill="white"/>
<path d="M210.986 119.406C210.087 118.529 209.635 117.146 209.635 115.258V106.887H206.584V103.464H209.738V98.2415H213.619V103.464H218.124V106.887H213.619V115.12C213.619 115.88 213.772 116.435 214.071 116.783C214.371 117.131 214.848 117.303 215.491 117.303H218.124V120.725H215.285C213.32 120.725 211.89 120.289 210.986 119.411V119.406Z" fill="white"/>
</g>
<defs>
<clipPath id="clip0_871_1632">
<rect width="150.124" height="65" fill="white" transform="translate(68 56)"/>
</clipPath>
</defs>
</svg>
