<svg width="287" height="177" viewBox="0 0 287 177" fill="none" xmlns="http://www.w3.org/2000/svg">
<path d="M58.1613 110.608H56.0663C56.0663 110.608 56 110.582 56 110.529V94.8291C56 94.8291 56.0265 94.7363 56.0928 94.7363H58.1878C58.1878 94.7363 58.2541 94.7628 58.2541 94.8026V110.502C58.2541 110.502 58.2276 110.595 58.1613 110.595" fill="white"/>
<path d="M80.3462 110.514C80.3462 110.514 80.3197 110.607 80.2534 110.607H77.9727C77.9727 110.607 77.8931 110.607 77.8799 110.581V110.554L68.4788 98.4349V110.501C68.4788 110.501 68.4522 110.594 68.3859 110.594H66.3174C66.3174 110.594 66.2246 110.567 66.2246 110.514V94.815C66.2246 94.815 66.2511 94.7222 66.3174 94.7222H68.4125C68.492 94.7222 68.5583 94.7487 68.6114 94.815L78.1053 107.014V94.815C78.1053 94.815 78.1318 94.7222 78.1981 94.7222H80.2666C80.2666 94.7222 80.3594 94.7487 80.3594 94.815V110.501L80.3462 110.514Z" fill="white"/>
<path d="M102.42 110.514C102.42 110.514 102.394 110.607 102.328 110.607H100.047C100.047 110.607 99.9674 110.607 99.9541 110.581V110.554L90.553 98.4349V110.501C90.553 110.501 90.5265 110.594 90.4602 110.594H88.3916C88.3916 110.594 88.2988 110.567 88.2988 110.514V94.815C88.2988 94.815 88.3253 94.7222 88.3916 94.7222H90.4867C90.5662 94.7222 90.6325 94.7487 90.6856 94.815L100.18 107.014V94.815C100.18 94.815 100.206 94.7222 100.272 94.7222H102.341C102.341 94.7222 102.434 94.7487 102.434 94.815V110.501L102.42 110.514Z" fill="white"/>
<path d="M120.575 110.635H110.471C110.471 110.635 110.378 110.582 110.352 110.542V94.8429C110.352 94.8429 110.405 94.7766 110.444 94.7766H120.19C120.19 94.7766 120.283 94.8031 120.283 94.8429V96.9379C120.283 96.9379 120.257 97.0308 120.19 97.0308H112.805L112.606 97.0573V100.863H118.215C118.215 100.863 118.281 100.889 118.281 100.929V103.024C118.281 103.024 118.241 103.117 118.162 103.117H112.672C112.672 103.117 112.606 103.17 112.606 103.236V108.381H120.588C120.588 108.381 120.654 108.408 120.654 108.447V110.542C120.654 110.542 120.628 110.635 120.562 110.635" fill="white"/>
<path d="M140.002 110.607H139.936C139.936 110.607 139.909 110.581 139.883 110.581L139.856 110.607H137.31C137.165 110.408 137.005 110.196 136.82 109.944C136.634 109.692 135.958 108.791 134.804 107.226C133.638 105.661 132.815 104.534 132.312 103.845H130.15V110.501L130.084 110.594H127.936L127.883 110.448V94.7487L128.055 94.7222H130.893C131.781 94.7222 132.55 94.7619 133.2 94.8282C133.863 94.8945 134.473 95.0537 135.056 95.2658C135.64 95.4912 136.13 95.8227 136.541 96.2736C136.952 96.7244 137.271 97.3078 137.483 98.0238C137.615 98.4481 137.682 98.8725 137.682 99.3233C137.682 100.371 137.377 101.259 136.767 102.015C136.541 102.307 136.303 102.532 136.038 102.691C135.772 102.85 135.428 103.023 134.99 103.195L134.897 103.248V103.341C135.573 104.203 136.555 105.555 137.828 107.385C138.756 108.698 139.498 109.732 140.068 110.488C140.068 110.554 140.055 110.581 140.015 110.581M134.433 97.7984C134.141 97.5332 133.783 97.3343 133.359 97.215C132.935 97.0957 132.484 97.0161 132.007 96.9896C131.529 96.9631 130.946 96.9365 130.256 96.9365L130.163 97.0028V101.498C130.309 101.498 130.561 101.498 130.906 101.524H131.821C132.431 101.524 132.948 101.471 133.399 101.352C133.836 101.246 134.208 101.034 134.499 100.729C134.897 100.318 135.096 99.8139 135.096 99.2437C135.096 99.0979 135.083 98.952 135.043 98.8062C134.937 98.3951 134.725 98.0504 134.446 97.7852" fill="white"/>
<path d="M155.473 105.901C155.473 106.538 155.367 107.161 155.142 107.757C154.93 108.354 154.598 108.871 154.174 109.322C153.67 109.839 153.1 110.224 152.437 110.502C151.774 110.781 151.098 110.913 150.395 110.913C149.758 110.913 149.148 110.807 148.565 110.582C147.955 110.343 147.398 109.945 146.894 109.375C146.39 108.818 146.032 108.208 145.82 107.572L147.65 106.325C147.716 106.418 147.783 106.577 147.862 106.789C147.942 106.949 147.995 107.041 148.008 107.081C148.207 107.413 148.486 107.718 148.844 107.996C149.215 108.275 149.599 108.46 150.024 108.553C150.196 108.58 150.382 108.606 150.554 108.606C150.965 108.606 151.363 108.513 151.747 108.328C152.119 108.142 152.424 107.877 152.623 107.519C152.941 106.988 153.1 106.431 153.1 105.861C153.1 105.291 152.928 104.787 152.569 104.416C152.265 104.098 151.907 103.819 151.495 103.567C151.084 103.329 150.554 103.063 149.918 102.772C149.321 102.507 148.897 102.294 148.645 102.149C148.074 101.844 147.557 101.486 147.12 101.075C146.682 100.663 146.39 100.213 146.245 99.7088C146.139 99.311 146.072 98.9132 146.072 98.5287C146.072 97.627 146.324 96.858 146.841 96.2215C147.743 95.0812 148.883 94.511 150.262 94.511C150.62 94.511 150.978 94.564 151.35 94.6568C151.946 94.8027 152.503 95.0812 153.047 95.5055C153.59 95.9298 153.975 96.3939 154.214 96.8845C154.068 96.9773 153.776 97.1762 153.325 97.4812C152.861 97.7861 152.516 98.0115 152.318 98.1574C151.774 97.3088 151.111 96.8845 150.329 96.8845C150.169 96.8845 149.997 96.911 149.825 96.964C149.546 97.0303 149.308 97.1762 149.082 97.4149C148.857 97.6535 148.724 97.9055 148.671 98.1839V98.3298C148.658 98.4093 148.645 98.4624 148.645 98.4756C148.645 99.1386 148.963 99.6292 149.586 99.9475C149.878 100.093 150.329 100.305 150.952 100.571C152.105 101.088 153.02 101.578 153.683 102.056C154.346 102.533 154.837 103.196 155.168 104.058C155.381 104.655 155.487 105.265 155.487 105.914" fill="white"/>
<path d="M170.604 103.806C169.742 104.177 168.694 104.389 167.461 104.429H167.103C166.798 104.442 166.599 104.456 166.506 104.456C166.029 104.456 165.525 104.456 164.995 104.429L164.942 104.522V110.515L164.889 110.608H162.754C162.754 110.608 162.688 110.568 162.688 110.489V94.8291C162.688 94.8291 162.714 94.7496 162.754 94.7363H168.575C169.861 94.7363 170.948 95.2535 171.85 96.301C172.221 96.712 172.5 97.2159 172.685 97.7861C172.884 98.3695 172.977 98.9662 172.977 99.6159C172.977 100.438 172.818 101.181 172.526 101.857C172.102 102.785 171.465 103.435 170.617 103.806M170.577 99.6424C170.577 99.0457 170.431 98.5153 170.126 98.0512C169.848 97.6137 169.45 97.3352 168.92 97.1894C168.389 97.0435 167.726 96.9772 166.917 96.9772H165.949C165.419 96.9905 165.088 97.0037 164.942 97.0037V102.175H167.368C168.071 102.109 168.668 101.989 169.171 101.804C169.662 101.618 170.033 101.313 170.272 100.876C170.471 100.518 170.564 100.12 170.564 99.6557" fill="white"/>
<path d="M193.343 110.542L193.369 110.568C193.369 110.568 193.343 110.621 193.29 110.621H191.035C191.035 110.621 190.929 110.608 190.916 110.568L189.431 106.816H182.43L180.945 110.568C180.945 110.568 180.892 110.621 180.825 110.621H178.545C178.545 110.621 178.479 110.608 178.479 110.568L178.505 110.542V110.489L184.803 94.8291C184.803 94.8291 184.843 94.7496 184.923 94.7363H186.965C186.965 94.7363 187.071 94.8026 187.084 94.8291L193.356 110.489V110.542H193.343ZM185.904 98.091L183.332 104.562H188.503L185.904 98.091Z" fill="white"/>
<path d="M212.9 98.462C212.9 98.462 212.768 98.4222 212.609 98.3427L212.343 98.2233C211.654 97.7725 210.885 97.4277 210.036 97.1625C209.188 96.9106 208.339 96.778 207.49 96.778C206.217 96.778 205.13 97.083 204.215 97.6929C203.314 98.2764 202.637 99.0056 202.173 99.894C201.709 100.782 201.47 101.764 201.47 102.811C201.47 102.838 201.47 102.944 201.497 103.103V103.395C201.55 103.912 201.683 104.416 201.921 104.933C202.16 105.45 202.452 105.914 202.823 106.352C203.194 106.789 203.605 107.16 204.069 107.492C204.52 107.823 204.998 108.075 205.501 108.248C206.138 108.473 206.801 108.579 207.477 108.579C208.392 108.579 209.28 108.393 210.156 108.022C211.031 107.651 211.959 107.147 212.927 106.484C212.94 106.524 212.953 106.617 212.953 106.749V109.123C212.237 109.666 211.375 110.091 210.407 110.396C209.426 110.701 208.432 110.86 207.424 110.86C206.045 110.86 204.812 110.595 203.725 110.064C202.438 109.454 201.391 108.553 200.569 107.333C199.747 106.126 199.269 104.813 199.163 103.421C199.163 103.342 199.163 103.209 199.137 103.037V102.679C199.137 101.286 199.455 99.9869 200.078 98.7802C200.701 97.5736 201.603 96.5659 202.77 95.7305C203.406 95.2797 204.149 94.9349 204.984 94.7095C205.82 94.4708 206.681 94.3647 207.583 94.3647C208.538 94.3647 209.493 94.4973 210.407 94.7493C211.336 95.0012 212.144 95.3725 212.874 95.8498L212.993 96.0487L213.02 98.3559C213.02 98.3559 212.953 98.4487 212.927 98.4487" fill="white"/>
<path d="M230.907 110.635H220.803C220.803 110.635 220.71 110.582 220.684 110.542V94.8429C220.684 94.8429 220.737 94.7766 220.776 94.7766H230.522C230.522 94.7766 230.615 94.8031 230.615 94.8429V96.9379C230.615 96.9379 230.589 97.0308 230.522 97.0308H223.137L222.938 97.0573V100.863H228.547C228.547 100.863 228.626 100.889 228.626 100.929V103.024C228.626 103.024 228.586 103.117 228.507 103.117H223.017C223.017 103.117 222.951 103.17 222.951 103.236V108.381H230.933C230.933 108.381 231 108.408 231 108.447V110.542C231 110.542 230.973 110.635 230.907 110.635Z" fill="white"/>
<path d="M113.147 129.331C113.147 129.331 113.081 129.304 112.988 129.265L112.842 129.198C112.458 128.946 112.033 128.748 111.556 128.602C111.079 128.456 110.601 128.39 110.124 128.39C109.421 128.39 108.811 128.562 108.294 128.907C107.79 129.225 107.406 129.636 107.154 130.14C106.889 130.644 106.769 131.187 106.769 131.771C106.769 131.784 106.769 131.837 106.783 131.93V132.089C106.809 132.381 106.889 132.659 107.021 132.951C107.154 133.243 107.313 133.508 107.525 133.746C107.737 133.985 107.963 134.197 108.215 134.383C108.467 134.569 108.732 134.714 109.01 134.807C109.368 134.927 109.739 134.993 110.111 134.993C110.628 134.993 111.119 134.887 111.609 134.688C112.1 134.476 112.617 134.197 113.16 133.826C113.16 133.853 113.16 133.906 113.16 133.972V135.298C112.763 135.603 112.285 135.841 111.742 136.014C111.198 136.186 110.641 136.266 110.071 136.266C109.302 136.266 108.612 136.12 108.002 135.828C107.286 135.483 106.703 134.98 106.239 134.303C105.775 133.627 105.51 132.898 105.457 132.115C105.457 132.076 105.457 131.996 105.443 131.903V131.704C105.443 130.922 105.616 130.206 105.974 129.53C106.318 128.854 106.822 128.283 107.485 127.819C107.843 127.567 108.254 127.382 108.718 127.249C109.183 127.117 109.673 127.05 110.177 127.05C110.721 127.05 111.238 127.117 111.755 127.262C112.272 127.408 112.736 127.607 113.134 127.886L113.2 127.992V129.278C113.2 129.278 113.174 129.331 113.16 129.331" fill="white"/>
<path d="M124.685 136.106H123.532C123.532 136.106 123.479 136.106 123.479 136.067V131.89H118.824L118.771 131.943V136.067C118.771 136.067 118.758 136.12 118.718 136.12H117.565C117.565 136.12 117.512 136.106 117.512 136.067V127.289C117.512 127.289 117.525 127.236 117.565 127.236H118.732C118.732 127.236 118.771 127.249 118.771 127.289V127.342H118.785V130.497C118.785 130.497 118.785 130.537 118.811 130.564C118.824 130.59 118.851 130.604 118.891 130.617H123.452L123.479 130.577V127.275C123.479 127.275 123.505 127.236 123.532 127.236H124.712C124.712 127.236 124.738 127.249 124.738 127.275V136.067C124.738 136.067 124.725 136.106 124.685 136.106Z" fill="white"/>
<path d="M134.883 136.133H129.234C129.234 136.133 129.181 136.107 129.168 136.08V127.302C129.168 127.302 129.194 127.263 129.221 127.263H134.671C134.671 127.263 134.724 127.263 134.724 127.302V128.469C134.724 128.469 134.711 128.522 134.671 128.522H130.441V130.657H133.57C133.57 130.657 133.61 130.657 133.61 130.697V131.864C133.61 131.864 133.583 131.917 133.544 131.917H130.481C130.481 131.917 130.441 131.943 130.441 131.983V134.86H134.909C134.909 134.86 134.949 134.86 134.949 134.9V136.067C134.949 136.067 134.936 136.12 134.896 136.12" fill="white"/>
<path d="M143.965 133.494C143.965 133.852 143.899 134.197 143.779 134.528C143.66 134.86 143.474 135.152 143.236 135.403C142.957 135.695 142.639 135.907 142.268 136.066C141.897 136.212 141.525 136.292 141.127 136.292C140.769 136.292 140.425 136.226 140.106 136.106C139.762 135.974 139.457 135.748 139.165 135.43C138.887 135.112 138.688 134.78 138.568 134.422L139.589 133.719C139.589 133.719 139.669 133.852 139.709 133.971C139.748 134.064 139.788 134.117 139.788 134.131C139.894 134.316 140.053 134.489 140.252 134.648C140.464 134.794 140.677 134.9 140.915 134.953C141.008 134.966 141.114 134.979 141.207 134.979C141.446 134.979 141.658 134.926 141.87 134.82C142.082 134.714 142.241 134.568 142.361 134.369C142.533 134.077 142.626 133.759 142.626 133.441C142.626 133.123 142.533 132.844 142.334 132.632C142.162 132.447 141.963 132.301 141.737 132.168C141.512 132.035 141.22 131.89 140.849 131.731C140.518 131.585 140.279 131.465 140.133 131.386C139.815 131.213 139.523 131.014 139.284 130.789C139.032 130.564 138.873 130.312 138.794 130.033C138.727 129.808 138.701 129.596 138.701 129.37C138.701 128.866 138.847 128.442 139.125 128.084C139.629 127.448 140.266 127.129 141.035 127.129C141.234 127.129 141.432 127.156 141.645 127.209C141.976 127.289 142.294 127.448 142.586 127.686C142.891 127.925 143.103 128.177 143.236 128.455C143.156 128.508 142.984 128.628 142.745 128.787C142.48 128.959 142.294 129.079 142.175 129.158C141.87 128.681 141.499 128.442 141.061 128.442C140.968 128.442 140.876 128.455 140.783 128.482C140.637 128.522 140.491 128.601 140.372 128.734C140.252 128.866 140.173 129.012 140.146 129.158V129.238L140.133 129.317C140.133 129.689 140.305 129.954 140.663 130.139C140.823 130.219 141.074 130.338 141.432 130.484C142.082 130.776 142.586 131.054 142.957 131.306C143.329 131.571 143.607 131.943 143.779 132.433C143.899 132.765 143.952 133.11 143.952 133.468" fill="white"/>
<path d="M155.172 136.106H154.018C154.018 136.106 153.965 136.106 153.965 136.067V131.89H149.311L149.258 131.943V136.067C149.258 136.067 149.244 136.12 149.205 136.12H148.051C148.051 136.12 147.998 136.106 147.998 136.067V127.289C147.998 127.289 148.011 127.236 148.051 127.236H149.218C149.218 127.236 149.258 127.249 149.258 127.289V127.342H149.271V130.497C149.271 130.497 149.271 130.537 149.298 130.564C149.311 130.59 149.337 130.604 149.377 130.617H153.938L153.965 130.577V127.275C153.965 127.275 153.991 127.236 154.018 127.236H155.198C155.198 127.236 155.225 127.249 155.225 127.275V136.067C155.225 136.067 155.211 136.106 155.172 136.106Z" fill="white"/>
<path d="M160.871 136.119H159.704C159.704 136.119 159.664 136.106 159.664 136.079V127.302C159.664 127.302 159.677 127.249 159.717 127.249H160.884C160.884 127.249 160.924 127.262 160.924 127.288V136.066C160.924 136.066 160.91 136.119 160.871 136.119Z" fill="white"/>
<path d="M172.141 136.119H172.102C172.102 136.119 172.088 136.106 172.075 136.106H172.062L172.049 136.119H170.643C170.563 136.013 170.471 135.881 170.365 135.748C170.258 135.615 169.887 135.098 169.237 134.223C168.588 133.348 168.124 132.725 167.845 132.34H166.639V136.066L166.599 136.119H165.405L165.379 136.04V127.262H165.472L167.063 127.249C167.554 127.249 167.991 127.262 168.349 127.315C168.72 127.355 169.065 127.434 169.383 127.567C169.702 127.686 169.98 127.885 170.219 128.137C170.457 128.389 170.63 128.72 170.749 129.118C170.815 129.344 170.855 129.595 170.855 129.847C170.855 130.431 170.683 130.935 170.338 131.359C170.219 131.518 170.073 131.651 169.927 131.73C169.781 131.823 169.582 131.916 169.344 132.009L169.291 132.035V132.088C169.662 132.566 170.219 133.321 170.935 134.342C171.452 135.072 171.876 135.655 172.181 136.079C172.181 136.119 172.181 136.133 172.155 136.133M169.039 128.986C168.879 128.84 168.681 128.734 168.442 128.667C168.203 128.601 167.951 128.561 167.686 128.535C167.421 128.521 167.089 128.508 166.705 128.508L166.652 128.548V131.067C166.731 131.067 166.877 131.067 167.063 131.067H167.567C167.912 131.067 168.203 131.041 168.455 130.975C168.707 130.908 168.906 130.802 169.065 130.63C169.291 130.404 169.397 130.126 169.397 129.794C169.397 129.715 169.397 129.635 169.37 129.556C169.304 129.317 169.198 129.131 169.039 128.986Z" fill="white"/>
<path d="M181.516 136.133H175.867C175.867 136.133 175.814 136.107 175.801 136.08V127.302C175.801 127.302 175.827 127.263 175.854 127.263H181.304C181.304 127.263 181.357 127.263 181.357 127.302V128.469C181.357 128.469 181.343 128.522 181.304 128.522H177.074V130.657H180.203C180.203 130.657 180.243 130.657 180.243 130.697V131.864C180.243 131.864 180.216 131.917 180.176 131.917H177.113C177.113 131.917 177.074 131.943 177.074 131.983V134.86H181.542C181.542 134.86 181.582 134.86 181.582 134.9V136.067C181.582 136.067 181.569 136.12 181.529 136.12" fill="white"/>
<path d="M136.168 69.2413C135.893 69.3482 135.959 69.2413 135.71 69.6958C135.461 70.1503 135.277 70.8454 135.238 71.2732C135.199 71.701 134.622 73.3319 134.583 73.5457C134.543 73.7596 134.137 75.2301 134.072 75.5777C133.993 75.9252 133.39 77.5026 133.351 77.8903C133.312 78.278 133.351 78.5587 133.207 78.5587C133.063 78.5587 133.036 78.6255 132.918 79.0132C132.814 79.4009 132.486 80.4435 132.198 80.6842C131.922 80.9248 131.673 81.0317 131.162 81.0852C130.638 81.152 129.891 81.0317 129.55 80.9916C129.21 80.9515 129.105 80.4569 129.079 80.2163C129.052 79.9757 128.738 80.0291 128.358 80.0291C127.978 80.0291 127.493 80.0158 127.362 79.7618C127.231 79.5212 127.323 78.1443 128.83 78.5186C128.83 78.5186 130.022 77.1016 129.97 76.1124C129.917 75.1231 129.904 73.372 129.917 72.7704C129.917 72.1689 129.734 71.1796 129.537 70.7652C129.341 70.3375 127.952 68.5194 127.65 68.2387C127.349 67.958 126.549 67.7307 126.327 67.3698C126.091 67.0089 125.763 66.3405 125.553 65.9929C125.357 65.632 124.702 63.4798 124.571 63.052C124.44 62.6242 124.112 61.9157 124.007 61.7018C123.902 61.488 123.627 61.381 123.43 61.2741C123.221 61.1671 122.854 60.7661 122.828 60.4586C122.801 60.1378 122.801 59.8972 122.801 59.8972C122.801 59.8972 122.199 59.0015 122.068 58.4134C121.937 57.8118 121.91 57.1434 121.923 56.9028C121.923 56.6622 121.871 55.7799 121.871 55.566C121.871 55.3521 121.845 54.9645 121.845 54.9645C121.845 54.9645 121.648 54.2159 121.517 54.0153C121.386 53.8015 120.783 52.5315 121.032 52.0369C121.032 52.0369 122.29 52.8256 123.352 53.6945C123.352 53.6945 124.007 53.9485 124.204 53.9485C124.413 53.9485 126.615 54.0955 126.72 54.0554C126.825 54.0287 128.476 51.9433 129.341 52.0235C129.341 52.0235 129.485 51.9166 129.577 52.585C129.668 53.2534 129.446 54.3362 129.367 54.657C129.288 54.9645 129.013 55.566 128.935 55.9136C128.856 56.2611 128.882 57.2102 129.052 57.4241C129.223 57.638 129.459 58.0925 129.734 58.1059C130.009 58.1059 131.857 58.8144 132.368 58.8144C132.879 58.8144 133.298 58.5069 133.796 58.2797C134.281 58.0391 137.243 57.8786 137.977 57.5712C138.711 57.2637 139.667 57.2771 140.362 57.2236C141.057 57.1701 142.957 56.9563 143.297 56.8493C143.638 56.7557 145.617 56.4617 146.508 56.4082C147.412 56.3547 149.575 56.2879 150.06 56.2611C150.544 56.2344 151.606 56.3948 151.698 55.3388C151.776 54.2827 152.392 50.3659 152.549 49.5505C152.694 48.7484 153.152 46.3957 153.126 45.6203C153.1 44.845 153.165 43.2008 152.314 42.5858C151.462 41.9709 151.121 41.8907 150.571 41.8907C150.02 41.8907 149.299 41.8372 148.631 42.4522C147.963 43.0804 148.133 43.1473 147.858 43.4547C147.583 43.7622 147.229 44.0028 146.783 43.7889C146.338 43.5751 146.521 42.9735 146.665 42.5591C146.81 42.1447 147.216 40.7812 148.67 40.2732C150.125 39.7652 152.156 39.9123 153.69 41.1688C155.223 42.4254 155.393 44.7113 155.446 45.6203C155.498 46.5293 154.607 50.4595 154.515 51.4754C154.437 52.4914 154.515 55.6997 154.437 56.7156C154.358 57.7316 154.279 58.0123 154.174 58.0524C154.07 58.0925 155.367 60.7126 155.144 62.3569C154.908 64.0011 154.266 65.1507 153.611 65.9127C152.943 66.6747 153.205 67.6639 153.231 68.2253C153.257 68.7868 153.768 71.3267 154.882 72.61C154.882 72.61 154.908 73.0645 154.843 73.3853C154.764 73.7062 153.755 76.7407 153.506 77.3021C153.257 77.8635 152.615 78.8661 152.445 79.2137C152.274 79.5613 152.156 79.842 151.881 79.8687C151.606 79.8955 151.396 79.9623 151.396 79.9623C151.396 79.9623 151.291 80.096 151.108 80.3767C150.924 80.6574 151.173 80.898 150.544 80.9649C149.928 81.0184 149.195 80.8312 148.788 80.7243C148.382 80.6173 148.068 80.6842 148.081 80.1494C148.081 79.6147 148.068 79.0934 148.435 79.0266C148.815 78.9597 149.365 78.8661 149.365 78.8661C149.365 78.8661 150.387 77.2353 150.571 76.7808C150.754 76.3262 151.396 75.0697 150.82 74.2943C150.243 73.5056 147.95 70.5513 147.714 70.2305C147.478 69.9097 146.364 68.3055 146.063 68.2387C145.748 68.1585 145.591 67.9446 145.211 67.9446C144.831 67.9446 143.442 68.3323 142.865 68.4259C142.275 68.5194 142.21 68.2788 141.345 68.6397C140.48 69.014 139.812 69.3215 139.366 69.3081C138.92 69.3081 136.811 69.375 136.679 69.375C136.548 69.375 136.234 69.2279 136.234 69.2279" fill="white"/>
</svg>
