<svg xmlns="http://www.w3.org/2000/svg" width="15" height="15" viewBox="0 0 15 15"><path d="M7.5,0h0a7.5,7.5,0,0,0-6.07,11.9L.493,14.682l2.883-.922A7.5,7.5,0,1,0,7.5,0Zm4.364,10.591a2.116,2.116,0,0,1-1.472,1.058c-.392.083-.9.15-2.627-.564a9.4,9.4,0,0,1-3.734-3.3,4.283,4.283,0,0,1-.891-2.262A2.394,2.394,0,0,1,3.909,3.7a1.09,1.09,0,0,1,.767-.269c.093,0,.176,0,.251.008.22.009.331.023.476.37.181.436.622,1.512.674,1.623a.446.446,0,0,1,.032.406,1.3,1.3,0,0,1-.243.344c-.111.128-.216.225-.326.362-.1.119-.216.247-.088.467A6.657,6.657,0,0,0,6.669,8.523,5.514,5.514,0,0,0,8.428,9.608a.474.474,0,0,0,.529-.083,9.074,9.074,0,0,0,.586-.776.419.419,0,0,1,.538-.163c.2.07,1.274.6,1.494.71s.366.163.419.256A1.868,1.868,0,0,1,11.866,10.591Z" fill="#fff"/></svg>