<svg width="32" height="33" viewBox="0 0 32 33" fill="none" xmlns="http://www.w3.org/2000/svg">
<path d="M16.0012 0.226562L0.22168 16.4006L16.0012 32.5746L31.7808 16.4006L16.0012 0.226562ZM21.319 16.4006L16.0012 21.8513L10.6835 16.4006L16.0012 10.9499L21.319 16.4006ZM26.5498 13.7198L29.1653 16.4007L19.9244 25.8726L17.3089 23.1917L26.5498 13.7198ZM25.2422 12.3794L22.6267 15.0602L13.3858 5.58834L16.0013 2.90745L25.2422 12.3794ZM12.0781 6.92868L14.6936 9.60957L5.45268 19.0815L2.83724 16.4006L12.0781 6.92868ZM6.76034 20.4219L9.37583 17.741L18.6167 27.2129L16.0012 29.8938L6.76034 20.4219Z" fill="black"/>
<path fill-rule="evenodd" clip-rule="evenodd" d="M16 0L32 16.4L16 32.8L0 16.4L16 0ZM0.220468 16.4L16 0.225964L31.7795 16.4L16 32.574L0.220468 16.4ZM21.3177 16.4L16 10.9493L10.6823 16.4L16 21.8507L21.3177 16.4ZM16 21.6247L21.0973 16.4L16 11.1753L10.9027 16.4L16 21.6247ZM26.5486 13.7192L17.3077 23.1911L19.9232 25.872L29.1641 16.4001L26.5486 13.7192ZM26.5486 13.9451L17.5281 23.1911L19.9232 25.646L28.9436 16.4001L26.5486 13.9451ZM25.241 12.3788L16.0001 2.90685L13.3846 5.58774L22.6255 15.0596L25.241 12.3788ZM22.6255 14.8337L25.0205 12.3788L16.0001 3.13281L13.605 5.58774L22.6255 14.8337ZM12.0768 6.92808L2.83603 16.4L5.45144 19.0809L14.6923 9.60897L12.0768 6.92808ZM12.0768 7.15405L3.05646 16.4L5.45145 18.8549L14.4719 9.60897L12.0768 7.15405ZM6.75913 20.4213L16 29.8932L18.6155 27.2123L9.37461 17.7404L6.75913 20.4213ZM6.97956 20.4213L16 29.6672L18.395 27.2123L9.37461 17.9664L6.97956 20.4213Z" fill="black"/>
</svg>
