<svg width="32" height="22" viewBox="0 0 32 22" fill="none" xmlns="http://www.w3.org/2000/svg">
<path d="M16 0C7.05581 0 0 7.07385 0 15.8333V20.7051C0 21.3778 0.559625 21.9231 1.25 21.9231C1.94037 21.9231 2.5 21.3778 2.5 20.7051V15.8333C2.5 8.32072 8.42994 2.4359 16 2.4359C23.5701 2.4359 29.5 8.32072 29.5 15.8333V20.7051C29.5 21.3778 30.0596 21.9231 30.75 21.9231C31.4404 21.9231 32 21.3778 32 20.7051V15.8333C32 7.0828 24.9543 0 16 0Z" fill="black"/>
<path d="M16 4.87183C9.79675 4.87183 4.75 9.78917 4.75 15.8334V20.7052C4.75 21.3778 5.30963 21.9231 6 21.9231C6.69037 21.9231 7.25 21.3778 7.25 20.7052V15.8334C7.25 11.1323 11.1753 7.30772 16 7.30772C20.8247 7.30772 24.75 11.1323 24.75 15.8334V20.7052C24.75 21.3778 25.3096 21.9231 26 21.9231C26.6904 21.9231 27.25 21.3778 27.25 20.7052V15.8334C27.25 9.78917 22.2033 4.87183 16 4.87183Z" fill="black"/>
<path d="M16 9.74353C12.5537 9.74353 9.75 12.4754 9.75 15.8333V20.7051C9.75 21.3777 10.3096 21.923 11 21.923H21C21.6904 21.923 22.25 21.3777 22.25 20.7051V15.8333C22.25 12.4754 19.4463 9.74353 16 9.74353ZM19.75 19.4871H12.25V15.8333C12.25 13.8185 13.9323 12.1794 16 12.1794C18.0677 12.1794 19.75 13.8185 19.75 15.8333V19.4871Z" fill="black"/>
</svg>
