<svg width="32" height="30" viewBox="0 0 32 30" fill="none" xmlns="http://www.w3.org/2000/svg">
<path d="M15.9993 22.3336L16.6745 21.6C18.6233 19.4825 19.6534 17.1183 19.6534 14.7629C19.6534 12.4075 18.6233 10.0432 16.6745 7.92575L15.9993 7.19214L15.3241 7.92575C13.3753 10.0432 12.3452 12.4075 12.3452 14.7629C12.3452 17.1183 13.3753 19.4825 15.3241 21.6L15.9993 22.3336ZM15.9993 10.0279C17.1931 11.5657 17.797 13.1546 17.797 14.7628C17.797 16.371 17.1931 17.9599 15.9993 19.4977C14.8056 17.9599 14.2017 16.371 14.2017 14.7628C14.2017 13.1546 14.8056 11.5658 15.9993 10.0279Z" fill="black"/>
<path fill-rule="evenodd" clip-rule="evenodd" d="M16 22.5678L15.2083 21.7076L15.3248 21.6003L16 22.3339L16.6752 21.6003L16.7918 21.7076L16 22.5678ZM16.6752 7.92604C18.624 10.0435 19.6541 12.4078 19.6541 14.7632C19.6541 17.1186 18.624 19.4828 16.6752 21.6003L16.7918 21.7076C18.7612 19.5676 19.8125 17.1667 19.8125 14.7632C19.8125 12.3596 18.7612 9.95867 16.7918 7.81876L16 6.9585L15.2083 7.81876C13.2388 9.95867 12.1875 12.3596 12.1875 14.7632C12.1875 17.1667 13.2388 19.5676 15.2083 21.7076L15.3248 21.6003C13.376 19.4828 12.3459 17.1186 12.3459 14.7632C12.3459 12.4078 13.376 10.0435 15.3248 7.92604L16 7.19242L16.6752 7.92604ZM16 10.0282C15.9663 10.0715 15.9332 10.1149 15.9004 10.1584C14.7727 11.6557 14.2024 13.2002 14.2024 14.7631C14.2024 16.326 14.7727 17.8706 15.9004 19.3678C15.9332 19.4113 15.9663 19.4547 16 19.498C16.0337 19.4547 16.0669 19.4113 16.0996 19.3678C17.2273 17.8706 17.7977 16.326 17.7977 14.7631C17.7977 13.2002 17.2273 11.6556 16.0996 10.1584C16.0669 10.1149 16.0337 10.0715 16 10.0282ZM16 10.2896C14.9066 11.7538 14.3608 13.2536 14.3608 14.7631C14.3608 16.2726 14.9066 17.7725 16 19.2366C17.0934 17.7725 17.6392 16.2726 17.6392 14.7631C17.6392 13.2536 17.0934 11.7537 16 10.2896Z" fill="black"/>
<path d="M31.6788 12.9344L31.5608 12.2985L30.9404 12.1776C30.8192 12.154 28.2114 11.6642 25.0366 12.4814C24.5517 9.50633 23.1213 6.65199 20.8269 4.12063C18.6801 1.75216 16.5466 0.500334 16.4568 0.44826L15.9993 0.182495L15.5417 0.448196C15.452 0.500271 13.3185 1.75216 11.1717 4.12057C8.87725 6.65193 7.44693 9.50626 6.96197 12.4812C3.78727 11.6641 1.17941 12.1538 1.05818 12.1775L0.437763 12.2984L0.319755 12.9343C0.305956 13.0085 -0.0140323 14.7794 0.284854 17.1788C0.682194 20.3694 1.99556 23.1867 4.08306 25.3264C6.17057 27.466 8.91915 28.8123 12.0318 29.2195C12.7719 29.3164 13.4505 29.3498 14.0351 29.3498C14.9873 29.3498 15.6893 29.2611 15.9993 29.2132C16.3091 29.2611 17.0111 29.3499 17.9635 29.3498C18.548 29.3498 19.2269 29.3164 19.9669 29.2195C23.0795 28.8123 25.8281 27.466 27.9156 25.3264C30.003 23.1867 31.3165 20.3694 31.7138 17.1789C32.0126 14.7794 31.6926 13.0086 31.6788 12.9344ZM12.4941 5.45745C13.8859 3.91265 15.2964 2.87236 15.9993 2.39779C16.7027 2.87262 18.113 3.9129 19.5046 5.45738C22.067 8.30163 23.3663 11.4323 23.3663 14.7624C23.3663 18.0927 22.067 21.2233 19.5046 24.0675C18.113 25.612 16.7028 26.6522 15.9994 27.127C15.2959 26.6522 13.8857 25.612 12.4942 24.0675C9.93171 21.2233 8.63239 18.0927 8.63239 14.7624C8.63233 11.4323 9.93165 8.3017 12.4941 5.45745ZM5.39569 23.9809C3.59068 22.1307 2.4934 19.7827 2.13436 17.002C1.96815 15.7149 2.0067 14.6246 2.06295 13.9651C2.98838 13.8831 4.78387 13.8395 6.78059 14.4002C6.7775 14.5208 6.77589 14.6416 6.77589 14.7625C6.77589 18.5518 8.29588 22.2318 11.1717 25.4044C11.8992 26.207 12.6248 26.8809 13.2703 27.4238C11.1079 27.3015 7.96116 26.6104 5.39569 23.9809ZM29.8642 17.002C29.5052 19.7827 28.4079 22.1307 26.6028 23.9809C24.7978 25.8311 22.507 26.9557 19.7942 27.3237C19.4192 27.3745 19.0615 27.4066 18.7268 27.4251C19.3726 26.8819 20.0989 26.2076 20.8269 25.4044C23.7026 22.2317 25.2227 18.5518 25.2227 14.7625C25.2227 14.6416 25.2211 14.5208 25.218 14.4002C27.2152 13.8394 29.0109 13.8832 29.9356 13.9651C29.9918 14.625 30.0303 15.7152 29.8642 17.002Z" fill="black"/>
<path fill-rule="evenodd" clip-rule="evenodd" d="M31.5615 12.2992L31.6795 12.9351C31.6933 13.0093 32.0133 14.7801 31.7145 17.1796C31.3172 20.3701 30.0037 23.1874 27.9163 25.3271C25.8288 27.4667 23.0802 28.813 19.9676 29.2202C19.2276 29.3171 18.5487 29.3505 17.9642 29.3505C17.0118 29.3506 16.3098 29.2618 16 29.2139C15.69 29.2618 14.988 29.3505 14.0358 29.3505C13.4512 29.3505 12.7726 29.3171 12.0325 29.2202C8.91985 28.813 6.17127 27.4668 4.08376 25.3271C1.99626 23.1874 0.682893 20.3701 0.285553 17.1795C-0.0133331 14.7801 0.306655 13.0092 0.320454 12.935L0.438462 12.2991L1.05888 12.1782C1.17814 12.1549 3.70394 11.6806 6.80849 12.4432C6.85972 12.4558 6.91112 12.4687 6.96267 12.4819C6.97119 12.4296 6.98001 12.3774 6.98911 12.3252C7.49818 9.40672 8.91828 6.60813 11.1724 4.12127C13.3192 1.75285 15.4526 0.500971 15.5424 0.448896L16 0.183195L16.4575 0.448959C16.5473 0.501034 18.6808 1.75285 20.8276 4.12133C23.0817 6.6082 24.5018 9.40679 25.0109 12.3253C25.02 12.3775 25.0288 12.4298 25.0373 12.4821C25.0889 12.4688 25.1403 12.4559 25.1915 12.4433C28.2961 11.6807 30.8219 12.155 30.9411 12.1783L31.5615 12.2992ZM25.1649 12.2867C28.296 11.5202 30.8416 11.9975 30.9715 12.0228L31.6976 12.1643L31.8353 12.9062C31.8508 12.9897 32.1732 14.778 31.8717 17.1992C31.4704 20.4213 30.1431 23.2714 28.0297 25.4377C25.9161 27.6041 23.1341 28.9657 19.9881 29.3773C19.2405 29.4752 18.5547 29.5089 17.9642 29.5089C17.026 29.509 16.3273 29.4237 16 29.3741C15.6726 29.4237 14.9738 29.5089 14.0358 29.5089C13.4452 29.5089 12.7597 29.4752 12.0119 29.3773C8.86591 28.9657 6.08403 27.6042 3.97037 25.4377C1.85685 23.2713 0.529622 20.4212 0.128352 17.1991C-0.173241 14.7779 0.149169 12.9896 0.164708 12.906L0.30237 12.1642L1.02854 12.0227C1.02852 12.0227 1.02855 12.0227 1.02854 12.0227C1.15898 11.9972 3.7044 11.5202 6.83504 12.2866C7.35156 9.33928 8.7862 6.51797 11.055 4.01488C13.2169 1.62982 15.3655 0.368358 15.463 0.311859L16 0L16.537 0.311922C16.6344 0.36842 18.7831 1.62982 20.945 4.01494C23.2138 6.51804 24.6484 9.33935 25.1649 12.2867ZM12.4948 5.45815C9.93235 8.3024 8.63303 11.433 8.63309 14.7631C8.63309 18.0934 9.93241 21.224 12.4948 24.0682C13.8864 25.6127 15.2966 26.6529 16.0001 27.1277C16.7035 26.6529 18.1137 25.6127 19.5053 24.0682C22.0677 21.224 23.367 18.0934 23.367 14.7631C23.367 11.433 22.0677 8.30233 19.5053 5.45808C18.1137 3.9136 16.7034 2.87332 16 2.39849C15.2971 2.87306 13.8866 3.91335 12.4948 5.45815ZM16 2.59009C16.722 3.08502 18.0636 4.09462 19.3876 5.56412C21.928 8.38392 23.2086 11.478 23.2086 14.7631C23.2086 18.0484 21.928 21.1424 19.3876 23.9622C18.0636 25.4317 16.7221 26.4412 16.0001 26.9361C15.278 26.4412 13.9365 25.4317 12.6125 23.9622C10.0721 21.1424 8.7915 18.0484 8.7915 14.7631C8.79144 11.478 10.0721 8.38398 12.6125 5.56418C13.9367 4.09442 15.2784 3.08482 16 2.59009ZM2.29217 16.9824C2.6472 19.7321 3.73081 22.0474 5.50978 23.8709C7.85557 26.2753 10.6961 27.0369 12.8029 27.2309C12.2502 26.7451 11.6533 26.1715 11.055 25.5115C8.15648 22.3138 6.61817 18.597 6.61817 14.7632C6.61817 14.6823 6.61888 14.6016 6.62027 14.5209C4.78711 14.026 3.13744 14.0415 2.21086 14.1126C2.16181 14.7727 2.13852 15.7926 2.29217 16.9824ZM2.06365 13.9658C2.0074 14.6253 1.96885 15.7156 2.13506 17.0027C2.4941 19.7834 3.59137 22.1314 5.39639 23.9816C7.85875 26.5054 10.8566 27.2435 13.0056 27.4069C13.0955 27.4138 13.1841 27.4196 13.271 27.4245C13.2046 27.3687 13.1373 27.3114 13.0693 27.2528C12.4762 26.7416 11.825 26.1251 11.1724 25.4051C8.29658 22.2325 6.77659 18.5525 6.77659 14.7632C6.77659 14.6423 6.7782 14.5215 6.78129 14.4009C4.78457 13.8402 2.98908 13.8838 2.06365 13.9658ZM26.4901 23.8709C28.2692 22.0474 29.3528 19.7321 29.7077 16.9824C29.8613 15.7928 29.8381 14.773 29.7891 14.1126C28.863 14.0415 27.2133 14.026 25.3797 14.5209C25.3811 14.6016 25.3818 14.6824 25.3818 14.7632C25.3818 18.597 23.8434 22.3137 20.945 25.5115C20.3459 26.1724 19.7482 26.7466 19.1949 27.2328C19.3824 27.2158 19.5755 27.1942 19.7736 27.1674C22.4537 26.8039 24.7113 25.6943 26.4901 23.8709ZM18.9925 27.4085C18.9027 27.4153 18.8144 27.421 18.7275 27.4258C18.7938 27.37 18.861 27.3129 18.9289 27.2543C19.5225 26.7428 20.1743 26.1258 20.8276 25.4051C23.7033 22.2324 25.2234 18.5525 25.2234 14.7632C25.2234 14.6423 25.2218 14.5215 25.2187 14.4009C27.2159 13.8401 29.0116 13.8839 29.9363 13.9658C29.9925 14.6257 30.031 15.7159 29.8649 17.0027C29.5059 19.7834 28.4086 22.1314 26.6035 23.9816C24.7985 25.8318 22.5077 26.9564 19.7949 27.3244C19.5171 27.362 19.249 27.3894 18.9925 27.4085Z" fill="black"/>
</svg>
