<svg width="32" height="33" viewBox="0 0 32 33" fill="none" xmlns="http://www.w3.org/2000/svg">
<path d="M31.8411 32.633H12.2866V26.9508L13.1579 26.896C20.1864 26.4534 25.8122 20.687 26.2439 13.4829L26.2975 12.5897H31.8411V32.633ZM14.1431 30.7302H29.9846V14.4926H28.0193C27.1708 21.938 21.407 27.846 14.1431 28.7157V30.7302Z" fill="black"/>
<path fill-rule="evenodd" clip-rule="evenodd" d="M32.0002 32.792H12.1289V26.8026L13.1487 26.7384C20.0943 26.3011 25.6593 20.6014 26.0865 13.474L26.1489 12.4319H32.0002V32.792ZM29.9853 30.7308H14.1438V28.7163C21.4077 27.8466 27.1715 21.9386 28.02 14.4931H29.9853V30.7308ZM29.8269 14.6516H28.1608C27.2541 22.0536 21.53 27.9249 14.3022 28.8562V30.5724H29.8269V14.6516ZM31.8418 32.6336V12.5903H26.2982L26.2446 13.4834C25.8129 20.6876 20.1871 26.454 13.1586 26.8965L12.2873 26.9514V32.6336H31.8418Z" fill="black"/>
<path d="M12.2866 25.0217H11.3584V11.6383H24.4153V12.5897C24.4153 19.4447 18.9744 25.0217 12.2866 25.0217ZM13.2148 13.5412V23.0762C18.1398 22.6219 22.0741 18.5893 22.5173 13.5412H13.2148Z" fill="black"/>
<path fill-rule="evenodd" clip-rule="evenodd" d="M11.2007 25.1807V11.4805H24.5744V12.5903C24.5744 19.5291 19.0663 25.1807 12.2873 25.1807H11.2007ZM13.2155 23.0768C13.2685 23.0719 13.3213 23.0666 13.374 23.0609C18.1733 22.5413 21.9978 18.62 22.5029 13.7001C22.5083 13.6475 22.5134 13.5946 22.518 13.5417H13.2155V23.0768ZM13.374 13.7001V22.9015C18.0831 22.3834 21.8398 18.5349 22.3437 13.7001H13.374ZM12.2873 25.0222C18.9751 25.0222 24.416 19.4453 24.416 12.5903V11.6389H11.3591V25.0222H12.2873Z" fill="black"/>
<path d="M9.50177 24.7662L8.26588 24.3212C3.41613 22.575 0.157715 17.8605 0.157715 12.5898C0.157715 5.73476 5.59862 0.157837 12.2864 0.157837C17.4286 0.157837 22.0281 3.49771 23.7317 8.46877L24.1659 9.7355H9.50177V24.7662ZM12.2864 2.06068C6.62226 2.06068 2.01415 6.78399 2.01415 12.5898C2.01415 16.5899 4.22962 20.2116 7.64534 21.9854V7.83265H21.4529C19.7224 4.33154 16.189 2.06068 12.2864 2.06068Z" fill="black"/>
<path fill-rule="evenodd" clip-rule="evenodd" d="M9.66089 24.9922L8.21292 24.4708C3.29842 22.7013 0 17.9258 0 12.5903C0 5.65156 5.50816 0 12.2871 0C17.499 0 22.1574 3.3848 23.8823 8.418L24.3883 9.89449H9.66089V24.9922ZM8.26658 24.3218C3.41683 22.5755 0.158416 17.861 0.158416 12.5903C0.158416 5.73534 5.59932 0.158416 12.2871 0.158416C17.4293 0.158416 22.0288 3.49829 23.7324 8.46935L24.1666 9.73608H9.50247V24.7668L8.26658 24.3218ZM7.48762 7.67481H21.1951C19.4517 4.35597 16.0418 2.21968 12.2871 2.21968C6.71411 2.21968 2.17327 6.86835 2.17327 12.5903C2.17327 16.4411 4.25673 19.934 7.48762 21.7213V7.67481ZM7.64604 21.986C7.59294 21.9584 7.54014 21.9304 7.48762 21.9019C4.16198 20.0995 2.01485 16.5283 2.01485 12.5903C2.01485 6.78457 6.62296 2.06126 12.2871 2.06126C16.1305 2.06126 19.6158 4.26377 21.3736 7.67481C21.4007 7.72733 21.4273 7.78014 21.4536 7.83323H7.64604V21.986Z" fill="black"/>
</svg>
