<svg width="987" height="296" viewBox="0 0 987 296" fill="none" xmlns="http://www.w3.org/2000/svg">
<path d="M986.523 287.891H919.336L868.359 196.875L845.312 220.898V287.891H790.625V0.976562H845.312V156.055L914.648 75.9766H983.594L909.18 157.422L986.523 287.891Z" fill="black"/>
<path d="M742.383 126.367C719.987 126.367 704.948 133.659 697.266 148.242C692.969 156.445 690.82 169.076 690.82 186.133V287.891H634.766V75H687.891V112.109C696.484 97.9167 703.971 88.2161 710.352 83.0078C720.768 74.2839 734.31 69.9219 750.977 69.9219C752.018 69.9219 752.865 69.987 753.516 70.1172C754.297 70.1172 755.924 70.1823 758.398 70.3125V127.344C754.883 126.953 751.758 126.693 749.023 126.562C746.289 126.432 744.076 126.367 742.383 126.367Z" fill="black"/>
<path d="M568.359 101.953C586.328 124.479 595.312 151.107 595.312 181.836C595.312 213.086 586.328 239.844 568.359 262.109C550.391 284.245 523.112 295.312 486.523 295.312C449.935 295.312 422.656 284.245 404.688 262.109C386.719 239.844 377.734 213.086 377.734 181.836C377.734 151.107 386.719 124.479 404.688 101.953C422.656 79.4271 449.935 68.1641 486.523 68.1641C523.112 68.1641 550.391 79.4271 568.359 101.953ZM486.328 115.234C470.052 115.234 457.487 121.029 448.633 132.617C439.909 144.076 435.547 160.482 435.547 181.836C435.547 203.19 439.909 219.661 448.633 231.25C457.487 242.839 470.052 248.633 486.328 248.633C502.604 248.633 515.104 242.839 523.828 231.25C532.552 219.661 536.914 203.19 536.914 181.836C536.914 160.482 532.552 144.076 523.828 132.617C515.104 121.029 502.604 115.234 486.328 115.234Z" fill="black"/>
<path d="M304.688 0H365.82L284.766 287.891H227.344L192.578 119.531L182.422 63.8672L172.266 119.531L137.5 287.891H81.6406L0 0H63.8672L101.953 164.844L110.156 210.742L118.555 165.82L150.977 0H214.453L248.633 164.844L257.422 210.742L266.211 166.602L304.688 0Z" fill="black"/>
</svg>
