<svg width="32" height="36" viewBox="0 0 32 36" fill="none" xmlns="http://www.w3.org/2000/svg">
<path d="M21.4559 11.5841L15.9998 6.12799L10.5438 11.5841L15.9998 17.0401L21.4559 11.5841ZM15.9998 9.0688L18.5151 11.5841L15.9998 14.0993L13.4846 11.5841L15.9998 9.0688Z" fill="black"/>
<path fill-rule="evenodd" clip-rule="evenodd" d="M21.7083 11.5837L16.0012 17.2908L10.2942 11.5837L16.0012 5.87671L21.7083 11.5837ZM16.0012 6.12767L21.4573 11.5837L16.0012 17.0398L10.5452 11.5837L16.0012 6.12767ZM16.0012 9.06848L18.5165 11.5837L16.0012 14.099L13.486 11.5837L16.0012 9.06848ZM13.7369 11.5837L16.0012 13.8481L18.2655 11.5837L16.0012 9.31945L13.7369 11.5837Z" fill="black"/>
<path d="M26.751 16.6094H22.3056L27.331 11.584L15.9983 0.251289L4.66561 11.584L9.69103 16.6094H5.24558L0.239158 24.286L15.9984 35.7437L31.7576 24.286L26.751 16.6094ZM15.9983 3.19216L24.3901 11.584L15.9983 19.9758L7.60649 11.584L15.9983 3.19216ZM3.06067 23.7664L6.3721 18.6889H11.7706L15.9984 22.9167L20.2262 18.6889H25.6246L28.9361 23.7664L15.9983 33.1727L3.06067 23.7664Z" fill="black"/>
<path fill-rule="evenodd" clip-rule="evenodd" d="M26.8488 16.4316L32 24.33L16 35.9628L0 24.33L5.15108 16.4316H9.26422L4.41627 11.5837L15.9999 0L27.5836 11.5837L22.7356 16.4316H26.8488ZM22.3072 16.6091H26.7527L31.7592 24.2857L16 35.7434L0.240786 24.2857L5.24721 16.6091H9.69265L4.66724 11.5837L15.9999 0.25097L27.3326 11.5837L22.3072 16.6091ZM11.7722 18.6886H6.37373L3.0623 23.7661L15.9999 33.1724L28.9377 23.7661L25.6263 18.6886H20.2278L16 22.9163L11.7722 18.6886ZM20.3013 18.866L16 23.1673L11.6987 18.866H6.46986L3.30308 23.7218L15.9999 32.953L28.6969 23.7218L25.5301 18.866H20.3013ZM15.9999 3.19184L24.3917 11.5837L15.9999 19.9755L7.60811 11.5837L15.9999 3.19184ZM7.85908 11.5837L15.9999 19.7245L24.1408 11.5837L15.9999 3.44281L7.85908 11.5837Z" fill="black"/>
</svg>
