<svg xmlns="http://www.w3.org/2000/svg" width="1056.172" height="1056.138" viewBox="0 0 1056.172 1056.138"><g transform="translate(0 0)"><path d="M8.708,224.235c0,179.311,104.206,334.272,255.313,407.7L47.929,39.872A451.289,451.289,0,0,0,8.708,224.235Z" transform="translate(66.354 303.821)" fill="#fff"/><path d="M701.67,438.842c0-55.986-20.11-94.759-37.359-124.937-22.963-37.316-44.487-68.916-44.487-106.232,0-41.643,31.583-80.407,76.071-80.407,2.008,0,3.913.25,5.87.362A451.342,451.342,0,0,0,395.853,8.708c-158.262,0-297.5,81.2-378.5,204.189,10.628.319,20.645.543,29.153.543,47.384,0,120.731-5.749,120.731-5.749,24.42-1.44,27.3,34.428,2.9,37.316,0,0-24.541,2.888-51.849,4.319L283.259,740.013,382.4,442.686l-70.58-193.379c-24.394-1.431-47.5-4.319-47.5-4.319-24.412-1.431-21.55-38.755,2.862-37.316,0,0,74.812,5.749,119.325,5.749,47.375,0,120.731-5.749,120.731-5.749,24.437-1.44,27.308,34.428,2.9,37.316,0,0-24.593,2.888-51.849,4.319L622,736.281l45.186-150.995c19.584-62.658,34.488-107.663,34.488-146.444Z" transform="translate(132.221 66.354)" fill="#fff"/><path d="M182.335,65.857,46.416,460.813a452.993,452.993,0,0,0,127.971,18.455,452.532,452.532,0,0,0,150.435-25.679,39.79,39.79,0,0,1-3.224-6.241Z" transform="translate(353.686 501.825)" fill="#fff"/><path d="M257.45,36.046A347.6,347.6,0,0,1,260.5,82.628c0,45.97-8.585,97.646-34.445,162.261L87.681,644.965C222.359,566.429,312.945,420.52,312.945,253.4a450.555,450.555,0,0,0-55.5-217.351Z" transform="translate(668.122 274.667)" fill="#fff"/><path d="M528.073,0C236.9,0,0,236.884,0,528.056c0,291.207,236.9,528.082,528.073,528.082s528.1-236.875,528.1-528.082C1056.164,236.884,819.237,0,528.073,0Zm0,1031.933c-277.82,0-503.86-226.04-503.86-503.877,0-277.82,226.031-503.843,503.86-503.843,277.811,0,503.834,226.023,503.834,503.843,0,277.837-226.023,503.877-503.834,503.877Z" transform="translate(0 0)" fill="#fff"/></g></svg>