<?xml version="1.0" encoding="utf-8"?>
<!-- Generator: Adobe Illustrator 23.0.5, SVG Export Plug-In . SVG Version: 6.00 Build 0)  -->
<svg version="1.1" id="Layer_1" xmlns="http://www.w3.org/2000/svg" xmlns:xlink="http://www.w3.org/1999/xlink" x="0px" y="0px"
	 viewBox="0 0 1021.8 293.6" style="enable-background:new 0 0 1021.8 293.6;" xml:space="preserve">
<style type="text/css">
	.st0{fill:#FFFFFF;}
	.st1{fill:none;stroke:#E72145;stroke-width:8;stroke-linecap:round;stroke-miterlimit:10;}
	.st2{fill:#E72145;}
</style>
<g>
	<g>
		<path class="st0" d="M214.7,222l37-83.1h19l37.1,83.1h-20.2l-30.4-73.3h7.6L234.4,222H214.7z M233.2,204.2l5.1-14.6H281l5.2,14.6
			H233.2z"/>
		<path class="st0" d="M316.5,222v-83.1h36c7.4,0,13.8,1.2,19.2,3.6c5.4,2.4,9.5,5.9,12.5,10.4c2.9,4.5,4.4,9.9,4.4,16.1
			c0,6.2-1.5,11.5-4.4,16c-2.9,4.5-7.1,7.9-12.5,10.3c-5.4,2.4-11.8,3.6-19.2,3.6h-25.3l8.5-8.4V222H316.5z M335.7,192.5l-8.5-9
			h24.2c5.9,0,10.4-1.3,13.3-3.9c2.9-2.6,4.4-6.1,4.4-10.6c0-4.6-1.5-8.1-4.4-10.7c-2.9-2.5-7.4-3.8-13.3-3.8h-24.2l8.5-9.1V192.5z
			 M369.3,222l-20.8-30.1h20.5l21,30.1H369.3z"/>
		<path class="st0" d="M419.8,222v-67.4h-26.6v-15.7h72.4v15.7H439V222H419.8z"/>
		<path class="st0" d="M475.9,222v-83.1h19.2V222H475.9z"/>
		<path class="st0" d="M534.1,222h-19.2v-83.1h62.8v15.4h-43.6V222z M532.6,176.3h39.9v15.4h-39.9V176.3z"/>
		<path class="st0" d="M611.3,222V188l4.4,11.6l-36.6-60.8h20.4l28,46.6h-11.7l28.1-46.6h18.9l-36.6,60.8l4.3-11.6V222H611.3z"/>
		<path class="st0" d="M721.7,222v-67.4h-26.6v-15.7h72.4v15.7h-26.6V222H721.7z"/>
		<path class="st0" d="M796.9,206.5h45.2V222h-64.3v-83.1h62.8v15.4h-43.7V206.5z M795.5,172.4h40v15h-40V172.4z"/>
		<path class="st0" d="M897.2,223.4c-6.4,0-12.4-1.1-17.9-3.1c-5.5-2.1-10.3-5.1-14.3-9c-4-3.9-7.2-8.4-9.4-13.6
			c-2.3-5.2-3.4-11-3.4-17.2c0-6.2,1.1-12,3.4-17.2c2.3-5.2,5.4-9.8,9.5-13.6c4.1-3.9,8.8-6.9,14.3-9c5.5-2.1,11.4-3.1,17.9-3.1
			c7.2,0,13.7,1.2,19.5,3.7c5.8,2.5,10.7,6.2,14.7,11l-12.3,11.4c-2.8-3.2-6-5.7-9.5-7.3c-3.5-1.6-7.3-2.4-11.4-2.4
			c-3.9,0-7.4,0.6-10.7,1.9c-3.2,1.3-6.1,3.1-8.4,5.5c-2.4,2.4-4.2,5.2-5.5,8.4c-1.3,3.2-2,6.8-2,10.8c0,4,0.7,7.6,2,10.8
			c1.3,3.2,3.1,6.1,5.5,8.4c2.4,2.4,5.2,4.2,8.4,5.5c3.2,1.3,6.8,1.9,10.7,1.9c4.1,0,7.9-0.8,11.4-2.4c3.5-1.6,6.6-4.1,9.5-7.4
			l12.3,11.4c-4,4.8-8.8,8.5-14.7,11C911,222.1,904.5,223.4,897.2,223.4z"/>
		<path class="st0" d="M963.7,222h-19.2v-83.1h19.2V222z M1002.8,187.9h-40.6v-16.3h40.6V187.9z M1001.4,138.9h19.2V222h-19.2V138.9
			z"/>
	</g>
	<g>
		<path class="st1" d="M83.4,180.7l37.2-63.5c1.5-2.6,5.2-2.5,6.7,0l53.1,92.6c1.5,2.6-0.4,5.8-3.3,5.8H67.5c-2.2,0-4.3,1.2-5.3,3.2
			l-32.8,63.6c-1,1.9,0.4,4.2,2.6,4.2h151.6"/>
		<path class="st1" d="M201.5,250.2H9.5c-2.7,0-4.3-2.9-3-5.2l114-192.2"/>
		<line class="st1" x1="91.1" y1="4" x2="166.5" y2="129.1"/>
		<path class="st1" d="M171,248.9"/>
		<path class="st2" d="M1016.8,254.6h-814c-2.2,0-4-1.8-4-4v-1c0-2.2,1.8-4,4-4h814c2.2,0,4,1.8,4,4v1
			C1020.8,252.8,1019,254.6,1016.8,254.6z"/>
	</g>
</g>
</svg>
