<?xml version="1.0" encoding="utf-8"?>
<!-- Generator: Adobe Illustrator 23.0.5, SVG Export Plug-In . SVG Version: 6.00 Build 0)  -->
<svg version="1.1" id="Layer_1" xmlns="http://www.w3.org/2000/svg" xmlns:xlink="http://www.w3.org/1999/xlink" x="0px" y="0px"
	 viewBox="0 0 250 250" style="enable-background:new 0 0 250 250;" xml:space="preserve">
<style type="text/css">
	.st0{fill:#FFFFFF;}
	.st1{fill:none;stroke:#FFFFFF;stroke-width:3;stroke-linecap:round;stroke-miterlimit:10;}
</style>
<g transform="matrix(1,0,0,1,125,125)">
	<g transform="matrix(1,0,0,1,0,0)">
	</g>
</g>
<g transform="matrix(1,0,0,1,125,125)">
</g>
<g transform="matrix(1,0,0,1,124.99400329589844,125.68800354003906)">
</g>
<g>
	<path class="st0" d="M44.5,57.3L33.4,46.6l4.3-4.5c1.1-1.2,2.4-2,3.7-2.4s2.6-0.5,4-0.2c1.3,0.3,2.5,1,3.6,2s1.8,2.2,2.2,3.5
		s0.3,2.6,0,4c-0.4,1.3-1.1,2.6-2.3,3.8L44.5,57.3z M44.6,55.1l3.1-3.3c0.9-1,1.6-2,1.9-3.1c0.3-1.1,0.3-2.2,0-3.2
		c-0.3-1.1-0.9-2-1.8-2.9C47,41.8,46,41.2,44.9,41s-2.1-0.2-3.2,0.2c-1.1,0.4-2.1,1-3,2l-3.1,3.3L44.6,55.1z"/>
	<path class="st0" d="M57.2,44.9l-9.9-11.8l1.3-1l9.9,11.8L57.2,44.9z"/>
	<path class="st0" d="M67.7,37.2c-1,0.6-2,1.1-3,1.3s-2.1,0.2-3.1,0.1c-1-0.2-1.9-0.6-2.8-1.1c-0.9-0.6-1.6-1.3-2.2-2.3
		c-0.6-0.9-1-1.9-1.2-2.9s-0.2-2,0-3s0.6-1.9,1.2-2.8c0.6-0.9,1.4-1.6,2.4-2.3c1-0.6,2-1.1,3-1.3c1-0.2,2-0.2,3,0l-0.3,1.4
		c-0.9-0.2-1.7-0.2-2.5,0s-1.6,0.5-2.3,1c-0.8,0.5-1.4,1.1-1.9,1.8c-0.5,0.7-0.8,1.5-1,2.3s-0.2,1.6,0,2.5c0.2,0.8,0.5,1.6,1,2.4
		s1.1,1.4,1.8,1.8c0.7,0.5,1.5,0.8,2.3,0.9c0.8,0.2,1.6,0.1,2.5,0c0.8-0.2,1.7-0.5,2.4-1c0.7-0.5,1.4-1.1,1.9-1.7
		c0.5-0.7,0.9-1.4,1.1-2.3l1.5,0.5c-0.3,0.9-0.7,1.8-1.3,2.6C69.3,35.9,68.5,36.7,67.7,37.2z M69.9,33.2l-3.1-4.7l1.3-0.9l3.3,4.9
		L69.9,33.2z"/>
	<path class="st0" d="M76.1,32.1L69,18.5l1.4-0.7l7.1,13.7L76.1,32.1z"/>
	<path class="st0" d="M84.5,28.2l-5.3-12.9l-5,2.1L73.6,16l11.5-4.7l0.5,1.3l-5,2.1L86,27.6L84.5,28.2z"/>
	<path class="st0" d="M89.9,25.8l2.8-16.7l1.6-0.4l10.8,13l-1.7,0.4l-10-12.3L94,9.7l-2.5,15.6L89.9,25.8z M91.5,21.1l0.1-1.4
		l8.6-2.3l0.8,1.1L91.5,21.1z"/>
	<path class="st0" d="M107.1,21.5l-2-15.3l1.6-0.2l1.8,13.9l8.5-1.1l0.2,1.4L107.1,21.5z"/>
	<path class="st0" d="M125,19.8l1.1-15.4l1.3,0.1l6.1,12.5l-0.7-0.1l7.9-11.5l1.3,0.1L140.9,21l-1.6-0.1l1-12.9h0.4l-7.2,10.5
		l-0.8-0.1l-5.6-11.5h0.4l-1,12.9H125z"/>
	<path class="st0" d="M142.9,21.3L153.4,8l1.6,0.4l3.1,16.6l-1.7-0.4L153.6,9l0.6,0.2l-9.8,12.5L142.9,21.3z M146.5,18l0.8-1.2
		L156,19l0.2,1.4L146.5,18z"/>
	<path class="st0" d="M163.9,27.6c-1.1-0.4-2-1-2.8-1.7s-1.4-1.5-1.7-2.2l1.1-0.9c0.3,0.7,0.8,1.4,1.5,2c0.7,0.7,1.5,1.2,2.5,1.6
		c0.9,0.4,1.7,0.5,2.3,0.5c0.7,0,1.2-0.1,1.6-0.4c0.4-0.3,0.7-0.6,0.9-1.1c0.2-0.6,0.2-1.1,0.1-1.5c-0.2-0.5-0.5-0.9-0.9-1.3
		s-0.9-0.8-1.5-1.2c-0.6-0.4-1.1-0.8-1.7-1.2c-0.6-0.4-1-0.9-1.5-1.4c-0.4-0.5-0.7-1-0.8-1.6s0-1.3,0.3-2s0.7-1.3,1.3-1.7
		s1.4-0.7,2.3-0.7c0.9-0.1,2,0.2,3.2,0.6c0.8,0.3,1.6,0.8,2.3,1.3s1.3,1.1,1.7,1.7l-1,1c-0.5-0.7-1-1.2-1.6-1.7
		c-0.6-0.5-1.2-0.8-1.9-1.1c-0.9-0.3-1.6-0.5-2.3-0.5s-1.2,0.2-1.6,0.4c-0.4,0.3-0.7,0.7-0.9,1.2c-0.2,0.6-0.2,1.1-0.1,1.5
		c0.2,0.5,0.5,0.9,0.9,1.3s1,0.8,1.5,1.2c0.6,0.4,1.1,0.8,1.7,1.2c0.5,0.4,1,0.9,1.4,1.4s0.7,1,0.8,1.6s0.1,1.3-0.2,2
		s-0.7,1.3-1.3,1.7c-0.6,0.4-1.4,0.7-2.3,0.7S165.1,28.1,163.9,27.6z"/>
	<path class="st0" d="M174.4,32.4l6.7-12.3l-4.8-2.6l0.7-1.2l10.9,6l-0.7,1.2l-4.8-2.6l-6.7,12.3L174.4,32.4z"/>
	<path class="st0" d="M184.5,36.8l7.5,5.4l-0.8,1.1l-8.8-6.4l9-12.5l8.6,6.2l-0.8,1.1l-7.3-5.2L184.5,36.8z M188.5,30.9l6.6,4.8
		l-0.8,1.1l-6.6-4.8L188.5,30.9z"/>
	<path class="st0" d="M193.7,45.5l10.7-11.1l4.2,4c0.9,0.9,1.6,1.8,2,2.8s0.5,1.9,0.3,2.8c-0.2,0.9-0.7,1.8-1.4,2.6
		c-0.8,0.8-1.6,1.3-2.5,1.5s-1.8,0.2-2.8-0.2s-1.9-1-2.9-1.9l-3.5-3.4h1l-3.9,4.1L193.7,45.5z M198.7,42.6v-1.1l3.5,3.3
		c1.1,1.1,2.2,1.6,3.2,1.7c1,0.1,2-0.3,2.8-1.2c0.9-0.9,1.2-1.9,1.1-2.9c-0.1-1-0.7-2.1-1.8-3.2l-3.5-3.3l1.1-0.1L198.7,42.6z
		 M201.3,52.8l1-6.8l1.3,1.2l-1,6.8L201.3,52.8z"/>
	<path class="st0" d="M206.7,59.1l4.5-3.6l-0.6,0.9l4.3-11.8L216,46l-3.8,10.3l-0.6-0.7l10.9-1.4l1,1.3l-12.4,1.6l1-0.3l-4.5,3.6
		L206.7,59.1z"/>
	<path class="st0" d="M208.8,67.3l3.9-1.5l-0.7,0.7c-0.2-0.3-0.3-0.6-0.2-0.9s0.2-0.6,0.5-0.8c0.3-0.2,0.6-0.3,0.9-0.2
		c0.3,0.1,0.6,0.2,0.7,0.5c0.2,0.3,0.2,0.6,0.2,0.9c-0.1,0.3-0.2,0.6-0.5,0.7c-0.1,0.1-0.2,0.1-0.3,0.2S213.1,67,213,67
		s-0.3,0.1-0.5,0.1l-3,0.9L208.8,67.3z"/>
	<path class="st0" d="M216.4,72.7l16.9-0.3l0.7,1.4l-10.8,13l-0.7-1.5l10.2-12.1l0.3,0.6l-15.8,0.4L216.4,72.7z M221.3,73.4l1.4-0.1
		l3.9,8.1l-1,1L221.3,73.4z"/>
	<path class="st0" d="M223.7,88.7l14.7-4.6l1.7,5.5c0.4,1.2,0.5,2.4,0.4,3.4s-0.5,1.9-1.1,2.6s-1.4,1.2-2.5,1.6
		c-1,0.3-2,0.4-2.9,0.1s-1.7-0.8-2.4-1.5s-1.2-1.8-1.6-3l-1.4-4.6l0.9,0.5l-5.4,1.7L223.7,88.7z M226.9,98.8l4.2-5.4l0.5,1.7
		l-4.2,5.5L226.9,98.8z M229.5,88.7l0.5-0.9l1.4,4.6c0.5,1.5,1.1,2.5,2,3.1s1.9,0.7,3.1,0.3c1.2-0.4,2-1,2.4-2s0.4-2.2-0.1-3.7
		l-1.4-4.6l1,0.5L229.5,88.7z"/>
	<path class="st0" d="M228.4,106.3l13.8-2.4l-0.9-5.3l1.4-0.2l2.1,12.3l-1.4,0.2l-0.9-5.3l-13.8,2.4L228.4,106.3z"/>
	<path class="st0" d="M229.6,115.5l15.3-1.3l0.1,1.6l-15.3,1.3L229.6,115.5z"/>
	<path class="st0" d="M229.9,126c0-1.1,0.2-2.2,0.6-3.3c0.4-1,0.9-1.8,1.5-2.4l1.2,0.7c-0.5,0.5-1,1.3-1.4,2.2
		c-0.4,0.9-0.6,1.9-0.6,2.9s0.1,1.8,0.3,2.4c0.2,0.6,0.6,1.1,1,1.4c0.4,0.3,0.9,0.4,1.4,0.5c0.6,0,1.1-0.2,1.5-0.5s0.7-0.8,0.9-1.3
		c0.2-0.6,0.4-1.2,0.6-1.8c0.2-0.7,0.4-1.3,0.5-2c0.2-0.7,0.5-1.3,0.8-1.8c0.3-0.6,0.7-1,1.2-1.3s1.2-0.5,2-0.5s1.5,0.2,2.1,0.6
		s1.1,1,1.5,1.9s0.6,1.9,0.5,3.2c0,0.9-0.1,1.7-0.4,2.6s-0.6,1.6-1,2.2l-1.3-0.6c0.5-0.7,0.8-1.3,1-2.1c0.2-0.7,0.3-1.5,0.3-2.1
		c0-0.9-0.1-1.7-0.3-2.3c-0.2-0.6-0.6-1.1-1-1.3c-0.4-0.3-0.9-0.4-1.4-0.5c-0.6,0-1.1,0.2-1.5,0.5s-0.7,0.8-0.9,1.4
		s-0.4,1.2-0.6,1.8c-0.2,0.7-0.4,1.3-0.6,2c-0.2,0.7-0.5,1.3-0.8,1.8s-0.7,1-1.2,1.3s-1.2,0.5-2,0.5c-0.7,0-1.4-0.2-2.1-0.6
		c-0.6-0.4-1.1-1.1-1.5-1.9C230.1,128.4,229.9,127.3,229.9,126z"/>
	<path class="st0" d="M229.3,137.6l13.9,1.8l0.7-5.4l1.4,0.2l-1.6,12.4l-1.4-0.2l0.7-5.4l-13.9-1.8L229.3,137.6z"/>
	<path class="st0" d="M227.8,146.8l15,3.3l-0.3,1.6l-15-3.3L227.8,146.8z"/>
	<path class="st0" d="M224.3,159.2c0.4-1.1,0.9-2.1,1.6-2.9c0.7-0.8,1.5-1.4,2.4-1.9s1.9-0.7,2.9-0.8s2.1,0,3.2,0.4
		c1.1,0.4,2,0.9,2.8,1.6c0.8,0.7,1.4,1.5,1.8,2.4c0.4,0.9,0.7,1.9,0.8,2.9s-0.1,2.1-0.5,3.2c-0.3,1.1-0.9,2-1.5,2.8
		c-0.7,0.8-1.5,1.4-2.4,1.8l-0.7-1.3c0.8-0.4,1.5-0.9,2-1.5s0.9-1.4,1.2-2.2c0.3-0.9,0.4-1.7,0.4-2.6c-0.1-0.9-0.3-1.6-0.6-2.4
		c-0.4-0.7-0.9-1.4-1.5-1.9c-0.6-0.6-1.4-1-2.3-1.3s-1.7-0.4-2.6-0.3c-0.8,0.1-1.6,0.3-2.4,0.7c-0.7,0.4-1.4,0.9-1.9,1.5
		c-0.5,0.7-1,1.4-1.3,2.3c-0.3,0.8-0.4,1.7-0.4,2.5s0.3,1.6,0.7,2.4l-1.3,0.7c-0.5-0.9-0.8-1.8-0.8-2.9S223.9,160.3,224.3,159.2z"/>
	<path class="st0" d="M218.2,173.8l0.8-1.4l13.4,7.5l-5.1,9.2l-1.2-0.7l4.4-7.8L218.2,173.8z M225.2,177.5l-4,7.1l-1.2-0.7l4-7.1
		L225.2,177.5z"/>
	<path class="st0" d="M212.2,184l12.4,9.1l-1,1.3l-11.3-8.3l-5.1,7l-1.1-0.8L212.2,184z"/>
	<path class="st0" d="M206.3,192.1l6.3,15.7l-1.1,1.2l-16-5.6l1.2-1.2l14.9,5.3l-0.5,0.5l-6-14.7L206.3,192.1z M207.4,197l0.6,1.3
		l-6.2,6.5l-1.3-0.6L207.4,197z"/>
	<path class="st0" d="M193.7,204.7l10,11.7l-1.2,1.1l-10-11.7L193.7,204.7z"/>
	<path class="st0" d="M180.2,214.7l6.4,2.4l-1.5,1l-6.4-2.4L180.2,214.7z M188.9,208.7l8.7,12.7l-4.8,3.3c-1.1,0.7-2.1,1.2-3.1,1.4
		s-1.9,0.1-2.8-0.3c-0.9-0.4-1.6-1-2.2-1.9c-0.6-0.9-0.9-1.8-1-2.7c0-0.9,0.2-1.8,0.8-2.7s1.3-1.7,2.4-2.4l4-2.8l-0.2,1l-3.2-4.6
		L188.9,208.7z M190.7,214.2l1,0.2l-4,2.7c-1.3,0.9-2,1.8-2.3,2.8s-0.1,2,0.6,3c0.7,1,1.6,1.6,2.6,1.7c1,0.1,2.2-0.3,3.5-1.2l4-2.7
		l-0.2,1L190.7,214.2z"/>
	<path class="st0" d="M175.4,213.7l1.1,4l-0.6-0.7c0.3-0.2,0.6-0.2,0.9-0.1c0.3,0.1,0.5,0.3,0.7,0.6s0.2,0.6,0.1,0.9
		s-0.3,0.5-0.6,0.7s-0.6,0.2-0.9,0.1c-0.3-0.1-0.5-0.3-0.7-0.6c-0.1-0.1-0.1-0.2-0.2-0.3c0-0.1-0.1-0.2-0.1-0.4s-0.1-0.3-0.1-0.5
		l-0.7-3.1L175.4,213.7z"/>
	<path class="st0" d="M167,221.6l5.4,14.4l-6.2,2.3c-1.6,0.6-3,0.7-4.1,0.4s-1.9-1.1-2.3-2.2c-0.3-0.8-0.4-1.5-0.2-2.2
		s0.5-1.3,1-1.8s1.2-0.9,1.9-1.2l-0.2,0.6c-0.9,0.3-1.8,0.5-2.5,0.5s-1.4-0.3-2-0.7s-1-1-1.3-1.9c-0.5-1.2-0.4-2.3,0.3-3.3
		s1.9-1.9,3.7-2.5L167,221.6z M166,223.5l-5.1,1.9c-1.3,0.5-2.2,1-2.7,1.7s-0.6,1.5-0.2,2.4c0.3,0.9,0.9,1.5,1.8,1.7
		c0.8,0.2,1.9,0,3.1-0.4l5.3-2l0.5,1.3l-4.8,1.8c-1.2,0.4-2,1-2.4,1.7c-0.5,0.7-0.6,1.4-0.2,2.3c0.3,0.9,0.9,1.4,1.7,1.6
		c0.8,0.2,1.8,0.1,2.9-0.4l4.6-1.7L166,223.5z"/>
	<path class="st0" d="M145.8,228c1.9-0.4,3.6-0.1,4.9,0.7c1.3,0.9,2.2,2.4,2.7,4.6l1.7,8.6l-1.6,0.3l-1.7-8.6c-0.4-1.8-1-3-2-3.7
		s-2.2-0.9-3.7-0.6c-1.5,0.3-2.5,1-3.2,2c-0.6,1-0.8,2.4-0.4,4.2l1.7,8.6l-1.6,0.3l-1.7-8.6c-0.4-2.2-0.2-3.9,0.7-5.3
		C142.5,229.3,143.9,228.4,145.8,228z"/>
	<path class="st0" d="M131.1,229.9c1.1-0.1,2.2,0.1,3.3,0.4c1.1,0.3,1.9,0.7,2.5,1.3l-0.6,1.3c-0.6-0.5-1.3-0.9-2.3-1.2
		s-1.9-0.4-2.9-0.4c-1,0.1-1.7,0.2-2.3,0.5s-1,0.6-1.3,1.1c-0.3,0.4-0.4,0.9-0.4,1.4c0,0.6,0.2,1.1,0.6,1.4c0.4,0.3,0.8,0.6,1.4,0.8
		s1.2,0.3,1.9,0.5c0.7,0.1,1.4,0.3,2,0.4c0.7,0.1,1.3,0.4,1.9,0.6s1.1,0.7,1.4,1.1c0.4,0.5,0.6,1.1,0.6,2c0,0.8-0.1,1.5-0.5,2.1
		s-1,1.2-1.8,1.6c-0.8,0.4-1.9,0.7-3.2,0.8c-0.9,0-1.7,0-2.6-0.2s-1.6-0.5-2.3-0.9l0.5-1.3c0.7,0.4,1.4,0.7,2.2,0.8s1.5,0.2,2.2,0.2
		c0.9-0.1,1.7-0.2,2.3-0.5s1-0.6,1.3-1.1s0.4-0.9,0.3-1.4c0-0.6-0.2-1.1-0.6-1.4c-0.4-0.3-0.8-0.6-1.4-0.8s-1.2-0.3-1.9-0.4
		c-0.7-0.1-1.4-0.3-2-0.4c-0.7-0.2-1.3-0.4-1.9-0.6c-0.6-0.3-1.1-0.6-1.4-1.1c-0.4-0.5-0.6-1.1-0.6-1.9c0-0.7,0.1-1.5,0.5-2.1
		c0.4-0.7,1-1.2,1.8-1.6C128.7,230.2,129.8,230,131.1,229.9z"/>
	<path class="st0" d="M122.1,230.2l-0.5,15.4l-1.6-0.1l0.5-15.4L122.1,230.2z"/>
	<path class="st0" d="M115.9,230l-2.2,15.2l-1.3-0.2l-8.6-14.8l0.7,0.1l-2,13.2l-1.6-0.2l2.2-15.2l1.3,0.2l8.5,14.8l-0.7-0.1l2-13.2
		L115.9,230z"/>
	<path class="st0" d="M96.9,227.9l-8.9-2.7l0.4-1.3l10.4,3.2l-4.5,14.7l-10.1-3.1l0.4-1.3l8.5,2.6L96.9,227.9z M95,234.8l-7.8-2.4
		l0.4-1.3l7.8,2.4L95,234.8z"/>
	<path class="st0" d="M81.5,220.7c1,0.5,2,1.1,2.8,1.9c0.8,0.8,1.3,1.5,1.6,2.3l-1.1,0.9c-0.3-0.7-0.8-1.4-1.4-2.1s-1.5-1.3-2.4-1.7
		s-1.6-0.6-2.3-0.7s-1.2,0.1-1.6,0.3c-0.4,0.3-0.7,0.6-1,1.1c-0.2,0.5-0.3,1.1-0.1,1.5c0.2,0.5,0.5,0.9,0.9,1.4
		c0.4,0.4,0.9,0.8,1.4,1.3s1.1,0.9,1.6,1.3c0.5,0.4,1,0.9,1.4,1.4s0.6,1.1,0.7,1.7s0,1.3-0.4,2c-0.3,0.7-0.8,1.2-1.4,1.7
		s-1.4,0.6-2.3,0.6s-2-0.3-3.2-0.8c-0.8-0.4-1.5-0.8-2.2-1.4c-0.7-0.6-1.2-1.2-1.6-1.8l1-1c0.4,0.7,0.9,1.3,1.5,1.8s1.2,0.9,1.8,1.2
		c0.8,0.4,1.6,0.6,2.2,0.6c0.7,0,1.2-0.1,1.6-0.4s0.8-0.6,1-1.1s0.3-1.1,0.1-1.5s-0.5-0.9-0.9-1.3c-0.4-0.4-0.9-0.8-1.5-1.3
		c-0.5-0.4-1.1-0.9-1.6-1.3s-1-0.9-1.4-1.4s-0.6-1.1-0.7-1.7c-0.1-0.6,0-1.3,0.3-2s0.8-1.2,1.4-1.6s1.4-0.6,2.4-0.6
		C79.3,219.9,80.3,220.1,81.5,220.7z"/>
	<path class="st0" d="M70.1,214.6c1,0.6,1.8,1.3,2.5,2.2s1.1,1.7,1.3,2.5l-1.2,0.7c-0.2-0.7-0.6-1.5-1.2-2.3s-1.3-1.4-2.2-2
		c-0.8-0.5-1.6-0.8-2.2-0.9s-1.2-0.1-1.7,0.1c-0.5,0.2-0.8,0.5-1.1,0.9c-0.3,0.5-0.4,1-0.3,1.5s0.3,1,0.7,1.5c0.4,0.5,0.8,1,1.3,1.4
		c0.5,0.5,1,1,1.5,1.5s0.9,1,1.2,1.6c0.3,0.6,0.5,1.1,0.5,1.8c0,0.6-0.2,1.3-0.6,2c-0.4,0.6-0.9,1.1-1.6,1.5
		c-0.7,0.3-1.5,0.4-2.4,0.3c-0.9-0.1-1.9-0.5-3-1.2c-0.7-0.5-1.4-1-2-1.7s-1-1.3-1.3-2l1.1-0.8c0.3,0.7,0.8,1.4,1.3,1.9
		s1.1,1,1.7,1.4c0.8,0.5,1.5,0.8,2.1,0.9c0.6,0.1,1.2,0.1,1.7-0.2s0.8-0.5,1.1-1c0.3-0.5,0.4-1,0.3-1.5s-0.3-1-0.7-1.4
		s-0.8-1-1.3-1.4s-1-1-1.4-1.5c-0.5-0.5-0.9-1-1.2-1.6s-0.5-1.1-0.5-1.7c0-0.6,0.2-1.3,0.6-1.9c0.4-0.6,0.9-1.1,1.6-1.4
		c0.7-0.3,1.5-0.4,2.4-0.3C67.9,213.5,68.9,213.9,70.1,214.6z"/>
	<path class="st0" d="M55.2,203.5c0.9,0.8,1.5,1.6,2.1,2.6s0.8,1.9,0.9,2.7l-1.3,0.5c-0.1-0.8-0.3-1.6-0.7-2.5s-1-1.7-1.8-2.3
		c-0.7-0.6-1.4-1.1-2-1.3s-1.2-0.3-1.7-0.2s-0.9,0.4-1.2,0.7c-0.4,0.4-0.6,0.9-0.6,1.4s0.2,1,0.4,1.5c0.3,0.5,0.6,1.1,1,1.6
		c0.4,0.6,0.8,1.1,1.2,1.7c0.4,0.6,0.7,1.2,0.9,1.8s0.3,1.2,0.2,1.8s-0.4,1.2-0.9,1.8s-1.1,1-1.9,1.2c-0.7,0.2-1.5,0.2-2.4-0.1
		s-1.8-0.8-2.8-1.7c-0.6-0.6-1.2-1.2-1.7-2c-0.5-0.7-0.8-1.5-1-2.2l1.3-0.6c0.2,0.8,0.5,1.5,0.9,2.1s0.9,1.2,1.4,1.7
		c0.7,0.6,1.3,1,2,1.2c0.6,0.2,1.2,0.3,1.7,0.1s0.9-0.4,1.3-0.8c0.4-0.4,0.6-0.9,0.6-1.4s-0.2-1-0.4-1.5c-0.3-0.5-0.6-1.1-1-1.6
		c-0.4-0.6-0.8-1.1-1.1-1.7c-0.4-0.6-0.7-1.2-0.9-1.8s-0.3-1.2-0.2-1.8s0.4-1.2,0.9-1.8s1.1-0.9,1.8-1.1c0.7-0.2,1.5-0.2,2.4,0.1
		C53.2,202,54.2,202.6,55.2,203.5z"/>
	<path class="st0" d="M44.8,192.8c1.3,1.5,1.8,3,1.7,4.6s-1,3.1-2.7,4.5l-6.7,5.7l-1-1.2l6.7-5.6c1.4-1.2,2.2-2.4,2.3-3.5
		c0.1-1.2-0.3-2.4-1.2-3.5c-1-1.2-2.1-1.8-3.2-1.8c-1.2-0.1-2.5,0.5-3.9,1.7l-6.7,5.6l-1-1.2l6.7-5.7c1.7-1.4,3.3-2.1,4.9-1.9
		C42.1,190.5,43.5,191.3,44.8,192.8z"/>
	<path class="st0" d="M34.7,178.7c0.6,1,1,2,1.2,3s0.2,2.1-0.1,3s-0.6,1.9-1.2,2.7c-0.6,0.8-1.4,1.6-2.4,2.1s-2,1-3,1.1
		c-1,0.2-2,0.1-3-0.1c-1-0.3-1.9-0.7-2.7-1.3c-0.8-0.6-1.6-1.4-2.2-2.4s-1-1.9-1.2-3c-0.2-1-0.1-2,0.1-3l1.4,0.3
		c-0.2,0.9-0.3,1.7-0.1,2.5c0.2,0.8,0.5,1.6,0.9,2.3c0.5,0.8,1.1,1.4,1.7,1.9c0.7,0.5,1.4,0.9,2.2,1.1c0.8,0.2,1.6,0.2,2.4,0.1
		s1.6-0.4,2.4-0.9s1.4-1.1,1.9-1.7c0.5-0.7,0.8-1.4,1-2.2s0.2-1.6,0.1-2.5c-0.1-0.8-0.5-1.7-0.9-2.4c-0.5-0.8-1-1.4-1.7-1.9
		c-0.6-0.5-1.4-0.8-2.3-1l0.3-1.4c1,0.2,1.9,0.6,2.7,1.2C33.4,176.9,34.1,177.7,34.7,178.7z"/>
	<path class="st0" d="M28,165.4c0.5,1.1,0.7,2.1,0.7,3.2c0,1.1-0.1,2.1-0.5,3s-0.9,1.8-1.6,2.5s-1.6,1.3-2.6,1.8
		c-1,0.4-2.1,0.7-3.1,0.7s-2-0.2-3-0.6c-0.9-0.4-1.8-1-2.5-1.7c-0.7-0.7-1.3-1.7-1.8-2.7c-0.4-1-0.7-2.1-0.7-3.1s0.1-2,0.6-2.9
		l1.4,0.5c-0.3,0.8-0.5,1.7-0.5,2.5s0.2,1.6,0.6,2.4c0.4,0.8,0.8,1.6,1.5,2.2c0.6,0.6,1.3,1.1,2,1.4c0.8,0.3,1.6,0.5,2.4,0.5
		s1.7-0.2,2.5-0.5c0.8-0.4,1.6-0.9,2.1-1.5s1-1.3,1.3-2.1s0.4-1.6,0.4-2.4c0-0.9-0.2-1.7-0.6-2.6c-0.3-0.8-0.8-1.5-1.4-2.1
		s-1.3-1-2.1-1.4l0.5-1.4c1,0.3,1.8,0.9,2.5,1.6C27,163.4,27.6,164.3,28,165.4z"/>
	<path class="st0" d="M23.1,156.2l-2.4-8.9l1.4-0.4l2.8,10.5l-14.9,4l-2.8-10.2l1.4-0.4l2.3,8.6L23.1,156.2z M16.2,158.2l-2.1-7.9
		l1.3-0.4l2.1,7.9L16.2,158.2z"/>
	<path class="st0" d="M21,139.3c0.2,1.1,0.1,2.2-0.1,3.3s-0.6,2-1.1,2.6l-1.3-0.5c0.5-0.6,0.8-1.4,1-2.3c0.2-1,0.3-1.9,0.1-2.9
		c-0.1-1-0.4-1.7-0.7-2.3c-0.3-0.6-0.7-1-1.1-1.2s-0.9-0.3-1.4-0.2c-0.6,0.1-1.1,0.3-1.4,0.7c-0.3,0.4-0.5,0.9-0.7,1.5
		c-0.1,0.6-0.2,1.2-0.3,1.9s-0.1,1.4-0.2,2.1s-0.3,1.3-0.5,1.9c-0.2,0.6-0.6,1.1-1,1.5c-0.5,0.4-1.1,0.7-1.9,0.8
		c-0.8,0.1-1.5,0-2.2-0.3s-1.3-0.9-1.8-1.6c-0.5-0.8-0.8-1.8-1-3.1c-0.1-0.9-0.1-1.7,0-2.6c0.1-0.9,0.4-1.6,0.7-2.3l1.4,0.4
		c-0.3,0.7-0.6,1.5-0.7,2.2c-0.1,0.8-0.1,1.5,0,2.2c0.1,0.9,0.3,1.7,0.7,2.2s0.7,1,1.2,1.2s0.9,0.3,1.5,0.2s1.1-0.3,1.4-0.7
		c0.3-0.4,0.5-0.9,0.7-1.5c0.1-0.6,0.2-1.2,0.3-1.9s0.2-1.4,0.3-2.1c0.1-0.7,0.3-1.3,0.5-1.9c0.2-0.6,0.6-1.1,1-1.5s1.1-0.7,1.9-0.8
		c0.7-0.1,1.5,0,2.1,0.3c0.7,0.3,1.3,0.9,1.8,1.7C20.5,137,20.8,138,21,139.3z"/>
	<path class="st0" d="M20.1,126.3c0,1.1-0.2,2.2-0.5,3.3c-0.4,1.1-0.8,1.9-1.4,2.5l-1.3-0.6c0.5-0.6,1-1.3,1.3-2.2s0.5-1.9,0.5-2.9
		s-0.1-1.8-0.4-2.4s-0.6-1-1-1.3s-0.9-0.4-1.4-0.4c-0.6,0-1.1,0.2-1.4,0.5c-0.4,0.4-0.6,0.8-0.8,1.4s-0.4,1.2-0.5,1.9
		c-0.1,0.7-0.3,1.4-0.5,2c-0.2,0.7-0.4,1.3-0.7,1.9s-0.7,1-1.2,1.4s-1.2,0.5-2,0.5s-1.5-0.2-2.1-0.6c-0.6-0.4-1.2-1-1.6-1.8
		c-0.4-0.8-0.6-1.9-0.6-3.2c0-0.9,0.1-1.7,0.3-2.6c0.2-0.9,0.6-1.6,1-2.2L7,122c-0.4,0.7-0.7,1.4-0.9,2.1c-0.2,0.7-0.3,1.5-0.3,2.1
		c0,0.9,0.2,1.7,0.4,2.3c0.3,0.6,0.6,1,1,1.3s0.9,0.4,1.4,0.4c0.6,0,1.1-0.2,1.4-0.5c0.4-0.4,0.6-0.8,0.8-1.4
		c0.2-0.6,0.4-1.2,0.5-1.9c0.2-0.7,0.3-1.4,0.5-2s0.4-1.3,0.7-1.9s0.7-1,1.2-1.4s1.1-0.5,1.9-0.5c0.7,0,1.4,0.2,2.1,0.6
		c0.6,0.4,1.2,1,1.6,1.9S20,125,20.1,126.3z"/>
	<path class="st0" d="M21.4,114.6l-1-0.2l1.7-10.9l1,0.2L21.4,114.6z"/>
	<path class="st0" d="M23,104.2l-1-0.3l2.8-10.6l1,0.3L23,104.2z"/>
	<path class="st0" d="M25.6,94l-1-0.4l3.8-10.3l1,0.4L25.6,94z"/>
	<path class="st0" d="M29.2,84.1l-0.9-0.5l4.9-9.9l0.9,0.5L29.2,84.1z"/>
	<path class="st0" d="M33.9,74.7L33,74.1l5.8-9.3l0.9,0.6L33.9,74.7z"/>
</g>
<g>
	<path class="st1" d="M113.1,112.1l13.1-22.4c0.5-0.9,1.9-0.9,2.4,0l18.7,32.7c0.5,0.9-0.1,2.1-1.2,2.1h-38.6
		c-0.8,0-1.5,0.4-1.9,1.1l-11.6,22.5c-0.4,0.7,0.1,1.5,0.9,1.5h53.5"/>
	<path class="st1" d="M164.3,150.5l-8.4-13.2c-0.2-0.4-0.7-0.6-1.1-0.6H86.9c-0.9,0-1.5-1-1.1-1.9l40.2-67.9"/>
	<line class="st1" x1="115.8" y1="49.7" x2="142.4" y2="93.9"/>
</g>
<g>
	<path class="st0" d="M83.3,182.1l6.9-15.5h3.5l6.9,15.5h-3.8l-5.7-13.7h1.4l-5.7,13.7H83.3z M86.7,178.7l1-2.7h8l1,2.7H86.7z"/>
	<path class="st0" d="M102.2,182.1v-15.5h6.7c1.4,0,2.6,0.2,3.6,0.7c1,0.4,1.8,1.1,2.3,1.9c0.5,0.8,0.8,1.8,0.8,3
		c0,1.1-0.3,2.1-0.8,3c-0.5,0.8-1.3,1.5-2.3,1.9c-1,0.4-2.2,0.7-3.6,0.7h-4.7l1.6-1.6v5.9H102.2z M105.8,176.6l-1.6-1.7h4.5
		c1.1,0,1.9-0.2,2.5-0.7c0.5-0.5,0.8-1.1,0.8-2c0-0.9-0.3-1.5-0.8-2c-0.5-0.5-1.4-0.7-2.5-0.7h-4.5l1.6-1.7V176.6z M112.1,182.1
		l-3.9-5.6h3.8l3.9,5.6H112.1z"/>
	<path class="st0" d="M121.5,182.1v-12.6h-5v-2.9H130v2.9h-5v12.6H121.5z"/>
	<path class="st0" d="M131.9,182.1v-15.5h3.6v15.5H131.9z"/>
	<path class="st0" d="M142.8,182.1h-3.6v-15.5h11.7v2.9h-8.1V182.1z M142.5,173.5h7.4v2.9h-7.4V173.5z"/>
	<path class="st0" d="M157.2,182.1v-6.3l0.8,2.2l-6.8-11.3h3.8l5.2,8.7H158l5.2-8.7h3.5l-6.8,11.3l0.8-2.2v6.3H157.2z"/>
</g>
<g>
	<path class="st0" d="M100,204v-12.4h-4.9v-2.9h13.3v2.9h-4.9V204H100z"/>
	<path class="st0" d="M113.8,201.2h8.3v2.8h-11.8v-15.3h11.5v2.8h-8V201.2z M113.5,194.9h7.4v2.7h-7.4V194.9z"/>
	<path class="st0" d="M132.2,204.3c-1.2,0-2.3-0.2-3.3-0.6c-1-0.4-1.9-0.9-2.6-1.6c-0.7-0.7-1.3-1.5-1.7-2.5c-0.4-1-0.6-2-0.6-3.2
		c0-1.1,0.2-2.2,0.6-3.2c0.4-1,1-1.8,1.7-2.5c0.7-0.7,1.6-1.3,2.6-1.6c1-0.4,2.1-0.6,3.3-0.6c1.3,0,2.5,0.2,3.6,0.7s2,1.1,2.7,2
		l-2.3,2.1c-0.5-0.6-1.1-1-1.7-1.3c-0.6-0.3-1.3-0.4-2.1-0.4c-0.7,0-1.4,0.1-2,0.3c-0.6,0.2-1.1,0.6-1.5,1c-0.4,0.4-0.8,1-1,1.5
		c-0.2,0.6-0.4,1.3-0.4,2c0,0.7,0.1,1.4,0.4,2c0.2,0.6,0.6,1.1,1,1.5c0.4,0.4,1,0.8,1.5,1c0.6,0.2,1.3,0.3,2,0.3
		c0.8,0,1.5-0.1,2.1-0.4c0.6-0.3,1.2-0.8,1.7-1.4l2.3,2.1c-0.7,0.9-1.6,1.6-2.7,2C134.8,204,133.6,204.3,132.2,204.3z"/>
	<path class="st0" d="M144.5,204h-3.5v-15.3h3.5V204z M151.7,197.8h-7.5v-3h7.5V197.8z M151.4,188.7h3.5V204h-3.5V188.7z"/>
</g>
</svg>
